<svg version="1.0" xmlns="http://www.w3.org/2000/svg" width="933.333" height="933.333" viewBox="0 0 700 700"><path d="M262.5 3.1C178 4.7 142.2 11.4 106.8 32.3 65.2 56.9 31 97.8 17 139.9c-6.8 20.4-10.5 42.9-13.2 81.6-1.8 25.4-1.8 232.6 0 258 2.7 38.7 6.3 60.9 13.3 81.8 18.4 55.6 72.5 108 127.9 124 21.4 6.2 47.9 9.8 85.5 11.7 29 1.5 209.9 1.5 238.5.1 47.8-2.5 76.3-7.2 100.1-16.6 37.2-14.7 73.8-46 96.3-82.5 19.5-31.4 26.6-58.8 30.8-118.5 1.8-25.4 1.8-232.6 0-258-4.4-62.1-12.5-91.4-34-123.6-14-20.8-29.9-37.7-49.4-52.5C578.7 19.7 548.2 9.7 489.5 5c-31.2-2.5-146.3-3.5-227-1.9zM251 105.9c20.6.6 85.1 1.1 143.3 1.1H500v7.6c0 7.5 0 7.5-9.4 26.2-5.2 10.3-15.4 29.3-22.6 42.2-51.1 91.2-73.1 137.1-86.3 180.2C370.3 400.1 364 436 362 475.5c-1.1 20.8-.9 25.2 1.7 62.3.8 12.3 1.2 24.7.9 27.6-1 7.8-5.5 16.3-11.4 21.9-6.1 5.7-11.9 8.3-21.2 9.8-20.9 3.2-37.3-9.2-42-31.6-2.2-10.4.3-43.5 5.1-68.3 10.3-53.2 25.3-92.9 57.2-151.2 19.8-36.2 25.4-45.2 76.2-122.5 17.7-27 32.7-50 33.4-51.3l1.2-2.2H358.3c-111.4.1-114.9.2-124 4.8-8 4.1-14.5 15.2-16.8 28.4l-.6 3.8h-13.6l-.7-41.8c-.4-22.9-1-46-1.5-51.2-.5-5.2-.7-9.8-.5-10.1.2-.3 3.1-.2 6.6.2 3.5.5 23.2 1.3 43.8 1.8z"/></svg>