<svg width="72" height="53" fill="none" xmlns="http://www.w3.org/2000/svg"><path d="M71.669 27.13.48 28.009v-3.103l71.189.88v1.344Z" fill="#B3B5B6"/><path d="M71.667 27.131a27.759 27.759 0 0 1-3.665-1.272C57.464 21.599 47.36 12.253 47.016.187h2.582c0 10.132 7.397 18.23 16.043 22.997 1.034.562 4.547 2.372 6.015 2.589l.01 1.358Z" fill="#B3B5B6"/><path d="M71.667 25.783a28.783 28.783 0 0 0-3.665 1.272C57.464 31.316 47.36 40.651 47.016 52.727h2.582c0-10.132 7.397-18.23 16.043-22.993 1.034-.566 4.547-2.375 6.015-2.593l.01-1.358Z" fill="#B3B5B6"/></svg>