<svg width="1003" height="879" fill="none" xmlns="http://www.w3.org/2000/svg"><path d="M777.466 819.608c-.403 0-.604.101-.705.101-10.57-7.953-23.153-9.463-35.535-11.879-7.851-1.51-15.603.101-23.354.403-11.173.403-21.844 2.819-32.615 5.134-11.174 2.416-22.549 4.53-33.622 7.248-13.589 3.221-27.179 2.919-41.071 1.308-16.307-1.912-32.212-5.134-48.218-8.455-11.778-2.416-22.851-6.846-33.722-11.979-12.583-5.94-25.066-12.181-35.736-21.14-7.449-6.241-14.697-13.086-20.737-20.737-9.664-12.18-13.59-26.676-12.382-42.178 1.51-20.234 7.852-38.856 21.24-54.459 7.55-8.859 17.315-14.496 28.488-17.717 2.316-.705 4.43-1.913 7.349-3.222-1.711-1.006-2.718-1.711-3.725-2.214-12.079-6.04-24.864-10.067-38.051-12.885-12.684-2.819-25.569-4.933-38.454-6.745-12.885-1.812-25.971-2.919-38.957-4.127-7.751-.705-15.603-1.208-23.454-1.611-7.047-.302-13.59 1.51-19.529 5.336-11.275 7.247-22.75 14.294-33.924 21.642-12.784 8.456-26.777 13.993-41.776 17.013-9.16 1.812-17.616 5.436-25.166 10.871-6.442 4.631-13.187 8.96-19.529 13.59-7.851 5.738-15.401 11.979-23.354 17.616-9.06 6.443-18.522 12.382-27.884 18.523-.805.503-1.812.805-2.718 1.107-.201-.201-.302-.503-.503-.705.805-.704 1.51-1.61 2.416-2.214 10.972-7.45 22.146-14.597 32.917-22.247 7.651-5.436 14.898-11.476 22.247-17.314 13.791-11.073 28.186-20.435 46.205-23.153 13.489-2.114 25.166-8.859 36.642-16.006 11.475-7.147 22.951-14.294 34.427-21.542 6.644-4.127 13.891-5.536 21.542-5.033a800.717 800.717 0 0 1 31.307 2.718c12.482 1.308 24.864 2.919 37.245 4.228 16.006 1.61 31.508 5.335 46.708 10.066 8.054 2.517 15.805 6.141 23.556 9.463 1.309.604 3.02 2.214 3.02 3.321-.101 1.208-1.812 2.517-3.121 3.322a174.415 174.415 0 0 1-12.281 6.141c-18.623 8.657-29.092 24.059-35.132 42.983-3.12 9.966-5.435 20.033-4.932 30.703.503 9.764 3.221 18.925 7.952 27.381 7.55 13.589 18.724 23.857 31.71 32.011 22.347 14.093 46.305 24.361 72.478 29.092 9.16 1.711 18.22 3.825 27.38 5.134 9.362 1.308 18.825 2.013 28.388 2.516 9.06.403 17.918-2.114 26.676-3.926 16.811-3.523 33.521-7.046 50.332-10.368 4.328-.805 8.959-.201 13.388-1.007 12.885-2.315 25.166.302 37.447 3.725.302.101.705.101 1.712.201-3.121-2.114-5.537-4.026-8.255-5.436-14.194-7.65-27.28-17.012-40.668-25.87-8.557-5.637-17.717-10.167-26.374-15.704-15.402-9.966-29.797-21.139-42.178-34.729-11.074-12.18-22.65-23.958-34.528-35.333-16.107-15.402-34.126-28.488-53.554-39.461-5.738-3.221-11.677-6.14-17.415-9.16-1.308-.705-2.617-1.611-3.825-2.416l.302-.906c1.107.302 2.315.403 3.221.906 9.463 5.033 19.127 9.865 28.388 15.301 21.944 12.986 41.171 29.495 58.989 47.514 7.147 7.247 13.992 14.697 20.636 22.347 12.885 14.596 28.287 25.871 44.997 35.534 14.294 8.356 28.186 17.315 41.776 26.677 7.147 4.932 14.898 9.16 22.75 13.187-1.913-2.215-3.825-4.43-5.537-6.745-7.852-10.469-12.683-22.549-17.717-34.528-7.147-16.811-13.69-33.924-23.656-49.325-4.832-7.55-10.469-14.496-15.703-21.744-6.946-9.663-13.892-19.327-20.737-28.991-9.161-12.684-17.918-25.669-27.482-37.95-9.261-11.778-20.032-22.046-33.923-28.488-16.811-7.852-33.723-8.255-50.03.503-14.093 7.55-23.355 19.629-29.294 34.326-1.107 2.718-1.912 5.537-3.221 8.054-1.51 2.818-3.523 3.321-6.141 1.61-17.012-11.476-36.339-16.811-56.07-21.039-12.583-2.718-25.266-4.932-37.95-7.046-8.959-1.51-18.12-2.315-27.179-3.523-3.121-.403-6.241-1.108-9.362-1.812-.705-.202-1.309-1.108-2.013-1.611.604-.503 1.107-1.107 1.812-1.409 25.367-8.154 50.734-16.308 76.102-24.361 9.059-2.919 18.119-6.342 27.28-8.758 23.757-6.241 46.909-14.596 69.357-24.361 17.113-7.449 35.032-12.381 52.648-18.32 1.006-.302 2.214-.302 3.322-.504.1.403.302.705.402 1.108-1.409.704-2.718 1.51-4.228 2.013-9.361 3.12-18.824 5.838-28.085 9.16-10.167 3.624-20.032 7.953-30.098 11.778-14.899 5.637-29.898 11.375-44.997 16.408-15.402 5.134-31.005 9.463-46.507 14.295-22.851 7.147-45.702 14.495-68.553 21.844-1.208.402-2.416.704-3.623 1.51 4.328.704 8.556 1.51 12.885 2.114 27.179 3.623 54.459 7.147 80.934 14.797 11.979 3.524 23.354 8.355 33.722 15.503 2.919 2.013 4.228 1.51 5.335-1.913 3.725-11.878 9.563-22.448 18.12-31.508 9.462-9.865 21.039-15.301 34.528-16.509 20.032-1.913 36.943 5.134 51.842 18.321 15.603 13.791 27.884 30.199 39.057 47.614 9.161 14.395 19.127 28.086 29.797 41.373 12.382 15.503 21.341 33.119 28.891 51.44 5.436 13.086 10.972 26.072 17.012 38.856 4.731 10.268 12.18 18.623 21.441 25.267 3.826 2.818 7.852 5.738 10.772 10.066Z" fill="#5A645A"/><path d="M143.18 366.015c3.423 8.557 6.745 17.314 10.268 25.971 4.631 11.476 10.771 22.147 18.22 32.012 4.429 5.838 8.355 12.079 11.577 18.522 6.845 13.489 14.898 25.871 25.87 36.44 9.865 9.463 18.422 20.435 28.69 29.495 18.32 16.207 31.91 35.535 42.983 56.976 2.316 4.53 4.429 9.261 4.127 14.596 0 .906-1.006 1.812-1.509 2.718-.403-.805-1.007-1.61-1.208-2.516-1.108-4.128-1.51-8.557-3.322-12.281-10.167-20.939-23.455-39.662-40.669-55.668-10.267-9.563-19.327-20.233-29.394-29.998-12.18-11.777-21.642-25.367-28.89-40.668-2.718-5.738-6.443-11.073-10.369-16.106-10.066-12.785-17.113-26.978-21.743-42.38-2.013-6.644-5.537-12.482-8.758-18.522a49.85 49.85 0 0 0-5.839-8.859c.604 3.826 1.51 7.651 1.712 11.476.906 12.281 1.61 24.562 2.214 36.944.403 8.657 1.812 17.012 5.436 24.965.403.805.705 1.812 1.007 2.617-.302.201-.503.302-.805.503-.806-1.107-1.812-2.013-2.416-3.221-3.725-6.443-5.034-13.489-5.336-20.737-.503-10.268-.302-20.535-1.208-30.703-.805-9.462-2.617-18.723-4.026-28.185-.403-2.517-.705-5.034-1.107-7.55.201 0 .503-.101.704-.101.202.302.504.705.604 1.007 4.228 12.18 12.181 21.24 22.851 28.186 7.449 4.731 14.697 9.865 22.247 14.495 11.174 6.946 23.656 10.067 36.44 12.08 19.227 3.02 35.233 12.18 50.03 24.461 18.925 15.704 38.756 30.3 61.305 40.568 16.609 7.55 27.179 20.435 31.206 38.051 4.026 17.818 2.919 35.333-6.342 51.54-6.04 10.57-15.301 17.918-26.575 22.952-7.651 3.422-15.1 7.248-22.549 11.173-13.892 7.349-22.851 19.328-29.193 33.119-4.026 8.657-6.845 17.818-10.066 26.877-1.108 3.322-.705 3.826 2.818 4.128 6.946.503 13.59-1.007 19.227-4.832 9.563-6.242 19.932-10.671 29.998-15.905 7.449-3.926 14.697-8.255 21.442-13.187 16.609-12.181 34.829-20.536 54.962-24.864 12.583-2.718 24.965-5.94 37.548-8.859 13.59-3.12 24.763-10.167 34.226-20.133 13.288-14.093 26.676-28.085 39.46-42.782 12.483-14.294 24.864-28.891 34.125-45.601 8.658-15.603 16.006-31.81 19.831-49.325 2.014-9.06.202-16.811-6.241-23.455-6.845-7.047-12.583-14.898-16.71-23.958-1.913-4.127-4.933-7.651-6.845-11.778-8.053-16.509-12.583-34.125-15.402-52.245-1.913-12.18-2.617-24.461-2.718-36.843 0-4.328-.402-8.556-.402-12.885-.302-21.039 3.422-41.373 9.462-61.405 3.624-11.878 8.154-23.455 13.388-34.729 5.637-12.281 13.691-23.052 21.442-34.025 14.697-20.636 33.924-35.735 55.365-48.721 14.697-8.96 30.3-15.1 46.608-20.234 4.026-1.208 8.053-2.516 12.079-3.624 1.208-.302 2.618-.302 3.926-.402.101.302.202.604.302.805-1.208.503-2.315 1.007-3.523 1.41-14.496 4.831-29.293 8.657-42.782 15.804-26.576 14.093-51.037 30.904-69.66 55.365-15.2 19.932-26.475 41.474-33.722 65.331-3.322 10.973-6.544 22.046-8.154 33.421-1.913 13.69-3.02 27.38-2.114 41.272.402 6.04.503 12.08.704 18.12.806 19.226 3.725 38.151 10.469 56.271 2.618 6.946 4.631 14.294 8.557 20.334 6.241 9.462 10.469 20.435 19.025 28.287 10.268 9.261 12.584 20.334 8.356 33.118-2.517 7.651-5.235 15.201-8.356 22.549-11.979 28.287-30.299 52.245-50.936 74.592-10.167 11.073-20.233 22.146-30.501 33.119-7.65 8.154-15.502 16.408-26.273 20.233-8.557 3.02-17.516 5.033-26.374 7.248-20.234 5.033-40.971 8.758-59.392 19.328-8.557 4.932-16.912 10.167-24.965 15.905-8.355 6.039-17.717 9.865-26.575 14.596-5.537 2.919-11.275 5.738-16.509 9.16-6.644 4.228-13.892 6.04-21.542 6.342-5.94.201-7.852-2.214-6.04-7.751 4.832-15.2 11.073-29.797 19.831-43.084 6.14-9.261 15.099-15.301 24.662-20.435 7.349-3.926 15.1-7.047 22.348-10.973 17.918-9.563 27.683-24.662 29.696-44.795 1.006-10.268.402-20.435-3.02-30.3-4.832-13.59-14.194-23.153-26.777-29.998-11.274-6.14-22.75-12.08-33.42-19.227-12.281-8.154-23.958-17.415-35.635-26.475-13.892-10.871-29.394-17.817-46.809-20.636-19.328-3.12-36.139-11.777-51.44-23.656-4.328-3.624-8.959-6.845-13.187-9.865Z" fill="#5A645A"/><path d="M908.933 263.74c-.805.504-1.51.906-2.315 1.41-1.108.704-2.215 1.61-3.423 2.315-11.878 6.744-22.75 14.999-33.521 23.253-7.953 6.141-16.509 11.577-24.361 17.717-6.543 5.134-12.684 10.771-18.824 16.408-2.416 2.215-4.631 4.732-6.442 7.45-10.671 15.905-19.429 32.816-22.851 51.741-2.114 11.677-2.014 23.656 5.436 34.226 3.825 5.436 3.221 9.966-1.712 14.495-3.02 2.819-6.644 5.134-10.368 7.047-9.261 4.631-18.623 8.959-28.085 13.086-8.154 3.524-16.509 6.342-24.663 9.765A440.035 440.035 0 0 0 691.196 485c-17.515 9.664-34.528 20.334-53.452 26.978-9.564 3.423-19.328 6.141-29.092 8.557-25.871 6.442-50.634 15.804-74.492 27.783-14.596 7.349-30.3 12.18-46.003 16.811-3.121.906-6.342 1.611-10.369 2.617.805-1.912 1.107-3.322 1.812-4.429 2.819-4.127 5.537-8.456 8.758-12.281 5.637-6.745 11.274-13.388 17.314-19.831 12.18-12.784 21.542-27.381 28.891-43.386 7.65-16.61 14.999-33.219 22.75-49.829 4.731-10.066 12.18-17.113 22.851-20.837 4.127-1.41 8.254-2.014 12.381-1.007a365.732 365.732 0 0 1 20.637 5.436c10.267 3.02 20.736 3.221 31.205 1.51 7.953-1.309 16.006-2.718 23.858-4.631 5.939-1.409 11.375-4.429 16.307-8.154 3.02-2.214 6.141-4.328 9.564-5.838 16.005-7.047 29.091-17.818 40.769-30.501 11.878-12.885 23.354-25.972 34.93-39.159 2.013-2.214 3.423-5.234 4.429-8.053 5.235-13.992 10.469-27.985 15.301-42.178 5.537-16.61 9.563-33.521 10.369-51.037.402-9.966.1-20.133-.504-30.099-.503-9.462-1.409-18.924-2.818-28.286-2.215-15.301-5.637-30.502-9.966-45.4-4.127-14.093-9.966-27.481-15.905-40.769-5.939-13.086-9.462-26.776-11.476-40.97-1.006-6.946-1.006-13.791-.201-20.737.201-1.41-.705-3.02-1.007-4.53-.201 0-.503.1-.704.1-4.228 9.463-8.154 18.926-12.583 28.287-4.43 9.463-9.161 18.724-13.892 27.985-4.731 9.16-7.651 19.126-12.583 28.186-.403-.101-.705-.302-1.107-.403.201-.704.402-1.51.604-2.214 8.858-23.958 21.441-46.104 31.81-69.358 2.013-4.53 3.623-9.261 5.737-14.495-3.926 3.623-7.247 6.744-10.871 9.764-7.651 6.241-16.409 10.066-26.072 12.08-5.436 1.107-10.57 3.322-15.805 5.133-1.409.504-2.818 1.007-4.127 1.51-.201-.302-.302-.604-.503-.805.704-.604 1.308-1.208 2.013-1.812 5.637-4.127 12.281-5.033 18.824-6.241 17.818-3.221 30.602-13.187 39.461-28.387 1.912-3.322 3.724-6.745 5.637-10.067.403-.805 1.208-1.308 1.812-2.013.201.1.503.302.704.403-.805 3.422-1.61 6.845-2.315 10.267-2.516 12.785-3.422 25.57-2.416 38.655 1.108 15 5.738 28.69 11.979 42.078 3.725 8.053 7.852 15.905 10.771 24.26 3.826 10.872 6.443 22.247 9.865 33.219 4.933 16.107 6.946 32.716 8.758 49.225 1.007 8.859.101 17.918-.201 26.777-.201 5.536-.503 11.174-1.107 16.71-1.51 15.301-5.738 30.099-10.167 44.695-1.913 6.443-4.128 12.885-6.242 19.227-1.006 2.819-2.315 5.536-3.422 8.355-2.014 4.731-3.926 9.563-6.04 14.294-1.007 2.215-1.913 4.631-3.423 6.544-14.294 17.012-28.588 34.024-44.695 49.426-9.059 8.657-19.025 15.905-30.4 21.441-4.832 2.315-9.261 5.436-13.892 8.255-7.248 4.53-15.2 7.247-23.455 8.657a349.582 349.582 0 0 1-28.689 3.624c-8.355.604-16.408-1.712-24.361-4.53-6.342-2.215-12.784-4.731-19.428-3.725-12.08 1.812-21.643 8.053-27.079 19.126-5.939 12.181-11.375 24.663-16.71 37.145-8.959 20.838-19.831 40.568-35.031 57.278-9.462 10.369-18.019 21.341-26.273 33.119.906-.201 1.51-.302 2.013-.503 15.301-4.832 30.803-9.06 45.4-16.006 7.247-3.423 14.395-7.248 21.743-10.469 17.918-7.651 36.239-13.992 55.164-18.522 24.965-6.04 48.218-15.805 70.364-28.891 20.737-12.18 41.977-23.455 64.727-31.508 15.704-5.637 30.401-13.388 45.702-19.629 4.329-1.812 8.456-4.43 12.08-7.349 4.228-3.322 4.832-7.55 1.812-11.979-8.255-11.979-8.054-25.166-5.336-38.454 3.826-19.126 12.483-36.138 23.959-51.842 1.207-1.61 2.415-3.221 3.925-4.53 11.778-10.469 23.254-21.441 36.843-29.897 5.839-3.624 11.074-8.053 16.711-11.979 6.744-4.731 13.489-9.362 20.233-13.992 2.215-1.51 4.53-3.121 6.845-4.53 1.208-.705 2.416-1.309 3.624-2.013.101.503.403.906.705 1.308ZM739.112 471.713c-.704.503-1.409 1.006-2.214 1.308-4.228 1.913-8.456 3.926-12.784 5.637-7.953 3.121-15.1 7.55-22.348 12.08-8.053 5.134-16.811 9.161-25.367 13.489-10.973 5.637-21.945 11.073-33.723 17.012 2.718 2.114 4.53 3.926 6.644 5.235 18.623 11.979 38.252 21.844 60.298 25.77 5.536 1.007 11.274 1.309 16.911 1.309 7.752 0 10.771-6.242 13.59-11.879 3.624-7.449 7.953-14.093 13.69-20.032 13.59-14.093 30.401-21.945 49.326-25.367 8.858-1.611 17.717 0 26.273 2.114 9.664 2.315 19.227 5.234 27.784 10.67 5.335 3.423 10.469 7.348 15.099 11.677 11.979 10.872 25.972 18.12 40.769 24.26 20.737 8.657 35.132 23.254 42.481 44.896 3.623 10.57 8.254 20.838 13.086 31.005 5.134 10.872 14.395 18.623 23.153 26.475 2.617 2.416 5.637 4.429 8.35 6.643.71.604 1.31 1.41 1.92 2.215-.1.201-.2.503-.3.705-.91-.202-1.917-.202-2.823-.504-15.905-5.536-31.81-11.274-48.52-14.294-6.342-1.107-12.885-.906-19.328-1.107-10.57-.302-21.24-.403-31.81-.705-5.637-.201-11.274-.805-16.911-1.208-9.866-.805-19.63-1.409-29.495-2.416-10.972-1.107-21.441.504-31.709 4.429-4.832 1.913-9.563 4.329-14.597 5.436-11.576 2.718-23.354 3.725-35.232 1.208-18.522-3.825-34.427-12.18-46.608-26.776-6.945-8.355-12.784-17.617-14.495-28.79-.906-5.436 0-10.771 1.711-15.905 1.51-4.631 3.121-9.261 4.731-14.093-5.637-.403-10.871-1.41-15.401-4.43.1-.302.201-.604.201-1.006.906.201 1.711.402 2.617.604 4.429 1.107 8.758 2.214 13.187 3.221 1.812.403 1.712 1.208 1.208 2.517-1.208 3.422-2.416 6.845-3.724 10.267-4.933 13.288-2.618 25.77 4.932 37.347 13.691 20.938 33.119 32.716 57.782 36.038 14.898 2.013 28.789-1.309 42.279-7.45 10.67-4.831 22.045-6.039 33.722-4.831 12.382 1.208 24.763 2.214 37.145 2.919 12.08.705 24.26 1.107 36.441 1.61 2.416.101 4.932-.201 7.348-.402 9.966-.805 19.428 1.912 28.79 4.63 8.456 2.416 16.912 5.235 25.367 7.953.705.201 1.41.402 2.316.201-1.208-.705-2.316-1.409-3.524-2.114-25.468-14.495-51.036-28.89-76.504-43.487-15.301-8.858-31.71-15.301-48.118-21.844-19.73-7.852-39.36-15.603-60.096-20.233-12.483-2.718-25.066-4.732-37.749-6.644-4.732-.705-9.664-.201-14.496-.503-1.409-.101-2.718-.906-4.027-1.41 1.309-.402 2.718-1.208 4.027-1.208 14.395.101 28.488 2.517 42.581 5.134 25.468 4.731 49.325 14.194 73.384 23.455 29.495 11.375 56.674 26.978 84.055 42.48 11.073 6.241 21.944 12.785 32.917 19.126.604.302 1.208.604 1.913.906.201-.201.402-.402.503-.704l-3.322-2.718c-11.879-10.771-19.529-24.26-24.965-39.159-3.02-8.355-5.838-16.811-9.865-24.562-6.644-12.985-17.415-22.146-30.501-28.588-6.342-3.121-12.785-5.94-19.227-8.758-11.576-5.033-21.643-12.281-30.602-20.938-7.751-7.449-16.811-12.382-26.877-15.201-8.758-2.416-17.617-4.932-26.676-5.737-13.993-1.41-26.878 3.422-39.259 9.865-14.496 7.549-25.066 18.623-32.012 33.42-1.107 2.416-2.617 4.631-3.825 6.946-2.416 5.033-6.744 7.047-12.08 7.047-16.106.1-31.608-3.725-46.104-10.268-10.771-4.832-21.139-10.872-31.508-16.61-2.617-1.409-4.832-3.523-7.248-5.436-1.509-1.208-1.711-2.617.302-3.624 7.752-4.228 15.402-8.657 23.254-12.784 9.966-5.134 20.233-9.764 30.199-14.999 6.845-3.624 13.187-8.254 20.133-11.677 6.946-3.523 14.395-6.241 21.643-9.261.402-.201 1.007-.101 1.51-.101.201 0 .302.202.402.504Zm228.911-135.696c.302-1.308.403-2.718.906-4.026 4.328-12.382 4.127-25.066 3.322-37.951-1.007-16.005-2.114-31.91 1.308-47.815.101-.302 0-.504-.1-1.51-.806 1.711-1.309 2.919-1.913 4.127-10.972 21.844-23.052 42.984-37.95 62.412-8.758 11.375-18.522 21.945-28.79 32.011-11.778 11.576-23.254 23.656-35.333 34.93-8.96 8.356-18.623 16.006-27.985 23.858-9.261 7.751-18.522 15.502-27.783 23.153-2.92 2.416-3.826 2.516-6.745.906.805-.302 1.711-.403 2.315-.906 11.275-9.261 22.65-18.523 33.924-27.884 7.953-6.543 16.207-12.885 23.757-19.932 11.878-11.174 23.153-23.153 35.031-34.427 23.556-22.549 42.48-48.42 58.285-76.807 8.456-15.099 14.193-31.206 20.233-47.211.101-.302.101-.705.101-.806-3.121 4.228-6.241 8.657-9.462 12.885-7.248 9.261-16.811 15.201-27.683 19.429-6.946 2.718-13.59 6.14-20.435 9.16-.705.302-1.409.604-2.517.403.604-.504 1.208-1.208 1.913-1.611 3.121-1.812 6.241-3.725 9.563-5.335 4.329-2.114 8.859-3.926 13.388-5.738 13.59-5.436 23.455-15.2 31.106-27.481 4.127-6.544 5.838-13.892 7.549-21.341.403-1.812 1.007-3.523 1.51-5.335.302.1.604.1.906.201l-.302 3.322c-1.409 14.999-2.717 29.998-8.959 44.091-1.107 2.416-1.711 5.033-2.013 7.65-.805 7.248-1.711 14.496-1.711 21.844 0 11.778.906 23.556 1.208 35.334.201 8.455-.403 16.81-2.92 24.964-.604 1.913-1.711 3.725-2.516 5.537-.403.201-.805 0-1.208-.101ZM146.1 442.621c.503 3.422.604 6.945 1.711 10.167 2.114 6.342 4.731 12.583 7.348 18.723 2.316 5.335 5.235 10.469 7.248 15.805 1.812 4.932 2.718 10.167 4.329 15.3 4.932 15.603 14.797 27.381 28.286 36.139 13.791 8.959 27.985 17.214 41.675 26.273 10.771 7.147 21.341 14.798 31.71 22.549 5.939 4.429 6.643 9.462 3.321 16.006-1.006 1.912-2.113 3.825-3.523 5.536-8.959 10.57-13.992 22.952-17.817 36.038-1.309 4.429-3.826 8.556-5.94 12.784-.503 1.108-1.509 1.913-2.516 3.121-.302-.906-.403-1.107-.403-1.208 5.335-7.751 6.845-17.012 9.966-25.669 3.423-9.262 7.65-17.919 13.791-25.67 2.315-2.919 4.027-6.241 5.536-9.663 1.51-3.423-.302-6.342-2.818-8.456-10.268-8.557-21.039-16.409-32.414-23.455-14.898-9.161-29.797-18.22-44.393-27.783-10.972-7.148-19.025-17.214-24.461-28.992-2.819-6.241-4.027-13.187-6.342-19.73-2.215-6.14-4.53-12.281-7.449-18.119-4.228-8.758-8.053-17.617-7.751-27.582 0-.504 0-.906.1-1.41 0-.201.202-.302.202-.503.1-.101.302-.101.604-.201Z" fill="#5A645A"/><path d="M576.64 391.181c.705-1.912 1.007-3.926 2.014-5.536 2.919-4.933 6.04-9.765 9.16-14.697 14.999-23.757 29.998-47.413 42.279-72.68 13.187-27.079 25.468-54.56 38.152-81.941 9.462-20.535 18.824-41.171 28.286-61.807 1.913-4.228 3.725-8.557 5.537-12.785.302-.704.805-1.409 1.711-1.912-.201.906-.402 1.812-.704 2.617-4.027 9.664-7.953 19.428-12.181 29.092-9.865 22.549-19.831 45.097-29.998 67.546-8.355 18.32-17.213 36.541-25.77 54.761-12.683 26.978-28.286 52.345-44.292 77.511-3.825 6.04-7.348 12.181-10.972 18.321-.504.806-1.208 1.409-1.812 2.215a9.274 9.274 0 0 0-1.41-.705Zm386.954-38.252c-1.41 3.02-2.416 6.241-4.228 8.959-6.644 10.167-13.288 20.334-20.435 30.098-2.819 3.826-6.745 7.047-10.67 9.765-14.295 10.066-28.69 19.931-43.185 29.495-7.55 4.932-15.905 8.355-24.865 10.368-9.16 2.114-17.918 1.309-26.575-1.913-3.724-1.409-7.65-2.315-11.576-3.322-5.335-1.308-10.369-.302-15.1 2.114-2.114 1.108-4.328 2.114-6.14 3.524-13.691 10.469-30.099 15.603-45.299 23.152-2.416 1.208-5.034 2.114-7.55 3.121-.604.201-1.208.201-1.812.302a12.643 12.643 0 0 1-.302-1.007c1.611-.704 3.121-1.409 4.731-2.114 13.691-6.543 27.381-12.985 40.87-19.83 4.328-2.114 8.254-5.134 12.281-7.752 7.046-4.63 14.596-5.435 22.549-2.919 3.926 1.208 7.851 2.315 11.777 3.725 8.456 2.919 16.711 2.818 25.267.1 7.751-2.416 15.2-5.335 21.844-9.865 15.603-10.67 31.105-21.542 46.306-32.816 4.832-3.624 8.858-8.456 12.281-13.489 5.939-8.657 11.174-17.818 16.71-26.676.805-1.208 1.51-2.416 2.315-3.725.202.403.504.604.806.705ZM30.537 822.125c.604-1.007 1.107-2.416 2.013-3.121 3.423-2.718 6.845-5.436 10.47-7.852 13.186-8.858 26.877-17.113 39.661-26.374 17.918-12.985 36.34-25.266 55.365-36.541a247.445 247.445 0 0 0 32.112-22.851c1.41-1.208 3.121-2.013 4.731-3.02.302.302.604.705.806 1.007-1.409 1.409-2.718 3.02-4.329 4.228-10.67 7.55-21.039 15.502-32.212 22.247-17.919 10.67-34.931 22.649-51.742 35.031-8.959 6.644-18.421 12.482-27.682 18.723-8.557 5.839-17.113 11.879-25.67 17.717-.906.604-1.912 1.007-2.818 1.51-.202-.201-.504-.402-.705-.704Zm-92.007 35.534c.704-.503 1.309-1.006 2.114-1.409 12.482-7.248 25.367-13.69 39.158-18.321 3.725-1.208 7.349-2.919 10.771-4.731 17.113-9.06 33.32-19.63 48.621-31.609 10.066-7.952 21.34-14.395 31.91-21.743 6.343-4.329 12.282-9.161 18.523-13.59 1.208-.906 2.92-1.208 4.43-1.812-.907 1.208-1.612 2.718-2.719 3.725-7.248 6.341-14.898 11.979-23.455 16.509-12.08 6.341-22.85 14.898-33.42 23.354-15.301 12.18-31.71 22.448-49.628 30.4-14.395 6.342-28.89 12.583-43.386 18.925-.805.302-1.61.604-2.416 1.007a2.317 2.317 0 0 1-.503-.705Zm160.257-97.946c1.309-1.007 2.618-2.013 4.027-2.919 21.542-14.093 42.984-27.985 64.425-42.179 4.027-2.617 7.852-5.738 11.576-8.858 9.563-7.953 20.133-14.194 31.206-19.831 8.657-4.429 16.509-10.066 23.556-16.912.604-.604 1.308-1.107 2.013-1.711.201.202.503.403.705.604-1.208 1.611-2.215 3.624-3.725 4.731-6.644 5.034-13.187 10.671-20.435 14.697-14.395 7.852-27.783 16.912-40.467 27.079-5.637 4.429-11.878 8.154-18.019 12.08-15.603 10.066-31.206 20.032-46.809 30.098-2.315 1.51-4.831 2.819-7.348 4.228-.302-.402-.503-.805-.705-1.107ZM-66 878.094c5.335-4.53 10.368-9.362 16.106-13.489 11.98-8.657 25.166-15.2 38.957-20.435 12.483-4.63 23.858-11.375 35.334-18.119 1.207-.705 2.415-1.41 3.724-2.114.201.201.302.402.503.604-.604.704-1.107 1.51-1.812 2.013-2.919 2.114-5.737 4.53-8.959 6.14-10.267 5.134-20.535 10.47-31.105 14.798-17.918 7.248-34.024 17.214-48.822 29.394-.906.705-1.812 1.409-2.819 2.114-.503-.302-.805-.604-1.107-.906ZM687.27 554.66c-1.107-.101-2.114-.101-3.221-.403-8.053-2.114-15.401-5.838-22.75-9.966-9.764-5.435-19.73-10.569-29.595-15.904-.604-.302-1.208-.806-1.812-1.208.1-.302.201-.604.402-.906 2.618.805 5.336 1.308 7.752 2.416 3.925 1.811 7.751 4.026 11.576 6.14 9.563 5.033 19.126 10.167 28.79 15.2 2.114 1.108 4.63 1.611 6.946 2.416.805.302 1.51.705 2.214 1.108-.1.302-.201.704-.302 1.107Zm26.475-435.474c-.101.705-.101 1.41-.302 2.014-1.208 2.818-2.315 5.738-3.725 8.456-.402.704-1.61 1.107-2.415 1.61 0-.805-.302-1.812 0-2.416 1.61-3.422 3.422-6.744 5.234-10.167.403.201.805.403 1.208.503Zm-25.267-66.337c-1.409 2.516-5.536 4.228-8.053 3.523.906-2.215 4.933-4.127 8.053-3.523Zm275.518 295.449c.705-2.416 1.41-4.932 2.114-7.348.403.1.906.201 1.309.302-.604 2.416-1.208 4.932-1.812 7.348-.604-.1-1.107-.201-1.611-.302ZM691.7 554.358c1.912.403 3.825.704 5.738 1.107.302.101.402.705.603 1.007-.402.201-.906.704-1.308.604-1.812-.403-3.523-1.007-5.335-1.611.201-.403.201-.704.302-1.107ZM146.1 437.084c-.101-.101-.101 0 0 0-.504-1.007-.906-1.913-1.208-2.919h-.101c.101 1.61-.705 3.422.604 4.932.302 0 .705-.1 1.007-.1-.101-.504-.101-1.108-.202-1.611 0-.101-.1-.201-.1-.302Zm773.201-176.666c-1.61 2.517-5.637 1.712-8.657 1.812.906-2.315 5.537-2.416 8.657-1.812Z" fill="#5A645A"/></svg>