<svg width="410" height="385" fill="none" xmlns="http://www.w3.org/2000/svg"><path d="M409.518 302.809s-20.641-12.579-30.259-20.455c-3.769-3.084-8.173-5.718-12.736-7.208-8.396-1.769-15.573-7.044-22.03-12.596-6.472-5.609-13.345-10.695-20.26-15.812l-.862-.638c-4.227-3.147-8.367-6.264-10.075-11.555-.33-1.04-.665-2.079-1-3.12-1.455-4.514-2.915-9.046-3.996-13.667-2.223-9.736-1.007-10.751 8.876-11.053 12.117-.389 22.338-4.696 27.503-16.657 3.806-8.742 5.727-17.852 3.788-27.441l-.498-2.511c-1.964-9.923-3.916-19.788-8.605-28.932-2.205-4.41-4.268-8.817-6.301-13.311-.478-1.09-.699-1.766-.97-2.598-.123-.376-.256-.785-.428-1.277-.187.055-.27.397-.353.74-.083.342-.166.685-.353.74 1.729 5.593 4.124 10.918 6.518 16.24 3.264 7.256 6.525 14.507 8.093 22.425 2.18 10.823 3.05 21.143-.723 31.718-3.623 10.148-10.49 16.388-21.023 18.286-2.51.449-5.092.418-7.664.387h-.002c-1.25-.015-2.499-.03-3.736.011-4.412.143-6.652 2.864-6.222 7.279.907 9.662 4.056 18.665 8.268 27.367.921 1.901 2.356 3.838 4.087 5.063a399.485 399.485 0 0 0 5.985 4.133c6.884 4.693 13.771 9.388 19.592 15.496 5.961 6.29 14.972 11.531 22.051 13.226 4.219 1.514 8.428 3.745 11.942 6.596 9.78 7.889 30.706 20.766 30.706 20.766l.687-1.642Zm-105.852-9.543c-.213.442-.432.881-.651 1.32-.655 1.318-1.311 2.636-1.823 4.004-3.083 8.178-5.482 16.595-5.824 25.439-.623 15.025-4.499 29.207-11.769 42.4-.372.657-.712 1.378-1.227 2.468-.176.373-.372.789-.597 1.26.449-.309.823-.56 1.141-.773.664-.446 1.088-.73 1.46-1.055 5.585-4.959 12.238-7.927 18.904-10.901 1.112-.496 2.225-.993 3.333-1.499 3.082-1.421 5.339-3.224 6.612-6.472 1.275-3.392 3.513-5.969 7.11-7.354 3.77-1.469 5.729-4.623 7.035-8.243 7.634-15.345 4.591-22.785.45-32.911v-.002c-.435-1.063-.883-2.157-1.331-3.293-1.276-3.223-2.464-6.56-.79-9.86.675-1.252 2.324-2.548 3.644-2.76 6.598-.453 10.192-.633 10.986-.56 3.659-.377 7.342-.745 10.963-.999l.079-.005.263-.019c2.992-.214 6.122-.438 8.318 2.532-3.947-.08-7.808-.155-11.613-.229-4.801-.094-9.514-.185-14.201-.283l-1.51.178c-4.962.624-6.505 2.58-5.652 7.573.292 1.779.928 3.534 1.651 5.176 5.2 12.064 7.458 19.081.108 36.224-1.193 3.708-3.526 6.971-7.24 8.555-3.614 1.608-5.369 4.433-7.319 7.571l-.023.038c-1.346 2.216-3.406 4.28-5.629 5.712-2.218 1.408-4.697 2.461-7.19 3.521l-.005.002c-.685.291-1.371.583-2.053.882-10.855 4.615-19.62 11.489-24.429 22.566-.093.18-.232.326-.365.465a3.016 3.016 0 0 0-.217.244c-.257-.089-.513-.179-.828-.24a496 496 0 0 0 1.538-4.08l.004-.009.004-.01c.51-1.365 1.02-2.729 1.538-4.08 3.7-9.402 5.08-18.748 1.109-28.42-1.205-2.938-2.173-5.99-3.141-9.043-.616-1.942-1.232-3.885-1.909-5.798-3.948-11.39-4.261-22.762.294-34.072.681-1.68 1.703-3.242 2.809-4.631-.182.624-.363 1.251-.543 1.88-.563 1.958-1.13 3.929-1.761 5.85-2.65 7.898-3.125 15.881-.852 23.957 1.397 4.943 3.024 9.775 4.795 14.608 3.32 9.063 6.21 18.12 3.364 27.963 4.644-7.157 8.378-14.726 9.887-22.925.878-4.871 1.45-9.789 2.021-14.706.571-4.918 1.143-9.836 2.022-14.707.96-5.133 2.6-10.117 4.24-15.098l.005-.016.011-.035a415.27 415.27 0 0 0 1.346-4.137c.282-.905.969-1.715 1.646-2.512.324-.382.647-.762.921-1.149.213.102.378.203.535.298a6.932 6.932 0 0 0 .27.16l.039.021a.057.057 0 0 1 .007.004l.03.015ZM66.984 233.989c-16.71 3.394-33.36 6.759-50.012 10.125l-.01-.045-.007-.04v-.001c-.045-.218-.08-.39-.204-.518.938-.544 1.905-1.058 2.872-1.573l.029-.016c2.114-1.126 4.232-2.254 6.072-3.679 11.31-8.818 21.828-18.533 30.85-29.872 6.434-8.164 13.743-15.401 23.534-19.713.624-.28 1.25-.556 1.879-.832 3.373-1.485 6.77-2.979 9.766-5.09 6.082-4.259 12.087-8.642 18.091-13.025l.003-.001c6.005-4.383 12.009-8.765 18.091-13.025 9.304-6.495 19.579-10.544 31.046-11.543 16.942-1.443 33.566 10.711 35.958 29.613.757 5.679 1.63 11.303 4.743 16.411 1.316 2.279 2.367 2.98 4.981 2.355.488-.117.975-.236 1.462-.354l.005-.001c6.511-1.578 12.988-3.148 19.933-2.606 5.295.41 10.644-.138 15.982-.685.919-.094 1.839-.188 2.757-.277 1.348-.155 2.999-1.594 3.673-2.845.352-.597-1.114-2.449-2.132-3.378-1.149-1.04-2.362-2.023-3.577-3.006l-.009-.009c-1.597-1.293-3.197-2.588-4.657-4.02-2.222-2.229-4.378-4.517-6.532-6.803l-.007-.007c-2.806-2.977-5.609-5.951-8.552-8.79-7.013-6.848-15.224-11.907-23.989-16.2-2.905-1.439-5.699-3.104-8.496-4.771-3.148-1.876-6.299-3.754-9.615-5.312-5.854-2.785-11.924-5.118-17.986-7.447h-.001c-1.689-.649-3.376-1.297-5.058-1.955-5.185-2.042-10.006-1.274-12.599 2.186-6.496 8.622-14.56 14.446-24.943 17.978-11.129 3.751-22.172 5.185-33.625 2.833-3.132-.68-6.274-1.446-9.405-2.209l-.002-.001-.055-.013c-1.618-.394-3.233-.788-4.84-1.168a5.222 5.222 0 0 0-.12.414c-.038.142-.076.285-.12.413 1.578.408 3.144.832 4.704 1.254l.01.002.004.001c2.697.729 5.376 1.453 8.067 2.086 16.787 3.967 32.527.188 47.204-7.698 5.075-2.741 9.43-7.41 13.125-11.973 3.114-3.855 6.531-4.584 10.377-3.103 9.86 3.764 19.66 7.698 29.196 12.116 3.643 1.712 7.117 3.772 10.59 5.831 2.496 1.48 4.992 2.959 7.549 4.309 8.59 4.52 16.074 10.429 22.771 17.359 5.539 5.712 11.194 11.369 16.848 17.025.856.897 1.813 1.684 2.925 2.599.576.474 1.194.982 1.861 1.557-.646.216-1.217.437-1.738.638-1.011.391-1.839.711-2.69.794-2.924.206-5.846.341-8.769.475-2.922.134-5.845.268-8.768.474-.963.075-1.93.143-2.897.212-4.127.292-8.271.585-12.271 1.369-7.665 1.505-9.997.215-11.472-7.535a27.61 27.61 0 0 1-.266-1.578c-.079-.531-.158-1.062-.266-1.579-.179-.966-.348-1.936-.518-2.908-.54-3.103-1.084-6.223-1.96-9.265-4.331-15.118-17.418-23.933-31.462-25.173-8.753-.742-17.117 1.67-25.066 5.233-12.212 5.485-23.049 13.22-33.492 21.476a499.355 499.355 0 0 0-3.263 2.584c-6.25 4.975-12.5 9.952-19.933 13.126-7.832 3.364-14.82 7.884-20.684 14.137-2.562 2.729-5.111 5.471-7.66 8.212v.001l-.005.005v.001c-5.854 6.296-11.706 12.591-17.708 18.716-7.95 8.117-16.856 14.846-28.343 17.419-1.732.414-3.331 1.295-5.135 2.288-.92.506-1.892 1.042-2.961 1.56.821.079 1.452.168 1.99.245.586.083 1.063.151 1.555.172 1.698.116 3.393.239 5.087.362h.01c4.47.324 8.934.647 13.415.85 8.156.391 15.394 3.147 21.888 8.041a337.708 337.708 0 0 0 14.614 10.353c9.142 6.102 18.372 12.09 28.804 15.861 10.638 3.847 21.75 5.666 32.856 7.484l.009.001c3.204.525 6.407 1.049 9.599 1.622.534.086 1.087-.143 1.643-.375.247-.103.494-.206.742-.282l-.073-1.031c-1.649-.291-3.3-.585-4.953-.88-4.503-.803-9.017-1.607-13.533-2.336-13.06-2-25.939-4.8-37.422-11.476-10.544-6.206-20.647-13.265-30.607-20.323-7.066-5.044-14.642-8.206-23.313-8.632-2.296-.111-4.56-.384-7.152-.697h-.004l-.005-.001-.01-.001a374.156 374.156 0 0 0-3.238-.38c4.08-.628 8.017-1.221 11.863-1.8l.003-.001.011-.001c5.695-.858 11.193-1.687 16.67-2.556 13.687-2.144 25.501-5.657 26.473-7.764Z" fill="#5F9282"/><path fill-rule="evenodd" clip-rule="evenodd" d="M172.479 39.361a599.547 599.547 0 0 0 3.651 3.659c.173-.084.318-.225.348-.31a2.656 2.656 0 0 1-.058-.346c-.026-.212-.05-.414-.16-.545l-.902-1.028c-7.765-8.847-15.534-17.698-27.59-21.244-10.356-3.025-18.639-9.116-25.201-17.676-.2-.325-.481-.56-.848-.868a13.524 13.524 0 0 1-.878-.786c.017.366.019.66.02.903v.004c.002.4.003.666.072.898 2.788 8.11 1.627 16-.768 24.13-3.531 11.809-4.574 23.908-.748 35.927.105.406.115.858.133 1.646.01.439.022.981.054 1.678-.343-.301-.61-.553-.833-.763-.422-.398-.682-.643-.98-.778-9.542-3.988-19.51-5.92-29.717-4.963-4.598.424-9.133 1.487-13.668 2.55-1.911.448-3.823.895-5.739 1.296-7.436 1.536-13.98 4.917-19.742 9.912-7.731 6.658-16.327 11.53-26.678 12.629-.38.04-.762.078-1.143.117h-.007c-2.06.208-4.127.416-6.136.849-1.12.2-2.228.63-3.517 1.129-.595.23-1.228.475-1.919.72.4.244.65.408.812.514l.003.002c.203.133.261.172.293.156a23 23 0 0 0 1.31-.109 17.883 17.883 0 0 1 1.5-.112c5.9-.154 11.823.18 15.448 5.61 3.568 5.315 6.992 10.771 9.696 16.504 5.326 11.15 12.94 20.268 22.231 28.147.275.239.648.351 1.033.467.13.039.262.079.391.124-1.065-1.76-2.365-3.123-3.81-4.344-7.59-6.569-13.07-14.657-18.17-23.285-1.296-2.174-2.42-4.472-3.548-6.776-3.167-6.472-6.365-13.005-13.47-17.066 4.502.169 8.666 1.44 12.772 2.694 4.35 1.33 8.636 2.638 13.189 2.593a4139.522 4139.522 0 0 0-15.467-4.656c-2.626-.787-5.289-1.585-8.01-2.403 8.437-1.38 15.273-5.187 21.325-10.465 6.92-5.981 14.872-9.688 23.695-12.18 13.939-3.973 27.722-4.741 41.553-.269 2.794.924 5.7 2.078 7.996 3.883 5.102 4.074 10.175 8.234 14.581 12.93 8.531 9.1 14.844 19.204 13.097 32.64-.446 3.488 1.349 6.46 4.534 8.191 2.047 1.143 4.269 2.059 6.464 2.774 5.305 1.772 10.66 3.48 16.001 5.184l.03.009c1.74.555 3.479 1.11 5.214 1.666.929.292 1.871.547 2.825.806.51.138 1.024.278 1.541.424.102-.156.197-.327.293-.497.095-.171.19-.341.292-.498a152.964 152.964 0 0 0-1.65-1.517l-.001-.001c-.778-.709-1.564-1.425-2.339-2.169-2.309-2.215-4.804-4.223-7.3-6.231-4.538-3.651-9.079-7.305-12.508-12.207-2.759-4.011-5.789-7.891-8.791-11.736l-1.176-1.507c-.535-.665-1.755-1.569-2.445-1.377-1.953.519-2.628-.435-3.411-1.905-4.389-8.332-10.425-15.511-17.914-20.99-6.298-4.634-7.648-10.952-8.737-17.609-1.581-9.687.545-18.925 2.699-28.284 1.101-4.78 2.208-9.592 2.833-14.511.171.268.338.514.495.747.384.568.711 1.05.907 1.561.676 1.8 1.374 3.59 2.071 5.379v.001l.002.006.001.002.001.002.001.002c1.585 4.066 3.166 8.124 4.484 12.274.362 1.16.75 2.324 1.138 3.491 1.558 4.682 3.135 9.42 3.189 14.118.112 13.603 4.538 25.687 10.342 37.53.377.778.971 1.487 1.556 2.185.239.284.476.566.696.851a4.9 4.9 0 0 1 .404-.267 4.96 4.96 0 0 0 .405-.267 430.961 430.961 0 0 0-1.917-3.893l-.002-.004v-.001c-1.281-2.58-2.558-5.153-3.744-7.8-3.87-8.583-6.391-17.464-6.069-26.938.054-1.946-.121-3.924-.7-5.707-2.86-9.143-5.721-18.286-8.898-27.346-.836-2.334-1.998-4.578-3.16-6.82a126.33 126.33 0 0 1-1.552-3.063c1.006-.273 1.433-.124 1.63.136 4.822 5.846 11.047 9.448 18.026 12.258 1.026.414 2.062.81 3.098 1.207h.001c5.039 1.928 10.095 3.864 14.081 7.833 1.366 1.357 2.766 2.658 4.159 3.954l.002.002.001.001.001.001.003.003.002.002.002.001.001.002.002.001a193.282 193.282 0 0 1 3.72 3.522 599.301 599.301 0 0 1 3.65 3.659l.021.021Zm-21.573 56.911c6.914 12.374 16.957 21.952 27.284 31.677a1823.461 1823.461 0 0 0-10.582-3.271 1847.475 1847.475 0 0 1-10.581-3.271c-5.39-1.73-7.241-4.818-7.425-10.49-.095-2.914-.503-5.832-.909-8.742a162.328 162.328 0 0 1-.583-4.478c-.049-.48.081-.96.212-1.446.072-.267.145-.537.19-.811.238.069.509.122.783.175.678.132 1.372.267 1.611.657Z" fill="#5F9282"/><path d="M314.627 81.823a19130.212 19130.212 0 0 1-31.887 30.23c-.099-.058-.192-.102-.284-.146a3.71 3.71 0 0 1-.285-.147c.489-.651.945-1.337 1.4-2.02.872-1.31 1.739-2.613 2.825-3.653 3.148-2.992 6.375-5.907 9.606-8.826l.014-.013c3.965-3.581 7.934-7.168 11.766-10.902 3.335-3.25 6.104-7.08 8.816-10.883 2.254-3.158 4.388-6.393 6.523-9.631 1.319-2 2.638-4 3.986-5.983.671-.965 1.712-1.754 3.094-2.28a4.091 4.091 0 0 0-.118.434c-.065.276-.126.539-.299.763-4.948 6.236-6.958 13.398-7.861 21.232-.709 6.176.768 11.579 3.651 16.799 1.231 2.25 2.231 4.61 3.232 6.971.388.95.431 2.067.13 3.209-.949-2.055-2.028-4.073-3.108-6.091-3.991-7.458-7.984-14.92-5.407-24.286-21.997 36.113-29.681 74.758-21.969 116.406-3.491-9.122-4.169-18.752-3.96-28.314.153-9.676.622-19.435 2.119-28.98a172.797 172.797 0 0 1 6.858-27.86c2.191-6.302 4.988-12.416 7.7-18.343v-.001l.001-.002c1.188-2.597 2.36-5.158 3.457-7.683Zm-7.171 155.258c.249.073.541.157.879.293-.853-2.891-1.673-5.752-2.485-8.584v-.001l-.001-.003-.001-.003v-.001l-.001-.003c-2.036-7.102-4.02-14.021-6.327-20.783-.83-2.302-3.604-4.8-6.028-5.547-9.356-2.869-13.246-9.877-15.456-18.41-.606-2.342-1.053-4.73-1.498-7.117-.517-2.767-1.034-5.532-1.799-8.217-4.058-13.968-3.311-27.561 2.045-41.036.29-.722.427-1.465.568-2.226l.034-.181.063-.334c-1.006.274-1.383.67-1.532 1.098-3.153 9.208-6.251 18.532-4.745 28.402 1.661 11.074 3.524 22.123 6.277 32.954 1.879 7.555 6.468 13.656 14.598 16.051 4.223 1.228 6.387 4.377 7.423 8.428.177.659.361 1.332.545 2.005l.002.006c.185.676.369 1.351.547 2.012.6 2.34 1.221 4.688 1.842 7.036l.001.007a950.707 950.707 0 0 1 1.842 7.035c-.106.089-.236.17-.373.255-.124.077-.255.158-.378.251-1.938-1.837-3.941-3.615-5.943-5.392-4.516-4.007-9.024-8.008-12.753-12.659-9.583-12.034-20.89-22.264-32.197-32.494-7.313-6.617-14.627-13.234-21.474-20.339-.486-.499-1.095-.904-1.816-1.384-.327-.218-.677-.451-1.049-.715.005.304.002.542 0 .727v.003c-.005.371-.007.53.069.588 1.942 1.951 3.85 3.956 5.761 5.963 4.623 4.857 9.264 9.732 14.457 13.912 11.722 9.436 21.728 20.393 31.799 31.42l1.933 2.115c5.342 5.862 11.004 11.401 16.677 16.952l.001.001a925.683 925.683 0 0 1 7.605 7.498c.192.215.484.3.888.417Zm-15.846-4.562c-1.04-.727-2.072-1.448-2.739-2.439-4.329-6.298-10.023-11.153-15.917-15.982-3.995-3.259-7.437-7.283-10.736-11.306-4.173-5.093-9.557-7.253-15.909-7.592-2.082-.115-4.16-.274-6.236-.433-3.973-.304-7.937-.607-11.906-.602-5.316.003-10.598.373-15.905.744-1.154.081-2.308.162-3.465.239-.678.031-1.319.355-1.869.632l-.004.002c-.238.12-.459.232-.659.307 1.606 2.121 3.233 4.196 4.848 6.258l.002.002.002.003.003.003.001.002.002.002.003.004.005.006.001.003c3.533 4.508 7.012 8.948 10.111 13.639 4.72 7.105 5.244 15.387 5.31 23.606-.187.055-.366.088-.546.122a5.217 5.217 0 0 0-.545.122c-.073-.297-.171-.597-.269-.898-.196-.6-.392-1.201-.384-1.774.016-14.661-6.71-26.058-17.152-35.727-1.176-1.106-2.101-2.469-3.035-3.846a52.651 52.651 0 0 0-1.274-1.822c.657-.275 1.311-.607 1.966-.939 1.529-.775 3.06-1.551 4.624-1.611 6.591-.345 13.118-.232 19.731-.09 2.049.026 4.097.148 6.141.27 2.954.176 5.899.352 8.829.237 7.992-.241 13.99 3.186 19.36 8.696 2.816 2.843 5.772 5.557 8.723 8.267l.007.007.002.002c2.586 2.374 5.168 4.746 7.649 7.197 3.668 3.629 7.165 7.425 10.674 11.235 1.063 1.154 2.127 2.309 3.197 3.461a5.864 5.864 0 0 0-1.074 1.16c-.492-.416-1.03-.792-1.567-1.167Zm.998 40.991c-4.19.748-7.708 2.593-10.107 6.6.154.016.28.033.381.046.292.038.376.048.335-.037.316-.082.604-.222.864-.419 6.722-6.099 14.22-5.745 22.053-2.494.895.379 1.785.773 2.675 1.167 2.225.984 4.452 1.968 6.753 2.734 8.337 2.821 16.597 1.432 24.817.049 1.928-.324 3.853-.648 5.776-.917 3.213-.417 3.807-4.332.886-6.546-9.105-6.76-18.296-13.55-27.78-19.771a208.898 208.898 0 0 0-4.465-2.825l-.001-.001-.002-.001c-5.618-3.488-11.242-6.981-15.468-12.348-.582-.713-1.243-1.326-1.903-1.939-.33-.307-.66-.613-.981-.933-.101.085-.195.184-.29.283a3.51 3.51 0 0 1-.29.283c.193.292.356.598.516.9.282.532.556 1.049.972 1.438a194.81 194.81 0 0 1 3.255 3.047c2.779 2.639 5.549 5.27 8.638 7.415 2.699 1.868 5.524 3.55 8.347 5.231 5.905 3.515 11.804 7.027 16.541 12.24.44.452 1.037.772 1.631 1.09.36.193.718.385 1.039.606.713.501 1.433.998 2.155 1.496 2.009 1.386 4.027 2.778 5.903 4.277.683.549 1.168 1.314 1.789 2.291.333.524.704 1.11 1.166 1.756-1.686.271-3.279.54-4.808.799l-.008.001-.062.01-.003.001-.019.003-.006.001c-3.22.545-6.159 1.043-9.096 1.41-2.869.393-5.765.728-8.569.52-6.323-.425-12.283-2.305-18.032-5.071-4.611-2.178-9.493-3.3-14.602-2.392Zm-109.176-76.54c-.543.052-1.088.099-1.635.147-1.302.113-2.615.226-3.927.411-23.464 3.107-45.88 9.405-66.282 21.628-7.849 4.653-15.805 8.788-24.403 11.599-.236.08-.472.166-.711.254-1.744.637-3.613 1.319-6.162-.199 1.099-.364 2.109-.709 3.064-1.035l.002-.001c1.868-.637 3.523-1.203 5.216-1.693 6.341-1.854 11.989-5.067 17.649-8.286 2.293-1.304 4.589-2.609 6.932-3.826 15.134-7.823 30.461-15.1 47.753-16.997 3.57-.387 7.121-1.045 10.678-1.705h.003c2.098-.389 4.199-.779 6.307-1.113 1.234-.202 2.52-.156 3.784-.111.559.02 1.114.04 1.657.038.082.316.079.602.075.889Zm-28.104 95.964a9.227 9.227 0 0 1-.996.421c.093.19.159.371.218.534.043.117.082.225.125.319l.01.021.008.018c16.77.845 32.367-2.935 47.101-10.849 10.092-5.455 16.472-13.877 19.932-24.657.14-.511.212-1.076.281-1.625l.001-.004.001-.009.058-.448c-.922.446-1.271.9-1.479 1.499-2.412 7.213-6.271 13.349-12.204 18.284-5.847 4.822-12.333 8.175-19.408 10.604-10.355 3.589-20.834 5.745-31.853 5.318-.589.011-1.194.293-1.795.574Zm27.041-240.7c.574 1.731 1.243 3.446 1.912 5.161 2.577 6.607 5.156 13.217 2.309 20.751-.859 2.194-2.233 4.353-3.857 5.992-3.192 3.253-6.525 6.36-10.166 8.976-4.826 3.403-10.288 2.846-15.708 1.201-.48-.167-.98-.279-1.779-.458a73.617 73.617 0 0 1-.647-.145c2.115 6.177 6.36 10.177 10.478 14.057l.006.006.695.655c2.9 2.729 5.972 5.253 9.104 7.824a359.088 359.088 0 0 1 5.031 4.184c-.153-.01-.296-.013-.429-.016-.314-.006-.572-.011-.772-.114-10.548-5.92-18.803-14.158-24.797-24.63-.327-.58-.339-1.315-.35-2.05-.006-.395-.011-.79-.067-1.162.384.035.776.032 1.164.03.738-.006 1.462-.011 2.097.241 7.203 3.271 15.236 2.086 21.745-5.333.288-.332.577-.662.866-.992 4.205-4.802 8.346-9.532 7.176-16.487-.555-3.337-1.556-6.616-2.552-9.878-.34-1.115-.68-2.227-1.001-3.34-.289-1.04-.693-2.067-1.099-3.101a84.229 84.229 0 0 1-.394-1.013l.139-.04c.315-.092.594-.172.896-.319Zm-48.178 64.75c1.834.681 3.669 1.361 5.484 2.081.147-.285.236-.541.355-.883-2.191-.941-4.38-1.889-6.569-2.837-22.476-9.738-44.959-19.479-70.07-20.74.479.55 1.02.786 1.62.85 20.897 2.76 40.746 9.086 59.848 17.836 3.039 1.359 6.185 2.526 9.332 3.693Zm7.74 177.141c2.171.253 4.382.51 6.786-.471-4.238-2.288-9.451-2.183-10.398.268 1.209-.077 2.404.062 3.612.203Zm139.363-180.227c-.43 2.557-1.256 4.339-2.067 6.089-.452.974-.898 1.937-1.269 3.019-.598-2.02 1.085-6.572 3.336-9.108Zm-83.165-12.389c-.322-1.59-.644-3.184-1.53-4.593.196 2.808 1.061 6.6 2.474 8.05-.468-1.098-.706-2.276-.944-3.457ZM78.66 232.25c-.768.184-1.519.482-2.27.78-1.802.716-3.608 1.433-5.678.578a7.916 7.916 0 0 1-.108-.517l-.004-.019-.026-.137a10.686 10.686 0 0 0-.035-.174l-.008-.036-.007-.031a3.372 3.372 0 0 0-.028-.119c1.307-.313 2.62-.611 3.934-.909l.003-.001a356.3 356.3 0 0 0 3.932-.908c.108.517.216 1.034.296 1.493Zm199.04 54.985c-.528.931-1.055 1.862-1.539 2.701 1.031.563 2.497-1.178 3.047-2.216.558-1.055 1.11-2.124 1.662-3.193-.834-.378-2.005.654-2.457 1.45l-.713 1.258Zm52.347-179.507c.202.796.443 1.655.684 2.514.137.49.274.979.404 1.457.159.586-.006 1.498-.571 1.72l-.001-.001c-.336-1.109-.673-2.218-.991-3.321-.215-.741-.263-2.141.475-2.369Z" fill="#5F9282"/><path d="M213.821 126.406v-.006c-.168-1.626-.337-3.264-.534-4.906 10.423 7.947 21.301 5.876 27.686-4.598 5.253-8.578 4.358-17.587 1.954-26.79a51.912 51.912 0 0 1-1.651-12.76c.001-2.393.305-4.792.609-7.188.381-3.01.761-6.013.541-8.99-.64-8.919 1.533-17.284 3.764-25.677l.633-3.075c-6.18 7.393-13.863 11.68-22.498 14.44-5.89 1.857-10.034 5.567-12.375 11.103-3.163 7.636-7.683 14.368-12.459 21.01-2.793 3.947-4.589 11.412-3.449 16.795.077.363.437-.567.437-.567-.615-5.038 1.288-12.34 4.726-16.63 5.115-6.381 9.098-13.492 12.373-21.042 2.019-4.74 5.868-7.455 10.647-9.413 3.398-1.36 6.673-3.04 9.939-4.717h.001c1.63-.837 3.259-1.672 4.899-2.466.458-.222 1.001-.414 1.545-.606.098.13.204.239.31.347.105.109.211.217.309.347l-1.252 1.593c-2.549 3.245-5.079 6.467-7.735 9.644-10.598 12.727-17.571 27.25-21.17 43.333-.622 2.635-.592 5.434-.562 8.24v.001c.014 1.377.029 2.755-.033 4.117 2.214-27.128 16.268-48.202 32.494-67.274a728.18 728.18 0 0 1-.628 7.317c-.337 3.782-.686 7.697-.953 11.624-.103 1.502-.092 3.01-.081 4.509v.001c.019 2.46.037 4.896-.45 7.249-1.565 7.43-.532 14.386 1.552 21.613 2.825 9.779 1.949 19.22-5.404 27.11-6.691 7.215-16.233 7.077-22.76-.271-.169-.19-.372-.32-.65-.498-.232-.149-.517-.332-.876-.61-.699 11.414.979 21.891 5.854 31.671.85 1.756 2.477 3.102 4.113 4.455.777.643 1.555 1.287 2.254 1.977.186-.125.366-.266.546-.406.179-.14.359-.28.545-.406-9.945-7.654-11.048-18.341-12.211-29.6Z" fill="#5F9282"/><path d="m209.136 141.325.001-.059c.129-7.828.255-15.517.184-23.179.012-.939-.917-1.992-1.678-2.854l-.119-.134c-.614-.638-1.283-1.189-1.987-1.769-1.881-1.549-4.015-3.307-6.045-7.5 3.028 4.193 6.021 6.14 8.665 7.86l.359.234.18.117c1.764 1.18 2.198 2.513 2.255 4.66.035 5.09.239 10.168.442 15.242l.001.005c.084 2.104.169 4.206.241 6.308.034.894-.08 1.768-.192 2.624-.026.198-.052.395-.075.592a9.063 9.063 0 0 0-1.132-.191c-.713-.091-1.419-.18-1.965-.555-6.417-4.519-12.833-9.126-19.236-13.724l-.001-.001-.002-.002-4.994-3.584c-.643-.46-1.03-1.114-1.215-2.077 8.845 6.1 17.747 12.173 26.313 17.987ZM55.776 93.823c-1.201-.05-2.457-.102-3.814-.156 1.447 2.422 5.703 2.74 8.649.352-1.59-.061-3.159-.126-4.834-.196h-.001Zm8.574 46.317 2.997 1.761c1.315.773 2.547 1.497 3.798 2.228-3.363.353-6.646-1.708-6.795-3.989Zm115.869-90.703c.183.589.372 1.196.69 1.77 1.031-2.04-.749-5.484-3.824-6.889.34.61.783 1.164 1.232 1.726.464.58.934 1.168 1.302 1.831.263.475.429 1.01.6 1.562Zm41.422 203.09 1.062-4.187c.468-1.838.905-3.56 1.344-5.306 1.958 3.818.613 8.456-2.406 9.493Zm168.962 50.356-.024-.013-.113-.061c-9.253-5.054-18.685-10.206-27.624-15.186-.555-.304-.678-.611-.872-1.098-.074-.186-.158-.398-.281-.646 9.964 6.123 20.203 11.004 30.495 15.91h.001c5.795 2.762 11.626 5.864 16.646 8.709l-.528 2.09c-5.908-3.221-11.795-6.479-17.7-9.705Z" fill="#5F9282"/></svg>