<svg width="66" height="107" fill="none" xmlns="http://www.w3.org/2000/svg"><path fill-rule="evenodd" clip-rule="evenodd" d="M32.562.07C8.577.07-7.128 25.183 3.37 46.748c2.902 5.962 6.444 11.626 9.979 17.28 5.702 9.12 11.388 18.215 14.351 28.492 1.087 3.769 1.953 7.76 2.608 12.232.38 2.596 4.125 2.596 4.505 0 .655-4.472 1.522-8.463 2.608-12.232 2.964-10.277 8.65-19.371 14.352-28.491 3.535-5.655 7.076-11.319 9.979-17.281C72.25 25.183 56.547.07 32.562.07Zm-.053 44.053c6.56 0 11.88-5.319 11.88-11.88 0-6.56-5.32-11.88-11.88-11.88-6.561 0-11.88 5.32-11.88 11.88 0 6.561 5.319 11.88 11.88 11.88Z" fill="#292929"/></svg>