<svg xmlns="http://www.w3.org/2000/svg" width="29.2" height="47.9" style="enable-background:new 0 0 29.2 47.9" xml:space="preserve"><path d="M14.6 0C3.8 0-3.2 11.3 1.5 21c1.3 2.7 2.9 5.2 4.5 7.8 2.6 4.1 5.1 8.2 6.4 12.8.5 1.7.9 3.5 1.2 5.5.2 1.2 1.9 1.2 2 0 .3-2 .7-3.8 1.2-5.5 1.3-4.6 3.9-8.7 6.4-12.8 1.6-2.5 3.2-5.1 4.5-7.8 4.7-9.7-2.3-21-13.1-21zm0 19.8c2.9 0 5.3-2.4 5.3-5.3s-2.4-5.3-5.3-5.3-5.3 2.4-5.3 5.3c-.1 2.9 2.3 5.3 5.3 5.3z" style="fill-rule:evenodd;clip-rule:evenodd;fill:#292929"/></svg>