<svg width="532" height="447" fill="none" xmlns="http://www.w3.org/2000/svg"><path d="M482.483 27.524c17.16-17.826 32.212-32.904 40.455-39.346L521.761-13c-.09.135-.916.833-2.277 1.982C515.187-7.39 505.562.738 496.959 9.86l-8.453 8.96-.005.005-.031.033c-10.962 11.618-20.763 22.005-21.158 22.521-20.296 22.029-43.364 39.555-70.727 52.232-4.78 2.216-9.421 5.264-13.023 9.005-5.68 7.343-14.201 11.846-22.652 15.517-8.513 3.658-16.707 7.954-24.949 12.276l-.001.001-1.027.538c-5.057 2.633-10.045 5.196-16.002 4.365a780.355 780.355 0 0 0-3.511-.497c-5.081-.711-10.183-1.426-15.193-2.551-10.529-2.425-10.945-4.088-6.581-13.855 5.334-11.984 5.958-23.968-3.256-34.636-6.719-7.828-14.685-13.993-24.938-16.626-.894-.231-1.788-.465-2.681-.698-10.589-2.765-21.116-5.515-32.232-5.26-5.334.07-10.599 0-15.933-.138-1.288-.047-2.05-.151-2.988-.28-.424-.057-.884-.12-1.445-.185-.035.208.259.45.554.693.294.242.589.485.554.692 6.262.953 12.577 1.131 18.889 1.309 8.605.242 17.204.483 25.653 2.69 11.569 2.978 22.029 6.996 30.55 15.655 8.174 8.313 11.014 17.942 7.897 29.095-.746 2.656-1.993 5.156-3.236 7.646v.002c-.605 1.21-1.208 2.42-1.752 3.643-1.94 4.364-.346 7.828 4.156 9.491 9.837 3.671 20.089 4.849 30.55 4.849 2.286 0 4.849-.485 6.858-1.594a432.054 432.054 0 0 0 6.845-3.88c7.816-4.491 15.635-8.985 24.327-11.775 8.936-2.84 18.288-9.144 23.276-15.24 3.463-3.395 7.62-6.442 12.053-8.52 17.457-8.244 33.251-18.22 48.214-30.273 3.828-3.079 15.843-15.594 28.936-29.234l.002-.002h.001l.003-.004c2.636-2.746 5.315-5.537 7.98-8.306ZM371.578 172.373c.329.416.654.836.978 1.256.975 1.259 1.949 2.519 3.04 3.662 6.511 6.858 13.577 13.162 22.028 17.665 14.34 7.689 26.324 18.149 35.745 31.449.465.672 1.006 1.343 1.826 2.358.28.347.592.734.945 1.175-.09-.583-.158-1.064-.216-1.475-.121-.857-.198-1.404-.338-1.919-2.197-7.777-1.951-15.655-1.706-23.549.042-1.317.083-2.635.112-3.952.07-3.672-.623-6.72-3.186-9.491-2.702-2.84-4.157-6.234-3.81-10.391.346-4.364-1.801-7.758-4.711-10.737-11.345-14.668-20.025-15.212-31.839-15.953h-.002c-1.241-.078-2.517-.158-3.834-.257-3.741-.277-7.551-.692-9.975-3.879-.901-1.247-1.386-3.463-.97-4.849 2.669-6.64 4.188-10.224 4.633-10.963 1.357-3.741 2.735-7.501 4.196-11.147l.031-.08.106-.265c1.203-3.015 2.46-6.168 6.387-6.907-1.939 3.806-3.832 7.53-5.698 11.202-2.354 4.631-4.665 9.178-6.969 13.696-.17.491-.349 1.01-.539 1.555-1.731 5.126-.554 7.55 4.711 9.074 1.87.555 3.879.762 5.819.832 14.201.623 22.098 1.731 35.329 16.971 3.048 2.91 5.126 6.72 4.918 11.084-.138 4.278 1.786 7.319 3.923 10.697l.026.04c1.524 2.356 2.563 5.334 2.909 8.174.326 2.825.183 5.735.04 8.663v.001l-.001.004c-.039.804-.078 1.61-.108 2.416-.624 12.746 1.939 24.523 10.46 34.429.132.175.208.378.281.574.042.114.084.225.135.326a6.276 6.276 0 0 0-.624.693c-1.071-1.141-2.16-2.281-3.248-3.421l-.008-.008-.008-.009c-1.088-1.14-2.176-2.28-3.247-3.42-7.413-8.036-15.864-13.785-27.155-14.478-3.429-.212-6.858-.708-10.287-1.204-2.182-.316-4.364-.632-6.547-.874-12.954-1.524-24.176-6.581-33.043-16.349-1.316-1.454-2.355-3.186-3.186-4.918.522.471 1.048.943 1.575 1.415 1.642 1.472 3.294 2.953 4.867 4.473 6.443 6.304 13.993 10.53 22.929 12.123 5.473.97 10.945 1.662 16.487 2.217 10.391 1.039 20.574 2.493 28.818 9.906-4.78-7.897-10.391-15.102-17.665-20.436-4.329-3.152-8.849-6.027-13.369-8.901-4.52-2.875-9.04-5.75-13.37-8.902-4.546-3.355-8.626-7.302-12.704-11.246l-.014-.013-.028-.028c-1.129-1.091-2.257-2.182-3.395-3.26-.748-.702-1.213-1.752-1.67-2.787-.22-.497-.438-.99-.685-1.439.2-.159.376-.273.543-.38a10.06 10.06 0 0 0 .282-.188l.039-.028.007-.005.03-.022ZM202.276 374.927c-4.572 17.872-9.144 35.675-13.716 53.478l-.049-.012-.042-.011-.002-.001c-.232-.059-.416-.107-.6-.045a98.256 98.256 0 0 1-.178-3.539l-.002-.036c-.1-2.59-.199-5.184-.721-7.647-3.255-15.171-7.758-29.995-14.547-44.127-4.918-10.114-8.52-20.643-8.105-32.212.022-.739.049-1.48.076-2.221.144-3.986.29-7.997-.353-11.91-1.281-7.932-2.719-15.845-4.156-23.759v-.003c-1.438-7.914-2.875-15.828-4.157-23.759-1.939-12.123-1.039-24.038 3.395-35.676 6.581-17.179 26.254-27.64 45.789-21.059 5.888 1.94 11.776 3.741 18.219 3.118 2.84-.208 4.017-.901 4.641-3.741l.345-1.591.001-.006c1.532-7.084 3.057-14.132 6.858-20.64 2.896-4.963 4.884-10.431 6.868-15.887.342-.94.683-1.88 1.029-2.816.485-1.386-.138-3.672-1.039-4.919-.415-.623-2.909-.069-4.295.485-1.554.628-3.083 1.347-4.613 2.066l-.013.005c-2.012.946-4.028 1.893-6.111 2.64-3.218 1.113-6.462 2.134-9.704 3.155l-.01.003c-4.222 1.329-8.44 2.657-12.592 4.185-9.975 3.602-18.773 9.213-27.085 15.725-2.771 2.151-5.71 4.087-8.652 6.026h-.001c-3.31 2.181-6.624 4.364-9.704 6.858-5.473 4.389-10.606 9.201-15.731 14.006l-.001.002a1069.814 1069.814 0 0 1-4.288 4.003c-4.434 4.087-5.958 9.144-3.81 13.301 5.334 10.39 7.204 20.989 5.749 32.766-1.593 12.607-5.403 24.037-13.092 34.082-2.138 2.729-4.366 5.429-6.585 8.118l-.001.001-.04.048c-1.146 1.39-2.29 2.776-3.419 4.163.104.104.225.208.347.312.121.104.242.208.346.312 1.141-1.345 2.292-2.67 3.438-3.991l.008-.009.002-.003c1.981-2.282 3.95-4.55 5.835-6.873 11.776-14.478 15.517-31.589 14.755-49.599-.277-6.235-2.771-12.677-5.473-18.427-2.286-4.849-1.385-8.52 1.87-11.568 8.313-7.828 16.764-15.517 25.562-22.722 3.386-2.74 7.029-5.153 10.671-7.564 2.618-1.734 5.235-3.467 7.756-5.32 8.451-6.235 17.733-10.738 27.639-13.994 8.174-2.701 16.349-5.541 24.523-8.382 1.277-.41 2.495-.971 3.91-1.623.733-.338 1.519-.7 2.394-1.078-.095.731-.149 1.39-.199 1.994-.096 1.167-.174 2.126-.494 2.993-1.178 2.945-2.425 5.854-3.672 8.763-1.246 2.91-2.493 5.819-3.671 8.763-.381.974-.77 1.947-1.16 2.922-1.661 4.156-3.329 8.331-4.451 12.595-2.148 8.175-4.503 9.837-12.746 7.62a29.73 29.73 0 0 1-1.662-.484c-.555-.173-1.109-.347-1.663-.485a284.67 284.67 0 0 1-3.077-.868c-3.276-.936-6.571-1.877-9.947-2.457-16.764-2.91-31.519 5.68-39.346 18.772-4.849 8.175-6.443 17.457-6.72 26.878-.415 14.478 2.009 28.679 5.126 42.741.318 1.466.648 2.931.978 4.396 1.9 8.431 3.8 16.864 3.387 25.599-.416 9.214.692 18.15 4.017 26.809 1.45 3.781 2.918 7.556 4.387 11.33v.001l.003.007v.001c3.373 8.669 6.744 17.335 9.88 26.068 4.157 11.569 6.512 23.414 3.603 35.814-.413 1.882-.31 3.854-.192 6.08v.001c.059 1.133.122 2.332.122 3.617.465-.763.849-1.335 1.178-1.823v-.001c.358-.531.648-.962.901-1.432.913-1.598 1.831-3.191 2.749-4.783l.006-.01c2.422-4.201 4.841-8.396 7.151-12.663 4.225-7.759 10.321-13.509 18.149-17.526a365 365 0 0 0 16.972-9.352c10.252-6.027 20.435-12.192 29.025-20.574 8.761-8.547 15.771-18.511 22.777-28.47l.006-.008c2.021-2.873 4.041-5.745 6.104-8.583.336-.48.372-1.126.409-1.778.017-.288.033-.578.075-.854l-1.039-.416c-1.06 1.469-2.125 2.938-3.191 4.409-2.904 4.007-5.816 8.024-8.654 12.078-8.105 11.776-16.903 22.998-28.818 31.034-11.014 7.343-22.652 13.855-34.22 20.228-8.244 4.502-14.894 10.391-19.397 18.634-1.19 2.183-2.523 4.26-4.05 6.637v.001l-.002.002-.003.005-.006.009c-.601.937-1.232 1.92-1.896 2.975a3920.64 3920.64 0 0 1 3.839-12.403l.001-.003.003-.011c1.849-5.951 3.634-11.695 5.37-17.44 4.364-14.339 6.512-27.501 4.919-29.44Z" fill="#596676"/><path fill-rule="evenodd" clip-rule="evenodd" d="M62.464 180.439c1.761-.605 3.523-1.209 5.285-1.831 0-.208-.07-.416-.139-.485a2.799 2.799 0 0 1-.364-.107c-.218-.074-.427-.145-.606-.101l-1.426.395c-12.276 3.391-24.559 6.784-33.695 16.854-7.828 8.659-17.664 13.855-29.094 16.21-.411.041-.773.204-1.246.416-.324.146-.7.315-1.179.485.365.156.652.293.89.406v.001l.002.001c.392.187.65.31.91.353 9.212 1.109 16.347 5.958 23.136 12.123 9.837 9.006 21.128 15.725 34.636 17.665.446.089.89.292 1.666.647.432.197.966.441 1.66.738-.455.191-.827.333-1.136.451-.586.224-.948.362-1.22.588-8.382 7.412-14.963 16.21-18.842 26.601-1.754 4.678-2.857 9.596-3.96 14.512-.465 2.073-.93 4.146-1.443 6.2-2.01 7.967-1.801 15.933.346 23.899 2.84 10.668 3.533 21.336-.277 31.935-.14.389-.283.779-.425 1.168l-.003.007c-.769 2.104-1.54 4.215-2.066 6.376-.331 1.185-.436 2.466-.558 3.956a74.556 74.556 0 0 1-.204 2.209c.426-.274.705-.441.884-.548l.004-.002c.225-.134.29-.173.29-.212.19-.444.352-.889.51-1.327.189-.517.373-1.025.598-1.513 2.633-5.819 5.75-11.43 12.746-12.4 6.858-.97 13.786-1.732 20.644-1.662 13.37.069 25.838-3.048 37.892-8.382.362-.156.647-.466.941-.786.1-.108.201-.218.306-.323-2.217.208-4.157.831-6.027 1.663-9.975 4.295-20.436 5.819-31.242 6.719-2.729.237-5.496.249-8.272.261-7.796.033-15.665.067-22.97 5.073 2.287-4.305 5.488-7.761 8.645-11.168 3.345-3.611 6.64-7.167 8.742-11.622a4454.076 4454.076 0 0 0-11.825 12.867c-2.005 2.186-4.037 4.404-6.116 6.667 2.632-8.867 2.147-17.318-.139-25.7-2.563-9.559-2.424-19.05-.692-28.817 2.701-15.448 8.45-29.233 19.327-40.594 2.216-2.286 4.71-4.572 7.55-5.957 6.373-3.048 12.816-6.027 19.466-8.105 12.885-4.018 25.7-5.403 37.961 2.632 3.187 2.078 6.928 1.732 10.114-.554 2.078-1.455 4.018-3.187 5.75-4.988 4.226-4.33 8.413-8.74 12.591-13.139l.023-.024c1.361-1.433 2.721-2.865 4.08-4.293.723-.768 1.415-1.564 2.117-2.371.375-.432.753-.866 1.139-1.301a9.17 9.17 0 0 0-.346-.519c-.121-.173-.243-.347-.346-.52-.751.289-1.501.589-2.256.892h-.002l-.001.001c-1.057.423-2.124.851-3.214 1.255-3.245 1.204-6.376 2.688-9.509 4.172-5.695 2.698-11.394 5.398-17.784 6.426-5.207.797-10.414 1.918-15.573 3.029l-2.023.435c-.9.208-2.355.97-2.493 1.732-.416 2.147-1.663 2.355-3.464 2.424-10.183.347-20.02 2.84-28.887 7.551-7.481 3.949-14.27 2.286-21.266.208-10.18-3.027-18.174-9.452-26.273-15.963-4.137-3.324-8.3-6.671-12.797-9.599.342-.04.66-.086.96-.13.735-.106 1.36-.196 1.95-.147 2.071.19 4.143.355 6.213.519h.002l.006.001h.007c4.708.374 9.405.747 14.068 1.42 1.3.193 2.616.365 3.936.537 5.294.69 10.65 1.387 15.253 3.55 13.3 6.304 27.154 7.689 41.425 7.62.935 0 1.905-.245 2.86-.486.39-.098.777-.196 1.157-.276-.034-.173-.051-.347-.069-.52a4.859 4.859 0 0 0-.07-.519c-1.57 0-3.133.015-4.694.031h-.007c-3.116.03-6.223.061-9.36-.031-10.184-.277-20.02-2.009-29.095-6.789-1.87-.97-3.88-1.732-5.888-2.009-10.252-1.524-20.505-3.048-30.826-4.225-2.668-.286-5.4-.212-8.131-.137-1.241.033-2.481.067-3.715.067.208-1.108.554-1.454.9-1.524 7.967-1.939 14.41-6.304 20.436-11.776.886-.804 1.76-1.626 2.636-2.448v-.001c4.254-3.998 8.522-8.009 14.267-10.02 1.965-.692 3.892-1.441 5.81-2.187l.003-.001.003-.001.005-.002h.001l.002-.001h.002v-.001h.002l.002-.001c1.727-.671 3.448-1.34 5.184-1.963a647.5 647.5 0 0 1 5.284-1.83l.03-.01Zm45.255 47.837c15.309-.9 29.371-6.165 43.711-11.637-2.736 2.909-5.455 5.836-8.174 8.763-2.719 2.926-5.438 5.853-8.175 8.763-4.225 4.433-8.104 4.779-13.715 2.286-2.883-1.282-5.917-2.261-8.942-3.237h-.001c-1.555-.502-3.107-1.002-4.635-1.543-.491-.179-.896-.531-1.308-.888-.226-.196-.455-.395-.701-.567.18-.199.359-.439.54-.68.448-.598.906-1.21 1.4-1.26Z" fill="#596676"/><path d="M170.826 62.023c4.711 14.755 9.56 29.994 14.409 45.304-.104.069-.19.138-.277.207-.086.07-.173.139-.277.208a47.337 47.337 0 0 0-1.307-2.315c-.865-1.467-1.725-2.925-2.226-4.473-1.43-4.476-2.748-8.994-4.067-13.516l-.006-.02-.001-.001c-1.618-5.549-3.239-11.105-5.07-16.597-1.593-4.78-4.018-9.282-6.442-13.716-2.013-3.683-4.158-7.286-6.305-10.892a551.761 551.761 0 0 1-3.948-6.703c-.623-1.108-.9-2.494-.762-4.087.118.118.245.22.368.32.238.192.465.376.602.65 3.741 7.758 9.768 13.092 16.972 17.664 5.68 3.602 11.638 4.71 18.08 4.364 2.771-.138 5.542 0 8.313.139 1.108.07 2.216.554 3.186 1.385-2.448-.044-4.922.056-7.396.156-9.145.371-18.295.742-26.201-6.182 24.8 38.446 58.812 64.146 103.008 76.269-10.529-.901-20.227-4.78-29.44-9.491-9.352-4.71-18.635-9.767-27.225-15.725a186.998 186.998 0 0 1-23.899-19.812c-5.104-5.104-9.741-10.711-14.234-16.146h-.001l-.001-.002c-1.969-2.382-3.911-4.73-5.853-6.988Zm147.821 80.173c.188-.209.408-.453.699-.718-3.217-.533-6.39-1.083-9.53-1.627h-.002l-.003-.001h-.003l-.001-.001h-.003c-7.876-1.365-15.55-2.695-23.223-3.636-2.633-.277-6.374 1.247-8.244 3.256-7.204 7.759-15.863 8.244-25.215 6.373-2.566-.513-5.103-1.204-7.637-1.895-2.939-.801-5.874-1.602-8.85-2.123-15.517-2.632-28.402-9.767-39-21.336-.567-.622-1.225-1.106-1.901-1.603l-.16-.117-.295-.219c-.207 1.108 0 1.662.347 2.009 7.481 7.412 15.101 14.824 25.423 18.011 11.568 3.602 23.206 6.996 35.052 9.421 8.243 1.732 16.348.138 22.513-6.65 3.187-3.533 7.274-4.157 11.707-3.256.725.138 1.467.276 2.21.414l.007.001c.745.139 1.489.277 2.217.416 2.561.519 5.141 1.021 7.72 1.523l.008.002c2.579.502 5.158 1.004 7.719 1.523.037.145.054.31.072.484.017.157.034.321.067.486-2.702 1.021-5.379 2.134-8.053 3.246-6.031 2.508-12.053 5.012-18.34 6.452-16.237 3.66-31.53 9.848-46.823 16.038-9.891 4.002-19.783 8.005-29.931 11.325-.714.238-1.396.64-2.203 1.116-.366.216-.759.447-1.191.685.298.137.528.252.707.342l.003.001c.36.18.514.257.606.211 2.816-.973 5.667-1.886 8.523-2.8 6.91-2.213 13.845-4.434 20.364-7.522 14.715-6.966 30.103-11.547 45.589-16.156l2.971-.885c8.228-2.439 16.29-5.342 24.37-8.25l.003-.001c3.62-1.303 7.243-2.607 10.886-3.871.3-.086.52-.33.825-.668Zm-11.913 13.281c-1.198.67-2.387 1.335-3.666 1.518-8.175 1.247-15.587 4.503-23.068 7.966-5.057 2.355-10.599 3.81-16.072 5.126-6.927 1.663-11.568 5.889-14.893 11.915-1.094 1.974-2.228 3.922-3.361 5.869-2.169 3.726-4.333 7.443-6.199 11.311-2.504 5.178-4.633 10.497-6.773 15.841-.465 1.161-.931 2.323-1.401 3.486-.289.675-.276 1.452-.265 2.118v.005a7.64 7.64 0 0 1-.012.786c2.822-.564 5.61-1.169 8.379-1.771h.003l.005-.001.004-.001.002-.001h.004v-.001h.004l.009-.002.003-.001c6.055-1.315 12.02-2.61 18.049-3.417 9.144-1.247 17.457 2.147 25.492 5.957a5.642 5.642 0 0 1-.138.589c-.052.191-.104.381-.139.589-.323-.069-.662-.115-1-.162-.678-.092-1.355-.184-1.909-.461-14.27-6.928-28.54-5.75-42.88-.139-1.631.624-3.394.882-5.176 1.143-.791.115-1.586.232-2.375.381.042-.769.028-1.563.013-2.357-.034-1.854-.068-3.711.611-5.263 2.771-6.581 5.957-12.885 9.213-19.258.992-1.983 2.076-3.919 3.158-5.852 1.564-2.794 3.124-5.58 4.393-8.487 3.533-7.897 9.698-12.123 17.595-14.755 4.096-1.402 8.133-3.001 12.164-4.598l.01-.004.002-.001c3.532-1.399 7.058-2.795 10.615-4.056 5.264-1.861 10.609-3.477 15.974-5.099 1.624-.491 3.251-.983 4.877-1.482.138.554.346 1.108.623 1.593-.636.283-1.257.63-1.875.976Zm40.391 18.352c-1.247 4.433-1.109 8.728 1.662 12.954.089-.143.164-.258.225-.35.174-.267.225-.343.122-.343a2.633 2.633 0 0 0 0-1.039c-2.771-9.421 1.108-16.556 7.966-22.652a204.42 204.42 0 0 1 2.398-2.056v-.001c2.007-1.703 4.015-3.406 5.845-5.286 6.678-6.79 9.219-15.489 11.748-24.146.593-2.03 1.185-4.057 1.83-6.057 1.108-3.325-2.425-5.75-5.958-3.949-10.875 5.681-21.821 11.43-32.35 17.734-1.633.977-3.244 1.997-4.856 3.017l-.001.001-.002.001c-6.046 3.826-12.099 7.657-19.317 9.242-.97.231-1.878.585-2.786.939-.454.177-.909.354-1.37.516.034.139.086.277.138.416.052.138.104.277.139.415.375-.05.75-.064 1.119-.077.652-.024 1.284-.048 1.859-.269a211.06 211.06 0 0 1 4.502-1.734c3.88-1.462 7.748-2.919 11.293-4.916 3.092-1.748 6.061-3.706 9.03-5.664 6.206-4.093 12.407-8.183 19.718-10.338.647-.216 1.24-.646 1.83-1.074.357-.26.713-.518 1.079-.727a326.61 326.61 0 0 0 2.473-1.393c2.297-1.304 4.604-2.612 6.948-3.733.857-.406 1.83-.518 3.074-.662a39.994 39.994 0 0 0 2.26-.308c-.531 1.77-1.019 3.448-1.488 5.059l-.003.008-.019.065-.001.004-.006.02-.001.006c-.987 3.393-1.888 6.49-2.915 9.524-.97 2.978-2.009 5.957-3.533 8.589-3.395 5.958-8.036 10.876-13.439 15.171-4.295 3.464-7.689 7.689-9.213 13.093ZM221.118 244.07c-.205.553-.416 1.107-.628 1.662-.504 1.321-1.011 2.653-1.45 4.019-8.036 24.314-12.469 49.114-10.184 74.745.832 9.836 1.109 19.535-.207 29.233-.034.267-.061.538-.089.812-.201 1.999-.417 4.14-3.098 5.907.164-1.241.304-2.388.437-3.471v-.003c.259-2.12.489-3.999.81-5.878 1.183-7.049.717-14.064.251-21.094v-.001c-.19-2.847-.379-5.698-.459-8.553-.485-18.427-.346-36.784 5.958-54.518 1.307-3.659 2.339-7.428 3.374-11.203l.001-.003c.61-2.227 1.221-4.456 1.889-6.666.385-1.298 1.036-2.528 1.676-3.738.283-.535.564-1.066.818-1.596.347.069.624.208.901.346Zm80.209 72.608c-.006.399-.011.797-.06 1.168.228 0 .436.021.623.04.134.013.257.026.37.029h.046c8.728-15.932 12.4-32.904 11.638-50.984-.555-12.4-5.75-22.583-14.617-31.034-.432-.378-.948-.714-1.45-1.041l-.004-.002-.008-.006a28.935 28.935 0 0 1-.408-.268c0 1.109.277 1.663.762 2.148 5.888 5.749 10.044 12.4 12.053 20.505 1.94 7.966 2.148 15.863 1.178 23.899-1.386 11.776-4.226 22.998-9.837 33.527-.267.579-.277 1.301-.286 2.019ZM79.663 176.876c1.956.257 3.942.414 5.928.571 7.649.604 15.302 1.209 21.296 7.534 1.732 1.87 3.187 4.225 4.018 6.581 1.663 4.641 3.117 9.351 3.949 14.131 1.039 6.304-2.078 11.361-6.235 15.864-.389.389-.734.823-1.285 1.516l-.447.562c7.013.852 12.91-1.397 18.629-3.578l.009-.003.967-.368c4.024-1.537 7.93-3.34 11.911-5.177l.001-.001c2.117-.977 4.256-1.965 6.445-2.927a8.123 8.123 0 0 0-.218.411c-.154.303-.28.552-.475.698-10.737 7.481-22.652 11.638-35.675 12.538-.721.045-1.441-.29-2.162-.626-.387-.18-.776-.361-1.163-.482.214-.358.396-.741.576-1.12.343-.721.68-1.429 1.225-1.928 6.581-5.473 9.213-13.855 5.057-23.692a302.8 302.8 0 0 1-.558-1.31c-2.695-6.358-5.349-12.622-12.674-14.761-3.51-1.032-7.176-1.603-10.823-2.171a241 241 0 0 1-3.724-.6c-1.15-.209-2.34-.3-3.539-.391-.39-.03-.78-.06-1.171-.094l.026-.155c.06-.349.112-.659.112-1.022Zm40.346 77.444.001-.001a282.4 282.4 0 0 1 4.611-4.36c-.208-.277-.416-.485-.693-.762-1.948 1.69-3.904 3.375-5.859 5.059-20.079 17.299-40.163 34.602-53.23 58.464.762-.208 1.247-.624 1.593-1.178 12.538-19.05 28.055-35.398 45.581-49.876 2.757-2.32 5.376-4.832 7.996-7.346ZM474.654 50.707c-3.93 3.293-7.615 6.403-11.342 9.556 3.403-.96 7.5-3.65 10.652-6.591 15.044-12.816 54.118-54.786 57.287-58.36a6.242 6.242 0 0 0-.623-.692c-3.519 2.905-40.767 40.529-55.974 56.087ZM296.171 330.286c1.269-1.994 2.562-4.026 2.74-6.83-4.226 3.048-6.581 8.174-4.641 10.253.495-1.214 1.194-2.313 1.901-3.423ZM186.35 109.605c2.287 1.623 3.633 3.268 4.955 4.883.735.899 1.463 1.788 2.342 2.659-2.25-.37-5.889-4.155-7.297-7.542Zm-51.27 75.152c-1.7-.437-3.405-.875-5.194-.676 2.826 1.133 6.927 2.079 9.005 1.385-1.29-.062-2.549-.385-3.811-.709Zm71.006 177.978c-.183.836-.247 1.707-.31 2.58-.153 2.092-.305 4.189-2.114 5.802-.174-.035-.364-.087-.555-.139l-.02-.005a7.92 7.92 0 0 0-.146-.04l-.186-.048-.038-.009-.034-.008a3.842 3.842 0 0 0-.13-.028c.312-1.42.641-2.84.97-4.26l.001-.003c.328-1.419.657-2.838.969-4.258.554.139 1.108.277 1.593.416Zm147.377-167.918c.658.953 1.316 1.906 1.905 2.772 1.034-.739.03-2.987-.722-4.012a370.837 370.837 0 0 0-2.326-3.124c-.761.634-.307 2.261.254 3.077l.889 1.287Zm-150.14-135.6c.871.178 1.821.349 2.771.52.542.096 1.083.194 1.61.292.646.121 1.456.712 1.406 1.367h-.002c-1.238-.195-2.477-.39-3.701-.6-.823-.14-2.21-.754-2.084-1.58Z" fill="#596676"/><path d="M166.723 181.21h-.001l-.001-.001-.003-.001a322.016 322.016 0 0 0-5.03-1.792c12.653-6.405 15.764-17.975 8.573-29.131-5.877-9.16-15.073-12.534-25.168-14.531a56.224 56.224 0 0 1-13.206-4.408c-2.329-1.129-4.522-2.556-6.712-3.981-2.751-1.79-5.497-3.576-8.499-4.765-8.989-3.581-16.111-9.641-23.232-15.771l-2.697-2.066c4.287 9.504 4.84 19.008 3.457 28.718-.968 6.611.692 12.396 4.979 17.286 5.946 6.68 10.371 14.255 14.589 22.037 2.526 4.581 8.95 9.849 14.729 11.276.389.097-.347-.692-.347-.692-5.195-1.777-11.409-7.071-13.967-12.443-3.803-7.989-8.851-15.22-14.659-21.969-3.664-4.201-4.494-9.228-4.148-14.806.276-3.951.184-7.932.092-11.902v-.002c-.046-1.982-.092-3.961-.092-5.933 0-.551.069-1.17.138-1.79.173-.034.328-.087.484-.138.156-.052.311-.104.484-.138l.961 1.97c1.959 4.012 3.903 7.995 5.746 12.079 7.398 16.322 18.254 29.957 32.22 41.045 2.273 1.848 5.013 3.138 7.76 4.432h.001c1.348.635 2.697 1.27 3.994 1.973-25.376-14.945-39.274-38.566-50.198-63.358a776.133 776.133 0 0 1 6.83 4.06c3.523 2.111 7.172 4.297 10.871 6.407 1.414.809 2.887 1.509 4.353 2.205l.001.001c2.403 1.141 4.785 2.272 6.847 3.855 6.499 5.027 13.759 7.3 21.78 8.677 10.855 1.86 19.636 7.162 23.854 18.043 3.872 9.917-.761 19.145-10.994 22.038-.263.075-.486.211-.791.398a12.05 12.05 0 0 1-1.006.566c10.786 6.06 21.78 9.366 33.603 9.228 2.11 0 4.188-.95 6.277-1.905.992-.453 1.987-.908 2.988-1.263a10.217 10.217 0 0 0-.138-.723c-.052-.241-.104-.482-.138-.723-12.143 6.077-23.071 2.114-34.584-2.062Z" fill="#596676"/><path d="m179.044 192.806-.057-.028-.001-.001c-7.562-3.815-14.99-7.562-22.485-11.106-.909-.454-2.373-.045-3.571.29l-.186.052c-.912.297-1.763.689-2.66 1.101v.001c-2.396 1.101-5.113 2.351-10.153 2.351 5.51-.973 8.817-2.97 11.739-4.734l.397-.239.198-.12c1.982-1.161 3.484-.956 5.602 0 4.973 2.366 10.015 4.561 15.052 6.755l.006.002c2.088.91 4.175 1.818 6.256 2.739.887.388 1.685.911 2.465 1.423.181.119.361.237.541.353-.263.31-.492.662-.719 1.012-.425.651-.845 1.297-1.467 1.652-7.426 4.12-14.938 8.196-22.433 12.264l-.002.001-.003.001-5.844 3.173c-.752.41-1.571.478-2.596.205a4616.708 4616.708 0 0 0 29.921-17.147ZM60.488 319.767c-.614 1.146-1.257 2.344-1.95 3.64 3.042-.267 5.358-4.262 4.42-8.257a1539.96 1539.96 0 0 1-2.47 4.616v.001Zm49.149 13.484 3.127-2.089c1.373-.916 2.659-1.775 3.96-2.648-1.24 3.441-4.796 5.666-7.087 4.737Zm-33.712-155.6c.66.099 1.34.202 2.05.162-1.501-1.965-5.694-1.856-8.512.477.754-.044 1.503-.214 2.261-.386.784-.179 1.578-.359 2.398-.404.586-.033 1.185.058 1.803.151Zm217.311 55.399c-1.274-1.069-2.451-2.06-3.577-3.008-1.57-1.322-3.041-2.56-4.535-3.81 4.642-.108 8.525 3.388 8.112 6.818Zm165.78-168.024c-.421.355-.838.71-1.254 1.063-1.329 1.13-2.645 2.248-4.052 3.323a912.876 912.876 0 0 1-19.717 14.223 8877.155 8877.155 0 0 0-12.067 8.606l-.024.017-.113.081c-9.284 6.629-18.747 13.386-27.811 19.744-.558.397-.915.372-1.481.331a8.977 8.977 0 0 0-.761-.031c10.66-6.817 20.24-14.487 29.869-22.198l.002-.001c11.453-9.17 22.976-18.398 36.469-26.311l.94 1.153Z" fill="#596676"/></svg>