<svg width="492" height="459" fill="none" xmlns="http://www.w3.org/2000/svg"><path d="M10.798 418.583c-17.113 17.78-32.126 32.817-40.347 39.242l1.174 1.175c.09-.135.914-.831 2.27-1.976 4.286-3.619 13.886-11.725 22.466-20.823l8.43-8.937.005-.005.031-.032c10.933-11.588 20.708-21.947 21.102-22.462 20.243-21.97 43.25-39.449 70.54-52.092 4.766-2.211 9.395-5.251 12.988-8.982 5.665-7.323 14.163-11.814 22.592-15.476 8.49-3.648 16.662-7.933 24.883-12.244l1.025-.537c5.043-2.625 10.018-5.182 15.959-4.353 1.166.169 2.333.332 3.502.496 5.068.709 10.156 1.421 15.152 2.544 10.502 2.418 10.916 4.076 6.564 13.818-5.32 11.952-5.942 23.905 3.247 34.544 6.701 7.807 14.647 13.956 24.872 16.582.892.231 1.783.463 2.674.696 10.561 2.758 21.06 5.5 32.146 5.245 5.32-.069 10.571 0 15.891.138 1.284.048 2.045.152 2.98.279.423.058.882.121 1.442.185.034-.207-.26-.449-.553-.69-.294-.242-.588-.484-.553-.691-6.245-.951-12.543-1.128-18.838-1.305-8.583-.241-17.159-.483-25.586-2.683-11.538-2.971-21.97-6.978-30.468-15.614-8.152-8.291-10.985-17.894-7.876-29.017.744-2.649 1.987-5.142 3.227-7.626v-.002c.603-1.207 1.205-2.413 1.747-3.634 1.935-4.352.346-7.807-4.145-9.465-9.811-3.661-20.036-4.836-30.468-4.836-2.28 0-4.836.484-6.84 1.589-2.29 1.262-4.558 2.566-6.828 3.87-7.794 4.48-15.593 8.961-24.262 11.744-8.912 2.833-18.239 9.12-23.213 15.2-3.455 3.385-7.6 6.425-12.022 8.497-17.41 8.222-33.163 18.171-48.086 30.192-3.817 3.071-15.8 15.553-28.859 29.156l-.002.002v.001l-.004.004c-2.629 2.738-5.3 5.522-7.959 8.283ZM121.409 274.12a149.79 149.79 0 0 1-.976-1.253c-.971-1.256-1.943-2.513-3.031-3.653-6.494-6.84-13.541-13.127-21.97-17.617-14.302-7.669-26.254-18.102-35.65-31.367-.463-.669-1.003-1.338-1.82-2.351-.28-.346-.592-.732-.943-1.172.09.582.157 1.062.215 1.471.12.855.197 1.4.337 1.914 2.191 7.756 1.946 15.614 1.7 23.486a454.915 454.915 0 0 0-.11 3.942c-.07 3.662.621 6.702 3.177 9.466 2.695 2.832 4.146 6.218 3.8 10.363-.345 4.352 1.797 7.738 4.698 10.709 11.316 14.629 19.973 15.172 31.755 15.91h.002c1.238.078 2.51.158 3.824.256 3.731.277 7.531.691 9.949 3.869.898 1.244 1.381 3.455.967 4.837-2.662 6.621-4.177 10.196-4.621 10.934-1.354 3.731-2.728 7.481-4.184 11.117l-.032.079-.106.264c-1.199 3.008-2.453 6.153-6.369 6.89 1.933-3.796 3.821-7.511 5.682-11.172 2.348-4.62 4.653-9.154 6.951-13.66l.537-1.551c1.727-5.112.553-7.53-4.698-9.05-1.865-.553-3.869-.76-5.803-.829-14.163-.622-22.04-1.728-35.235-16.927-3.04-2.902-5.113-6.702-4.906-11.054.138-4.267-1.78-7.3-3.912-10.669l-.026-.04c-1.52-2.349-2.556-5.32-2.901-8.153-.325-2.817-.183-5.719-.04-8.639v-.005c.04-.802.079-1.606.109-2.41.621-12.712-1.935-24.457-10.433-34.337-.131-.175-.207-.378-.28-.573a3.443 3.443 0 0 0-.134-.325c.207-.207.414-.414.621-.691 1.069 1.138 2.155 2.275 3.24 3.412l.008.008.008.008c1.085 1.138 2.17 2.275 3.239 3.412 7.392 8.014 15.821 13.749 27.082 14.44 3.42.211 6.84.706 10.26 1.2 2.176.315 4.353.63 6.529.872 12.92 1.52 24.112 6.564 32.955 16.305 1.313 1.451 2.349 3.178 3.178 4.905-.52-.47-1.045-.94-1.571-1.411-1.637-1.468-3.285-2.945-4.854-4.461-6.425-6.287-13.956-10.502-22.868-12.091-5.458-.967-10.916-1.658-16.443-2.21-10.364-1.037-20.52-2.488-28.741-9.88 4.767 7.876 10.363 15.061 17.617 20.381 4.319 3.144 8.827 6.011 13.335 8.878 4.508 2.867 9.016 5.734 13.334 8.878 4.533 3.346 8.603 7.283 12.67 11.216l.014.013.028.028a450.376 450.376 0 0 0 3.385 3.251c.747.701 1.21 1.748 1.667 2.78.219.495.436.987.682 1.435a5.983 5.983 0 0 1-.541.379l-.17.111a2.78 2.78 0 0 0-.112.077l-.038.027-.007.006-.03.022ZM290.262 72.104c4.56-17.825 9.119-35.58 13.679-53.337l.048.013.042.01h.002c.232.06.416.108.599.047.087 1.167.132 2.348.178 3.53l.001.034c.1 2.584.199 5.17.719 7.628 3.247 15.13 7.738 29.915 14.509 44.01 4.905 10.086 8.498 20.588 8.083 32.125-.021.738-.048 1.476-.075 2.216-.144 3.975-.289 7.976.352 11.879 1.278 7.91 2.711 15.803 4.145 23.695v.004c1.434 7.892 2.867 15.785 4.145 23.695 1.935 12.091 1.037 23.974-3.385 35.581-6.564 17.134-26.185 27.566-45.668 21.003-5.872-1.935-11.745-3.731-18.17-3.109-2.833.207-4.007.898-4.629 3.731l-.344 1.586-.001.006c-1.529 7.066-3.049 14.094-6.84 20.585-2.888 4.951-4.871 10.404-6.849 15.845-.341.938-.682 1.875-1.027 2.809-.484 1.382.138 3.662 1.036 4.905.415.622 2.902.069 4.284-.483 1.55-.626 3.074-1.343 4.601-2.061l.013-.005c2.006-.943 4.017-1.888 6.094-2.632 3.21-1.11 6.445-2.129 9.678-3.147l.011-.003c4.211-1.326 8.417-2.65 12.558-4.174 9.949-3.592 18.723-9.189 27.013-15.683 2.764-2.145 5.695-4.077 8.629-6.01h.001c3.301-2.176 6.606-4.353 9.679-6.84 5.457-4.377 10.577-9.177 15.689-13.969l.001-.001a940.438 940.438 0 0 1 4.277-3.993c4.421-4.077 5.941-9.12 3.799-13.265-5.319-10.364-7.185-20.934-5.734-32.679 1.589-12.574 5.389-23.974 13.058-33.992 2.132-2.722 4.354-5.415 6.567-8.097l.001-.001.04-.048a810.793 810.793 0 0 0 3.41-4.152c-.104-.103-.225-.207-.346-.311a5.96 5.96 0 0 1-.345-.31 489.39 489.39 0 0 1-3.43 3.98l-.007.009-.002.002c-1.976 2.277-3.939 4.538-5.819 6.855-11.745 14.44-15.476 31.505-14.716 49.468.276 6.218 2.764 12.643 5.458 18.377 2.28 4.837 1.382 8.498-1.865 11.538-8.291 7.807-16.72 15.476-25.494 22.661-3.377 2.734-7.011 5.14-10.643 7.545-2.611 1.729-5.221 3.457-7.735 5.306-8.428 6.218-17.686 10.709-27.566 13.956-8.152 2.694-16.305 5.527-24.457 8.359-1.275.41-2.489.969-3.9 1.619-.731.337-1.515.699-2.387 1.076.094-.73.148-1.387.197-1.989.096-1.164.175-2.12.493-2.986 1.175-2.936 2.419-5.838 3.662-8.739 1.244-2.902 2.487-5.804 3.662-8.74.38-.971.768-1.942 1.157-2.913 1.656-4.146 3.32-8.309 4.439-12.563 2.142-8.152 4.491-9.81 12.712-7.6.553.139 1.106.311 1.658.484.553.173 1.106.346 1.659.484 1.022.28 2.044.572 3.068.865 3.267.933 6.554 1.872 9.92 2.451 16.72 2.902 31.436-5.665 39.243-18.723 4.836-8.153 6.425-17.41 6.701-26.806.415-14.44-2.003-28.603-5.112-42.628a520.975 520.975 0 0 0-.976-4.384c-1.894-8.409-3.789-16.82-3.377-25.531.415-9.189-.691-18.102-4.007-26.738-1.446-3.77-2.91-7.536-4.375-11.3l-.003-.008c-3.364-8.647-6.726-17.29-9.854-26-4.146-11.537-6.495-23.351-3.593-35.718.412-1.877.308-3.845.192-6.064v-.001c-.06-1.13-.123-2.326-.123-3.608a44.196 44.196 0 0 1-1.174 1.818l-.001.001c-.356.53-.646.96-.898 1.429a1231.75 1231.75 0 0 1-2.742 4.77l-.006.01c-2.415 4.19-4.828 8.374-7.131 12.63-4.215 7.738-10.294 13.472-18.101 17.48a363.049 363.049 0 0 0-16.927 9.326c-10.225 6.01-20.381 12.16-28.948 20.52-8.738 8.523-15.73 18.461-22.717 28.394l-.005.008c-2.016 2.865-4.031 5.73-6.088 8.56-.335.479-.372 1.123-.409 1.773a8.73 8.73 0 0 1-.075.852l1.037.415a2020.19 2020.19 0 0 1 3.182-4.397c2.897-3.997 5.801-8.003 8.632-12.046 8.083-11.745 16.857-22.938 28.741-30.952 10.985-7.323 22.592-13.818 34.129-20.174 8.222-4.49 14.854-10.363 19.345-18.585 1.188-2.177 2.517-4.248 4.039-6.62h.001l.001-.002.004-.005.005-.01c.6-.933 1.229-1.914 1.892-2.966-1.309 4.26-2.583 8.361-3.829 12.37l-.001.003-.003.01a2276.06 2276.06 0 0 0-5.356 17.394c-4.353 14.301-6.494 27.428-4.905 29.363Z" fill="#6A4752"/><path fill-rule="evenodd" clip-rule="evenodd" d="M429.702 266.075a645.729 645.729 0 0 0-5.271 1.826c0 .207.069.414.139.484.122.024.244.066.363.106.217.075.425.145.604.101l1.422-.394c12.244-3.382 24.494-6.766 33.606-16.809 7.807-8.636 17.617-13.818 29.017-16.167.41-.041.771-.203 1.242-.415.323-.146.698-.314 1.176-.483-.364-.156-.65-.293-.887-.406l-.001-.001h-.002c-.391-.187-.649-.31-.906-.353-9.189-1.106-16.305-5.942-23.076-12.091-9.81-8.981-21.072-15.683-34.544-17.617-.444-.089-.888-.292-1.662-.645-.43-.197-.963-.441-1.654-.737.453-.191.824-.332 1.132-.45.585-.223.945-.36 1.217-.586 8.359-7.393 14.923-16.167 18.792-26.53 1.749-4.666 2.849-9.57 3.949-14.474.464-2.068.927-4.135 1.44-6.184 2.003-7.945 1.796-15.89-.346-23.835-2.832-10.64-3.523-21.28.277-31.85.14-.388.282-.777.424-1.165l.002-.007c.767-2.098 1.537-4.204 2.061-6.359.331-1.181.435-2.46.557-3.946.056-.686.115-1.417.203-2.203-.425.273-.703.44-.882.546l-.003.003c-.225.134-.29.173-.29.211-.19.444-.351.887-.509 1.324-.188.516-.372 1.023-.596 1.509-2.626 5.803-5.735 11.4-12.713 12.367-6.839.967-13.748 1.727-20.588 1.658-13.334-.069-25.77 3.04-37.791 8.36-.362.154-.646.464-.94.783a10.18 10.18 0 0 1-.304.322c2.211-.207 4.145-.829 6.011-1.658 9.948-4.284 20.381-5.804 31.159-6.702 2.721-.236 5.481-.248 8.25-.259 7.775-.034 15.624-.068 22.909-5.06-2.281 4.293-5.474 7.74-8.622 11.138-3.336 3.601-6.622 7.148-8.72 11.592 3.915-4.237 7.799-8.474 11.795-12.834 1.999-2.18 4.026-4.392 6.099-6.649-2.625 8.843-2.141 17.272.139 25.632 2.556 9.534 2.418 18.999.69 28.74-2.694 15.407-8.428 29.156-19.275 40.486-2.211 2.28-4.698 4.56-7.531 5.942-6.356 3.04-12.781 6.011-19.414 8.083-12.85 4.007-25.632 5.389-37.86-2.625-3.178-2.073-6.909-1.727-10.087.553-2.073 1.45-4.007 3.178-5.735 4.974-4.215 4.319-8.391 8.717-12.557 13.104l-.023.025c-1.358 1.429-2.714 2.857-4.07 4.281-.72.765-1.411 1.56-2.111 2.365-.374.43-.751.863-1.136 1.297.103.173.224.345.345.518.121.173.242.346.346.518.748-.288 1.496-.587 2.249-.889l.002-.001h.001c1.054-.422 2.118-.849 3.206-1.251 3.236-1.202 6.359-2.682 9.484-4.162 5.679-2.691 11.363-5.384 17.737-6.409 5.193-.794 10.386-1.913 15.531-3.021.673-.145 1.346-.29 2.017-.433.898-.208 2.349-.968 2.487-1.728.415-2.141 1.658-2.349 3.455-2.418 10.156-.345 19.966-2.832 28.81-7.53 7.461-3.938 14.232-2.28 21.21-.208 10.152 3.019 18.125 9.427 26.203 15.92 4.125 3.316 8.278 6.654 12.763 9.574-.341.04-.659.086-.959.129-.732.106-1.355.196-1.943.147-2.066-.189-4.133-.353-6.197-.517h-.002l-.007-.001h-.005l-.001-.001c-4.695-.372-9.38-.744-14.031-1.415-1.296-.193-2.609-.364-3.925-.536-5.28-.688-10.623-1.384-15.212-3.54-13.265-6.287-27.083-7.669-41.315-7.6-.933 0-1.901.244-2.854.485-.388.098-.774.195-1.154.275.035.173.052.345.07.518.017.173.034.345.069.518 1.567 0 3.126-.015 4.682-.031h.007c3.108-.03 6.207-.061 9.336.031 10.156.277 19.966 2.004 29.017 6.771 1.865.967 3.869 1.727 5.872 2.003 10.225 1.52 20.451 3.04 30.745 4.215 2.66.285 5.386.211 8.109.136 1.238-.033 2.475-.067 3.705-.067-.207 1.105-.553 1.451-.898 1.52-7.945 1.934-14.371 6.287-20.381 11.745-.884.801-1.756 1.621-2.629 2.441l-.001.001c-4.242 3.987-8.498 7.988-14.228 9.994-1.96.689-3.882 1.437-5.796 2.181h-.002l-.001.001h-.002l-.001.001-.004.002h-.003l-.002.001-.002.001h-.001l-.001.001a211.88 211.88 0 0 1-5.17 1.957c-1.757.62-3.513 1.223-5.27 1.826l-.03.01Zm-45.135-47.711c-15.268.899-29.293 6.149-43.595 11.607 2.729-2.901 5.441-5.82 8.153-8.739 2.712-2.919 5.423-5.838 8.152-8.74 4.215-4.422 8.084-4.767 13.68-2.28 2.875 1.278 5.901 2.254 8.918 3.228h.001c1.55.5 3.098 1 4.622 1.539.49.178.894.529 1.305.885.226.196.453.394.699.566a9.857 9.857 0 0 0-.538.678c-.447.597-.905 1.207-1.397 1.256Z" fill="#6A4752"/><path d="M321.627 384.177a20937.347 20937.347 0 0 1-14.37-45.184c.104-.069.19-.138.276-.207.086-.069.173-.139.277-.208.402.782.853 1.547 1.303 2.31.863 1.463 1.721 2.917 2.22 4.461 1.426 4.464 2.741 8.97 4.056 13.479l.007.021v.001c1.614 5.534 3.231 11.075 5.057 16.553 1.589 4.767 4.007 9.257 6.425 13.679 2.008 3.673 4.147 7.267 6.288 10.864 1.322 2.221 2.645 4.443 3.937 6.685.622 1.105.898 2.487.76 4.076a4.465 4.465 0 0 0-.366-.319c-.238-.192-.464-.375-.601-.648-3.731-7.738-9.742-13.058-16.927-17.618-5.665-3.593-11.607-4.698-18.032-4.353-2.763.139-5.527 0-8.29-.138-1.106-.069-2.211-.552-3.179-1.382 2.443.045 4.91-.055 7.377-.155 9.121-.37 18.247-.74 26.131 6.166-24.733-38.344-58.656-63.976-102.734-76.066 10.501.898 20.174 4.767 29.362 9.465 9.327 4.698 18.585 9.741 27.152 15.683a186.52 186.52 0 0 1 23.836 19.759c5.091 5.091 9.715 10.684 14.196 16.103l.001.002.001.001c1.964 2.375 3.901 4.717 5.837 6.97Zm-147.428-79.961a9.332 9.332 0 0 1-.697.716c3.209.532 6.373 1.08 9.505 1.623h.001l.003.001h.004l.001.001h.003c7.855 1.361 15.509 2.688 23.162 3.626 2.625.276 6.356-1.244 8.221-3.247 7.185-7.738 15.821-8.222 25.148-6.356 2.56.512 5.09 1.201 7.617 1.89 2.931.799 5.859 1.597 8.826 2.117 15.476 2.625 28.327 9.741 38.897 21.279.565.621 1.222 1.104 1.896 1.599l.159.117.294.219c.208-1.106 0-1.659-.345-2.004-7.462-7.393-15.061-14.785-25.356-17.963-11.537-3.593-23.144-6.978-34.958-9.396-8.222-1.727-16.305-.138-22.454 6.632-3.178 3.524-7.255 4.146-11.676 3.248-.723-.138-1.463-.276-2.204-.414l-.007-.001a409.54 409.54 0 0 1-2.211-.415c-2.555-.517-5.127-1.018-7.699-1.519l-.008-.001c-2.572-.501-5.145-1.002-7.7-1.519-.036-.145-.053-.31-.071-.483-.017-.156-.034-.321-.067-.485 2.695-1.018 5.365-2.128 8.032-3.237 6.015-2.502 12.021-4.999 18.291-6.435 16.194-3.65 31.446-9.822 46.699-15.995 9.865-3.992 19.73-7.985 29.851-11.295.713-.238 1.393-.639 2.198-1.113.365-.215.756-.446 1.187-.683a23.035 23.035 0 0 1-.705-.342l-.003-.001c-.358-.179-.512-.256-.604-.21-2.809.97-5.653 1.88-8.501 2.793-6.891 2.206-13.808 4.422-20.309 7.501-14.676 6.948-30.023 11.516-45.468 16.113l-2.963.883c-8.206 2.433-16.248 5.328-24.306 8.228l-.002.001c-3.611 1.3-7.225 2.6-10.858 3.861-.299.086-.519.33-.823.666Zm11.881-13.245c1.195-.669 2.381-1.332 3.657-1.514 8.153-1.244 15.545-4.491 23.007-7.946 5.043-2.349 10.571-3.799 16.029-5.112 6.908-1.658 11.537-5.873 14.854-11.883 1.09-1.968 2.222-3.912 3.352-5.853 2.163-3.716 4.321-7.424 6.182-11.281 2.497-5.165 4.621-10.469 6.755-15.799.464-1.158.929-2.318 1.397-3.477.289-.674.276-1.448.265-2.113v-.005a7.61 7.61 0 0 1 .012-.784 513.414 513.414 0 0 0-8.357 1.767h-.003l-.005.001-.004.001-.002.001h-.004v.001h-.004l-.009.002-.003.001c-6.039 1.311-11.988 2.603-18.001 3.408-9.12 1.243-17.411-2.142-25.425-5.942.035-.207.087-.397.138-.587.052-.19.104-.38.139-.587.322.069.66.115.997.161.676.092 1.352.184 1.904.461 14.232 6.908 28.465 5.734 42.766.138 1.627-.622 3.386-.88 5.162-1.14.79-.115 1.582-.231 2.369-.38-.042.767-.027 1.558-.013 2.35.034 1.849.068 3.702-.609 5.25-2.764 6.563-5.942 12.85-9.189 19.206-.989 1.978-2.07 3.909-3.149 5.837-1.56 2.787-3.116 5.565-4.382 8.465-3.523 7.876-9.672 12.09-17.548 14.715-4.085 1.399-8.111 2.994-12.131 4.586l-.01.004-.003.001c-3.522 1.395-7.039 2.788-10.586 4.045-5.25 1.856-10.581 3.468-15.932 5.086-1.62.49-3.242.98-4.864 1.478a6.293 6.293 0 0 0-.622-1.589c.635-.282 1.254-.628 1.87-.973Zm-40.283-18.303c1.244-4.422 1.106-8.706-1.658-12.92a12.96 12.96 0 0 1-.224.348c-.174.267-.224.343-.121.343a2.618 2.618 0 0 0 0 1.036c2.763 9.396-1.106 16.512-7.945 22.592-.79.691-1.591 1.371-2.392 2.05l-.001.001c-2.001 1.699-4.003 3.398-5.829 5.273-6.66 6.772-9.194 15.447-11.716 24.081-.592 2.025-1.182 4.047-1.825 6.041-1.106 3.316 2.418 5.735 5.941 3.938 10.847-5.665 21.763-11.399 32.265-17.686 1.628-.975 3.235-1.992 4.843-3.009l.001-.001.002-.001c6.03-3.816 12.066-7.636 19.266-9.218.967-.23 1.873-.583 2.778-.937.453-.176.906-.353 1.367-.514a3.939 3.939 0 0 0-.138-.414c-.052-.139-.104-.277-.138-.415-.375.05-.749.064-1.117.077-.65.024-1.281.048-1.854.268a209.954 209.954 0 0 1-4.49 1.73c-3.87 1.458-7.728 2.912-11.262 4.903-3.085 1.743-6.046 3.696-9.007 5.649-6.19 4.082-12.374 8.161-19.665 10.31-.646.216-1.237.645-1.826 1.072-.356.259-.711.516-1.076.725-.822.456-1.643.922-2.466 1.389-2.291 1.3-4.592 2.605-6.93 3.723-.854.405-1.825.517-3.066.66-.666.077-1.409.163-2.254.308.53-1.766 1.017-3.439 1.485-5.046l.002-.009.019-.065.001-.003.006-.02.001-.006c.985-3.384 1.884-6.472 2.908-9.498.967-2.971 2.003-5.942 3.523-8.567 3.386-5.942 8.015-10.847 13.404-15.131 4.283-3.454 7.668-7.668 9.188-13.057Zm125.673-70.055c.204-.552.414-1.104.625-1.657.503-1.318 1.009-2.647 1.447-4.009 8.014-24.25 12.436-48.983 10.156-74.546-.829-9.811-1.105-19.483.208-29.156.033-.266.06-.537.088-.81.201-1.993.416-4.13 3.09-5.891a335.53 335.53 0 0 0-.436 3.462v.002c-.259 2.115-.488 3.989-.808 5.863-1.18 7.031-.715 14.027-.25 21.038v.001c.189 2.84.378 5.683.457 8.531.484 18.377.346 36.686-5.941 54.372-1.304 3.65-2.334 7.409-3.366 11.174v.002c-.609 2.221-1.219 4.445-1.885 6.649-.383 1.294-1.033 2.521-1.671 3.728a46.197 46.197 0 0 0-.816 1.592c-.346-.069-.622-.207-.898-.345Zm-79.996-72.415c.005-.398.01-.795.06-1.165-.229 0-.436-.021-.622-.04a4.932 4.932 0 0 0-.369-.029h-.046c-8.705 15.89-12.367 32.817-11.607 50.849.553 12.367 5.735 22.523 14.578 30.951.431.377.945.712 1.446 1.038l.004.002.008.006c.138.089.274.178.407.267 0-1.105-.276-1.658-.76-2.142-5.872-5.734-10.017-12.366-12.021-20.45-1.934-7.945-2.142-15.821-1.174-23.835 1.381-11.745 4.214-22.938 9.81-33.439.267-.577.276-1.297.286-2.013Zm221.074 139.431c-1.951-.257-3.931-.413-5.911-.57-7.629-.603-15.262-1.206-21.241-7.514-1.727-1.865-3.178-4.214-4.007-6.563-1.658-4.629-3.109-9.327-3.938-14.094-1.036-6.287 2.073-11.331 6.218-15.822.389-.388.732-.821 1.282-1.512l.445-.56c-6.994-.85-12.875 1.392-18.579 3.568l-.009.003-.964.367c-4.013 1.533-7.909 3.331-11.879 5.164h-.001c-2.112.975-4.245 1.96-6.428 2.919.082-.144.152-.281.217-.409.154-.302.28-.551.474-.696 10.709-7.462 22.592-11.607 35.58-12.505.719-.045 1.437.289 2.156.624.387.18.774.36 1.161.481-.214.357-.396.739-.575 1.116-.342.72-.678 1.426-1.222 1.924-6.563 5.458-9.188 13.818-5.043 23.628.187.436.371.872.556 1.308 2.687 6.341 5.335 12.588 12.64 14.721 3.502 1.03 7.157 1.599 10.794 2.166 1.243.193 2.483.386 3.714.597 1.147.209 2.334.299 3.53.391.389.029.779.059 1.168.093l-.026.155c-.059.348-.112.658-.112 1.02ZM372.31 192.39l-.001.001a285.315 285.315 0 0 1-4.599 4.349c.207.276.414.483.691.76 1.943-1.686 3.894-3.366 5.844-5.047 20.025-17.252 40.056-34.51 53.088-58.307-.76.207-1.243.621-1.589 1.174-12.505 18.999-27.981 35.304-45.46 49.744-2.749 2.313-5.361 4.819-7.974 7.326ZM18.607 395.463c3.919-3.285 7.594-6.387 11.312-9.531-3.394.958-7.48 3.64-10.624 6.573C4.29 405.287-34.68 447.146-37.84 450.709c.207.277.414.484.621.691 3.51-2.897 40.659-40.421 55.826-55.937Zm178.009-278.837c-1.266 1.989-2.555 4.015-2.733 6.811 4.214-3.04 6.563-8.152 4.629-10.225-.494 1.211-1.191 2.307-1.896 3.414Zm109.529 220.095c-2.281-1.62-3.624-3.26-4.942-4.87-.733-.897-1.459-1.784-2.335-2.653 2.243.369 5.873 4.145 7.277 7.523Zm51.134-74.952c1.696.435 3.396.871 5.18.673-2.819-1.129-6.909-2.073-8.981-1.381 1.286.062 2.542.384 3.801.708ZM286.461 84.263c.183-.833.247-1.703.31-2.573.152-2.087.304-4.178 2.108-5.787.173.035.363.087.553.138l.021.006a19.466 19.466 0 0 0 .33.087l.038.01.034.008c.044.01.088.02.13.028a381.842 381.842 0 0 1-.967 4.249l-.001.002c-.328 1.416-.656 2.831-.967 4.247-.552-.139-1.105-.277-1.589-.415ZM139.476 251.735c-.657-.95-1.313-1.901-1.9-2.764-1.032.736-.03 2.978.72 4a353.454 353.454 0 0 0 2.32 3.116c.758-.632.306-2.255-.254-3.068l-.886-1.284Zm149.741 135.24c-.868-.178-1.816-.348-2.764-.518-.54-.097-1.08-.194-1.605-.292-.644-.121-1.452-.711-1.402-1.364l.001.001c1.235.194 2.471.388 3.692.597.821.141 2.203.753 2.078 1.576Z" fill="#6A4752"/><path d="M325.719 265.306h.003l.003.002c1.658.601 3.329 1.207 5.017 1.787-12.62 6.388-15.723 17.927-8.551 29.054 5.861 9.135 15.033 12.501 25.101 14.492a56.018 56.018 0 0 1 13.171 4.396c2.323 1.127 4.511 2.55 6.695 3.971 2.743 1.785 5.482 3.567 8.476 4.752 8.965 3.572 16.068 9.616 23.171 15.729l2.689 2.06c-4.275-9.478-4.827-18.956-3.448-28.641.965-6.594-.69-12.363-4.965-17.24-5.931-6.662-10.344-14.217-14.55-21.979-2.52-4.568-8.927-9.823-14.69-11.246-.389-.096.345.691.345.691 5.182 1.772 11.379 7.052 13.931 12.41 3.793 7.967 8.827 15.179 14.619 21.91 3.655 4.19 4.483 9.204 4.138 14.767-.276 3.94-.184 7.91-.092 11.871v.001c.046 1.977.092 3.951.092 5.917 0 .55-.069 1.168-.138 1.786a3.783 3.783 0 0 0-.483.138c-.155.051-.31.103-.483.137l-.958-1.965c-1.954-4.001-3.893-7.973-5.731-12.047-7.378-16.278-18.205-29.877-32.135-40.936-2.267-1.843-4.999-3.129-7.739-4.42h-.001c-1.344-.633-2.689-1.267-3.983-1.967 25.308 14.904 39.169 38.463 50.065 63.189a772.498 772.498 0 0 1-6.812-4.05c-3.514-2.105-7.153-4.284-10.842-6.39-1.41-.806-2.88-1.504-4.342-2.198l-.001-.001c-2.397-1.138-4.772-2.266-6.828-3.845-6.483-5.014-13.723-7.28-21.723-8.654-10.826-1.855-19.584-7.143-23.79-17.995-3.862-9.891.758-19.095 10.964-21.979.263-.075.485-.211.789-.397.254-.156.565-.346 1.004-.565-10.758-6.044-21.722-9.341-33.514-9.204-2.104 0-4.177.948-6.261 1.9-.989.453-1.981.906-2.98 1.26.035.24.086.481.138.721.052.24.104.481.138.721 12.11-6.061 23.009-2.108 34.491 2.057Z" fill="#6A4752"/><path d="m313.431 253.74.057.029h.001c7.543 3.806 14.95 7.543 22.426 11.077.906.453 2.366.045 3.561-.289l.186-.052c.909-.297 1.758-.687 2.652-1.098l.001-.001c2.389-1.099 5.099-2.345 10.126-2.345-5.496.97-8.794 2.962-11.708 4.721l-.396.239-.198.119c-1.976 1.159-3.475.954-5.587 0-4.96-2.359-9.988-4.549-15.012-6.736l-.005-.003c-2.083-.907-4.164-1.813-6.24-2.731-.885-.387-1.68-.909-2.458-1.42-.181-.118-.36-.236-.54-.352.262-.309.49-.66.717-1.009.424-.65.843-1.293 1.463-1.648 7.406-4.108 14.898-8.174 22.374-12.231h.001l.003-.002 5.829-3.165c.75-.408 1.567-.477 2.589-.204a4646.499 4646.499 0 0 0-29.842 17.101Zm118.241-126.623c.613-1.143 1.254-2.338 1.945-3.631-3.033.267-5.343 4.251-4.407 8.235.806-1.515 1.607-3.008 2.462-4.603v-.001Zm-49.018-13.448-3.118 2.083c-1.37.914-2.653 1.77-3.95 2.641 1.237-3.432 4.783-5.651 7.068-4.724Zm33.622 155.187c-.657-.1-1.336-.202-2.043-.162 1.497 1.96 5.678 1.851 8.489-.476-.752.044-1.499.213-2.256.385-.782.178-1.574.358-2.391.403-.584.033-1.182-.057-1.799-.15Zm-216.733-55.253c1.271 1.067 2.445 2.055 3.567 3.001 1.566 1.318 3.033 2.553 4.523 3.8-4.63.107-8.502-3.38-8.09-6.801ZM34.203 381.181c.42-.354.836-.707 1.25-1.06 1.326-1.126 2.639-2.242 4.042-3.314a914.067 914.067 0 0 1 19.665-14.186c3.944-2.806 7.972-5.682 12.035-8.583l.023-.016.114-.081c9.258-6.611 18.697-13.351 27.737-19.692.556-.396.912-.371 1.476-.33.215.016.461.033.759.031-10.631 6.799-20.186 14.449-29.79 22.139v.001c-11.423 9.146-22.916 18.349-36.374 26.241l-.937-1.15Z" fill="#6A4752"/></svg>