<svg width="490" height="459" fill="none" xmlns="http://www.w3.org/2000/svg"><path d="M481.362 418.054c17.113 17.788 32.126 32.833 40.347 39.261l-1.174 1.175c-.09-.134-.914-.831-2.271-1.977-4.285-3.62-13.885-11.731-22.465-20.833l-8.431-8.941-.005-.005-.03-.032c-10.934-11.594-20.709-21.958-21.102-22.473-20.243-21.981-43.25-39.469-70.54-52.118-4.767-2.212-9.396-5.254-12.989-8.986-5.665-7.327-14.163-11.82-22.592-15.484-8.491-3.65-16.663-7.937-24.883-12.25h-.001l-1.025-.537c-5.043-2.627-10.018-5.185-15.959-4.355-1.165.168-2.333.332-3.502.495-5.068.71-10.156 1.423-15.152 2.546-10.502 2.419-10.916 4.078-6.564 13.825 5.32 11.958 5.942 23.916-3.247 34.561-6.702 7.811-14.647 13.963-24.872 16.589l-2.674.697c-10.561 2.76-21.061 5.503-32.147 5.248-5.32-.069-10.571 0-15.891.138-1.284.048-2.044.152-2.98.279-.423.058-.882.121-1.441.186-.035-.208.259-.45.553-.692.293-.242.587-.484.552-.691 6.246-.951 12.544-1.128 18.839-1.305 8.582-.242 17.158-.483 25.586-2.685 11.537-2.972 21.97-6.981 30.468-15.621 8.152-8.295 10.985-17.903 7.876-29.032-.744-2.65-1.987-5.144-3.227-7.629v-.002c-.603-1.208-1.205-2.415-1.747-3.636-1.935-4.354-.346-7.811 4.145-9.469 9.811-3.664 20.036-4.839 30.468-4.839 2.28 0 4.837.484 6.84 1.59 2.29 1.262 4.559 2.567 6.828 3.871 7.795 4.482 15.593 8.967 24.262 11.75 8.913 2.835 18.24 9.125 23.214 15.207 3.455 3.387 7.6 6.429 12.022 8.503 17.41 8.225 33.163 18.179 48.086 30.206 3.817 3.072 15.801 15.561 28.859 29.171l.002.002h.001l.004.004c2.628 2.74 5.301 5.525 7.959 8.288ZM370.75 273.519c.328-.415.652-.834.976-1.253.971-1.257 1.943-2.514 3.031-3.655 6.494-6.843 13.541-13.133 21.97-17.626 14.302-7.673 26.254-18.11 35.65-31.382.464-.67 1.004-1.339 1.821-2.353.279-.346.591-.732.943-1.172-.09.582-.158 1.062-.215 1.472-.121.855-.198 1.401-.338 1.915-2.191 7.76-1.946 15.621-1.701 23.497.041 1.315.082 2.63.112 3.945.069 3.663-.622 6.705-3.178 9.469-2.695 2.834-4.146 6.221-3.8 10.369.345 4.355-1.796 7.742-4.698 10.714-11.316 14.636-19.973 15.179-31.756 15.918h-.001c-1.238.078-2.511.158-3.824.256-3.731.277-7.531.692-9.949 3.871-.898 1.245-1.382 3.456-.967 4.839 2.662 6.625 4.177 10.201 4.621 10.94 1.354 3.732 2.728 7.484 4.184 11.122l.032.08.105.264c1.2 3.009 2.454 6.155 6.37 6.893-1.933-3.798-3.821-7.515-5.682-11.178-2.348-4.622-4.653-9.158-6.951-13.666l-.537-1.552c-1.728-5.115-.553-7.534 4.698-9.055 1.865-.553 3.869-.76 5.803-.829 14.163-.623 22.04-1.729 35.236-16.935 3.04-2.904 5.112-6.705 4.905-11.06-.138-4.269 1.781-7.303 3.913-10.674l.025-.04c1.52-2.35 2.556-5.323 2.902-8.157.325-2.818.182-5.721.039-8.643v-.005c-.039-.803-.079-1.607-.108-2.411-.622-12.719 1.934-24.47 10.432-34.354.131-.175.207-.378.28-.574.043-.113.084-.223.135-.325a6.055 6.055 0 0 1-.622-.691 598.846 598.846 0 0 1-3.24 3.414l-.007.008-.008.008a598.745 598.745 0 0 0-3.24 3.413c-7.392 8.018-15.821 13.756-27.082 14.447-3.42.211-6.84.706-10.26 1.201-2.176.315-4.353.631-6.529.873-12.92 1.52-24.112 6.566-32.956 16.312-1.312 1.452-2.349 3.18-3.178 4.908.521-.47 1.045-.941 1.571-1.412 1.637-1.468 3.286-2.946 4.854-4.463 6.426-6.29 13.956-10.507 22.869-12.097 5.458-.967 10.916-1.659 16.443-2.212 10.364-1.037 20.52-2.488 28.741-9.884-4.767 7.88-10.363 15.069-17.617 20.391-4.318 3.145-8.827 6.014-13.335 8.882-4.508 2.869-9.016 5.737-13.334 8.882-4.534 3.348-8.603 7.287-12.671 11.223l-.013.012-.028.028c-1.126 1.089-2.251 2.178-3.386 3.253-.747.701-1.21 1.749-1.666 2.781a18.54 18.54 0 0 1-.683 1.436c.199.159.375.272.541.379l.171.111a7.404 7.404 0 0 1 .187.132ZM201.896 71.404c-4.56-17.834-9.12-35.598-13.68-53.363l-.048.012-.042.01-.002.001c-.232.06-.415.107-.599.046a97.66 97.66 0 0 0-.177 3.531l-.002.036c-.1 2.584-.199 5.172-.719 7.63-3.247 15.139-7.738 29.931-14.509 44.032-4.905 10.092-8.498 20.599-8.083 32.142.021.737.048 1.477.075 2.217.144 3.977.289 7.979-.352 11.884-1.278 7.914-2.711 15.811-4.145 23.707v.004c-1.434 7.896-2.867 15.793-4.145 23.707-1.935 12.097-1.037 23.986 3.385 35.598 6.563 17.143 26.185 27.58 45.668 21.014 5.872-1.936 11.745-3.733 18.17-3.111 2.833.207 4.008.899 4.629 3.733l.345 1.587.001.006c1.528 7.069 3.048 14.101 6.84 20.595 2.887 4.953 4.87 10.409 6.849 15.853.341.938.682 1.876 1.027 2.81.483 1.383-.138 3.664-1.037 4.908-.414.622-2.901.069-4.283-.484-1.55-.626-3.075-1.343-4.602-2.061l-.012-.006c-2.007-.943-4.018-1.888-6.095-2.633-3.209-1.111-6.445-2.13-9.678-3.148l-.011-.004c-4.21-1.326-8.417-2.651-12.558-4.175-9.948-3.595-18.723-9.194-27.013-15.691-2.764-2.147-5.695-4.079-8.629-6.013l-.001-.001c-3.302-2.176-6.607-4.355-9.679-6.843-5.458-4.379-10.577-9.181-15.689-13.976l-.001-.001c-1.424-1.335-2.847-2.67-4.277-3.995-4.422-4.078-5.942-9.124-3.8-13.271 5.32-10.369 7.185-20.945 5.735-32.695-1.589-12.581-5.389-23.986-13.058-34.009-2.133-2.723-4.354-5.417-6.568-8.101l-.001-.001-.039-.047a753.349 753.349 0 0 1-3.41-4.155c.103-.103.224-.207.345-.311.121-.103.242-.207.346-.311a457.904 457.904 0 0 0 3.429 3.982l.008.009.002.003c1.976 2.277 3.939 4.54 5.819 6.859 11.745 14.446 15.476 31.519 14.716 49.491-.277 6.221-2.764 12.65-5.458 18.387-2.28 4.838-1.382 8.502 1.865 11.543 8.291 7.811 16.72 15.484 25.494 22.673 3.377 2.734 7.01 5.142 10.643 7.548 2.611 1.729 5.221 3.458 7.735 5.308 8.429 6.221 17.686 10.714 27.566 13.963 8.153 2.696 16.305 5.53 24.458 8.364 1.274.41 2.488.97 3.899 1.62.732.337 1.515.698 2.388 1.076-.094-.73-.148-1.388-.198-1.99-.095-1.165-.174-2.121-.493-2.987-1.174-2.938-2.418-5.841-3.662-8.744-1.243-2.903-2.487-5.806-3.661-8.744-.381-.971-.769-1.943-1.157-2.915-1.657-4.148-3.32-8.313-4.44-12.569-2.141-8.156-4.49-9.815-12.712-7.603-.553.138-1.105.311-1.658.484-.553.173-1.106.346-1.658.484-1.022.28-2.045.572-3.069.865-3.267.934-6.554 1.874-9.92 2.453-16.72 2.903-31.436-5.668-39.243-18.733-4.836-8.156-6.425-17.419-6.701-26.819-.415-14.447 2.003-28.617 5.112-42.649.317-1.463.646-2.924.975-4.385 1.895-8.414 3.79-16.829 3.378-25.545-.415-9.193.691-18.11 4.007-26.75 1.446-3.773 2.91-7.54 4.375-11.306v-.001l.003-.007v-.001c3.364-8.65 6.726-17.297 9.854-26.011 4.146-11.544 6.495-23.364 3.593-35.737-.412-1.877-.308-3.846-.192-6.067.06-1.131.123-2.327.123-3.61.463.761.847 1.332 1.174 1.819h.001c.356.53.646.962.898 1.43.91 1.595 1.827 3.184 2.742 4.773l.006.01c2.416 4.191 4.828 8.377 7.131 12.636 4.215 7.741 10.295 13.479 18.102 17.488a364.629 364.629 0 0 1 16.927 9.331c10.225 6.014 20.381 12.166 28.948 20.53 8.738 8.528 15.729 18.47 22.716 28.408l.006.008c2.016 2.867 4.031 5.733 6.088 8.564.335.479.372 1.124.409 1.774.016.288.032.577.075.853l-1.037.415c-1.057-1.466-2.119-2.932-3.182-4.4-2.897-3.998-5.802-8.006-8.632-12.052-8.083-11.75-16.858-22.948-28.741-30.967-10.985-7.326-22.592-13.824-34.13-20.183-8.222-4.493-14.854-10.369-19.345-18.594-1.188-2.179-2.517-4.25-4.039-6.623l-.001-.001-.001-.002-.004-.005-.005-.01a399.42 399.42 0 0 1-1.892-2.967c1.309 4.26 2.583 8.365 3.829 12.376l.001.002.004.012c1.844 5.937 3.624 11.67 5.355 17.401 4.353 14.309 6.495 27.442 4.906 29.378Z" fill="#5A645A"/><path fill-rule="evenodd" clip-rule="evenodd" d="M62.454 265.47a645.72 645.72 0 0 1 5.27 1.827c0 .207-.069.415-.138.484a2.78 2.78 0 0 0-.362.107c-.218.074-.426.145-.605.1l-1.422-.393c-12.244-3.384-24.494-6.77-33.606-16.818-7.807-8.641-17.618-13.825-29.017-16.175-.41-.041-.771-.203-1.242-.415a14.228 14.228 0 0 0-1.177-.484c.364-.156.65-.292.887-.405l.002-.001v-.001h.002c.39-.187.648-.31.906-.353 9.189-1.106 16.305-5.944 23.076-12.096 9.81-8.986 21.072-15.691 34.544-17.627.444-.088.888-.291 1.662-.645.43-.197.963-.44 1.654-.737-.453-.191-.824-.332-1.132-.45-.585-.223-.945-.361-1.217-.587-8.36-7.396-14.923-16.175-18.792-26.543-1.75-4.668-2.85-9.575-3.95-14.481a259.641 259.641 0 0 0-1.439-6.187c-2.003-7.949-1.796-15.898.346-23.847 2.832-10.645 3.523-21.29-.277-31.865-.14-.389-.282-.777-.424-1.166l-.002-.007c-.767-2.1-1.537-4.206-2.061-6.362-.33-1.182-.435-2.461-.557-3.948a74.356 74.356 0 0 0-.203-2.204c.425.273.703.44.881.547l.004.002c.225.134.29.173.29.212.19.443.35.887.51 1.324.186.516.37 1.023.595 1.51 2.625 5.806 5.734 11.405 12.712 12.373 6.84.967 13.75 1.728 20.589 1.659 13.334-.069 25.77 3.041 37.792 8.363.361.155.645.465.939.784.099.108.2.218.304.322-2.211-.207-4.145-.829-6.01-1.659-9.95-4.285-20.382-5.806-31.16-6.704-2.721-.236-5.481-.248-8.25-.26-7.775-.034-15.624-.068-22.909-5.063 2.281 4.296 5.474 7.744 8.622 11.144 3.336 3.603 6.622 7.152 8.72 11.597a4284.074 4284.074 0 0 1-11.795-12.839 9939.896 9939.896 0 0 0-6.1-6.653c2.626 8.848 2.142 17.281-.138 25.644-2.556 9.539-2.418 19.009-.69 28.755 2.694 15.415 8.428 29.17 19.275 40.506 2.211 2.281 4.698 4.562 7.531 5.945 6.356 3.041 12.782 6.013 19.414 8.087 12.85 4.009 25.632 5.392 37.861-2.627 3.178-2.073 6.909-1.728 10.087.553 2.073 1.452 4.007 3.18 5.734 4.977 4.216 4.322 8.392 8.722 12.558 13.111l.023.024c1.357 1.43 2.714 2.859 4.07 4.284.72.766 1.411 1.56 2.11 2.366.375.43.752.864 1.137 1.298-.104.172-.225.345-.345.518a9.525 9.525 0 0 0-.346.518 180.38 180.38 0 0 1-2.25-.889l-.001-.001h-.001a127.387 127.387 0 0 0-3.206-1.252c-3.236-1.202-6.359-2.683-9.484-4.164-5.68-2.692-11.363-5.386-17.737-6.412-5.193-.795-10.386-1.914-15.532-3.022l-2.017-.434c-.898-.208-2.349-.968-2.487-1.728-.414-2.143-1.658-2.35-3.454-2.42-10.156-.345-19.967-2.834-28.81-7.534-7.462-3.94-14.233-2.281-21.211-.207-10.153 3.019-18.126 9.431-26.203 15.927-4.126 3.318-8.279 6.658-12.763 9.579.34.04.659.086.958.129.732.106 1.355.196 1.944.147a499.1 499.1 0 0 1 6.197-.517l.002-.001h.011v-.001h.002c4.695-.372 9.38-.744 14.03-1.416 1.297-.193 2.61-.364 3.926-.536 5.28-.688 10.622-1.385 15.212-3.542 13.265-6.29 27.083-7.673 41.316-7.604.932 0 1.9.245 2.853.485.388.098.774.196 1.154.276a5.302 5.302 0 0 0-.07.518 5.241 5.241 0 0 1-.068.518c-1.567 0-3.126-.015-4.683-.03h-.006c-3.109-.031-6.207-.062-9.336.03-10.157.277-19.967 2.005-29.018 6.774-1.865.968-3.869 1.729-5.873 2.005-10.225 1.521-20.45 3.041-30.744 4.216-2.66.286-5.386.211-8.11.137a135.138 135.138 0 0 0-3.704-.067c.207 1.106.552 1.451.898 1.52 7.945 1.936 14.37 6.29 20.381 11.751.884.802 1.756 1.622 2.629 2.443v.001c4.242 3.989 8.499 7.992 14.229 9.998 1.96.69 3.882 1.438 5.796 2.182l.002.001.003.001.005.002h.001l.002.001.002.001h.001l.001.001h.002c1.722.67 3.438 1.337 5.17 1.959 1.757.62 3.513 1.223 5.27 1.826l.03.01Zm45.135-47.734c15.269.899 29.294 6.152 43.595 11.613-2.729-2.903-5.44-5.824-8.152-8.744a1928.176 1928.176 0 0 0-8.153-8.744c-4.214-4.424-8.083-4.77-13.679-2.281-2.875 1.278-5.901 2.255-8.919 3.229-1.551.501-3.099 1.001-4.623 1.54-.49.178-.894.529-1.304.886-.226.196-.454.394-.699.566.178.199.357.437.538.678.447.597.904 1.208 1.396 1.257Z" fill="#5A645A"/><path d="M170.53 383.63c4.698-14.723 9.534-29.93 14.37-45.206a3.888 3.888 0 0 1-.276-.207c-.086-.069-.173-.139-.277-.208a45.884 45.884 0 0 1-1.303 2.311c-.863 1.463-1.721 2.919-2.22 4.463-1.426 4.466-2.741 8.974-4.056 13.486l-.007.021v.001c-1.614 5.537-3.231 11.08-5.057 16.561-1.589 4.769-4.007 9.262-6.425 13.686-2.008 3.675-4.147 7.271-6.288 10.869-1.322 2.222-2.645 4.445-3.937 6.688-.622 1.106-.899 2.488-.76 4.078.117-.118.243-.219.366-.319.238-.192.464-.375.601-.648 3.731-7.742 9.741-13.065 16.927-17.627 5.665-3.594 11.607-4.7 18.032-4.354 2.763.138 5.527 0 8.291-.139 1.105-.069 2.21-.553 3.178-1.382-2.442.044-4.91-.056-7.377-.156-9.121-.37-18.247-.74-26.132 6.17 24.734-38.363 58.657-64.008 102.736-76.104-10.501.898-20.174 4.769-29.363 9.469-9.327 4.701-18.585 9.747-27.152 15.691a186.68 186.68 0 0 0-23.836 19.769c-5.091 5.094-9.715 10.689-14.196 16.111l-.001.002-.001.001c-1.964 2.376-3.901 4.72-5.837 6.973Zm147.429-80c.187.209.407.453.697.717-3.209.531-6.373 1.08-9.505 1.623h-.001l-.003.001h-.001l-.003.001h-.004c-7.855 1.362-15.509 2.689-23.162 3.628-2.625.276-6.356-1.244-8.221-3.249-7.186-7.742-15.822-8.225-25.149-6.359-2.559.512-5.089 1.202-7.617 1.891-2.93.8-5.858 1.598-8.826 2.118-15.476 2.627-28.327 9.746-38.897 21.29-.565.621-1.222 1.104-1.895 1.599l-.16.118-.294.218c-.207-1.106 0-1.659.345-2.004 7.462-7.396 15.062-14.793 25.356-17.972 11.538-3.595 23.145-6.982 34.959-9.401 8.222-1.728 16.305-.138 22.454 6.636 3.178 3.525 7.254 4.147 11.676 3.249.723-.138 1.463-.276 2.204-.414l.007-.001c.743-.138 1.485-.277 2.211-.415a1027.92 1027.92 0 0 1 7.699-1.52l.008-.001c2.572-.501 5.145-1.002 7.7-1.52.036-.145.053-.31.071-.483.017-.156.034-.321.067-.485-2.695-1.019-5.365-2.13-8.032-3.239-6.015-2.503-12.021-5.001-18.291-6.438-16.195-3.652-31.447-9.827-46.7-16.003-9.864-3.994-19.73-7.989-29.851-11.301-.713-.237-1.393-.638-2.197-1.113a46.8 46.8 0 0 0-1.188-.684c.297-.137.527-.252.705-.341l.003-.002c.359-.179.512-.256.604-.21 2.809.971 5.653 1.882 8.501 2.794 6.891 2.208 13.808 4.424 20.31 7.506 14.676 6.951 30.023 11.521 45.468 16.121l2.963.883c8.206 2.434 16.248 5.33 24.306 8.232l.003.001c3.61 1.3 7.224 2.601 10.858 3.863.298.086.518.329.822.666Zm-11.881-13.252c-1.195-.668-2.381-1.332-3.657-1.515-8.153-1.244-15.545-4.493-23.007-7.949-5.044-2.35-10.571-3.801-16.029-5.115-6.909-1.659-11.538-5.875-14.854-11.889-1.091-1.969-2.222-3.913-3.352-5.856-2.163-3.717-4.322-7.427-6.182-11.286-2.497-5.167-4.622-10.475-6.756-15.807-.464-1.158-.928-2.318-1.397-3.478-.289-.674-.276-1.449-.264-2.114v-.005c.004-.288.009-.555-.012-.785 2.815.564 5.595 1.168 8.357 1.768h.003l.005.001.003.001.003.001h.003l.001.001h.004l.008.002.003.001c6.04 1.312 11.988 2.604 18.002 3.41 9.12 1.244 17.41-2.143 25.425-5.945-.035-.207-.087-.397-.138-.587-.052-.191-.104-.381-.139-.588-.322.069-.66.115-.998.161-.675.092-1.351.185-1.903.461-14.233 6.912-28.465 5.737-42.767.138-1.626-.622-3.385-.879-5.162-1.14a58.003 58.003 0 0 1-2.368-.38c.041.767.027 1.559.012 2.351-.034 1.85-.068 3.704.61 5.252 2.763 6.567 5.941 12.857 9.188 19.216.989 1.979 2.071 3.911 3.15 5.84 1.56 2.788 3.115 5.568 4.381 8.469 3.524 7.88 9.673 12.096 17.549 14.723 4.085 1.399 8.111 2.994 12.131 4.587l.01.004.003.001c3.522 1.396 7.039 2.79 10.586 4.048 5.25 1.857 10.581 3.47 15.932 5.088 1.62.49 3.242.981 4.864 1.479a6.314 6.314 0 0 1 .622-1.59c-.635-.282-1.254-.629-1.87-.974Zm40.283-18.312c-1.243-4.424-1.105-8.709 1.658-12.926.089.142.164.257.224.349.174.266.224.342.122.342.069.346.069.692 0 1.037-2.764 9.401 1.105 16.521 7.945 22.603.79.692 1.591 1.372 2.391 2.052h.001c2.002 1.7 4.004 3.4 5.83 5.275 6.66 6.776 9.194 15.456 11.716 24.094.591 2.025 1.182 4.048 1.825 6.044 1.105 3.318-2.418 5.737-5.942 3.94-10.847-5.668-21.763-11.405-32.264-17.696-1.629-.974-3.236-1.992-4.844-3.01l-.001-.001-.001-.001c-6.03-3.818-12.067-7.64-19.266-9.222-.968-.231-1.873-.584-2.779-.937a39.98 39.98 0 0 0-1.367-.515c.035-.138.087-.276.138-.415.052-.138.104-.276.139-.414.374.05.748.063 1.116.077.65.024 1.281.048 1.854.268 1.487.599 2.989 1.165 4.49 1.731 3.87 1.459 7.728 2.913 11.263 4.905 3.084 1.744 6.046 3.698 9.006 5.651 6.19 4.085 12.375 8.165 19.666 10.316.645.216 1.237.645 1.825 1.072.357.259.712.517 1.077.726.821.456 1.643.923 2.466 1.39 2.291 1.3 4.592 2.606 6.93 3.725.854.404 1.825.517 3.066.66.665.077 1.409.162 2.254.307-.53-1.766-1.017-3.44-1.485-5.048l-.002-.008-.019-.065-.001-.004-.006-.02-.002-.006c-.984-3.385-1.883-6.475-2.907-9.503-.967-2.972-2.004-5.944-3.524-8.571-3.385-5.944-8.014-10.852-13.403-15.138-4.284-3.456-7.669-7.672-9.189-13.064Zm-125.673-70.089c-.205-.552-.415-1.104-.626-1.658-.502-1.319-1.009-2.648-1.447-4.01-8.014-24.262-12.436-49.008-10.156-74.584.829-9.815 1.105-19.492-.207-29.17a28.814 28.814 0 0 1-.088-.81c-.201-1.994-.417-4.131-3.09-5.894.163 1.238.303 2.382.435 3.464v.002c.259 2.115.488 3.99.808 5.865 1.18 7.035.716 14.034.25 21.049-.189 2.842-.377 5.686-.457 8.536-.484 18.386-.345 36.704 5.942 54.399 1.303 3.652 2.333 7.412 3.365 11.179l.001.003c.609 2.222 1.218 4.446 1.884 6.652.384 1.294 1.033 2.522 1.672 3.73.282.533.562 1.063.816 1.592.345-.069.621-.207.898-.345Zm79.996-72.451c-.005-.398-.01-.795-.059-1.165.228 0 .435-.021.621-.04.134-.014.257-.026.369-.029h.024l.022-.001c8.705 15.899 12.367 32.834 11.607 50.875-.553 12.373-5.735 22.534-14.578 30.967-.431.377-.945.712-1.446 1.038l-.004.002-.008.006c-.138.089-.274.178-.407.267 0-1.106.276-1.659.76-2.143 5.872-5.737 10.018-12.373 12.021-20.46 1.935-7.949 2.142-15.829 1.175-23.848-1.382-11.75-4.215-22.948-9.811-33.455-.266-.577-.276-1.298-.286-2.014Zm-221.076 139.5c1.95-.257 3.93-.414 5.911-.57 7.63-.603 15.262-1.207 21.241-7.518 1.727-1.866 3.178-4.216 4.007-6.566 1.658-4.632 3.109-9.332 3.938-14.101 1.036-6.291-2.073-11.337-6.218-15.83-.388-.388-.732-.821-1.281-1.513l-.446-.56c6.994-.85 12.875 1.393 18.579 3.569l.01.004.963.367c4.014 1.534 7.91 3.333 11.88 5.166l.001.001c2.112.975 4.245 1.96 6.428 2.92a9.494 9.494 0 0 1-.217-.409c-.154-.303-.28-.551-.474-.697-10.709-7.465-22.592-11.612-35.581-12.511-.719-.045-1.437.29-2.156.624-.386.181-.774.361-1.16.482.214.357.395.739.575 1.117.342.719.677 1.426 1.221 1.924 6.563 5.461 9.189 13.825 5.043 23.64l-.556 1.308c-2.687 6.345-5.334 12.594-12.64 14.729-3.502 1.03-7.157 1.6-10.794 2.167a228.26 228.26 0 0 0-3.714.598c-1.147.208-2.334.299-3.53.39-.389.03-.779.06-1.168.093l.026.155c.06.349.112.658.112 1.021Zm40.239-77.277v.001c1.524 1.462 3.048 2.925 4.6 4.351-.208.276-.415.484-.691.76a2349.3 2349.3 0 0 0-5.844-5.049c-20.026-17.26-40.057-34.527-53.09-58.336.76.207 1.244.622 1.59 1.175 12.505 19.009 27.98 35.322 45.46 49.768 2.75 2.314 5.362 4.822 7.975 7.33Zm353.705 203.173c-3.918-3.287-7.594-6.39-11.311-9.536 3.394.958 7.48 3.643 10.624 6.577 15.003 12.788 53.974 54.667 57.135 58.233-.207.276-.414.483-.621.69-3.51-2.898-40.659-40.44-55.827-55.964Zm-178.01-278.975c1.266 1.991 2.556 4.018 2.733 6.815-4.214-3.041-6.563-8.156-4.629-10.23.494 1.211 1.191 2.308 1.896 3.415Zm-109.53 220.204c2.281-1.62 3.624-3.262 4.942-4.873.733-.896 1.459-1.784 2.336-2.653-2.244.369-5.874 4.146-7.278 7.526Zm-51.134-74.989c-1.696.435-3.396.872-5.181.674 2.819-1.13 6.909-2.074 8.982-1.382-1.286.062-2.543.384-3.801.708Zm70.818-177.593c-.183-.834-.246-1.704-.31-2.574-.152-2.088-.304-4.18-2.108-5.79a8.552 8.552 0 0 0-.553.138l-.021.006-.144.04-.186.047-.038.01-.034.007c-.044.01-.087.02-.13.028.311 1.418.64 2.835.968 4.252v.002c.328 1.416.656 2.832.967 4.249a51.538 51.538 0 0 0 1.589-.415Zm146.987 167.554c.656-.951 1.313-1.901 1.9-2.765 1.031.737.03 2.98-.72 4.002a369.154 369.154 0 0 1-2.32 3.118c-.759-.633-.307-2.257.253-3.071l.887-1.284ZM202.94 386.43c.868-.178 1.816-.348 2.764-.518.54-.098 1.08-.195 1.606-.293.643-.121 1.451-.711 1.402-1.364h-.002c-1.235.195-2.471.389-3.691.598-.822.141-2.204.753-2.079 1.577Z" fill="#5A645A"/><path d="m166.437 264.7-.001.001h-.001l-.003.001a316.752 316.752 0 0 1-5.017 1.789c12.62 6.391 15.723 17.936 8.551 29.068-5.861 9.14-15.033 12.507-25.101 14.5a55.985 55.985 0 0 0-13.172 4.398c-2.323 1.127-4.51 2.551-6.694 3.972-2.744 1.786-5.482 3.569-8.477 4.755-8.965 3.573-16.067 9.62-23.17 15.736l-2.69 2.062c4.276-9.483 4.827-18.966 3.448-28.656-.965-6.597.69-12.369 4.965-17.248 5.931-6.666 10.344-14.225 14.551-21.99 2.519-4.571 8.926-9.827 14.69-11.251.388-.097-.346.691-.346.691-5.181 1.772-11.379 7.056-13.93 12.416-3.793 7.971-8.827 15.186-14.62 21.921-3.655 4.192-4.482 9.208-4.138 14.774.276 3.942.184 7.914.092 11.876v.002a254.91 254.91 0 0 0-.091 5.92c0 .55.069 1.168.137 1.786.173.035.328.087.483.138.155.052.31.103.483.138l.959-1.966c1.953-4.003 3.893-7.977 5.73-12.053 7.379-16.286 18.205-29.892 32.135-40.956 2.267-1.844 5-3.131 7.74-4.422l.001-.001c1.344-.633 2.689-1.267 3.983-1.968-25.309 14.912-39.17 38.483-50.065 63.221a797.513 797.513 0 0 0 6.812-4.052c3.514-2.106 7.153-4.287 10.841-6.393 1.411-.807 2.88-1.505 4.342-2.2h.001c2.397-1.139 4.773-2.268 6.829-3.847 6.482-5.017 13.723-7.284 21.722-8.659 10.827-1.855 19.585-7.146 23.791-18.004 3.862-9.895-.758-19.104-10.964-21.99-.263-.075-.485-.211-.789-.397-.254-.155-.565-.346-1.004-.565 10.758-6.047 21.722-9.346 33.514-9.208 2.105 0 4.177.948 6.261 1.901.989.452 1.981.906 2.98 1.26-.035.24-.086.481-.138.721-.052.241-.103.482-.138.722-12.11-6.064-23.009-2.109-34.492 2.057Z" fill="#5A645A"/><path d="m178.726 253.129-.057.029-.001.001c-7.543 3.807-14.951 7.546-22.426 11.081-.906.454-2.366.046-3.561-.289l-.186-.051c-.909-.297-1.759-.688-2.653-1.099v-.001c-2.39-1.099-5.099-2.346-10.126-2.346 5.495.97 8.794 2.963 11.707 4.723l.396.239.199.12c1.976 1.158 3.475.954 5.587 0 4.96-2.361 9.988-4.552 15.011-6.74l.006-.003c2.083-.907 4.164-1.814 6.24-2.732.885-.388 1.68-.91 2.458-1.421.181-.118.36-.236.54-.352-.262-.309-.49-.66-.717-1.009-.424-.651-.843-1.294-1.463-1.649-7.406-4.111-14.898-8.178-22.374-12.237l-.001-.001-.003-.002a6145.944 6145.944 0 0 1-5.829-3.166c-.75-.409-1.567-.477-2.589-.204a4690.825 4690.825 0 0 1 29.842 17.109ZM60.483 126.444c-.612-1.144-1.253-2.339-1.944-3.633 3.033.267 5.343 4.253 4.407 8.239-.806-1.516-1.607-3.01-2.462-4.605v-.001Zm49.019-13.455 3.119 2.084c1.37.915 2.652 1.771 3.95 2.643-1.238-3.434-4.784-5.654-7.069-4.727ZM75.88 268.252c.657-.099 1.336-.202 2.043-.162-1.496 1.961-5.678 1.852-8.489-.476.752.044 1.5.214 2.256.386.782.178 1.574.358 2.39.403.585.033 1.183-.058 1.8-.151Zm216.735-55.279a2150.643 2150.643 0 0 0-3.567 3.002 1868.636 1868.636 0 0 1-4.523 3.801c4.63.108 8.502-3.381 8.09-6.803Zm165.341 167.66c-.42-.354-.836-.708-1.25-1.06-1.326-1.127-2.639-2.244-4.042-3.316a910.386 910.386 0 0 0-19.665-14.193c-3.944-2.807-7.972-5.685-12.035-8.587l-.023-.017-.113-.081c-9.259-6.614-18.698-13.357-27.738-19.701-.556-.396-.912-.371-1.476-.33-.216.015-.461.033-.759.03 10.631 6.803 20.186 14.457 29.79 22.151l.001.001c11.423 9.15 22.916 18.358 36.373 26.254l.937-1.151Z" fill="#5A645A"/></svg>