<svg width="423" height="312" fill="none" xmlns="http://www.w3.org/2000/svg"><path d="M420.515 201.075s-22.086-5.771-32.924-10.282c-4.247-1.765-8.946-2.95-13.478-3.059-8.074.681-15.998-2.14-23.347-5.408-7.377-3.315-14.975-6.048-22.619-8.798l-.954-.343c-4.677-1.698-9.269-3.392-12.25-7.714-.581-.851-1.167-1.7-1.753-2.551-2.542-3.687-5.093-7.389-7.326-11.275-4.656-8.202-3.832-9.45 5.025-12.409 10.854-3.643 18.928-10.315 20.351-22.536 1.067-8.94.33-17.702-4.028-25.848-.379-.712-.756-1.424-1.133-2.136-4.472-8.442-8.917-16.834-15.642-23.83-3.193-3.39-6.255-6.816-9.314-10.328-.73-.856-1.113-1.408-1.584-2.087-.213-.307-.444-.64-.734-1.039-.154.1-.136.433-.118.766.018.332.036.665-.118.765 3.083 4.589 6.695 8.755 10.306 12.918 4.923 5.676 9.843 11.349 13.411 18.084 4.913 9.197 8.503 18.295 7.963 28.884-.521 10.163-5.036 17.672-14.048 22.25-2.148 1.088-4.491 1.762-6.826 2.432l-.002.001a80.012 80.012 0 0 0-3.376 1.024c-3.951 1.329-5.238 4.397-3.65 8.274 3.445 8.492 8.739 15.78 14.912 22.506 1.349 1.47 3.174 2.832 5.072 3.47 2.169.73 4.352 1.421 6.536 2.112 7.501 2.375 15.005 4.751 21.93 8.693 7.1 4.07 16.673 6.363 23.537 5.973 4.227.223 8.64 1.097 12.593 2.722 10.989 4.479 33.413 10.441 33.413 10.441l.175-1.672Zm-98.331 20.123c-.073.457-.152.914-.23 1.371-.235 1.37-.47 2.74-.561 4.116-.567 8.235-.451 16.499 1.642 24.591 3.519 13.759 3.865 27.638.873 41.546-.157.695-.269 1.44-.439 2.566-.058.385-.122.814-.197 1.301.322-.402.591-.729.821-1.009.48-.583.786-.956 1.034-1.35 3.705-6.003 8.916-10.495 14.136-14.995.872-.751 1.743-1.503 2.608-2.261 2.402-2.122 3.953-4.367 4.222-7.65.232-3.414 1.556-6.353 4.433-8.583 3.011-2.353 3.926-5.737 4.125-9.366 2.736-15.953-2.037-21.856-8.534-29.89l-.001-.001c-.682-.844-1.384-1.712-2.098-2.617-2.029-2.569-4.01-5.264-3.392-8.704.27-1.315 1.409-2.935 2.545-3.486 5.845-2.202 9.046-3.34 9.785-3.491 3.206-1.335 6.438-2.668 9.644-3.881l.07-.026.232-.089c2.649-1.006 5.419-2.059 8.212.031-3.592.999-7.104 1.98-10.566 2.947-4.368 1.22-8.656 2.417-12.921 3.602l-1.317.571c-4.319 1.912-5.183 4.1-3.056 8.385.748 1.53 1.8 2.944 2.9 4.233 7.981 9.499 11.929 15.232 9.938 32.734-.072 3.677-1.296 7.262-4.224 9.704-2.833 2.437-3.653 5.468-4.564 8.837l-.011.04c-.615 2.37-1.917 4.796-3.539 6.695-1.624 1.877-3.579 3.502-5.547 5.138l-.003.003c-.541.449-1.082.9-1.618 1.356-8.564 7.122-14.624 15.72-15.965 27.046a1.943 1.943 0 0 1-.204.52 3.022 3.022 0 0 0-.13.279 5.431 5.431 0 0 0-.813.008c.101-1.362.192-2.735.282-4.108l.001-.01.001-.01c.091-1.373.182-2.745.283-4.107.792-9.509-.499-18.337-6.717-26.007-1.888-2.33-3.593-4.827-5.297-7.325-1.085-1.59-2.17-3.179-3.302-4.726-6.665-9.229-10.037-19.43-8.989-30.896.158-1.705.659-3.396 1.282-4.952.005.614.012 1.23.019 1.848.023 1.924.046 3.861-.003 5.77-.252 7.863 1.487 15.212 5.737 21.899 2.606 4.091 5.391 8.019 8.305 11.91 5.465 7.295 10.539 14.702 10.638 24.377 2.257-7.734 3.578-15.595 2.715-23.42-.528-4.644-1.347-9.247-2.166-13.851-.819-4.603-1.639-9.206-2.167-13.851-.525-4.903-.396-9.857-.266-14.807v-.016l.001-.035c.036-1.369.072-2.738.093-4.106.01-.896.411-1.815.806-2.72.19-.434.378-.865.522-1.289.22.034.397.081.564.124l.173.045.115.026.041.009.007.001.032.006Zm-230.172 10.68c-14.191 7.608-28.338 15.175-42.484 22.743l-.02-.038-.019-.034v-.001c-.1-.185-.177-.331-.326-.414.702-.746 1.436-1.474 2.171-2.203l.022-.022c1.607-1.593 3.215-3.188 4.492-4.977 7.834-11.047 14.709-22.692 19.79-35.398 3.6-9.132 8.245-17.663 15.93-24.223.487-.422.98-.842 1.472-1.263 2.649-2.259 5.314-4.533 7.451-7.256 4.344-5.505 8.585-11.1 12.825-16.695l.002-.002c4.24-5.595 8.481-11.19 12.825-16.695 6.65-8.402 14.844-14.855 24.944-18.873 14.931-5.908 33.269.57 40.566 17.015 2.228 4.931 4.545 9.781 8.748 13.555 1.81 1.704 2.951 2.053 5.145.777.41-.238.818-.478 1.227-.717l.004-.002c5.46-3.197 10.892-6.376 17.32-7.772 4.901-1.068 9.59-3.016 14.27-4.961.806-.335 1.612-.67 2.418-1 1.177-.506 2.279-2.256 2.55-3.571.155-.635-1.673-1.912-2.847-2.475-1.321-.63-2.685-1.189-4.051-1.748l-.011-.005c-1.796-.736-3.595-1.473-5.304-2.372-2.615-1.412-5.187-2.896-7.756-4.378l-.009-.005c-3.346-1.93-6.69-3.859-10.122-5.626-8.204-4.289-17.004-6.635-26.098-8.137-3.018-.512-5.998-1.259-8.981-2.007-3.356-.841-6.716-1.683-10.138-2.193-6.052-.928-12.176-1.389-18.291-1.849h-.002a856.642 856.642 0 0 1-5.105-.394c-5.245-.439-9.396 1.566-10.801 5.4-3.534 9.562-9.245 17.021-17.676 23.036-9.048 6.416-18.647 10.712-29.644 11.696-3.017.236-6.068.397-9.107.557h-.001l-.054.003c-1.57.083-3.137.165-4.695.258-.006.128 0 .268.004.407.005.139.01.279.004.407 1.538-.06 3.07-.102 4.595-.145h.014c2.637-.073 5.257-.146 7.863-.305 16.26-.972 29.471-8.666 40.603-19.786 3.845-3.857 6.516-9.263 8.619-14.394 1.769-4.332 4.661-5.92 8.543-5.625 9.939.725 19.872 1.622 29.697 3.027 3.76.559 7.462 1.479 11.162 2.397 2.66.661 5.319 1.321 7.999 1.847 8.997 1.755 17.37 5.067 25.311 9.515 6.561 3.662 13.212 7.242 19.863 10.822 1.018.579 2.097 1.031 3.351 1.556.65.272 1.347.564 2.107.903-.527.371-.982.725-1.4 1.049-.807.628-1.47 1.143-2.217 1.449-2.588.981-5.195 1.896-7.801 2.811-2.607.916-5.214 1.831-7.802 2.811-.851.329-1.707.654-2.563.979-3.653 1.385-7.322 2.776-10.727 4.571-6.524 3.444-8.983 2.911-12.423-3.699-.238-.438-.453-.896-.669-1.355-.216-.458-.432-.917-.67-1.355-.424-.825-.84-1.657-1.258-2.49-1.331-2.659-2.671-5.334-4.29-7.847-8.023-12.497-22.255-16.915-35.294-14.222-8.118 1.706-15.028 6.16-21.249 11.543-9.555 8.277-17.256 18.218-24.459 28.522-.755 1.069-1.502 2.146-2.249 3.223-4.301 6.197-8.602 12.396-14.463 17.286-6.17 5.171-11.262 11.157-14.868 18.406a2138.524 2138.524 0 0 0-4.697 9.508v.001l-.003.006c-3.584 7.286-7.167 14.568-10.932 21.739-4.986 9.501-11.213 18.006-20.904 23.454-1.453.845-2.66 2.076-4.023 3.465-.693.707-1.427 1.456-2.254 2.214.765-.151 1.36-.242 1.867-.319.553-.083 1.002-.152 1.453-.266 1.567-.356 3.134-.706 4.7-1.055l.009-.002c4.13-.922 8.256-1.842 12.363-2.876 7.483-1.862 14.778-1.335 21.982 1.327a318.768 318.768 0 0 0 16.03 5.394c9.927 3.036 19.901 5.945 30.361 6.522 10.666.589 21.211-.784 31.75-2.157l.009-.001c3.04-.396 6.079-.792 9.121-1.14.507-.068.944-.426 1.385-.786.195-.16.391-.32.594-.456l-.346-.914c-1.57.186-3.144.368-4.718.55-4.291.497-8.593.996-12.875 1.564-12.356 1.738-24.765 2.704-36.964-.215-11.222-2.749-22.278-6.389-33.204-10.067-7.76-2.643-15.472-3.444-23.43-1.474-2.107.523-4.23.891-6.659 1.313h-.003l-.005.001-.01.002c-.956.166-1.961.34-3.031.536 3.52-1.677 6.92-3.283 10.24-4.852l.003-.001.01-.004c4.917-2.323 9.665-4.566 14.383-6.84 11.797-5.657 21.528-12.044 21.835-14.213Z" fill="#596676"/><path fill-rule="evenodd" clip-rule="evenodd" d="M134.558 27.187c1.428.775 2.857 1.552 4.296 2.317.134-.122.227-.29.23-.375a2.59 2.59 0 0 1-.146-.297c-.081-.185-.158-.36-.292-.45-.366-.227-.731-.456-1.096-.684-9.426-5.892-18.857-11.788-30.725-11.72-10.188.078-19.334-3.181-27.595-9.141-.269-.24-.587-.377-1.002-.555a12.314 12.314 0 0 1-1.008-.473c.115.327.196.592.263.812v.002l.001.001c.111.362.184.602.31.793 4.724 6.579 5.817 14.029 5.86 22.033.014 11.64 2.357 22.867 9.083 32.698.205.339.337.745.567 1.453.128.394.286.882.504 1.503-.391-.18-.702-.335-.96-.464-.49-.245-.792-.396-1.098-.437-9.713-1.016-19.255-.055-28.226 3.583-4.043 1.633-7.857 3.826-11.669 6.019a228.667 228.667 0 0 1-4.839 2.731c-6.308 3.41-11.308 8.245-15.163 14.328-5.184 8.123-11.635 14.864-20.7 18.67l-1.002.416-.006.002c-1.806.748-3.62 1.497-5.319 2.435-.957.486-1.843 1.175-2.873 1.976-.476.37-.983.764-1.54 1.172.427.113.698.194.873.245l.004.002c.219.065.282.084.307.061.398-.14.78-.298 1.155-.455.444-.184.88-.365 1.326-.509 5.295-1.741 10.743-3.048 15.496.878 4.671 3.838 9.25 7.843 13.253 12.293 7.846 8.639 17.21 14.817 27.754 19.42.313.141.681.141 1.06.141.129 0 .259.001.388.006-1.442-1.303-2.987-2.182-4.626-2.894-8.649-3.88-15.803-9.706-22.76-16.124-1.762-1.615-3.403-3.387-5.05-5.166-4.622-4.993-9.288-10.033-16.819-11.776 4.118-1.07 8.23-1.051 12.284-1.032 4.296.02 8.528.039 12.634-1.238-5.048-.017-10.078-.013-15.254-.01-2.59.002-5.215.003-7.897.002 7.255-3.54 12.404-8.84 16.444-15.257 4.635-7.29 10.82-12.802 18.122-17.453 11.528-7.38 23.786-11.82 37.51-11.53 2.779.075 5.72.33 8.288 1.339 5.721 2.299 11.439 4.683 16.7 7.733 10.188 5.914 18.643 13.337 20.712 25.964.545 3.276 2.975 5.477 6.326 6.177 2.162.478 4.42.703 6.6.753 5.28.162 10.586.252 15.881.342l.029.001c1.725.029 3.448.058 5.169.09a71.58 71.58 0 0 0 2.773-.038c.5-.014 1.002-.027 1.509-.035.051-.17.09-.35.13-.53.04-.18.08-.36.13-.529-.629-.312-1.265-.617-1.905-.924l-.001-.001c-.896-.43-1.802-.864-2.705-1.327-2.69-1.376-5.492-2.514-8.295-3.652-5.097-2.07-10.196-4.14-14.629-7.643-3.585-2.878-7.379-5.565-11.139-8.227l-1.473-1.043c-.665-.457-2.014-.942-2.585-.582-1.627 1-2.496.321-3.604-.796-6.232-6.344-13.642-11.197-21.904-14.119-6.955-2.48-9.892-7.827-12.685-13.553-4.062-8.332-4.648-17.265-5.242-26.315-.303-4.622-.609-9.275-1.38-13.895.228.197.445.374.65.542.502.41.929.758 1.245 1.166 1.1 1.445 2.218 2.874 3.334 4.302l.001.001.003.005.002.001v.002h.001l.001.002c2.538 3.247 5.07 6.487 7.39 9.883.643.95 1.31 1.898 1.978 2.848 2.681 3.812 5.393 7.668 6.719 11.903 3.796 12.274 11.082 22 19.549 31.136.552.601 1.282 1.08 2.001 1.552.293.193.584.384.86.582.091-.125.193-.238.294-.352.101-.113.202-.226.293-.35-.927-1.011-1.86-2.007-2.791-3.002l-.003-.003h-.001c-1.859-1.987-3.712-3.966-5.505-6.038-5.832-6.712-10.524-14.06-12.806-22.716-.48-1.775-1.176-3.517-2.183-4.972-5.071-7.492-10.142-14.984-15.477-22.316-1.39-1.884-3.051-3.598-4.71-5.31a119.312 119.312 0 0 1-2.237-2.348c.836-.521 1.263-.503 1.512-.32 5.949 3.977 12.558 5.544 19.634 6.19 1.04.095 2.084.172 3.129.25h.001c5.081.375 10.18.752 14.864 3.26 1.604.855 3.223 1.652 4.836 2.446h.001l.003.002h.001l.003.002.002.001h.002l.001.002h.002c1.451.715 2.897 1.427 4.322 2.176 1.439.765 2.867 1.541 4.296 2.317l.024.014Zm-4.052 57.334c9.615 9.313 21.3 15.248 33.282 21.239-3.486-.042-6.973-.063-10.46-.084-3.486-.021-6.973-.042-10.459-.085-5.345-.1-7.857-2.39-9.565-7.47-.878-2.61-2.039-5.139-3.196-7.66-.595-1.296-1.19-2.59-1.744-3.892-.175-.422-.188-.89-.201-1.365a7.63 7.63 0 0 0-.049-.785c.234-.003.494-.029.756-.055.649-.065 1.313-.131 1.636.157Z" fill="#596676"/><path d="M274.66 26.978a18077.229 18077.229 0 0 1-20.629 36.004c-.105-.026-.201-.04-.296-.055a3.373 3.373 0 0 1-.298-.056c.266-.722.492-1.465.718-2.207.432-1.422.863-2.835 1.562-4.071 2.035-3.561 4.162-7.075 6.291-10.592l.01-.016c2.612-4.316 5.228-8.638 7.68-13.057 2.133-3.846 3.597-8.062 5.017-12.238 1.181-3.468 2.232-6.974 3.284-10.483a472.155 472.155 0 0 1 1.98-6.494c.345-1.055 1.072-2.051 2.178-2.902-.006.145.003.287.012.425.016.266.032.52-.063.77-2.781 6.985-2.654 14.009-1.342 21.34 1.036 5.778 3.839 10.263 7.864 14.202 1.725 1.7 3.271 3.563 4.817 5.427.61.753.952 1.752.99 2.867-1.417-1.601-2.941-3.133-4.466-4.664-5.635-5.662-11.274-11.327-11.487-20.498-10.086 38.639-6.538 75.678 11.751 111.253-5.635-7.303-8.865-15.828-11.273-24.533-2.491-8.794-4.717-17.747-5.956-26.787a163.286 163.286 0 0 1-1.366-27.061c.27-6.295 1.139-12.586 1.982-18.682v-.004c.37-2.671.734-5.306 1.04-7.888Zm35.689 142.373c.245-.002.533-.005.874.026-1.556-2.383-3.075-4.748-4.578-7.088l-.001-.002-.001-.002-.002-.002-.001-.001-.001-.003c-3.771-5.87-7.445-11.589-11.369-17.079-1.375-1.856-4.563-3.362-6.958-3.379-9.242-.053-14.664-5.335-18.981-12.453-1.184-1.953-2.237-3.992-3.288-6.029-1.219-2.363-2.437-4.723-3.859-6.944-7.465-11.532-10.481-24.028-9.298-37.671.066-.732-.011-1.44-.091-2.168l-.018-.173a31.4 31.4 0 0 1-.034-.318c-.835.52-1.069.98-1.087 1.408-.351 9.186-.62 18.46 3.423 26.978 4.511 9.565 9.197 19.052 14.63 28.1 3.751 6.323 9.559 10.594 17.563 10.552 4.153-.036 6.966 2.224 9.003 5.607l1.038 1.665.004.005 1.041 1.671a876.873 876.873 0 0 0 3.576 5.863l.004.006c1.199 1.955 2.399 3.91 3.577 5.864-.072.109-.168.217-.269.331-.091.104-.187.212-.273.33-2.252-1.135-4.547-2.199-6.84-3.262-5.173-2.398-10.337-4.793-14.973-7.986-11.937-8.281-24.942-14.462-37.948-20.644-8.412-3.997-16.824-7.995-24.948-12.562-.575-.319-1.236-.52-2.018-.758a37.986 37.986 0 0 1-1.143-.362c.087.274.149.489.197.657l.001.003c.096.337.138.482.222.514 2.287 1.237 4.557 2.531 6.831 3.828 5.501 3.137 11.022 6.286 16.855 8.655 13.165 5.351 25.192 12.543 37.296 19.78l2.322 1.389c6.425 3.851 13.05 7.322 19.689 10.802l.002.001a875.28 875.28 0 0 1 8.915 4.715c.232.142.519.14.916.136Zm-15.571.178c-1.138-.375-2.268-.747-3.14-1.462-5.626-4.52-12.095-7.365-18.738-10.131-4.499-1.862-8.705-4.567-12.781-7.309-5.158-3.474-10.614-3.964-16.452-2.545-1.914.461-3.837.882-5.758 1.302-3.675.804-7.343 1.607-10.931 2.69-4.808 1.446-9.485 3.216-14.184 4.993-1.022.387-2.044.774-3.069 1.157-.605.213-1.097.679-1.519 1.08l-.003.003a6.665 6.665 0 0 1-.512.456 440.056 440.056 0 0 0 6.084 4.343l.002.002.004.002.002.002.002.001.003.002.003.003.006.004.002.002c4.42 3.117 8.773 6.188 12.851 9.589 6.198 5.144 8.922 12.493 11.214 19.909-.154.1-.307.179-.46.258a4.975 4.975 0 0 0-.46.259 12.2 12.2 0 0 0-.487-.739c-.34-.49-.681-.98-.83-1.5-3.967-13.265-13.147-21.746-25.218-27.655-1.364-.681-2.571-1.663-3.79-2.654a48.526 48.526 0 0 0-1.647-1.302c.519-.427 1.021-.905 1.523-1.383 1.172-1.116 2.347-2.234 3.745-2.714 5.867-2.102 11.802-3.773 17.821-5.441 1.861-.533 3.746-.979 5.628-1.424 2.719-.643 5.431-1.284 8.05-2.184 7.163-2.389 13.519-.918 19.872 2.606 3.32 1.807 6.73 3.459 10.136 5.108l.008.005.002.001c2.984 1.445 5.964 2.888 8.874 4.431 4.303 2.286 8.497 4.77 12.706 7.262 1.275.755 2.551 1.511 3.832 2.262a5.524 5.524 0 0 0-.657 1.341c-.557-.242-1.147-.436-1.734-.63Zm12.038 36.804c-3.587 1.815-6.267 4.439-7.349 8.715.144-.027.262-.047.357-.062.275-.045.354-.058.293-.124.263-.16.486-.365.668-.614 4.423-7.342 11.3-9.058 19.268-8.246.913.1 1.825.214 2.737.328 2.28.286 4.561.571 6.85.639 8.307.286 15.401-3.214 22.46-6.697a198.77 198.77 0 0 1 4.975-2.398c2.792-1.25 2.266-4.953-.977-6.161-10.072-3.641-20.229-7.286-30.497-10.336-1.592-.474-3.198-.908-4.806-1.343h-.001l-.002-.001c-6.028-1.629-12.064-3.26-17.344-6.966-.721-.487-1.485-.863-2.248-1.238a36.919 36.919 0 0 1-1.141-.576 3.454 3.454 0 0 0-.185.334 3.472 3.472 0 0 1-.185.335c.253.211.484.444.71.673.4.406.788.798 1.27 1.038 1.266.604 2.52 1.238 3.772 1.871 3.231 1.632 6.45 3.259 9.826 4.36 2.95.957 5.961 1.711 8.972 2.464 6.295 1.575 12.585 3.149 18.285 6.578.521.288 1.148.416 1.771.543.378.076.754.153 1.105.265.78.259 1.567.513 2.355.768 2.194.708 4.397 1.418 6.501 2.264.767.312 1.414.871 2.24 1.587.444.383.939.812 1.532 1.271a515.526 515.526 0 0 0-4.132 2.029l-.007.003-.053.026-.003.002-.016.008-.004.002c-2.765 1.368-5.288 2.616-7.845 3.747-2.488 1.134-5.017 2.224-7.609 2.797-5.834 1.334-11.736 1.252-17.687.312-4.762-.717-9.482-.406-13.856 1.803Zm-119.538-39.571c-.477.195-.957.386-1.439.577-1.147.456-2.303.916-3.44 1.44-20.378 9.183-38.942 20.969-54.074 37.566-5.835 6.34-11.908 12.242-18.921 17.12-.192.136-.382.279-.575.423-1.404 1.049-2.908 2.175-5.627 1.494a301.62 301.62 0 0 0 2.49-1.768l.002-.002c1.516-1.084 2.86-2.045 4.258-2.948 5.232-3.4 9.467-7.84 13.712-12.289 1.72-1.802 3.441-3.606 5.231-5.343 11.562-11.187 23.449-21.933 38.573-28.346 3.124-1.319 6.157-2.879 9.195-4.442l.002-.001c1.793-.922 3.587-1.845 5.402-2.72 1.062-.518 2.237-.826 3.393-1.128a41.3 41.3 0 0 0 1.509-.416c.16.264.235.524.309.783Zm.65 94.431c-.26.232-.519.464-.787.651.135.147.244.293.343.424.07.094.135.181.199.255l.014.016.013.014c15.397-3.791 28.477-11.447 39.654-22.608 7.646-7.674 11.128-17.025 11.329-27.715-.012-.501-.1-1.031-.187-1.546v-.004l-.002-.009c-.023-.142-.047-.282-.068-.421-.713.655-.906 1.16-.932 1.758-.222 7.18-2.045 13.777-6.071 19.853-3.978 5.949-8.933 10.743-14.673 14.862-8.39 6.06-17.283 10.857-27.365 13.463-.53.17-1 .59-1.467 1.007ZM147 36.144c.989 1.409 2.06 2.778 3.131 4.148 4.126 5.275 8.254 10.554 7.725 18.141-.18 2.218-.836 4.543-1.86 6.468-2.004 3.808-4.174 7.524-6.757 10.88-3.44 4.388-8.532 5.368-13.88 5.353-.481-.02-.963.014-1.734.069l-.625.044c3.591 5.012 8.517 7.477 13.295 9.868l.008.004.806.404c3.364 1.68 6.829 3.128 10.36 4.603 1.878.785 3.776 1.578 5.687 2.418a7.921 7.921 0 0 0-.393.102c-.285.08-.52.145-.729.106-11.148-2.489-20.853-7.697-29.118-15.54-.454-.437-.664-1.098-.873-1.76-.113-.355-.226-.712-.377-1.032.357-.074.71-.183 1.06-.29.666-.206 1.32-.407 1.963-.351 7.403 1.002 14.347-2.253 18.219-10.731.17-.378.342-.755.514-1.132 2.498-5.486 4.959-10.89 2.012-16.861-1.409-2.868-3.205-5.562-4.992-8.242-.61-.915-1.22-1.83-1.812-2.748-.545-.863-1.189-1.682-1.837-2.507-.211-.268-.423-.537-.632-.809l.116-.074c.259-.168.49-.317.723-.531Zm-25.986 71.651c1.844.117 3.688.234 5.525.392.056-.298.067-.554.081-.896-2.237-.255-4.474-.518-6.712-.781-22.973-2.702-45.954-5.404-69.01.276a2.252 2.252 0 0 0 1.697.329c19.65-3.18 39.321-2.851 58.975-.126 3.118.404 6.281.605 9.444.806Zm55.12 158.114c2.032-.361 4.101-.729 6.009-2.269-4.454-.918-9.14.593-9.332 3.067 1.073-.398 2.192-.597 3.323-.798Zm77.09-200.865c.306 2.429.043 4.265-.215 6.068-.144 1.004-.286 1.997-.328 3.076-1.09-1.665-.803-6.24.543-9.144ZM174.639 76.43c-.722-1.351-1.447-2.706-2.631-3.739.94 2.486 2.752 5.681 4.425 6.608-.722-.866-1.257-1.866-1.794-2.87ZM102.1 227.133c-.645.375-1.243.848-1.842 1.323-1.435 1.136-2.874 2.276-4.979 2.065a7.367 7.367 0 0 1-.238-.439l-.008-.016a65.037 65.037 0 0 0-.14-.265l-.016-.03-.015-.027a4.082 4.082 0 0 0-.059-.1 331.755 331.755 0 0 1 3.312-1.89l.002-.002a322.64 322.64 0 0 0 3.31-1.889c.238.438.476.876.673 1.27Zm194.96-4.336c-.224.985-.448 1.97-.658 2.86 1.085.229 1.938-1.743 2.154-2.831.218-1.106.427-2.223.636-3.34-.857-.115-1.636 1.137-1.829 1.979l-.303 1.332ZM295.644 46.22c.399.664.85 1.376 1.301 2.087.257.406.514.812.762 1.209.303.486.401 1.356-.05 1.71a230.52 230.52 0 0 1-1.799-2.734c-.396-.613-.82-1.866-.214-2.273Z" fill="#596676"/><path d="m195.596 94.685-.001-.001v-.001l-.001-.003c-.594-1.425-1.192-2.86-1.816-4.293 11.586 4.357 20.862-.47 23.792-11.68 2.422-9.184-.836-17.09-5.51-24.76a49.01 49.01 0 0 1-4.96-11.093c-.648-2.164-1.025-4.417-1.401-6.666-.473-2.826-.945-5.645-1.953-8.278-3.002-7.893-3.308-16.05-3.57-24.247L199.913.71c-3.581 8.366-9.366 14.33-16.426 19.172-4.823 3.28-7.563 7.761-8.177 13.404-.786 7.766-3.046 15.082-5.561 22.387-1.454 4.328-1.051 11.569 1.442 16.127.168.307.241-.632.241-.632-1.924-4.389-2.187-11.51-.242-16.325 2.892-7.16 4.563-14.674 5.475-22.392.539-4.836 3.282-8.336 7.073-11.406 2.703-2.154 5.209-4.563 7.707-6.966h.001c1.248-1.2 2.493-2.398 3.761-3.562.354-.325.794-.646 1.233-.967.124.09.25.16.375.23s.25.139.374.23l-.7 1.78c-1.423 3.628-2.837 7.229-4.376 10.824-6.129 14.39-8.49 29.419-7.377 44.944.153 2.552.941 5.075 1.73 7.605l.001.001c.387 1.241.775 2.484 1.088 3.732-5.367-25.137 1.62-48.016 11.115-69.673.472 2.182.94 4.458 1.42 6.789.722 3.511 1.47 7.147 2.296 10.771.314 1.387.734 2.748 1.152 4.1v.002c.684 2.22 1.363 4.418 1.562 6.678.603 7.147 3.426 13.156 7.274 19.127 5.212 8.078 6.984 16.854 2.477 25.988-4.092 8.343-12.76 10.81-20.66 5.937-.204-.125-.423-.188-.722-.273a10.59 10.59 0 0 1-.959-.314c2.469 10.513 6.832 19.534 13.899 27.055 1.245 1.357 3.083 2.133 4.93 2.912.877.371 1.756.742 2.575 1.176.135-.164.259-.34.384-.515.124-.176.248-.351.383-.516-11.074-4.221-14.975-13.588-19.085-23.455Z" fill="#596676"/><path d="m195.411 109.452-.015-.054c-2.01-7.115-3.985-14.104-6.13-21.015-.244-.852-1.371-1.552-2.294-2.125l-.143-.09c-.729-.41-1.484-.726-2.278-1.059-2.122-.89-4.53-1.9-7.505-5.141 3.878 2.97 7.114 3.917 9.972 4.754l.389.114.194.058c1.916.588 2.671 1.676 3.306 3.602 1.414 4.594 2.978 9.132 4.54 13.665l.002.005c.648 1.88 1.295 3.758 1.932 5.64.274.8.408 1.621.539 2.425l.092.556c-.354.014-.715.075-1.075.135-.669.111-1.332.222-1.928.032-7.032-2.344-14.086-4.768-21.126-7.188h-.001l-.003-.001-5.49-1.886c-.707-.241-1.235-.728-1.664-1.548a4059.014 4059.014 0 0 0 28.686 9.121Zm-151.612-1.304-3.492.894c1.967 1.798 5.902.93 7.918-2.031-1.455.377-2.891.744-4.425 1.136l-.001.001Zm20.336 39.563c1.135.276 2.185.532 3.189.778 1.4.342 2.71.662 4.04.983-2.945 1.233-6.474.26-7.229-1.761Zm80.161-113.514c.325.483.661.981 1.105 1.414.378-2.125-2.167-4.757-5.331-5.192.474.459 1.025.84 1.584 1.226.577.399 1.162.803 1.674 1.303.367.358.663.797.968 1.25Zm92.632 172.436c-.064-1.45-.121-2.792-.176-4.075-.077-1.79-.148-3.467-.226-5.165 2.808 2.921 2.852 7.481.402 9.24Zm166.499-.353-.025-.005-.119-.025c-9.741-2.057-19.672-4.155-29.11-6.231-.584-.124-.779-.368-1.087-.756a7.765 7.765 0 0 0-.429-.508c10.675 2.831 21.262 4.464 31.903 6.106h.002c5.991.924 12.107 2.145 17.42 3.355l.091 2.034c-6.218-1.308-12.428-2.656-18.646-3.97Z" fill="#596676"/></svg>