<svg width="450" height="400" fill="none" xmlns="http://www.w3.org/2000/svg"><path d="M.754 300.213s23.266-11.716 34.283-19.34c4.316-2.984 9.277-5.43 14.307-6.634 9.172-1.169 17.34-6.211 24.76-11.613 7.44-5.462 15.265-10.328 23.138-15.222l.981-.61c4.814-3.013 9.533-6.001 11.827-11.535.445-1.089.896-2.176 1.346-3.265 1.955-4.722 3.918-9.463 5.481-14.332 3.235-10.265 2.018-11.461-8.572-12.646-12.982-1.472-23.586-6.987-28.093-20.284-3.328-9.722-4.599-19.674-1.682-29.806l.754-2.654c2.972-10.488 5.927-20.914 11.76-30.329 2.752-4.545 5.351-9.1 7.925-13.749.61-1.13.905-1.837 1.269-2.707.164-.393.343-.82.571-1.335.195.076.255.451.314.826.06.375.119.751.315.826-2.343 5.857-5.38 11.369-8.414 16.877-4.137 7.51-8.271 15.015-10.644 23.384-3.283 11.436-5.115 22.445-1.983 34.133 3.01 11.215 9.842 18.516 20.992 21.471 2.657.701 5.432.892 8.198 1.083h.002c1.344.092 2.687.185 4.012.336 4.727.538 6.896 3.655 6.05 8.36-1.815 10.299-5.981 19.696-11.262 28.677-1.154 1.963-2.865 3.918-4.831 5.084a435.872 435.872 0 0 1-6.788 3.918c-7.802 4.442-15.609 8.886-22.393 14.94-6.95 6.238-17.085 11.085-24.837 12.289-4.663 1.26-9.379 3.289-13.401 6.046-11.192 7.624-34.79 19.634-34.79 19.634l-.595-1.823Zm114.532-1.041c.19.493.387.983.584 1.474.59 1.473 1.179 2.945 1.61 4.459 2.6 9.053 4.444 18.303 4.043 27.832-.639 16.194 2.291 31.765 8.953 46.569.342.738.645 1.542 1.103 2.758.156.415.331.879.531 1.405-.455-.372-.834-.673-1.157-.93-.675-.537-1.106-.879-1.477-1.26-5.568-5.812-12.456-9.58-19.357-13.354-1.152-.63-2.304-1.26-3.45-1.9-3.187-1.794-5.455-3.928-6.539-7.528-1.075-3.753-3.254-6.716-6.998-8.517-3.922-1.907-5.752-5.464-6.84-9.466-6.865-17.147-2.95-24.875 2.38-35.392v-.001c.56-1.105 1.136-2.241 1.716-3.421 1.651-3.352 3.218-6.833 1.707-10.523-.616-1.403-2.275-2.939-3.674-3.282-7.048-1.061-10.892-1.566-11.752-1.558-3.897-.723-7.821-1.438-11.689-2.026l-.084-.012-.28-.043c-3.197-.491-6.54-1.003-9.156 1.995 4.246.258 8.4.513 12.494.765 5.165.317 10.236.629 15.278.931.508.103 1.043.211 1.607.323 5.275 1.102 6.762 3.337 5.413 8.626-.469 1.886-1.305 3.716-2.225 5.416-6.635 12.507-9.67 19.847-3.267 38.902.959 4.086 3.18 7.794 7.032 9.819 3.743 2.041 5.382 5.228 7.204 8.769l.021.042c1.253 2.498 3.286 4.894 5.549 6.626 2.261 1.706 4.831 3.052 7.418 4.408l.004.002c.711.372 1.422.745 2.129 1.126 11.258 5.901 20.075 14.048 24.278 26.365.084.202.22.37.351.531.076.094.15.186.212.281a6.22 6.22 0 0 1 .909-.186c-.438-1.495-.867-3.006-1.297-4.516l-.003-.011-.003-.011c-.429-1.51-.859-3.02-1.297-4.515-3.156-10.421-3.825-20.581 1.281-30.625 1.55-3.05 2.855-6.245 4.161-9.44.83-2.032 1.661-4.065 2.555-6.061 5.232-11.892 6.557-24.08 2.648-36.625-.585-1.864-1.547-3.631-2.614-5.219.141.686.28 1.376.42 2.067.434 2.153.871 4.319 1.382 6.437 2.16 8.715 1.975 17.331-1.169 25.808-1.931 5.188-4.099 10.236-6.421 15.274-4.355 9.446-8.248 18.923-6.046 29.743-4.367-8.091-7.719-16.546-8.626-25.484-.52-5.309-.706-10.641-.892-15.973-.186-5.333-.372-10.665-.892-15.974-.585-5.597-1.913-11.093-3.241-16.586l-.004-.018-.009-.038c-.368-1.52-.735-3.039-1.086-4.561-.224-.997-.891-1.926-1.549-2.841-.315-.439-.628-.875-.889-1.314-.238.09-.425.184-.601.273-.061.031-.121.062-.182.091-.04.019-.081.039-.122.057l-.043.019-.008.004a.345.345 0 0 0-.034.014Zm259.39-43.081c17.653 5.099 35.246 10.162 52.839 15.226l.014-.047.012-.042.001-.002c.066-.229.118-.411.264-.538-.961-.666-1.955-1.303-2.949-1.94l-.029-.02c-2.174-1.393-4.35-2.788-6.202-4.48-11.381-10.455-21.835-21.806-30.54-34.77-6.2-9.33-13.422-17.739-23.564-23.223-.645-.355-1.295-.706-1.945-1.057-3.495-1.889-7.013-3.789-10.048-6.317-6.162-5.105-12.231-10.335-18.3-15.564l-.002-.003c-6.069-5.229-12.138-10.459-18.3-15.564-9.429-7.787-20.113-13.03-32.344-15.099-18.072-3.025-36.986 8.584-41.2 28.679-1.308 6.035-2.735 12-6.523 17.216-1.612 2.334-2.802 2.995-5.555 2.096-.514-.168-1.027-.338-1.54-.507l-.005-.002c-6.857-2.262-13.677-4.511-21.184-4.533-5.724-.021-11.422-1.075-17.108-2.126-.979-.181-1.959-.363-2.937-.538-1.435-.283-3.083-1.973-3.699-3.376-.325-.671 1.41-2.533 2.585-3.442 1.324-1.018 2.713-1.968 4.103-2.919l.011-.008c1.828-1.25 3.659-2.502 5.352-3.913 2.58-2.201 5.095-4.471 7.609-6.739l.008-.007c3.273-2.954 6.543-5.905 9.95-8.698 8.13-6.745 17.389-11.465 27.177-15.314 3.246-1.293 6.393-2.839 9.542-4.386 3.544-1.741 7.093-3.484 10.79-4.869 6.53-2.483 13.254-4.46 19.967-6.434l.002-.001c1.87-.55 3.739-1.099 5.603-1.659 5.747-1.743 10.858-.498 13.342 3.444 6.228 9.826 14.384 16.784 25.229 21.481 11.629 4.998 23.366 7.498 35.872 5.968 3.423-.457 6.866-1.007 10.295-1.554l.002-.001.061-.009c1.772-.283 3.54-.565 5.3-.834.037.142.065.299.093.455.028.157.056.313.093.455-1.731.301-3.45.62-5.163.937l-.011.002-.003.001c-2.96.548-5.901 1.093-8.848 1.538-18.376 2.8-34.955-2.627-50.034-12.376-5.213-3.386-9.485-8.78-13.057-14.002-3.009-4.411-6.616-5.492-10.876-4.236-10.918 3.185-21.787 6.558-32.415 10.474-4.062 1.523-7.973 3.433-11.883 5.342-2.81 1.373-5.619 2.745-8.483 3.972-9.62 4.108-18.173 9.804-25.97 16.665-6.447 5.654-13.013 11.238-19.579 16.822-.997.89-2.094 1.652-3.368 2.537-.66.459-1.368.951-2.134 1.511.676.288 1.269.575 1.812.837 1.051.507 1.913.923 2.82 1.087 3.122.475 6.25.874 9.377 1.272 3.128.399 6.255.797 9.378 1.273 1.028.164 2.06.321 3.093.479 4.408.673 8.834 1.348 13.062 2.538 8.102 2.284 10.719 1.101 12.978-7.096.161-.545.292-1.108.423-1.672.131-.563.263-1.126.423-1.672.277-1.022.543-2.05.809-3.079.851-3.286 1.706-6.59 2.912-9.781 5.967-15.862 20.792-24.193 35.985-24.303 9.467-.036 18.241 3.283 26.469 7.802 12.64 6.954 23.609 16.206 34.108 25.982a590.459 590.459 0 0 1 3.28 3.059c6.28 5.888 12.561 11.778 20.269 15.834 8.12 4.295 15.233 9.759 20.988 16.986 2.514 3.153 5.014 6.32 7.513 9.486l.001.001.004.006.001.001c5.74 7.273 11.478 14.543 17.392 21.645 7.834 9.41 16.814 17.413 28.929 21.176 1.825.596 3.466 1.681 5.317 2.905.943.624 1.941 1.284 3.045 1.933-.889.013-1.575.055-2.16.09-.636.039-1.154.07-1.685.05-1.833-.023-3.665-.039-5.495-.055h-.011c-4.83-.041-9.653-.083-14.483-.255-8.795-.289-16.809 2.042-24.211 6.734a363.844 363.844 0 0 1-16.599 9.849c-10.351 5.759-20.786 11.389-32.319 14.531-11.762 3.207-23.857 4.194-35.944 5.181l-.01.001a684.63 684.63 0 0 0-10.451.906c-.582.047-1.155-.248-1.733-.546-.256-.131-.513-.263-.772-.366l.168-1.102c1.796-.169 3.596-.341 5.396-.514 4.907-.471 9.826-.942 14.74-1.332 14.203-1.012 28.28-2.899 41.195-9.071 11.866-5.749 23.333-12.453 34.646-19.168 8.028-4.803 16.441-7.54 25.792-7.244 2.476.08 4.932-.016 7.744-.125h.001l.002-.001h.017c1.107-.043 2.27-.089 3.511-.126-4.329-1.03-8.505-2.01-12.587-2.967l-.003-.001-.011-.002a2274.065 2274.065 0 0 1-17.684-4.196c-14.515-3.493-26.9-8.295-27.76-10.642Z" fill="#596676"/><path fill-rule="evenodd" clip-rule="evenodd" d="M278.29 37.852a632.588 632.588 0 0 1-4.24 3.613c-.178-.105-.322-.27-.346-.364.041-.117.067-.244.092-.367.046-.225.09-.44.219-.57l1.059-1.026c9.11-8.827 18.225-17.66 31.484-20.419 11.387-2.348 20.814-8.17 28.608-16.795.242-.332.565-.56.986-.858.289-.205.624-.442 1.011-.768-.05.392-.077.707-.1.968v.004c-.037.43-.062.715-.155.959-3.701 8.47-3.14 17.044-1.275 25.985 2.765 12.993 2.833 26.08-2.322 38.657-.149.427-.199.912-.286 1.757-.049.47-.109 1.052-.204 1.797.394-.293.703-.541.961-.747.488-.39.789-.631 1.121-.75 10.596-3.454 21.472-4.662 32.352-2.746 4.902.856 9.681 2.392 14.459 3.928 2.014.647 4.029 1.295 6.052 1.891 7.854 2.298 14.589 6.499 20.344 12.365 7.725 7.825 16.534 13.806 27.558 15.887l1.217.224.008.002c2.194.402 4.396.805 6.517 1.445 1.184.313 2.338.871 3.679 1.519.619.299 1.278.617 1.999.94-.45.227-.735.382-.917.482l-.004.002c-.229.125-.295.162-.328.142-.478-.061-.941-.147-1.397-.231-.54-.1-1.069-.198-1.601-.251-6.325-.678-12.717-.835-17.082 4.682-4.296 5.398-8.448 10.961-11.851 16.884-6.691 11.514-15.663 20.645-26.329 28.3-.316.233-.726.321-1.15.412-.143.031-.288.062-.431.099 1.297-1.798 2.812-3.148 4.47-4.335 8.724-6.395 15.314-14.606 21.544-23.43 1.581-2.223 2.988-4.593 4.401-6.971 3.965-6.676 7.967-13.415 15.953-17.159-4.85-.21-9.434.794-13.953 1.783-4.789 1.049-9.506 2.082-14.393 1.638a4341.77 4341.77 0 0 1 17.019-3.656 15681.9 15681.9 0 0 0 8.812-1.884c-8.942-2.217-15.953-6.901-21.995-13.096-6.913-7.027-15.132-11.7-24.392-15.145-14.627-5.48-29.365-7.505-44.611-3.904-3.082.75-6.304 1.736-8.927 3.475-5.835 3.933-11.645 7.96-16.787 12.62-9.956 9.034-17.616 19.337-16.908 33.921.175 3.785-2.011 6.822-5.583 8.404-2.298 1.049-4.764 1.84-7.185 2.418-5.852 1.442-11.752 2.81-17.638 4.175l-.033.008c-1.917.445-3.834.889-5.746 1.336a81.495 81.495 0 0 1-3.104.62c-.56.104-1.124.209-1.692.321a8.787 8.787 0 0 1-.271-.559c-.088-.192-.175-.384-.271-.56.626-.499 1.263-.991 1.904-1.487l.001-.001c.898-.693 1.804-1.394 2.701-2.126 2.673-2.178 5.528-4.118 8.384-6.058 5.192-3.527 10.388-7.056 14.497-12.024 3.313-4.068 6.905-7.973 10.464-11.841l1.394-1.516c.633-.669 2.022-1.533 2.746-1.267 2.054.727 2.862-.238 3.831-1.75 5.439-8.568 12.547-15.754 21.068-20.988 7.168-4.43 9.168-11.098 10.917-18.154 2.541-10.268 1.061-20.376-.439-30.617-.766-5.23-1.537-10.495-1.78-15.833-.207.273-.408.523-.597.76-.461.576-.855 1.066-1.11 1.598-.883 1.875-1.788 3.737-2.692 5.597l-.001.002-.003.005-.001.002-.001.002v.001l-.001.002c-2.056 4.23-4.107 8.45-5.884 12.794-.49 1.214-1.008 2.43-1.527 3.65-2.08 4.894-4.186 9.845-4.653 14.888-1.303 14.602-7.109 27.197-14.374 39.414-.473.803-1.173 1.512-1.862 2.21a29.6 29.6 0 0 0-.821.855 5.26 5.26 0 0 0-.411-.322 5.26 5.26 0 0 1-.411-.322 447.578 447.578 0 0 1 2.397-4.016l.002-.004.001-.001c1.6-2.66 3.195-5.312 4.7-8.052 4.904-8.883 8.384-18.203 8.862-28.408.112-2.095.472-4.205 1.248-6.07 3.869-9.571 7.737-19.143 11.937-28.6 1.102-2.434 2.546-4.742 3.988-7.05a134.848 134.848 0 0 0 1.934-3.154c-1.056-.382-1.529-.26-1.763.003-5.688 5.86-12.688 9.188-20.429 11.6-1.138.354-2.285.69-3.433 1.026h-.001c-5.58 1.633-11.179 3.272-15.806 7.189-1.586 1.338-3.202 2.614-4.812 3.885l-.001.002-.003.002h-.001l-.003.003-.002.002-.002.001-.001.002-.002.001a206.808 206.808 0 0 0-4.303 3.46 623.598 623.598 0 0 0-4.239 3.612l-.025.021Zm18.222 63.008c-8.504 12.69-20.124 22.105-32.063 31.653 3.88-.88 7.765-1.737 11.651-2.594 3.886-.856 7.771-1.713 11.651-2.593 5.94-1.389 8.196-4.545 8.888-10.622.356-3.122 1.047-6.221 1.736-9.311a174.11 174.11 0 0 0 1.016-4.759c.095-.512-.003-1.038-.102-1.571-.054-.294-.109-.59-.133-.888a9.938 9.938 0 0 1-.856.119c-.74.083-1.497.168-1.788.566Z" fill="#596676"/><path d="M121.908 71.096a21224.19 21224.19 0 0 0 31.621 35.246c.112-.054.215-.093.318-.133.103-.039.207-.079.319-.133-.469-.742-.899-1.518-1.328-2.291-.823-1.483-1.641-2.958-2.717-4.17-3.121-3.487-6.334-6.9-9.55-10.316l-.015-.016c-3.946-4.191-7.898-8.389-11.689-12.734-3.3-3.781-5.941-8.136-8.524-12.456-2.145-3.588-4.156-7.25-6.168-10.913a567.553 567.553 0 0 0-3.761-6.774c-.637-1.095-1.687-2.032-3.125-2.718.042.161.066.321.089.477.045.302.088.59.254.846 4.773 7.129 6.309 14.996 6.597 23.49.224 6.696-1.832 12.37-5.382 17.727-1.518 2.309-2.799 4.758-4.079 7.206-.5.987-.643 2.184-.419 3.436 1.198-2.125 2.533-4.198 3.869-6.272 4.935-7.664 9.874-15.333 7.921-25.616 20.486 40.704 25.377 82.883 13.47 126.949 4.543-9.495 6.109-19.78 6.717-30.069.678-10.408 1.023-20.931.245-31.313a186.24 186.24 0 0 0-4.942-30.523c-1.805-6.96-4.278-13.772-6.675-20.373l-.001-.002v-.001c-1.051-2.894-2.087-5.747-3.045-8.554Zm-5.805 167.395a9.582 9.582 0 0 0-.969.238 1278.18 1278.18 0 0 0 3.415-9.004v-.002l.002-.003.001-.003v-.001l.001-.003c2.805-7.451 5.538-14.711 8.605-21.774 1.091-2.4 4.288-4.842 6.958-5.434 10.298-2.267 15.087-9.457 18.203-18.43.855-2.463 1.542-4.99 2.229-7.514.796-2.928 1.591-5.852 2.646-8.67 5.575-14.652 5.955-29.317 1.374-44.257-.248-.801-.331-1.611-.416-2.441l-.021-.197a23.736 23.736 0 0 0-.039-.364c1.057.381 1.428.84 1.55 1.312 2.586 10.166 5.103 20.45 2.627 30.921-2.749 11.751-5.711 23.457-9.61 34.851-2.676 7.952-8.136 14.106-17.078 15.972-4.642.952-7.241 4.146-8.706 8.407-.248.692-.504 1.399-.76 2.106l-.002.007c-.258.709-.515 1.419-.763 2.113-.848 2.462-1.719 4.93-2.59 7.397l-.003.008c-.871 2.468-1.742 4.935-2.59 7.397.107.105.239.203.379.306.126.093.259.191.384.303 2.241-1.805 4.548-3.541 6.853-5.275 5.199-3.912 10.389-7.818 14.8-12.488 11.34-12.093 24.375-22.098 37.411-32.103 8.431-6.471 16.862-12.942 24.836-19.979.566-.493 1.255-.876 2.071-1.328.37-.206.767-.426 1.189-.677-.032.326-.049.581-.063.78v.004c-.027.399-.039.57-.125.626-2.257 1.926-4.481 3.914-6.708 5.904-5.388 4.815-10.797 9.647-16.74 13.685-13.411 9.116-25.113 20.015-36.89 30.983l-2.26 2.104c-6.249 5.833-12.812 11.29-19.388 16.758l-.002.002a985.758 985.758 0 0 0-8.821 7.392c-.225.214-.546.28-.99.371Zm17.418-3.522c1.18-.69 2.351-1.376 3.154-2.382 5.198-6.388 11.736-11.108 18.488-15.782 4.575-3.153 8.622-7.176 12.515-11.21 4.926-5.108 10.897-6.96 17.75-6.771 2.247.057 4.493.067 6.736.077 4.294.019 8.579.039 12.841.39 5.71.465 11.352 1.322 17.02 2.183 1.232.187 2.465.374 3.701.557.726.093 1.386.496 1.952.842l.005.003c.245.149.472.288.681.387-1.91 2.138-3.838 4.226-5.752 6.299l-.002.002-.003.004-.003.003-.002.002-.002.002-.003.004-.006.006-.002.002c-4.186 4.535-8.31 9.002-12.047 13.772-5.688 7.221-6.971 16.072-7.757 24.894.196.076.385.127.575.179.19.051.38.103.576.178.103-.312.235-.627.366-.941.263-.628.525-1.256.567-1.872 1.258-15.749 9.475-27.406 21.532-36.884 1.359-1.086 2.471-2.47 3.595-3.867.499-.621 1-1.245 1.526-1.847-.681-.352-1.355-.765-2.029-1.179-1.575-.965-3.152-1.932-4.828-2.133-7.049-.944-14.07-1.391-21.185-1.814-2.204-.15-4.414-.197-6.62-.244-3.188-.067-6.368-.135-9.504-.513-8.564-.954-15.305 2.205-21.553 7.656-3.272 2.809-6.683 5.468-10.089 8.122l-.008.007-.002.001c-2.984 2.326-5.964 4.648-8.843 7.065-4.255 3.58-8.342 7.353-12.443 11.14-1.242 1.147-2.485 2.295-3.735 3.439a6.31 6.31 0 0 1 1.053 1.34c.564-.404 1.176-.761 1.785-1.117Zm-4.638 43.944c4.436 1.168 8.053 3.455 10.282 7.968-.167.004-.304.011-.413.016-.318.015-.409.02-.357-.069a2.62 2.62 0 0 1-.892-.524c-6.689-7.136-14.774-7.408-23.47-4.598-.995.33-1.986.675-2.976 1.02-2.476.864-4.953 1.727-7.491 2.35-9.201 2.304-17.953.094-26.662-2.106-2.042-.516-4.082-1.031-6.125-1.488-3.414-.727-3.712-4.984-.382-7.108 10.369-6.469 20.832-12.963 31.56-18.821 1.663-.908 3.353-1.777 5.042-2.646h.002l.001-.001c6.338-3.259 12.683-6.522 17.69-11.918.687-.716 1.45-1.317 2.213-1.918.381-.301.762-.601 1.134-.916.102.1.194.214.287.329.093.114.185.229.287.329-.233.296-.434.612-.632.921-.35.548-.689 1.079-1.17 1.461a215.083 215.083 0 0 0-3.761 2.989c-3.215 2.594-6.419 5.179-9.923 7.213-3.062 1.773-6.243 3.334-9.422 4.894-6.648 3.262-13.29 6.521-18.832 11.709-.512.446-1.181.738-1.847 1.029a12.13 12.13 0 0 0-1.169.559c-.809.476-1.626.948-2.445 1.42-2.278 1.314-4.566 2.634-6.713 4.08-.78.531-1.369 1.31-2.12 2.306-.403.534-.853 1.13-1.406 1.784 1.788.438 3.475.866 5.095 1.277l.009.002.066.017.003.001.02.005.006.001c3.411.866 6.525 1.656 9.649 2.306 3.047.671 6.129 1.283 9.158 1.304 6.829.094 13.395-1.407 19.811-3.878 5.142-1.938 10.484-2.719 15.893-1.299Zm123.93-72.718c.579.103 1.16.202 1.744.3 1.388.235 2.788.471 4.183.784 24.933 5.378 48.463 14.094 69.315 28.998 8.025 5.68 16.212 10.815 25.203 14.582.246.106.493.22.742.334 1.818.836 3.766 1.732 6.636.323-1.149-.486-2.204-.945-3.201-1.378l-.002-.001c-1.951-.848-3.68-1.599-5.456-2.273-6.65-2.543-12.437-6.485-18.237-10.435-2.349-1.6-4.702-3.203-7.113-4.713-15.575-9.721-31.406-18.871-49.815-22.413-3.801-.725-7.559-1.742-11.322-2.759l-.003-.001c-2.22-.601-4.442-1.202-6.677-1.744-1.308-.325-2.694-.387-4.056-.449a46.227 46.227 0 0 1-1.783-.103c-.116.332-.137.64-.158.948Zm21.839 105.526c.345.197.69.393 1.033.538a6.03 6.03 0 0 0-.28.555 5.203 5.203 0 0 1-.162.332l-.012.021-.011.019c-18.086-.551-34.511-5.968-49.65-15.752-10.366-6.736-16.485-16.339-19.264-28.219-.106-.561-.134-1.174-.161-1.77v-.004l-.001-.01a35.958 35.958 0 0 0-.024-.486c.952.559 1.288 1.077 1.459 1.738 1.964 7.959 5.575 14.885 11.519 20.702 5.86 5.688 12.535 9.854 19.924 13.079 10.81 4.756 21.879 7.984 33.753 8.483.631.063 1.256.42 1.877.774ZM266.547 50.82c-.767 1.809-1.635 3.593-2.503 5.377-3.343 6.872-6.688 13.749-4.285 22.088.732 2.432 2.019 4.87 3.622 6.773 3.145 3.77 6.455 7.398 10.139 10.525 4.887 4.075 10.803 3.952 16.768 2.657.53-.137 1.077-.214 1.951-.337l.707-.1c-2.809 6.451-7.717 10.378-12.477 14.188l-.008.006-.803.644c-3.352 2.678-6.873 5.122-10.46 7.612a383.533 383.533 0 0 0-5.768 4.056c.165.002.319.012.462.02.338.021.616.038.839-.055 11.845-5.441 21.43-13.572 28.779-24.299.402-.596.478-1.383.554-2.171.04-.424.081-.849.173-1.243-.416.004-.836-.034-1.252-.07-.793-.07-1.57-.138-2.274.077-8.022 2.887-16.547.915-22.894-7.62-.28-.381-.562-.761-.844-1.141-4.098-5.524-8.135-10.965-6.273-18.334.886-3.536 2.246-6.97 3.6-10.389.463-1.167.924-2.333 1.366-3.5.401-1.093.924-2.16 1.451-3.236.171-.35.343-.7.511-1.053l-.147-.056c-.33-.125-.622-.236-.934-.42Zm46.118 73.742c-2.03.572-4.06 1.143-6.072 1.758-.133-.318-.207-.602-.305-.98 2.436-.819 4.869-1.647 7.303-2.475 24.99-8.505 49.987-17.012 77.071-16.182-.563.549-1.164.756-1.815.773-22.687 1.146-44.558 6.214-65.837 13.951-3.383 1.196-6.864 2.175-10.345 3.155Zm-23.726 189.603c-2.353.083-4.751.167-7.248-1.096 4.751-2.089 10.341-1.523 11.146 1.192-1.292-.187-2.588-.142-3.898-.096ZM154.922 108.449c.239 2.784.972 4.77 1.691 6.72.4 1.086.796 2.16 1.1 3.354.818-2.118-.594-7.154-2.791-10.074Zm90.41-6.072c.484-1.68.969-3.364 2.043-4.8-.455 2.998-1.714 6.997-3.358 8.431.598-1.139.956-2.384 1.315-3.631Zm116.952 150.829c.81.265 1.591.65 2.372 1.036 1.873.926 3.75 1.853 6.049 1.115.058-.166.109-.356.161-.546l.005-.02.04-.145a8.07 8.07 0 0 1 .053-.184l.011-.038.01-.033.042-.125c-1.377-.45-2.762-.884-4.148-1.319l-.002-.001a370.436 370.436 0 0 1-4.145-1.317 51.018 51.018 0 0 0-.448 1.577Zm-218.582 41.746c.486 1.046.971 2.092 1.418 3.035-1.157.515-2.58-1.482-3.08-2.645a380.144 380.144 0 0 1-1.508-3.575c.929-.333 2.097.878 2.514 1.772l.656 1.413ZM103.09 97.58c-.286.837-.619 1.74-.953 2.641-.189.514-.379 1.028-.561 1.53-.222.616-.123 1.61.464 1.898l.001-.002a282.32 282.32 0 0 0 1.354-3.48c.295-.778.468-2.278-.305-2.587Z" fill="#596676"/><path d="m226.309 127.755.001-.002v-.001l.001-.003c.321-1.732.646-3.477 1-5.224-11.887 7.629-23.392 4.459-29.339-7.348-4.897-9.671-3.151-19.27.232-28.945a55.977 55.977 0 0 0 2.884-13.564c.206-2.57.089-5.174-.029-7.774-.148-3.265-.295-6.524.2-9.702 1.464-9.526-.143-18.7-1.809-27.91l-.412-3.358c5.995 8.48 13.875 13.753 22.91 17.469 6.165 2.507 10.294 6.852 12.327 13.002 2.733 8.478 7.002 16.102 11.554 23.653 2.657 4.482 3.937 12.657 2.244 18.34-.114.382-.419-.648-.419-.648 1.098-5.358-.311-13.366-3.631-18.275-4.938-7.299-8.598-15.283-11.46-23.678-1.756-5.267-5.654-8.518-10.617-11.037-3.532-1.758-6.903-3.847-10.265-5.931h-.002a251.882 251.882 0 0 0-5.047-3.076c-.473-.278-1.04-.531-1.607-.785a3.9 3.9 0 0 1-.363.346 3.951 3.951 0 0 0-.363.346l1.206 1.82c2.456 3.707 4.893 7.388 7.47 11.032 10.277 14.593 16.503 30.798 18.97 48.388.439 2.885.164 5.888-.113 8.9v.001c-.135 1.477-.271 2.957-.323 4.425-.018-29.332-13.281-53.192-29.05-75.09a767.16 767.16 0 0 0 .037 7.915c.033 4.091.068 8.327.012 12.568-.019 1.623-.163 3.241-.305 4.85v.002c-.234 2.64-.465 5.256-.147 7.825 1.034 8.119-.68 15.5-3.548 23.08-3.884 10.26-3.765 20.477 3.447 29.592 6.559 8.331 16.821 9.014 24.472 1.688.197-.188.427-.31.741-.478.262-.14.583-.311.994-.578-.243 12.32-2.956 23.428-9.044 33.51-1.065 1.811-2.93 3.116-4.805 4.427-.89.623-1.783 1.247-2.593 1.928-.19-.151-.37-.318-.551-.484-.181-.166-.362-.332-.551-.484 11.348-7.356 13.463-18.74 15.691-30.732Z" fill="#596676"/><path d="m230.044 144.188.004-.064c.543-8.419 1.076-16.689 1.819-24.913.069-1.01 1.159-2.06 2.052-2.92l.138-.134c.716-.632 1.482-1.165 2.289-1.727 2.155-1.5 4.601-3.202 7.146-7.53-3.618 4.24-7.002 6.071-9.992 7.689l-.406.219-.203.111c-1.997 1.114-2.58 2.508-2.828 4.809-.48 5.465-1.141 10.901-1.801 16.334l-.001.006c-.274 2.251-.547 4.502-.808 6.754-.114.958-.068 1.907-.022 2.835l.03.643c.398-.069.816-.088 1.231-.107.774-.035 1.54-.07 2.16-.425 7.286-4.295 14.579-8.686 21.856-13.068l.001-.001.003-.002c1.893-1.139 3.785-2.279 5.675-3.415.732-.438 1.204-1.108 1.487-2.125a4667.684 4667.684 0 0 1-29.83 17.031Zm168.865-37.682c1.295.051 2.648.104 4.111.164-1.766 2.476-6.365 2.448-9.321-.375a1583 1583 0 0 0 5.209.211h.001Zm-13.239 49.006-3.372 1.63c-1.48.716-2.867 1.387-4.274 2.063 3.581.672 7.287-1.257 7.646-3.693ZM269.1 48.002c-.248.616-.503 1.252-.896 1.84-.929-2.28 1.282-5.825 4.708-7.066-.419.625-.943 1.182-1.474 1.746-.549.584-1.105 1.174-1.557 1.855-.324.486-.549 1.047-.781 1.624Zm-62.162 214.546c-.275-1.633-.532-3.144-.777-4.59-.342-2.015-.663-3.903-.981-5.817-2.437 3.932-1.396 9.03 1.758 10.407Zm-185.872 39.39.026-.011.127-.057c10.379-4.623 20.959-9.336 30.994-13.908.623-.278.78-.597 1.032-1.104.095-.193.204-.413.358-.669-11.236 5.71-22.659 10.062-34.14 14.436l-.002.001c-6.465 2.463-12.998 5.287-18.638 7.906l.386 2.291c6.625-2.946 13.233-5.934 19.857-8.885Z" fill="#596676"/></svg>