<svg version="1.1" id="Layer_1" xmlns="http://www.w3.org/2000/svg" x="0" y="0" width="175.2" height="179.1" style="enable-background:new 0 0 175.2 179.1" xml:space="preserve"><style>.st0{fill:#E8F0F8}</style><path class="st0" d="M173.5 114.8c-.2-.6-.6-1-1.1-1.2-.1 0-.2-.1-.3-.1-.1 0-.3-.1-.6-.1-.2 0-.5-.1-.9-.1s-.8-.1-1.4-.1l-16.1-.9 10.6 9.5 4.1.3c.5 0 1-.1 1.5-.1s1-.2 1.4-.4c0 0 .1 0 .1-.1l-1.8 4.3c-.1-.3-.3-.5-.5-.7-.2-.2-.5-.4-.8-.5-.6-.2-1.7-.4-3.4-.5l-15.7-.9 11.8 10.6c1.2 1.1 2.1 1.7 2.7 2 .3.1.6.2.9.1.3 0 .6-.1.8-.2l-1 2.3c-.1-.5-.4-1-.8-1.5-.2-.2-.5-.5-.8-.9-.4-.4-.9-.8-1.6-1.4L145.8 121l17.4.9-12.8-11.6 20.4 1.1h2.8c.5 0 .9-.2 1.3-.4l-1.4 3.8zm-29.4 10.7c-.1.3-.1.6 0 1s.2.8.4 1.3c.2.4.3.9.5 1.2.2.4.3.7.4 1l9 18.8-19.9-6.7c-.9-.3-1.7-.5-2.3-.6-.6-.1-1.1-.1-1.6-.1h-.3c-.1 0-.2.1-.3.1l3.3-3.7c0 .3 0 .6.1.9.1.3.3.5.5.7.2.2.5.4.9.6.4.2 1 .4 1.6.6l3.8 1.3 6.8-7.7-1.9-4c-.3-.5-.5-.9-.7-1.3-.2-.3-.4-.6-.6-.8-.1-.1-.3-.3-.6-.4-.3-.1-.6-.1-1 0h-.1l2-2.2zm3.1 8.8-6.7 7.6 12.3 4.1-5.6-11.7zm-2.7 24.3L129.2 169l-1.4-2c.4.2.8.4 1.3.4.4.1.8.1 1.2 0 .4-.1.8-.2 1.2-.4.4-.2.8-.4 1.1-.6l3.3-2.3-10.7-15.8c-.9-1.4-1.7-2.1-2.3-2.3-.2-.1-.4-.1-.5-.1l3.5-2.4c-.1.3-.1.5-.1.8 0 .6.4 1.5 1.2 2.7l10.7 15.8 2.9-2c.4-.3.8-.5 1.1-.8.3-.3.6-.5.9-.9.2-.3.4-.6.6-1 .1-.4.2-.8.2-1.3v-.3l1.1 2.1zm-22.1 1c.6 1.6.9 3.1.9 4.6 0 1.5-.2 3-.8 4.3-.5 1.3-1.3 2.5-2.4 3.6-1.1 1-2.5 1.9-4.2 2.5l-.6.2c-.9.3-1.6.5-2.3.5-.7.1-1.3.1-1.7 0-.5 0-.9-.1-1.3-.1-.4-.1-.7 0-1 .1-.3.1-.6.3-.8.5-.2.3-.3.5-.4.9l-1.8-4c.6.5 1.2 1 1.9 1.3.7.4 1.4.7 2.1.9.7.2 1.5.3 2.2.3.8 0 1.5-.1 2.2-.4 1.6-.6 2.9-1.4 3.9-2.4s1.6-2.1 2-3.4c.4-1.3.5-2.6.3-4-.1-1.4-.5-2.9-1-4.4-.5-1.5-1.2-2.8-2-4-.8-1.2-1.7-2.2-2.8-3-1.1-.7-2.3-1.2-3.7-1.4-1.4-.2-2.9 0-4.5.6-1.5.5-2.8 1.4-3.7 2.6-.9 1.2-1.4 2.7-1.6 4.4l-1.2-4.2c.6.4 1.2.5 1.8.3.3-.1.5-.3.7-.5.2-.2.4-.5.8-.9.3-.3.8-.7 1.3-1 .6-.4 1.4-.8 2.4-1.1l.6-.2c1.7-.6 3.3-.8 4.8-.7 1.5.1 2.9.5 4.1 1.2 1.2.7 2.3 1.7 3.3 2.9 1.1 1 1.9 2.4 2.5 4z"/><path class="st0" d="M98.2 178.1c.4-.3.6-.7.8-1.1 0-.2.1-.4.1-.8v-1.8l-.5-7.4-12.4.9.5 7.4c.1.9.1 1.5.2 1.9.1.4.2.6.3.8.2.4.5.7.9 1l-4.4.3c.4-.3.6-.7.8-1.2 0-.2.1-.4.1-.8v-1.8L83.5 160c-.1-.9-.1-1.5-.2-1.9-.1-.3-.2-.6-.3-.7-.2-.4-.5-.7-.9-.9l4.4-.3c-.1.1-.2.1-.2.2-.1.1-.2.2-.2.3-.3.5-.5 1.6-.4 3.2l.5 7.9 12.4-.9-.5-7.9c-.1-.9-.1-1.5-.2-1.9-.1-.3-.2-.6-.2-.7-.2-.4-.5-.7-1-.9l4.4-.3c-.2.1-.4.3-.5.5-.4.5-.5 1.6-.4 3.2l1.1 15.5c.1.9.1 1.5.2 1.9.1.4.2.6.2.8.2.4.5.7.9.9l-4.4.1zm-27.2-.4-4.9-1.5c.1 0 .1-.1.2-.1.3-.1.5-.3.7-.5.2-.2.4-.5.4-.8.1-.3.1-.7.1-1.3 0-.5 0-1.1-.1-1.9L65.6 155l-10.5 12.8c-.5.6-.9 1.1-1.2 1.6-.3.5-.5.8-.6 1.2-.2.5-.1 1 .3 1.6 0 .1.1.1.1.2s.1.1.2.2l-3.3-1c.6-.2 1.2-.5 1.8-1 .5-.4 1-.9 1.4-1.4l13.6-16.7 2.5 21.9c.1.8.2 1.3.3 1.6 0 .3.1.5.2.7.1.2.3.6.6 1zm-26.4-10c.1 0 .2-.1.4-.1.1 0 .2-.1.3-.1.6-.2 1.2-1.1 2-2.5l7.1-13.8c.4-.8.7-1.3.8-1.7.1-.4.2-.6.2-.8 0-.4-.1-.9-.3-1.3l3.9 2c-.2 0-.5.1-.7.2-.6.3-1.2 1.1-2 2.5L49.2 166c-.4.8-.7 1.3-.8 1.7-.1.4-.2.6-.2.8 0 .4.1.9.3 1.3l-3.9-2.1z"/><path class="st0" d="M54.8 148.1h-.4c-.2 0-.3 0-.5.1-.1 0-.2.1-.3.2-.1.1-.3.2-.5.3-.2.1-.4.3-.6.6-.2.2-.5.6-.8 1l-9.6 12.3c-1 1.3-1.5 2.3-1.5 3 0 .1.1.2.1.3v.3l-5.3-4.2c-.5-.4-1-.8-1.5-1.3-.5-.4-1-.9-1.5-1.4-.5-.5-1-1-1.4-1.5-.4-.5-.8-1.1-1.1-1.6-.5-1-.8-2-1-3-.1-1-.1-2 0-3 .2-1 .5-2 .9-2.9.4-1 1-1.8 1.6-2.7 2-2.5 4.4-4 7.2-4.5 1-.2 2-.2 3 0s1.9.5 2.8.8c.9.4 1.8.8 2.6 1.4.8.5 1.6 1.1 2.4 1.7l5.4 4.1zm-13.7-6.8c-2.8.4-5.3 2-7.4 4.7-2.2 2.8-3.1 5.5-2.8 8.3.1 1.1.4 2 .9 2.9.5.9 1.1 1.7 1.8 2.5s1.5 1.5 2.3 2.1c.8.7 1.7 1.3 2.5 2l13.8-17.6c-.9-.7-1.8-1.4-2.6-2-.8-.7-1.7-1.3-2.5-1.8-.9-.5-1.8-.8-2.7-1.1-1.1-.1-2.2-.1-3.3 0zm-1.8-5.6c-.5-.2-.9-.2-1.4 0-.1.1-.4.2-.7.3-.3.1-.8.5-1.5 1l-12.5 9.5c-.4.3-.8.6-1.1.9l-.7.7c-.2.2-.3.4-.3.5-.1.1-.1.3-.1.4v.4l-9-11.8 1.6-1.4c-.1.1-.1.2-.1.2 0 .1-.1.1-.1.2-.2.4-.3.8-.2 1.2 0 .3.1.7.2 1 .1.3.3.6.5.9.2.3.4.6.7.9l4.8 6.3 8.4-6.4-3.5-4.6c-.2-.2-.3-.4-.5-.7-.2-.2-.4-.5-.6-.7-.2-.2-.4-.4-.7-.6-.3-.2-.5-.3-.8-.3-.2-.1-.4-.1-.5-.1h-.5l2.6-2c-.3.6-.3 1.1-.2 1.8.1.5.3.9.6 1.2.2.3.5.7.8 1.1l3.5 4.6 9.2-7-5.2-6.8c-.3-.4-.7-.8-1-1.1-.3-.3-.7-.4-1.1-.6l-1.2-.3c-.4 0-.9-.1-1.4-.1l2.8-.9 9.2 12.3zM19.6 129c-3.4 1.4-6.6 1.4-9.6-.1-1.3-.6-2.5-1.4-3.4-2.3-.9-.9-1.7-2.1-2.2-3.5-.6-1.4-.8-2.8-.8-4.2 0-1.4.3-2.9.9-4.3 1.3-2.8 3.5-4.9 6.6-6.2 1.6-.7 3.2-1 4.7-1.1 1.5 0 3 .2 4.5.8 1.4.6 2.7 1.4 3.8 2.4 1.1 1.1 1.9 2.3 2.5 3.6.6 1.4.8 2.8.8 4.3 0 1.4-.4 2.9-1 4.3-1.2 2.8-3.5 4.9-6.8 6.3zm-1.2-2.6c1.3-.5 2.5-1.2 3.7-1.9 1.2-.8 2.2-1.6 3.1-2.7.8-1 1.4-2.1 1.6-3.4.3-1.3.1-2.7-.5-4.2-.6-1.6-1.5-2.7-2.5-3.5-1-.8-2.1-1.2-3.4-1.4-1.2-.2-2.5-.1-3.9.2-1.4.3-2.7.7-4 1.2-4 1.6-6.6 3.6-7.9 6-.6 1-.9 2-.8 3 0 1 .3 2.1.7 3.2.6 1.5 1.5 2.7 2.5 3.4 1 .7 2.2 1.2 3.4 1.4 1.2.2 2.5.1 3.9-.2 1.5-.2 2.8-.6 4.1-1.1zm-5.7-34.5c-.6 0-1.1-.2-1.5-.6-.4-.4-.6-.9-.6-1.6s.2-1.1.6-1.6c.4-.4.9-.6 1.5-.6s1.1.2 1.6.6c.4.4.6.9.6 1.6 0 .6-.2 1.1-.6 1.5-.5.4-1 .7-1.6.7zm-11-28.6c.2.6.6 1 1.1 1.2.1 0 .2.1.3.1s.3.1.5.1.5.1.9.1c.5.1.9.2 1.5.2l16.1 1.1-10.5-9.6-4.1-.3c-.5 0-1 .1-1.5.1s-1 .2-1.4.4c0 0-.1 0-.1.1l1.8-4.3c.1.3.3.5.5.7.2.2.5.4.8.5.6.2 1.7.4 3.4.6l15.7 1.1-11.8-10.6c-1.2-1.1-2.1-1.8-2.7-2-.3-.1-.6-.2-.9-.1-.3 0-.6.1-.8.2l1-2.3c.1.5.4 1 .8 1.5.2.2.5.5.8.9.4.4.9.9 1.6 1.4l14.6 13.3L12 56.5l12.7 11.8L4.2 67H1.4c-.5 0-.9.2-1.3.4l1.6-4.1zm29.5-10.4c.1-.3.1-.6 0-1s-.2-.8-.4-1.3c-.1-.4-.3-.9-.5-1.2-.2-.4-.3-.7-.4-1l-8.8-18.9 19.8 7c.9.3 1.6.5 2.3.7.6.1 1.1.2 1.6.1h.3c.1 0 .2-.1.3-.1l-3.3 3.7c0-.3 0-.6-.1-.9-.1-.3-.3-.5-.5-.7-.2-.2-.5-.4-.9-.6-.4-.2-.9-.4-1.6-.7l-3.8-1.3-6.9 7.6 1.8 4c.3.5.5.9.7 1.3.2.3.4.6.6.8.1.1.3.3.6.4.3.1.6.1 1 .1h.1l-1.9 2zM28.3 44l6.8-7.5-12.2-4.3L28.3 44zM31 20 46.4 9.8l1.4 2c-.4-.2-.8-.4-1.2-.4-.4-.1-.8-.1-1.2 0-.4.1-.8.2-1.2.4-.4.2-.8.4-1.1.6l-3.4 2.2 10.5 15.9c.9 1.4 1.7 2.1 2.3 2.3.2.1.4.1.5.1l-3.6 2.4c.1-.3.1-.5.1-.8 0-.6-.4-1.5-1.2-2.8L37.9 15.8l-3 2c-.4.3-.8.5-1.1.8-.3.2-.6.5-.9.8-.2.3-.4.6-.6 1-.1.4-.2.8-.2 1.3v.3L31 20zm22.2-.9c-.5-1.6-.8-3.1-.8-4.7 0-1.5.3-3 .8-4.3.5-1.3 1.4-2.5 2.5-3.5s2.5-1.8 4.2-2.4l.6-.2c.9-.3 1.6-.5 2.3-.5h1.7c.5 0 .9.1 1.3.1.4.1.7 0 1-.1.3-.1.6-.3.8-.5.2-.3.3-.5.4-.9l1.7 4c-.6-.5-1.2-1-1.9-1.4-.7-.4-1.4-.7-2.1-.9-.7-.2-1.5-.3-2.2-.3-.8 0-1.5.1-2.2.4-1.7.6-3 1.3-3.9 2.3-1 1-1.6 2.1-2 3.4-.4 1.3-.5 2.6-.4 4 .1 1.4.4 2.9.9 4.4.5 1.5 1.2 2.8 1.9 4.1.8 1.2 1.7 2.2 2.8 3 1.1.8 2.3 1.2 3.7 1.4 1.4.2 2.9 0 4.5-.5 1.5-.5 2.8-1.4 3.7-2.6.9-1.2 1.5-2.7 1.6-4.4l1.1 4.2c-.6-.4-1.2-.5-1.8-.3-.3.1-.5.3-.7.5-.2.2-.4.5-.8.9-.3.3-.8.7-1.3 1-.6.4-1.4.7-2.4 1.1l-.6.2c-1.7.6-3.3.8-4.8.7-1.5-.1-2.9-.6-4.1-1.3-1.2-.7-2.3-1.7-3.3-2.9-.9-1-1.7-2.4-2.2-4z"/><path class="st0" d="M77.6.8c-.4.3-.7.7-.8 1.1 0 .2-.1.4-.1.8v1.8l.4 7.4 12.4-.7-.4-7.4c0-.8-.1-1.5-.2-1.8-.1-.4-.2-.6-.2-.8-.2-.4-.5-.7-.9-1l4.4-.2c-.4.3-.7.7-.8 1.1 0 .2-.1.4-.1.8v1.8l.9 15.5c.1.9.1 1.5.2 1.9.1.3.2.6.2.7.2.4.5.7.9.9l-4.4.3c.1-.1.2-.1.2-.2.1-.1.2-.2.2-.3.4-.5.5-1.6.4-3.2l-.4-7.9-12.4.7.4 7.9c.1.9.1 1.5.2 1.9.1.3.2.6.2.7.2.4.5.7.9.9l-4.4.2c.2-.1.4-.3.5-.5.4-.5.5-1.6.4-3.2l-.8-15.3c-.1-.9-.1-1.5-.2-1.9-.1-.4-.2-.6-.2-.8-.2-.4-.5-.7-.9-1l4.4-.2zm26.8.6 4.9 1.6c-.1 0-.1.1-.2.1-.3.1-.5.3-.7.5-.2.2-.4.5-.5.8s-.2.7-.2 1.3c0 .5 0 1.1.1 1.9l1.7 16.8 10.6-12.7c.5-.6.9-1.1 1.2-1.6.3-.5.5-.8.6-1.1.2-.5.1-1-.3-1.6 0-.1-.1-.1-.1-.2s-.1-.1-.2-.2l3.3 1.1c-.6.2-1.2.5-1.8 1-.5.4-1 .9-1.4 1.4L107.6 27l-2.2-21.9c-.1-.8-.2-1.3-.2-1.6 0-.3-.1-.5-.2-.7 0-.6-.2-1-.6-1.4zM131 11.7c-.1 0-.2.1-.4.1-.1 0-.2.1-.3.1-.6.2-1.2 1.1-2 2.5L121 28.2c-.4.8-.7 1.3-.8 1.7-.1.4-.2.6-.2.8 0 .4.1.9.3 1.3l-3.9-2.1c.2 0 .5-.1.7-.2.6-.3 1.2-1.1 2-2.5l7.3-13.7c.4-.8.7-1.3.8-1.7.1-.4.2-.6.2-.8 0-.4-.1-.9-.3-1.3l3.9 2z"/><path class="st0" d="M120.6 31.1h.4c.2 0 .3 0 .5-.1.1 0 .2-.1.3-.2.1-.1.3-.2.5-.3.2-.1.4-.3.6-.6.2-.2.5-.6.8-1l9.7-12.1c1-1.3 1.5-2.3 1.5-3 0-.1 0-.2-.1-.3v-.3l5.3 4.2c.5.4 1 .8 1.5 1.3.5.4 1 .9 1.5 1.4.5.5 1 1 1.4 1.6.4.5.8 1.1 1.1 1.6.5 1 .8 2 .9 3 .1 1 .1 2-.1 3s-.5 2-1 2.9c-.4 1-1 1.8-1.6 2.6-2 2.5-4.4 4-7.2 4.5-1 .2-2 .2-3 0s-1.9-.5-2.8-.9c-.9-.4-1.8-.9-2.6-1.4-.8-.6-1.6-1.1-2.4-1.7l-5.2-4.2zm13.5 7c2.8-.4 5.3-1.9 7.5-4.6 2.2-2.7 3.2-5.5 2.9-8.3-.1-1.1-.4-2.1-.9-2.9-.5-.9-1-1.7-1.7-2.5s-1.5-1.5-2.3-2.2c-.8-.7-1.6-1.4-2.4-2l-14 17.4c.9.7 1.7 1.4 2.6 2.1.8.7 1.7 1.3 2.5 1.8.9.5 1.8.9 2.7 1.1 1 .2 2 .2 3.1.1zm2 5.7c.5.2.9.2 1.4.1.1-.1.4-.2.7-.3.3-.1.8-.5 1.5-1l12.6-9.3c.4-.3.8-.6 1.1-.9l.7-.7c.2-.2.3-.4.3-.5.1-.1.1-.3.1-.4v-.4l8.8 11.9-1.6 1.4c.1-.1.1-.2.1-.2 0-.1.1-.1.1-.2.2-.4.3-.8.3-1.2 0-.3 0-.7-.2-1-.1-.3-.3-.6-.5-.9-.2-.3-.4-.6-.7-.9l-4.7-6.3-8.4 6.3 3.4 4.6c.2.2.3.4.5.7.2.2.4.5.6.7.2.2.4.4.7.6.2.2.5.3.8.3.2.1.4.1.5.1h.5l-2.6 1.9c.3-.6.3-1.1.2-1.7-.1-.5-.3-.9-.5-1.3-.2-.3-.5-.7-.8-1.1l-3.4-4.6-9.3 6.9 5.1 6.8c.3.4.7.8 1 1.1.3.3.7.5 1 .6s.8.2 1.2.3c.4 0 .9.1 1.4.1l-2.8.8-9.1-12.3zm19.6 6.9c3.4-1.4 6.6-1.3 9.6.2 1.3.6 2.4 1.4 3.3 2.4.9 1 1.7 2.1 2.2 3.5.5 1.4.8 2.8.8 4.2 0 1.4-.3 2.9-1 4.3-1.3 2.8-3.5 4.9-6.7 6.1-1.6.6-3.2 1-4.8 1-1.5 0-3-.3-4.5-.9-1.4-.6-2.7-1.4-3.7-2.5-1.1-1.1-1.9-2.3-2.4-3.7-.6-1.4-.8-2.8-.8-4.3 0-1.4.4-2.9 1-4.3 1.4-2.7 3.7-4.7 7-6zm1.2 2.6c-1.3.5-2.5 1.1-3.8 1.9-1.2.7-2.2 1.6-3.1 2.6-.8 1-1.4 2.1-1.7 3.4-.3 1.3-.1 2.7.5 4.2.6 1.6 1.4 2.7 2.4 3.5 1 .8 2.1 1.3 3.3 1.5 1.2.2 2.5.2 3.9-.1 1.4-.3 2.7-.6 4-1.2 4-1.6 6.6-3.6 8-6 .6-1 .9-2 .9-3s-.2-2.1-.7-3.2c-.6-1.5-1.4-2.7-2.5-3.5-1-.8-2.2-1.2-3.4-1.4-1.2-.2-2.5-.2-3.9.1-1.3.2-2.6.6-3.9 1.2zm5.4 35c.6 0 1.1.2 1.5.6.4.4.6.9.6 1.6 0 .6-.2 1.1-.6 1.6-.4.4-.9.6-1.5.6s-1.1-.2-1.6-.6c-.4-.4-.6-.9-.6-1.6 0-.6.2-1.1.6-1.5.5-.5 1-.7 1.6-.7z"/></svg>