<svg version="1.1" id="Layer_1" xmlns="http://www.w3.org/2000/svg" x="0" y="0" width="162.2" height="166.5" style="enable-background:new 0 0 162.2 166.5" xml:space="preserve"><style>.st0{fill:#292929}</style><path class="st0" d="M152.7 105.2c1.4.6 2.6 1.4 3.6 2.3 1 1 1.8 2 2.3 3.2.5 1.2.8 2.4.8 3.8s-.3 2.8-1 4.3l-.2.5c-.3.8-.7 1.4-1.1 1.8-.4.5-.7.9-1.1 1.1-.3.3-.6.6-.9.7-.3.2-.5.4-.6.7-.1.3-.2.6-.1.8 0 .3.1.6.3.8L151 124c.7 0 1.4-.2 2.1-.4.7-.2 1.3-.5 1.9-.9.6-.3 1.1-.8 1.6-1.3s.8-1.1 1.1-1.7c.6-1.4.9-2.8.9-4 0-1.2-.4-2.4-1-3.4s-1.4-1.9-2.4-2.7c-1-.8-2.2-1.5-3.5-2.1-1.3-.6-2.6-1-3.9-1.2-1.3-.2-2.5-.2-3.7 0-1.2.2-2.2.8-3.2 1.5-1 .8-1.8 1.9-2.4 3.3-.6 1.3-.8 2.7-.6 4 .2 1.3.9 2.6 1.9 3.8l-3.5-1.9c.6-.1 1.1-.4 1.3-1 .1-.3.2-.5.1-.8-.1-.3-.1-.6-.1-1s0-.9.1-1.5.3-1.4.7-2.3l.2-.5c.7-1.5 1.5-2.7 2.5-3.6 1-.9 2.1-1.5 3.4-1.9 1.2-.4 2.5-.5 3.9-.3 1.6.1 3 .5 4.3 1.1zM135.9 117v.4c0 .1 0 .3.1.4.1.3.3.5.6.9.3.3.7.7 1.3 1.1l11 8.7c1.2.9 2.1 1.4 2.7 1.3h.2c.1 0 .2 0 .3-.1l-2.6 3.3c0-.4 0-.9-.2-1.3 0-.1-.1-.2-.1-.3-.1-.1-.2-.2-.3-.4-.2-.1-.3-.3-.6-.5-.2-.2-.5-.4-.9-.7l-10.7-8.4c-.8-.6-1.4-.9-1.8-1-.4 0-.8 0-1.1.2-.1 0-.2.1-.2.1l-.3.3c-.1.2-.3.3-.5.6s-.5.6-.8 1l-1 1.2c-.5.7-1 1.3-1.3 1.8-.3.5-.5 1-.7 1.4-.1.2-.1.4-.1.6-.1.3-.1.5-.1.8v.8c0 .3.1.5.2.7l-1.4-2.1 8.3-10.8zm2.4 28.5v-.6c0-.6-.5-1.4-1.5-2.4l-9.7-10.2c-.5-.6-.9-1-1.2-1.2-.3-.2-.5-.3-.6-.4-.4-.2-.8-.2-1.2-.1l2.9-2.7c-.1.2-.1.4 0 .6.1.6.6 1.4 1.6 2.4l9.7 10.2c.5.6.9 1 1.2 1.2.3.2.5.3.6.4.4.2.8.2 1.2.1l-3 2.7zm-8.1-5.9c.8 1.3 1.4 2.5 1.8 3.9.4 1.3.5 2.7.3 3.9-.2 1.3-.6 2.5-1.3 3.6-.7 1.2-1.8 2.2-3.1 3.1l-.5.3c-.7.5-1.3.8-1.9 1-.6.2-1.1.3-1.5.4-.4.1-.8.1-1.1.2-.3 0-.6.1-.8.3-.3.2-.4.4-.6.6-.1.3-.2.5-.2.8l-2.4-3.1c.6.3 1.3.6 2 .8.7.2 1.4.3 2.1.3.7 0 1.4-.1 2-.2.7-.2 1.3-.4 1.9-.8 1.3-.9 2.3-1.9 2.9-3 .6-1.1.9-2.2 1-3.4 0-1.2-.1-2.4-.6-3.6-.4-1.2-1.1-2.4-1.8-3.6-.8-1.2-1.7-2.2-2.6-3.1-1-.9-2-1.5-3.1-2-1.1-.4-2.3-.5-3.5-.4-1.2.1-2.5.6-3.8 1.5-1.2.8-2.1 1.8-2.6 3.1s-.7 2.7-.4 4.2l-1.9-3.4c.6.2 1.1.2 1.6-.1.2-.2.4-.4.5-.6.1-.3.3-.6.5-.9.2-.3.5-.7.9-1.2s1-1 1.8-1.5l.5-.3c1.3-.9 2.7-1.5 4-1.7 1.3-.2 2.6-.2 3.9.2 1.2.3 2.4.9 3.5 1.8.7.6 1.7 1.6 2.5 2.9zm-17.5 22c.3-.3.4-.7.4-1.1 0-.1 0-.4-.1-.7 0-.3-.2-.8-.4-1.6l-4.4-13.3c-.2-.7-.4-1.3-.6-1.6-.2-.3-.3-.5-.4-.6-.3-.3-.6-.5-1-.6l3.8-1.3c-.1.2-.2.3-.3.6-.2.5-.1 1.5.4 2.9l4.4 13.3c.4 1.1.7 1.8 1 2.2.2.3.6.5 1 .6l-3.8 1.2zm-3.4-9.5c-.1.2-.3.5-.5.9s-.5.9-.8 1.5c-2.1 3.8-3.3 6.3-3.7 7.5-.1.3-.1.6-.1.8 0 .3.1.5.1.7 0 .1.1.3.2.4.1.2.2.3.4.4l-3.4 1.1c.2-.1.4-.3.6-.6.2-.2.4-.5.6-.8s.4-.6.5-.8c.2-.3.3-.5.4-.7.1-.1.3-.6.6-1.3.3-.7.8-1.7 1.4-2.9l2.4-4.7-10.6-5.3c-.4-.2-.8-.4-1.2-.5-.4-.2-.8-.3-1.3-.5-.4-.1-.9-.3-1.3-.4-.4-.1-.9-.2-1.3-.2l5.8-1.9c-.1.2-.2.4-.2.6 0 .2 0 .4.1.5.1.2.1.3.2.4.1.1.2.3.3.4.1.1.2.2.4.3.2.1.5.3 1 .6l9.4 4.5zM81.7 157c.3.8.6 1.7.9 2.5.3.8.4 1.7.3 2.6 0 .7-.2 1.4-.5 2-.3.6-.7 1-1.2 1.4-.5.4-1 .7-1.6.8-.6.2-1.3.3-2 .2-.5 0-1-.1-1.4-.3-.4-.2-.8-.4-1.2-.7-.3-.3-.6-.7-.8-1.1-.2-.4-.3-.9-.2-1.4 0-.5.1-.9.4-1.3.2-.3.4-.6.7-.9.3-.3.6-.5 1-.7.3-.2.6-.5.9-.8.3-.3.5-.6.8-1 .2-.4.3-.9.3-1.4 0-.4-.1-.9-.3-1.5-.2-.6-.5-1.2-.9-1.8s-.8-1.1-1.2-1.6c-.5-.4-1-.7-1.4-.7-.3 0-.5.1-.8.3-.3.2-.5.5-.8.9-.2.4-.4.8-.6 1.3-.2.5-.3 1-.4 1.5-.1.5-.1 1 0 1.4.1.5.2.9.4 1.2l-3.3-.2c.4-.2.8-.5 1.1-.9.3-.4.7-.9.9-1.4.3-.5.5-1 .8-1.5.3-.5.5-1 .8-1.4.3-.4.5-.8.8-1 .3-.3.6-.4 1-.4.5 0 1 .3 1.5.7.5.5.9 1 1.3 1.6.4.6.7 1.3.9 1.9.2.6.3 1.2.3 1.6 0 .8-.2 1.5-.6 2-.4.5-.8 1-1.2 1.4-.4.4-.8.9-1.2 1.3-.4.4-.6.9-.6 1.5-.1.9.2 1.6.7 2.2.5.6 1.2.9 2.2 1 .5 0 .9 0 1.3-.2.4-.1.8-.3 1.1-.6.3-.3.6-.6.8-1 .2-.4.3-.8.3-1.3 0-.8-.1-1.8-.4-3-.3-1.2-.8-2.4-1.4-3.7-.6-1.3-1.3-2.5-2-3.8-.8-1.3-1.6-2.4-2.4-3.5-.8-1-1.7-1.9-2.6-2.5-.9-.6-1.7-1-2.4-1-.4 0-.8 0-1.2.1-.4.1-.8.2-1.1.5.4-.6 1-1.1 1.6-1.4.6-.3 1.4-.5 2.1-.4.6 0 1.1.2 1.6.4s1 .5 1.4.9c.4.3.9.7 1.3 1.1.4.4.7.9 1.1 1.3.6-.5 1.1-.9 1.7-1.3.5-.4 1.1-.7 1.6-.9.6-.3 1.2-.5 1.8-.6.6-.1 1.3-.2 2.1-.1.6 0 1.3.2 1.9.4.6.2 1.1.5 1.6.9s.8.8 1.1 1.4c.3.6.4 1.2.3 1.9-.1 1-.3 1.8-.8 2.5s-1.1 1.4-1.8 2c-.7.6-1.5 1.1-2.3 1.5-.5.3-1.3.7-2.1 1.1zm.7-11.1c-.6 0-1.1 0-1.5.1-.5.1-.9.3-1.3.5s-.8.5-1.2.8c-.4.3-.8.6-1.3.9.9 1.4 1.8 2.8 2.5 4.2.8 1.3 1.5 2.8 2.1 4.4.6-.3 1.2-.7 1.8-1 .6-.3 1.1-.8 1.6-1.2.5-.4.8-.9 1.2-1.5.3-.6.5-1.2.5-2 0-.7 0-1.3-.2-1.9s-.5-1.1-.8-1.6c-.4-.5-.9-.8-1.4-1.1-.7-.4-1.4-.5-2-.6zm-20.1-1.4c-.1 0-.3.1-.4.1-.1 0-.3.1-.4.2-.1 0-.1.1-.2.2s-.2.2-.3.4c-.1.2-.3.4-.4.6-.2.3-.3.6-.5 1L54 159.7c-.6 1.3-.9 2.3-.7 2.9 0 .1.1.2.1.2 0 .1 0 .2.1.2l-5.5-2.6c-.5-.2-1-.5-1.6-.8-.6-.3-1.1-.6-1.6-.9-.5-.3-1.1-.7-1.5-1.1-.5-.4-.9-.8-1.3-1.2-.6-.7-1.1-1.6-1.4-2.4-.3-.9-.5-1.8-.5-2.7 0-.9 0-1.8.2-2.7.2-.9.5-1.8.9-2.7 1.2-2.6 3.1-4.4 5.4-5.4.9-.4 1.7-.6 2.6-.6.9 0 1.8 0 2.6.2.9.2 1.7.4 2.6.7.8.3 1.6.7 2.4 1.1l5.5 2.6zM49 141.2c-2.4.9-4.2 2.8-5.6 5.6-1.4 2.8-1.7 5.5-.9 7.9.3.9.7 1.7 1.4 2.4.6.7 1.3 1.3 2 1.8.8.5 1.6 1 2.5 1.4.9.4 1.7.9 2.5 1.2l8.7-18.2c-.9-.4-1.8-.9-2.7-1.3-.9-.4-1.7-.8-2.6-1.1-.9-.3-1.7-.4-2.6-.4-.8.1-1.7.3-2.7.7zm-3.3-4.2c-.2 0-.4.2-.7.4-.3.2-.8.7-1.4 1.4l-9.1 10.7c-.5.6-.9 1.1-1.1 1.5-.2.4-.4.8-.4 1.1 0 .1 0 .2.1.3v.3l-4.5-3.9c-.6-.5-1.3-1.2-1.9-1.9-.6-.7-1.1-1.4-1.4-2.2-.3-.8-.5-1.6-.4-2.4 0-.8.4-1.6 1.1-2.4.5-.6 1-1 1.6-1.2.6-.3 1.1-.4 1.7-.4.6 0 1.2.1 1.8.3.6.2 1.2.4 1.8.8l.8.4.7-8.5c0-.4.1-.8.1-1.3v-1.3c0-.4-.1-.8-.2-1.3-.1-.4-.3-.8-.4-1.2l2.4 2.1-1 12.5c-.6-.4-1.2-.7-1.9-.9-.6-.2-1.3-.3-1.9-.3-.6 0-1.2.2-1.8.5-.6.3-1.2.7-1.7 1.3-.5.6-.9 1.2-1.1 1.8-.2.6-.3 1.3-.2 2 0 .4.1.8.2 1.1.1.3.2.6.4.8.2.3.4.5.6.7l.8.8 2.3 2 11.1-13c1-1.2 1.5-2.1 1.5-2.6 0-.2 0-.4-.1-.5l3 2.5h-.4c-.1-.1-.2-.1-.4 0z"/><path class="st0" d="M35.2 127.8c-.2-.1-.5-.2-.9-.2s-.8 0-1.2.1c-.4 0-.8.1-1.2.2-.4.1-.7.1-.9.2L12.6 132l10.1-16.1c.4-.7.8-1.3 1-1.9.2-.5.4-1 .4-1.4v-.6l2.6 3.7c-.3-.1-.5-.1-.8-.1-.3.1-.5.2-.7.3-.2.2-.5.4-.7.7-.3.3-.6.7-.9 1.3l-1.9 3.1 5.3 7.6 3.9-.8c.5-.1.9-.2 1.3-.4.3-.1.6-.3.8-.4.1-.1.3-.2.5-.4.1-.2.2-.5.2-.9v-.1l1.5 2.2zm-8.4.8-5.3-7.5-6.2 9.9 11.5-2.4zm-11.4-11.3c-1.4.5-2.8.8-4.2.8-1.4 0-2.7-.2-3.9-.7-1.2-.5-2.3-1.2-3.2-2.2-.9-1-1.7-2.2-2.2-3.8l-.2-.4c-.3-.8-.4-1.5-.5-2.1-.1-.6-.1-1.1 0-1.6 0-.5.1-.8.1-1.1 0-.3 0-.6-.1-.9-.1-.3-.3-.5-.5-.7-.2-.2-.5-.3-.8-.4l3.6-1.6c-.5.5-.9 1.1-1.2 1.7-.3.6-.6 1.3-.8 1.9-.2.7-.3 1.3-.3 2s.1 1.3.4 2c.5 1.5 1.3 2.7 2.2 3.5.9.9 1.9 1.4 3.1 1.8 1.1.3 2.3.4 3.6.3 1.3-.1 2.6-.4 3.9-.9 1.3-.5 2.5-1.1 3.6-1.8s2-1.6 2.7-2.6c.7-1 1.1-2.1 1.2-3.3.2-1.2 0-2.6-.6-4.1-.4-1-.9-1.8-1.5-2.6-.7-.7-1.4-1.2-2.3-1.6l-5.2 1.9c-.8.3-1.3.5-1.6.7-.3.2-.5.3-.6.4-.3.3-.4.6-.5.9l-1.3-3.6c.1.1.2.1.4.2.1 0 .2.1.3.1h1.1c.4-.1.9-.2 1.5-.5l4-1.4c.7-.3 1.3-.5 1.6-.6.3-.2.5-.3.6-.4.3-.3.5-.6.6-1.1l1.3 3.7c-.3-.2-.6-.3-.8-.4-.3 0-.6 0-.9.1.2.1.4.3.7.4.3.2.6.4 1 .8.4.3.7.8 1.1 1.3.4.6.7 1.3 1.1 2.2l.2.6c.5 1.5.8 3 .7 4.3-.1 1.3-.5 2.6-1.1 3.7-.6 1.1-1.5 2.1-2.6 3-1 .9-2.3 1.6-3.7 2.1zm-5-33.4c-.6 0-1-.2-1.4-.6-.4-.4-.5-.9-.5-1.4 0-.6.2-1 .6-1.4.4-.4.8-.6 1.4-.5.6 0 1 .2 1.4.6.4.4.5.9.5 1.4 0 .5-.2 1-.6 1.4-.4.3-.9.5-1.4.5zm-.8-19.4C8.2 63.9 7 63.2 6 62.3c-1.1-.9-1.9-1.9-2.5-3.1-.6-1.2-.9-2.4-1-3.8-.1-1.4.2-2.8.8-4.3l.2-.6c.3-.8.6-1.4 1-1.9s.7-.9 1-1.2l.8-.8c.3-.2.4-.5.5-.7.1-.3.2-.6.1-.8.2-.1.1-.4-.1-.6l3.8 1.2c-.7.1-1.4.2-2.1.5-.7.2-1.3.5-1.9.9-.6.4-1.1.8-1.5 1.3-.4.5-.8 1.1-1.1 1.7-.6 1.5-.8 2.8-.7 4.1.1 1.2.5 2.4 1.1 3.4.6 1 1.5 1.9 2.5 2.6 1.1.8 2.2 1.4 3.5 1.9 1.3.5 2.6.9 3.9 1.1 1.3.2 2.5.1 3.7-.2 1.1-.3 2.2-.8 3.1-1.7s1.7-2 2.3-3.4c.5-1.4.7-2.7.4-4-.3-1.3-1-2.6-2-3.7l3.5 1.7c-.6.1-1 .5-1.3 1-.1.3-.1.5-.1.8.1.3.1.6.1 1s0 .9-.1 1.5-.3 1.4-.6 2.3l-.2.6c-.6 1.5-1.4 2.7-2.4 3.7-1 .9-2.1 1.6-3.3 2-1.2.4-2.5.6-3.9.5-1 .1-2.4-.3-3.9-.8zm16.3-12.6v-.4c0-.1 0-.3-.1-.4-.1-.3-.3-.5-.6-.8-.3-.3-.7-.7-1.3-1.1L12.5 41c-1.2-.9-2.1-1.3-2.7-1.2-.1 0-.2 0-.2.1-.1 0-.2 0-.3.1l2.4-3.4c0 .5 0 .9.2 1.3 0 .1.1.2.2.3.1.1.2.2.3.4.2.1.4.3.6.5.2.2.5.4.9.7l11.1 8c.8.6 1.4.9 1.9 1 .4 0 .8-.1 1.1-.3.1 0 .1-.1.2-.2l.3-.3c.1-.2.3-.4.5-.6.2-.3.4-.6.7-1l.9-1.3c.5-.7.9-1.3 1.2-1.9.3-.5.5-1 .6-1.4 0-.2.1-.4.1-.7 0-.3.1-.5.1-.8 0-.3 0-.6-.1-.8 0-.3-.1-.5-.2-.7l1.5 2-7.9 11.1zm-3.5-28.4v.7c.1.6.6 1.3 1.6 2.4l10.1 9.8c.6.5 1 .9 1.3 1.1.3.2.5.3.6.4.4.1.8.2 1.2 0l-2.8 2.8c.1-.2.1-.4 0-.6-.1-.6-.6-1.3-1.7-2.3L22.6 28c-.6-.5-1-.9-1.3-1.1-.3-.2-.5-.3-.6-.4-.4-.1-.8-.2-1.2-.1l2.9-2.9zm8.1 5.7c-.9-1.2-1.5-2.5-2-3.8-.4-1.3-.6-2.6-.4-3.9.1-1.3.5-2.5 1.2-3.7.7-1.2 1.7-2.2 3-3.2l.5-.4c.7-.5 1.3-.8 1.8-1 .6-.2 1.1-.4 1.5-.5.4-.1.8-.2 1.1-.2.3 0 .6-.2.8-.3.3-.2.4-.4.5-.6.1-.3.2-.6.2-.9l2.5 3c-.6-.3-1.3-.5-2-.7-.7-.2-1.4-.2-2.1-.2-.7 0-1.3.1-2 .3-.7.2-1.3.5-1.8.9-1.3.9-2.2 2-2.8 3.1-.6 1.1-.9 2.3-.8 3.4 0 1.2.2 2.4.7 3.6.5 1.2 1.2 2.4 2 3.5s1.7 2.1 2.8 3c1 .8 2.1 1.5 3.2 1.8 1.1.4 2.3.5 3.5.3 1.2-.2 2.5-.7 3.8-1.7 1.2-.9 2-1.9 2.5-3.2.5-1.3.6-2.7.3-4.2l2.1 3.3c-.6-.2-1.1-.1-1.6.2-.2.2-.4.4-.5.6-.1.3-.2.6-.4 1s-.5.8-.9 1.2c-.4.5-1 1-1.8 1.6l-.4.6c-1.3.9-2.6 1.6-4 1.8-1.3.3-2.6.3-3.9 0-1.2-.3-2.4-.8-3.6-1.6-1.1-.9-2.1-1.9-3-3.1zM47.3 6.4c-.3.3-.4.7-.4 1.2 0 .1 0 .4.1.7.1.3.2.8.5 1.5l5 13.1c.3.7.5 1.2.7 1.6.2.3.3.5.4.6.3.3.6.5 1.1.5L50.9 27l.3-.6c.2-.5 0-1.5-.5-2.8l-5-13.1c-.4-1.1-.8-1.8-1.1-2.2-.2-.3-.6-.4-1-.5l3.7-1.4zm3.7 9.4c.1-.2.3-.5.4-.9.2-.4.5-.9.8-1.5 1.9-3.9 3.1-6.4 3.4-7.6.1-.3.1-.6.1-.8 0-.3-.1-.5-.2-.7 0-.1-.1-.3-.2-.4-.1-.1-.2-.3-.4-.4l3.4-1.3c-.2.1-.4.3-.6.6-.2.3-.4.5-.5.8s-.3.6-.5.9c-.1.3-.3.5-.4.7-.1.1-.3.6-.6 1.3-.3.7-.8 1.7-1.3 3l-2.2 4.8L63 19.1c.4.2.8.3 1.2.5.4.2.8.3 1.3.4.4.1.9.2 1.3.3.4.1.9.1 1.3.1l-5.7 2.2c.1-.2.2-.4.2-.6 0-.2 0-.4-.1-.5-.1-.2-.1-.3-.2-.4-.1-.1-.2-.3-.3-.4-.1-.1-.2-.1-.4-.3-.2-.1-.6-.3-1.1-.5L51 15.8zm27.1-6.1c-.4-.8-.7-1.6-1-2.5-.3-.8-.4-1.7-.4-2.6 0-.7.2-1.4.4-2 .3-.6.6-1.1 1.1-1.5.5-.4 1-.7 1.6-.9.6-.1 1.2-.2 1.9-.2.5 0 1 .1 1.4.3.4.1.8.4 1.2.7.4.2.7.6.9 1 .2.4.3.9.3 1.4 0 .5-.1.9-.3 1.3-.2.3-.4.6-.7.9-.3.3-.6.5-.9.8-.3.2-.6.5-.9.8-.3.3-.5.6-.7 1-.2.4-.3.9-.3 1.5 0 .4.1.9.3 1.5.2.6.5 1.2.9 1.8.4.6.8 1.1 1.3 1.5.5.4 1 .6 1.5.6.3 0 .5-.1.8-.4.3-.2.5-.6.7-1 .2-.4.4-.8.6-1.3.2-.5.3-1 .3-1.5.1-.5.1-1 0-1.4-.1-.5-.2-.9-.5-1.2l3.3.1c-.4.2-.8.5-1.1 1-.3.4-.6.9-.9 1.4-.3.5-.5 1-.7 1.6-.2.5-.5 1-.7 1.5-.2.4-.5.8-.8 1.1-.3.3-.6.4-1 .4-.5 0-1-.2-1.6-.6-.5-.4-1-1-1.4-1.6-.4-.6-.7-1.2-1-1.9-.3-.6-.4-1.2-.4-1.6 0-.8.2-1.5.5-2s.7-1 1.1-1.5c.4-.4.8-.9 1.1-1.3.3-.4.5-1 .5-1.6 0-.9-.3-1.6-.8-2.2-.5-.6-1.3-.9-2.2-.9-.5 0-.9.1-1.3.2s-.8.4-1.1.7c-.3.3-.5.6-.7 1s-.3.8-.3 1.3c0 .8.2 1.8.6 3 .4 1.2.9 2.4 1.5 3.6.6 1.2 1.4 2.5 2.2 3.7.8 1.2 1.7 2.3 2.6 3.3.9 1 1.8 1.8 2.7 2.4.9.6 1.7.9 2.5.9.4 0 .8 0 1.2-.2.4-.1.7-.3 1.1-.5-.4.7-.9 1.2-1.6 1.5-.6.4-1.3.5-2.1.5-.6 0-1.1-.1-1.7-.3-.5-.2-1-.5-1.4-.8-.5-.3-.9-.7-1.3-1.1l-1.2-1.2c-.5.5-1.1.9-1.6 1.3s-1 .7-1.6 1c-.6.3-1.2.5-1.8.7-.6.2-1.3.2-2.1.2-.6 0-1.3-.1-1.9-.3-.6-.2-1.2-.5-1.7-.8-.5-.4-.9-.8-1.2-1.3-.3-.5-.4-1.2-.4-1.9 0-1 .2-1.8.7-2.6.4-.8 1-1.4 1.7-2 .7-.6 1.4-1.2 2.2-1.6 1-.4 1.8-.8 2.6-1.2zm-.2 11c.6 0 1.1-.1 1.5-.2.5-.1.9-.4 1.3-.6.4-.2.8-.5 1.2-.8l1.2-.9c-1-1.4-1.9-2.8-2.7-4.1-.8-1.3-1.6-2.7-2.3-4.3-.6.3-1.2.7-1.8 1.1-.6.4-1.1.8-1.5 1.3-.4.5-.8 1-1.1 1.6-.3.6-.4 1.3-.4 2s.1 1.3.3 1.9c.2.6.5 1.1.9 1.6.4.4.9.8 1.5 1 .6.3 1.2.4 1.9.4zm20.4.6c.1 0 .3-.1.4-.1.1 0 .3-.1.4-.2.1 0 .1-.1.2-.2s.2-.2.3-.4c.1-.2.3-.4.4-.6.2-.3.3-.6.5-1l5.6-12.9c.6-1.4.8-2.3.6-2.9 0-.1-.1-.2-.1-.2 0-.1-.1-.2-.1-.2l5.6 2.4c.5.2 1.1.5 1.6.8.6.3 1.1.6 1.7.9.6.3 1.1.7 1.6 1 .5.4.9.8 1.3 1.2.7.7 1.2 1.5 1.5 2.4.4.9.6 1.7.6 2.6.1.9 0 1.8-.1 2.7-.2.9-.4 1.8-.8 2.7-1.1 2.6-2.9 4.5-5.2 5.6-.8.4-1.7.6-2.6.7-.9.1-1.8 0-2.7-.1-.9-.1-1.7-.3-2.6-.6-.8-.3-1.7-.6-2.5-1l-5.6-2.6zm13.5 2.8c2.3-1 4.1-2.9 5.4-5.8 1.3-2.9 1.4-5.5.6-7.9-.3-.9-.8-1.7-1.4-2.4-.6-.7-1.3-1.3-2.1-1.8s-1.6-1-2.5-1.3c-.9-.4-1.8-.8-2.6-1.1l-8 18.5 2.7 1.2c.9.4 1.8.7 2.6 1 .9.2 1.7.3 2.6.3.8 0 1.8-.3 2.7-.7zm3.4 4c.2 0 .4-.2.7-.4.3-.2.8-.7 1.3-1.4l8.7-11c.5-.6.8-1.1 1-1.6.2-.4.3-.8.3-1.1 0-.1 0-.2-.1-.3V12l4.6 3.7c.7.5 1.3 1.1 1.9 1.8.6.7 1.1 1.4 1.5 2.1.4.8.6 1.5.5 2.4 0 .8-.3 1.6-1 2.5-.5.6-1 1-1.5 1.3-.5.3-1.1.4-1.7.5-.6 0-1.2 0-1.8-.2-.6-.2-1.2-.4-1.8-.7l-.8-.4-.4 8.6v1.3c0 .4 0 .8.1 1.3.1.4.1.8.2 1.3.1.4.3.8.5 1.1l-2.5-2 .5-12.5c.6.4 1.3.6 1.9.8.7.2 1.3.2 1.9.2.6-.1 1.2-.2 1.8-.5.6-.3 1.1-.8 1.6-1.4.5-.6.8-1.2 1-1.9.2-.6.3-1.3.2-2 0-.4-.1-.8-.2-1.1-.1-.3-.3-.6-.4-.8-.2-.3-.4-.5-.7-.7-.2-.2-.5-.5-.9-.7l-2.4-1.9-10.6 13.4c-1 1.2-1.4 2.1-1.3 2.7 0 .2 0 .4.1.5l-3.1-2.4h.4c.2-.1.3-.2.5-.2z"/><path class="st0" d="M126.1 36.9c.2.1.5.2.9.2s.8 0 1.2-.1c.4-.1.8-.1 1.2-.2.4-.1.7-.2.9-.2l18.2-4.7-9.4 16.4c-.4.7-.7 1.4-1 1.9-.2.5-.3 1-.4 1.4v.6l-2.7-3.6c.3.1.6.1.8 0 .3-.1.5-.2.7-.3l.7-.7c.3-.3.5-.8.8-1.3l1.8-3.2-5.6-7.3-3.9 1c-.5.1-.9.3-1.3.4-.3.1-.6.3-.8.4-.1.1-.3.3-.4.5-.1.2-.2.5-.2.9v.1l-1.5-2.2zm8.4-1.2L140 43l5.8-10.1-11.3 2.8zm11.8 10.7c1.4-.6 2.8-.9 4.2-1 1.4-.1 2.7.1 3.9.5 1.2.4 2.3 1.1 3.3 2 1 1 1.8 2.2 2.4 3.7l.2.6c.3.8.5 1.5.6 2 .1.6.1 1.1.1 1.6s0 .8-.1 1.2c0 .3 0 .6.1.9.1.3.3.5.5.7.2.2.5.3.8.4l-3.5 1.7c.5-.5.8-1.1 1.1-1.8.3-.6.6-1.3.7-2 .2-.7.2-1.3.2-2s-.2-1.3-.4-2c-.6-1.5-1.4-2.6-2.3-3.4-.9-.8-2-1.4-3.1-1.7-1.1-.3-2.4-.3-3.7-.2-1.3.2-2.6.5-3.9 1.1-1.3.5-2.5 1.2-3.6 1.9-1.1.8-1.9 1.7-2.5 2.7-.6 1-1 2.1-1.1 3.4-.1 1.2.1 2.6.7 4.1.4 1 .9 1.8 1.6 2.5.7.7 1.5 1.2 2.4 1.5l5.1-2.1c.7-.3 1.3-.5 1.5-.7.3-.2.5-.3.6-.5.2-.3.4-.6.5-.9l1.4 3.6c-.1-.1-.3-.1-.4-.2-.1 0-.2-.1-.3-.1-.3 0-.6 0-1.1.1-.4.1-.9.3-1.5.5l-3.9 1.6c-.7.3-1.2.5-1.5.7-.3.2-.5.3-.6.4-.3.3-.5.6-.5 1.1l-1.5-3.7c.3.2.6.3.9.3.3 0 .6 0 .9-.1l-.8-.4c-.3-.2-.6-.4-1-.7s-.8-.7-1.2-1.3c-.4-.5-.8-1.3-1.2-2.1l-.2-.6c-.6-1.5-.9-2.9-.8-4.3.1-1.4.4-2.6 1-3.8.6-1.1 1.4-2.2 2.5-3.1.9-.8 2.1-1.6 3.5-2.1zm6.5 33.3c.6 0 1 .2 1.4.5.4.4.6.8.6 1.4 0 .6-.2 1-.5 1.4-.4.4-.8.6-1.4.6-.6 0-1-.2-1.4-.5-.4-.4-.6-.8-.6-1.4 0-.5.2-1 .5-1.4.4-.3.8-.5 1.4-.6z"/></svg>