<svg width="426" height="373" fill="none" xmlns="http://www.w3.org/2000/svg"><path d="M418.583 275.812s-22.701-7.608-34.805-9.868c-4.741-.888-9.547-2.544-13.587-5.049-6.698-5.231-15.274-7.302-23.601-8.65-8.378-1.323-16.618-3.284-24.906-5.257l-1.034-.246c-5.081-1.194-10.084-2.341-15.182-.258-.998.413-2 .823-3.002 1.233-4.348 1.779-8.712 3.564-12.903 5.694-8.793 4.529-8.787 6.098-2.709 13.778 7.438 9.427 10.698 19.918 4.933 31.463-4.193 8.462-9.868 15.731-18.37 20.381l-2.22 1.225c-8.77 4.845-17.489 9.662-27.408 11.945-4.748 1.143-9.403 2.394-14.104 3.721-1.131.333-1.784.598-2.588.923-.363.147-.757.307-1.24.491-.078-.176.129-.458.335-.74.207-.281.413-.563.336-.739 5.34-2.26 10.902-3.843 16.461-5.426 7.58-2.158 15.154-4.315 22.152-8.18 9.59-5.255 17.963-11.182 23.567-20.788 5.374-9.221 5.72-18.405.435-27.595-1.261-2.189-2.932-4.124-4.597-6.053l-.001-.001c-.809-.938-1.618-1.875-2.376-2.837-2.707-3.434-2.075-6.867 1.544-9.358 7.897-5.479 16.727-8.839 26.007-11.201 2.028-.517 4.411-.665 6.444-.136 2.322.604 4.636 1.25 6.949 1.897 7.949 2.22 15.9 4.441 24.242 4.953 8.569.502 18.289 3.982 24.091 8.264 3.839 2.229 8.215 3.995 12.617 4.837 12.218 2.374 35.326 10.009 35.326 10.009l-.806 1.568Zm-74.777-74.096c.198-.443.391-.889.584-1.335.58-1.338 1.16-2.676 1.869-3.936 4.229-7.555 9.073-14.743 15.554-20.646 10.985-10.06 19.255-22.046 24.609-35.973.261-.701.59-1.419 1.088-2.504l.573-1.256c.052.537.1.98.142 1.357.086.788.141 1.29.133 1.779-.193 7.395 1.804 14.33 3.805 21.277.334 1.159.668 2.319.992 3.481.89 3.242.964 6.102-.684 9.139-1.755 3.13-2.279 6.47-1.033 10.079 1.292 3.794.154 7.29-1.755 10.59-6.753 15.575-14.33 18.018-24.644 21.343h-.001c-1.084.35-2.198.709-3.344 1.094-3.256 1.09-6.542 2.32-7.974 5.694-.517 1.31-.447 3.386.235 4.521 3.867 5.288 6.024 8.124 6.586 8.68 2.049 3.012 4.121 6.037 6.24 8.942l.046.063.153.211c1.748 2.404 3.576 4.917 7.227 4.686-2.58-2.939-5.1-5.816-7.585-8.651a8836.638 8836.638 0 0 0-9.276-10.577c-.261-.398-.538-.817-.829-1.258-2.694-4.156-2.197-6.573 2.13-9.114 1.534-.914 3.269-1.552 4.974-2.052 12.458-3.76 19.214-6.527 27.51-23.035 2.047-3.269 3.031-7.119 1.861-10.944-1.089-3.764-.069-6.896 1.065-10.376l.013-.041c.82-2.434 1.069-5.311.735-7.909-.348-2.579-1.132-5.129-1.921-7.694l-.001-.004c-.217-.705-.434-1.411-.642-2.119-3.432-11.167-3.817-22.194 1.505-32.906.077-.186.098-.383.119-.574.012-.11.024-.218.046-.319-.231-.138-.463-.275-.709-.474a517.955 517.955 0 0 1-2.11 3.769l-.005.008-.005.01c-.708 1.257-1.416 2.514-2.109 3.768-4.761 8.803-10.96 15.812-20.821 18.977-2.994.962-5.924 2.176-8.854 3.391-1.865.773-3.729 1.546-5.61 2.254-11.149 4.277-19.963 11.298-25.623 21.965-.839 1.588-1.37 3.359-1.716 5.083.356-.536.716-1.073 1.077-1.611 1.125-1.676 2.256-3.363 3.308-5.067 4.292-7.048 10.037-12.502 17.605-15.933 4.636-2.096 9.334-3.947 14.126-5.69 8.983-3.268 17.689-6.859 23.328-15.296-2.457 8.085-5.808 15.744-11.056 22.119-3.129 3.774-6.49 7.345-9.851 10.916-3.361 3.571-6.722 7.142-9.851 10.916-3.275 4.004-6.004 8.427-8.731 12.847l-.009.014-.019.031a399.976 399.976 0 0 1-2.275 3.659c-.506.792-.681 1.829-.853 2.85-.082.49-.164.977-.282 1.431.213.096.395.157.567.215a18.132 18.132 0 0 1 .293.103l.041.016.007.003a.43.43 0 0 1 .032.013ZM147.864 60.25c-8.092-14.823-16.169-29.585-24.245-44.347l-.04.022-.035.02h-.002c-.192.106-.345.19-.522.176.187 1.058.414 2.119.641 3.18l.007.032c.496 2.32.993 4.644 1.087 6.948.538 14.194-.109 28.362-2.941 42.432-2.079 10.084-2.897 20.239.084 30.408.187.65.378 1.302.569 1.954 1.028 3.503 2.063 7.029 2.377 10.646.654 7.325 1.166 14.671 1.678 22.016v.003c.512 7.346 1.025 14.691 1.679 22.017 1.017 11.193 4.506 21.56 11.068 30.883 9.718 13.755 29.533 18.592 45.378 8.342 4.786-3.05 9.603-5.978 15.459-6.879 2.567-.457 3.768-.109 4.962 2.27l.666 1.334.002.004c2.959 5.94 5.903 11.848 10.745 16.763 3.69 3.749 6.689 8.151 9.681 12.544.515.756 1.031 1.513 1.549 2.265.743 1.12.706 3.289.189 4.598-.228.647-2.565.719-3.92.54-1.521-.206-3.039-.498-4.559-.79l-.013-.002c-1.998-.385-4.001-.77-6.017-.962-3.106-.261-6.215-.434-9.322-.607l-.01-.001c-4.045-.226-8.087-.451-12.115-.869-9.664-.943-18.736-3.934-27.581-7.834-2.944-1.283-5.988-2.337-9.036-3.392-3.429-1.188-6.863-2.376-10.16-3.893-5.845-2.658-11.486-5.768-17.118-8.873l-.002-.001a831.124 831.124 0 0 0-4.708-2.584c-4.856-2.625-7.35-6.767-6.383-10.939 2.385-10.423 1.651-20.248-2.299-30.367-4.261-10.826-10.222-20.105-19.312-27.28-2.513-1.939-5.1-3.831-7.675-5.715l-.002-.001-.045-.034c-1.331-.974-2.66-1.946-3.974-2.921.069-.116.153-.235.237-.355.084-.119.168-.239.237-.355 1.316.935 2.636 1.852 3.952 2.764l.008.007.003.001c2.273 1.578 4.531 3.145 6.728 4.781 13.717 10.185 20.9 24.52 24.291 40.67 1.162 5.594.405 11.873-.694 17.584-.933 4.818.696 7.872 4.272 9.84 9.143 5.068 18.377 9.981 27.809 14.386 3.622 1.666 7.4 2.984 11.175 4.301 2.714.946 5.427 1.893 8.082 2.968 8.906 3.623 18.157 5.521 27.681 6.173 7.862.55 15.755 1.224 23.648 1.898 1.227.076 2.433.298 3.836.557.726.134 1.506.278 2.367.416-.249-.628-.446-1.2-.626-1.724-.349-1.014-.635-1.847-1.115-2.544-1.709-2.346-3.473-4.646-5.236-6.945-1.763-2.3-3.526-4.6-5.236-6.946a390.608 390.608 0 0 0-1.689-2.329c-2.412-3.313-4.834-6.639-6.793-10.17-3.751-6.767-6.216-7.71-13.029-3.881-.46.248-.913.526-1.365.805-.453.279-.906.558-1.366.806-.846.481-1.689.972-2.533 1.464-2.695 1.57-5.406 3.15-8.27 4.427-14.215 6.367-29.245 2.078-39.146-7.769-6.148-6.157-9.658-14.032-12.031-22.328-3.639-12.75-4.695-25.896-5.105-39.076a512.262 512.262 0 0 1-.125-4.12c-.219-7.909-.438-15.82-2.777-23.476-2.449-8.08-3.484-16.258-2.49-24.691.432-3.682.883-7.362 1.333-11.042v-.002l.001-.006v-.001c1.035-8.453 2.069-16.902 2.879-25.358 1.075-11.202.489-22.243-4.892-32.586-.792-1.576-1.145-3.35-1.544-5.35a61.993 61.993 0 0 0-.708-3.239c.584.572 1.055.993 1.456 1.352.437.39.793.708 1.123 1.068 1.171 1.211 2.346 2.417 3.52 3.622l.007.008c3.098 3.18 6.191 6.355 9.204 9.62 5.5 5.928 12.207 9.652 20.059 11.45a334.423 334.423 0 0 1 17.169 4.463c10.456 3.032 20.883 6.202 30.396 11.698 9.703 5.603 18.172 12.86 26.636 20.113l.007.007c2.442 2.092 4.883 4.184 7.354 6.236.406.35.585.915.764 1.484.08.252.16.506.26.741l-.828.604a2070.107 2070.107 0 0 0-3.826-3.19c-3.482-2.9-6.973-5.806-10.406-8.762-9.85-8.617-20.189-16.586-32.574-21.024-11.43-4.027-23.225-7.176-34.927-10.218-8.331-2.133-15.56-5.855-21.416-12.151-1.55-1.668-3.201-3.21-5.092-4.974h-.001l-.002-.002-.004-.004-.007-.006a347.907 347.907 0 0 1-2.354-2.211c2.128 3.492 4.191 6.853 6.207 10.136l.001.003.006.009c2.984 4.861 5.865 9.555 8.702 14.259 7.11 11.736 11.987 22.928 11.012 25.008Z" fill="#D399A9"/><path fill-rule="evenodd" clip-rule="evenodd" d="M67.75 264.367c1.698.138 3.398.277 5.1.43.048.185.033.385-.013.462-.103.049-.202.114-.299.177-.176.115-.345.226-.514.226l-1.355-.028c-11.656-.236-23.32-.472-33.699-7.343-8.9-5.914-18.8-8.302-29.472-7.81-.374.056-.732-.007-1.199-.089-.32-.056-.692-.121-1.155-.163.288-.221.511-.407.696-.561l.002-.001.001-.002c.305-.254.507-.422.726-.518 7.924-3.064 13.159-8.978 17.79-15.98 6.692-10.211 15.192-18.722 26.738-23.494.375-.179.724-.46 1.332-.95.338-.272.757-.609 1.305-1.03a29.202 29.202 0 0 0-1.11-.143c-.57-.066-.922-.107-1.214-.247-9.11-4.682-16.935-11.001-22.723-19.344-2.613-3.754-4.702-7.867-6.79-11.98-.881-1.734-1.762-3.468-2.681-5.175-3.582-6.614-5.196-13.728-5.09-21.281.11-10.105-1.684-19.726-7.458-28.268l-.641-.941-.004-.005c-1.157-1.693-2.318-3.392-3.272-5.19-.562-.976-.945-2.09-1.39-3.384a68.86 68.86 0 0 0-.679-1.914c.44.147.725.232.908.287l.004.001c.23.069.296.088.305.123.27.351.513.709.753 1.061.283.417.562.826.872 1.208 3.65 4.568 7.682 8.842 14.108 8.122 6.303-.688 12.62-1.576 18.69-3.187 11.845-3.08 23.61-3.131 35.509-1.121.356.056.68.267 1.013.485.113.073.226.148.343.217-2.013.316-3.875.201-5.722-.114-9.82-1.557-19.444-.547-29.234 1.094-2.474.407-4.932 1.021-7.398 1.637-6.923 1.731-13.913 3.478-21.523.687 3 3.302 6.621 5.645 10.191 7.955 3.783 2.448 7.51 4.86 10.381 8.337a3960.567 3960.567 0 0 1-13.397-8.745c-2.272-1.487-4.576-2.995-6.932-4.534 4.338 7.272 5.816 14.879 5.681 22.832-.115 9.059 2.151 17.448 5.893 25.722 5.886 13.095 14.1 24.026 26.314 31.649 2.483 1.527 5.212 2.992 8.044 3.58 6.342 1.265 12.73 2.452 19.1 2.794 12.338.655 24.02-1.01 33.083-10.908 2.358-2.563 5.755-3.101 9.098-1.792 2.172.821 4.284 1.92 6.227 3.126 4.728 2.888 9.438 5.854 14.138 8.814l.026.016c1.531.964 3.06 1.927 4.589 2.887a74.373 74.373 0 0 1 2.413 1.625c.431.299.864.599 1.305.897-.053.177-.122.358-.19.539a7.914 7.914 0 0 0-.19.539c-.731-.086-1.464-.183-2.203-.281l-.001-.001a118.878 118.878 0 0 0-3.136-.387c-3.151-.336-6.264-.945-9.378-1.554-5.662-1.108-11.328-2.216-17.229-1.685-4.8.469-9.672.65-14.5.83l-1.892.071c-.846.019-2.309-.329-2.604-.974-.854-1.811-2.007-1.714-3.62-1.368-9.112 1.992-18.403 2.001-27.333-.176-7.529-1.813-13.176 1.195-18.914 4.619-8.347 4.983-13.988 12.489-19.703 20.094-2.92 3.884-5.858 7.794-9.186 11.406.313-.042.606-.073.882-.102.675-.072 1.25-.132 1.762-.309a452.149 452.149 0 0 1 5.396-1.864h.002l.005-.002.002-.001.002-.001.002-.001c4.092-1.394 8.175-2.785 12.16-4.436 1.11-.465 2.238-.914 3.37-1.365 4.541-1.807 9.136-3.636 12.73-6.594 10.376-8.596 22.355-12.954 35.03-16.115.83-.211 1.746-.213 2.648-.215.367-.001.733-.001 1.089-.016.008.161.032.319.056.476.023.158.047.315.056.477-1.394.355-2.784.694-4.173 1.033l-.004.001h-.001c-2.772.677-5.535 1.351-8.298 2.141-8.972 2.546-17.307 6.304-24.279 12.594-1.44 1.282-3.05 2.412-4.77 3.112-8.751 3.667-17.502 7.334-26.393 10.71-2.302.856-4.744 1.407-7.183 1.957-1.109.251-2.216.501-3.31.779.434.937.82 1.166 1.142 1.149 7.506-.078 14.207 2.339 20.79 5.833.967.512 1.928 1.044 2.89 1.576l.001.001c4.676 2.586 9.369 5.181 14.92 5.668 1.9.169 3.778.399 5.649.627h.002l.003.001h.005l.002.001h.007c1.683.206 3.36.411 5.042.571 1.703.154 3.402.292 5.1.43l.03.003Zm29.344-52.66c13.786-2.658 27.45-1.163 41.407.453a1761.394 1761.394 0 0 1-9.23-5.928c-3.073-1.982-6.147-3.965-9.231-5.928-4.75-2.979-8.27-2.41-12.685 1.069-2.268 1.788-4.738 3.341-7.202 4.891-1.266.796-2.53 1.591-3.764 2.416-.395.269-.675.673-.96 1.083-.156.225-.314.453-.493.661.204.136.417.308.632.482.533.429 1.077.869 1.526.801Z" fill="#D399A9"/><path d="M190.626 344.95c.847-14.154 1.707-28.769 2.552-43.446-.108-.038-.2-.08-.293-.122a3.41 3.41 0 0 0-.293-.122c-.181.787-.409 1.569-.636 2.35-.436 1.496-.87 2.984-.965 4.471-.257 4.293-.406 8.599-.556 12.909l-.001.019c-.183 5.289-.366 10.584-.75 15.87-.334 4.601-1.468 9.143-2.618 13.624-.954 3.722-2.043 7.403-3.133 11.087-.673 2.275-1.347 4.551-1.989 6.838-.303 1.124-.236 2.416.247 3.798.078-.132.167-.251.254-.367.168-.225.328-.439.387-.713 1.567-7.728 5.709-13.821 11.068-19.504 4.226-4.478 9.261-6.807 15.055-7.955 2.489-.502 4.916-1.251 7.343-2 .968-.311 1.842-.992 2.514-1.948-2.162.592-4.379 1.062-6.597 1.531-8.197 1.737-16.398 3.474-21.848 11.402 13.319-39.708 37.69-70.19 74.162-90.925-9.138 3.177-16.866 8.808-23.976 15.068-7.233 6.291-14.326 12.874-20.601 20.099a171.207 171.207 0 0 0-16.729 22.973c-3.376 5.682-6.222 11.703-8.981 17.539l-.001.001-.001.002c-1.209 2.557-2.401 5.079-3.614 7.521Zm113.036-104.509c.214.143.465.31.783.479a1117.826 1117.826 0 0 0-8.088 3.596h-.001l-.003.001-.003.002h-.001l-.003.001c-6.678 2.99-13.186 5.903-19.781 8.47-2.273.84-5.936.333-8.049-1.027-8.143-5.256-15.935-3.731-23.809.04-2.161 1.035-4.255 2.222-6.347 3.407-2.426 1.374-4.85 2.747-7.372 3.881-13.172 5.84-22.992 15.079-29.782 27.736-.361.68-.836 1.258-1.324 1.851l-.115.141a18.5 18.5 0 0 0-.212.261c-.435-.937-.376-1.475-.147-1.861 4.964-8.265 10.05-16.562 18.487-21.72 9.45-5.808 19.008-11.447 28.97-16.273 6.922-3.398 14.472-3.815 21.475.815 3.625 2.415 7.391 2.045 11.121.245.612-.286 1.239-.576 1.867-.867l.006-.002c.629-.292 1.259-.583 1.873-.87 2.155-1.039 4.33-2.067 6.505-3.095l.006-.003a890.3 890.3 0 0 0 6.505-3.094 3.368 3.368 0 0 0-.045-.446 4.782 4.782 0 0 1-.051-.446c-2.628-.296-5.254-.679-7.877-1.062-5.918-.863-11.825-1.724-17.728-1.582-15.232.42-30.196-1.617-45.162-3.654-9.679-1.317-19.358-2.635-29.111-3.288-.688-.05-1.383-.252-2.207-.492-.373-.109-.773-.226-1.211-.339.234-.19.412-.344.551-.463l.002-.002c.278-.241.397-.344.49-.324 2.717.227 5.453.393 8.193.559 6.63.403 13.284.807 19.765 2.075 14.628 2.857 29.314 3.445 44.093 4.037l2.836.115c7.85.306 15.659 1.06 23.484 1.815l.002.001c3.506.338 7.015.677 10.533.976.285.008.536.175.882.406Zm-13.568-9.092c-1.214-.324-2.419-.646-3.596-.519-7.533.74-14.844-.475-22.263-1.858-5.019-.948-10.264-.987-15.416-.918-6.521.089-11.593-2.612-15.904-7.207a291.821 291.821 0 0 0-4.307-4.448c-2.765-2.815-5.525-5.625-8.053-8.635-3.391-4.028-6.482-8.266-9.587-12.523a852.5 852.5 0 0 0-2.03-2.777c-.409-.534-.573-1.226-.714-1.819l-.001-.005c-.061-.257-.117-.495-.188-.695 2.631-.136 5.242-.229 7.834-.321h.016l.005-.001h.01c5.669-.201 11.253-.399 16.785-1.044 8.394-.959 15.002-5.848 21.27-11.043a5.152 5.152 0 0 0-.256-.491c-.089-.157-.178-.314-.255-.491-.272.135-.562.252-.852.37-.58.234-1.16.469-1.589.84-11.095 9.369-24.021 11.547-38.01 9.807-1.587-.185-3.21-.016-4.85.155-.728.076-1.46.152-2.193.198.211.673.377 1.38.544 2.088.388 1.652.777 3.308 1.73 4.531 3.945 5.213 8.195 10.086 12.523 15.005 1.327 1.535 2.726 3.008 4.123 4.479 2.018 2.125 4.031 4.244 5.814 6.537 4.917 6.208 11.341 8.565 18.942 9.116 3.95.319 7.893.826 11.829 1.333l.01.001h.003c3.448.443 6.892.886 10.332 1.202 5.091.462 10.198.689 15.323.916 1.553.069 3.106.138 4.662.213a5.838 5.838 0 0 1 .193-1.554c-.628-.107-1.257-.275-1.884-.442Zm31.689-25.403c-2.107-3.651-2.954-7.493-1.45-11.867.11.106.203.191.277.259.216.197.278.254.186.277.14.292.218.599.235.922-.331 8.984 4.722 14.438 12.183 18.297.859.436 1.725.859 2.591 1.282 2.166 1.058 4.332 2.116 6.38 3.371 7.458 4.516 11.677 11.659 15.875 18.768.985 1.667 1.968 3.332 2.991 4.961 1.735 2.699-.852 5.648-4.393 4.848-10.931-2.583-21.94-5.213-32.705-8.427a208.855 208.855 0 0 1-4.989-1.58h-.002l-.001-.001c-6.228-2.029-12.463-4.061-19.225-3.837-.913.014-1.798-.095-2.684-.204a36.884 36.884 0 0 0-1.332-.148 3.409 3.409 0 0 1 .029-.4c.015-.135.03-.27.029-.4.344-.041.68-.113 1.01-.184.585-.126 1.151-.248 1.711-.182 1.458.196 2.922.359 4.385.522 3.773.421 7.534.84 11.129 1.811 3.138.853 6.215 1.919 9.29 2.986 6.43 2.229 12.855 4.457 19.828 4.718.623.046 1.246.294 1.866.54.376.15.75.298 1.122.401.834.22 1.671.449 2.508.678 2.332.637 4.674 1.277 7.007 1.743.852.166 1.741.046 2.877-.108.61-.082 1.29-.174 2.075-.237a523.146 523.146 0 0 1-2.463-4.152l-.005-.007-.031-.053-.002-.003-.009-.017-.003-.004c-1.642-2.788-3.141-5.331-4.737-7.791-1.533-2.424-3.128-4.832-5.074-6.823-4.357-4.519-9.585-7.834-15.349-10.424-4.592-2.103-8.558-5.085-11.13-9.535Zm-127.652-33.86a147.28 147.28 0 0 0-.932-1.332c-.745-1.058-1.496-2.125-2.194-3.238-12.62-19.756-22.154-40.756-25.914-64.011-1.484-8.915-3.428-17.581-6.786-25.888-.09-.23-.175-.464-.262-.7-.63-1.728-1.305-3.58-4.082-4.542a354.1 354.1 0 0 1 1.171 2.981l.001.003c.709 1.822 1.337 3.437 2.046 5.031 2.642 5.987 3.812 12.316 4.986 18.658.475 2.569.951 5.141 1.525 7.693 3.731 16.456 8 32.711 17.597 47.02 1.986 2.952 3.753 6.062 5.524 9.177l.001.002c1.044 1.838 2.09 3.678 3.182 5.488.634 1.064 1.489 2.009 2.33 2.938.372.41.741.818 1.087 1.231.291-.14.506-.325.72-.511Zm54.762-82.528c-.095-.353-.189-.705-.317-1.023.203-.052.383-.117.544-.176.116-.042.222-.081.321-.11l.022-.005.019-.005c11.342 12.164 18.432 26.391 21.839 42.604 2.308 11.125-.001 21.333-5.959 30.833-.298.433-.68.847-1.051 1.25l-.003.003-.007.007c-.102.111-.203.221-.301.33-.251-.983-.13-1.538.191-2.077 3.925-6.431 6.111-13.269 6.063-20.913-.079-7.506-1.678-14.559-4.353-21.469-3.888-10.134-8.942-19.449-16.298-27.523-.368-.453-.539-1.092-.71-1.726ZM83.812 263.643c1.678-.669 3.404-1.257 5.13-1.845 6.65-2.263 13.302-4.528 17.192-11.493 1.114-2.05 1.873-4.468 2.079-6.746.426-4.493.653-9 .311-13.428-.502-5.828-4.409-9.61-9.113-12.666-.434-.257-.837-.564-1.483-1.055a85.325 85.325 0 0 0-.523-.397c6.029-2.34 11.768-1.677 17.335-1.034l.009.001.94.108c3.917.455 7.79 1.173 11.736 1.904 2.1.389 4.221.782 6.38 1.141-.106-.109-.199-.216-.286-.315-.205-.234-.373-.426-.579-.512-11.215-4.212-22.724-5.209-34.481-3.067-.65.123-1.213.583-1.776 1.044-.304.247-.607.495-.924.69.271.269.52.568.764.863.468.563.926 1.115 1.522 1.435 7.074 3.369 11.303 10.21 9.837 19.876-.068.429-.133.859-.199 1.289-.955 6.249-1.895 12.405-7.91 15.957-2.882 1.709-6.005 3.043-9.112 4.37-1.061.454-2.12.906-3.168 1.373-.973.445-2.008.794-3.051 1.146-.34.115-.68.23-1.019.348l.059.132c.131.296.248.56.33.881Zm18.305-77.816a260.38 260.38 0 0 0 5.076 2.827 6.284 6.284 0 0 1-.443.833 1970.22 1970.22 0 0 0-6.34-3.166c-21.72-10.812-43.446-21.628-60.427-39.846a2.369 2.369 0 0 1 1.68.685c15.425 14.069 32.883 25.069 51.701 33.955 2.97 1.435 5.86 3.073 8.753 4.712ZM241.246 78.65c1.576 1.482 3.182 2.993 3.973 5.44-4.437-1.75-7.684-5.766-6.433-8.048.714.965 1.582 1.782 2.46 2.608Zm-47.594 220.581c1.663-1.957 2.486-3.72 3.294-5.451.449-.963.894-1.917 1.477-2.888-1.912.836-4.286 5.016-4.771 8.339Zm-62.456-55.094c-1.41.771-2.823 1.545-4.455 1.772 2.251-1.643 5.676-3.408 7.676-3.262-1.13.346-2.174.918-3.221 1.49Zm22.802-173.931c-.352-.7-.605-1.46-.858-2.219-.608-1.822-1.217-3.647-3.186-4.67-.146.07-.303.159-.46.248l-.018.01-.119.067c-.052.03-.104.058-.155.085l-.032.017-.028.015a3.67 3.67 0 0 1-.109.054c.598 1.19 1.21 2.375 1.823 3.56l.001.003c.612 1.184 1.224 2.37 1.821 3.558.461-.248.921-.496 1.32-.728Zm168.668 115.689c.369-.994.738-1.988 1.065-2.889 1.084.421.701 2.643.265 3.721-.443 1.097-.9 2.197-1.358 3.298-.818-.391-.784-1.937-.469-2.788l.497-1.342ZM220.09 340.101a106.89 106.89 0 0 1 2.341-1.087c.458-.209.917-.417 1.362-.624.545-.253 1.13-.96.938-1.53l-.001.001c-1.055.452-2.11.905-3.148 1.367-.699.311-1.79 1.168-1.492 1.873Z" fill="#D399A9"/><path d="m160.07 240.137-.001.001-.001.001-.002.002c-1.339.91-2.688 1.827-4.058 2.726 12.672 2.824 18.045 12.386 14.185 23.908-3.146 9.453-10.542 14.523-19.047 18.575a51.457 51.457 0 0 0-10.721 6.892c-1.811 1.528-3.435 3.29-5.056 5.048-2.036 2.209-4.068 4.414-6.464 6.147-7.165 5.207-12.115 12.191-17.049 19.237l-1.926 2.442c1.657-9.399.002-17.956-3.418-26.258-2.352-5.647-2.186-11.153.513-16.459 3.767-7.27 5.982-14.99 7.966-22.846 1.207-4.634 5.716-10.759 10.521-13.33.324-.173-.151.693-.151.693-4.208 2.749-8.525 8.85-9.582 14.193-1.569 7.946-4.414 15.501-8.043 22.8-2.302 4.554-1.903 9.202-.337 14.073 1.138 3.442 1.955 6.994 2.77 10.538v.001c.407 1.769.813 3.536 1.258 5.285.125.488.326 1.022.527 1.557.161-.009.311.002.461.013.15.011.299.021.461.013l.407-1.965c.832-4.002 1.658-7.974 2.37-12.014 2.878-16.15 9.429-30.699 19.316-43.69 1.599-2.152 3.738-3.916 5.883-5.684l.001-.001c1.052-.867 2.106-1.735 3.097-2.651-19.137 18.989-26.132 43.083-30.225 67.545 1.666-1.644 3.383-3.374 5.142-5.145 2.649-2.668 5.393-5.431 8.197-8.139 1.072-1.037 2.222-1.99 3.364-2.939l.001-.001c1.875-1.555 3.733-3.096 5.204-4.966 4.631-5.928 10.558-9.583 17.363-12.617 9.21-4.101 15.803-10.788 17.088-21.394 1.195-9.672-4.998-16.813-14.73-17.068-.251-.007-.479-.078-.792-.175-.261-.081-.58-.18-1.021-.275 8.201-7.812 17.208-13.227 27.728-15.775 1.872-.477 3.93-.103 5.999.272.983.179 1.968.357 2.936.446.024.221.032.447.041.673.008.225.017.451.04.672-12.144-2.649-20.944 3.335-30.215 9.639Z" fill="#D399A9"/><path d="m168.382 227.067-.044.039c-5.848 5.093-11.592 10.095-17.441 14.931-.704.608-2.095.576-3.233.549l-.178-.004c-.875-.058-1.719-.213-2.608-.376-2.374-.437-5.067-.932-9.539.207 5.109-.382 8.494.643 11.484 1.548l.406.123.203.061c2.02.583 3.307.062 4.97-1.265 3.878-3.222 7.855-6.308 11.828-9.392l.005-.003c1.647-1.278 3.293-2.556 4.932-3.843.699-.544 1.288-1.189 1.865-1.819.134-.146.267-.292.4-.435-.303-.216-.585-.476-.866-.735-.524-.483-1.042-.96-1.675-1.135-7.518-1.978-15.103-3.898-22.671-5.814h-.002l-.003-.001c-1.968-.498-3.936-.996-5.901-1.495-.759-.194-1.502-.069-2.349.404a4282.107 4282.107 0 0 1 30.417 8.455Zm-133.85-85.861c-.804-.878-1.645-1.796-2.552-2.79 2.759-.449 5.716 2.572 5.785 6.328-1.06-1.166-2.11-2.313-3.232-3.537l-.001-.001Zm40.558-23.062 3.246 1.147c1.425.503 2.76.974 4.111 1.455-1.878-2.773-5.535-3.944-7.357-2.602ZM80.32 263.8c.564-.237 1.144-.482 1.782-.606-.888 2.082-4.632 2.932-7.659 1.498.679-.131 1.382-.149 2.094-.167.736-.019 1.481-.039 2.218-.183.527-.104 1.039-.32 1.566-.542Zm180.281-98.223c-.889 1.236-1.71 2.381-2.494 3.476-1.095 1.528-2.12 2.958-3.163 4.404 4.143-.952 6.798-4.931 5.657-7.88Zm145.968 95.859-.025-.01-.119-.046c-9.733-3.784-19.655-7.642-29.132-11.236-.584-.226-.895-.123-1.388.041-.188.062-.402.134-.668.199 10.996 3.64 21.228 8.282 31.512 12.948l.001.001c5.791 2.627 11.861 5.065 17.219 7.052l1.247-1.734c-6.21-2.42-12.435-4.8-18.647-7.215Z" fill="#D399A9"/></svg>