<svg width="21" height="16" fill="none" xmlns="http://www.w3.org/2000/svg"><mask id="a" maskUnits="userSpaceOnUse" x="-.603" y="-.595" width="22" height="16" fill="#000"><path fill="#fff" d="M-.603-.595h22v16h-22z"/><path fill-rule="evenodd" clip-rule="evenodd" d="M13.344.405c.095 3.325 2.853 5.907 5.754 7.108l-18.7-.23v.862l18.7-.23c-2.902 1.201-5.66 3.78-5.754 7.107h.718c0-2.819 2.058-5.071 4.463-6.397.265-.144 1.118-.604 1.57-.722l.16-.002v-.374l-.161-.002c-.452-.118-1.303-.578-1.569-.722-2.405-1.326-4.463-3.58-4.463-6.398h-.718Z"/></mask><path fill-rule="evenodd" clip-rule="evenodd" d="M13.344.405c.095 3.325 2.853 5.907 5.754 7.108l-18.7-.23v.862l18.7-.23c-2.902 1.201-5.66 3.78-5.754 7.107h.718c0-2.819 2.058-5.071 4.463-6.397.265-.144 1.118-.604 1.57-.722l.16-.002v-.374l-.161-.002c-.452-.118-1.303-.578-1.569-.722-2.405-1.326-4.463-3.58-4.463-6.398h-.718Z" fill="#fff"/><path d="m19.098 7.513-.002.2.079-.385-.077.185ZM13.344.405v-.2h-.206l.006.206.2-.006ZM.397 7.282l.003-.2-.203-.002v.202h.2Zm0 .863h-.2v.203L.4 8.345l-.003-.2Zm18.7-.23.077.185-.08-.385.003.2Zm-5.753 7.107-.2-.006-.006.206h.206v-.2Zm.718 0v.2h.2v-.2h-.2Zm4.463-6.397-.096-.175.096.175Zm1.57-.722-.002-.2h-.025l-.023.006.05.194Zm.16-.002.002.2.198-.003v-.197h-.2Zm0-.374h.2v-.198l-.198-.002-.002.2Zm-.161-.002-.05.193.023.007h.024l.003-.2Zm-1.569-.722-.096.175h.001l.096-.175ZM14.063.405h.2v-.2h-.2v.2Zm5.113 6.923C16.309 6.142 13.635 3.61 13.544.4l-.4.011c.098 3.437 2.941 6.071 5.878 7.286l.153-.37Zm-18.78.154 18.7.23.006-.4L.4 7.083l-.005.4Zm.202.663v-.863h-.4v.863h.4Zm18.498-.43-18.7.23.005.4 18.7-.23-.005-.4Zm-.074.015c-2.936 1.216-5.779 3.847-5.877 7.286l.4.012c.091-3.215 2.764-5.742 5.63-6.928l-.153-.37Zm-5.677 7.492h.718v-.4h-.718v.4Zm.918-.2c0-2.714 1.985-4.913 4.36-6.221l-.193-.35c-2.436 1.341-4.567 3.648-4.567 6.571h.4Zm4.36-6.221c.13-.072.407-.221.706-.367.303-.148.613-.284.818-.338l-.101-.387c-.248.065-.59.218-.893.366-.306.15-.59.302-.723.375l.192.35Zm1.63-1.1-.16.002.006.4.16-.002-.006-.4Zm-.197-.174V7.9h.4v-.374h-.4Zm.036.198.161.002.005-.4-.16-.002-.006.4Zm-1.661-.746c.133.072.416.225.722.374.302.148.644.3.891.365l.101-.387c-.204-.053-.513-.19-.816-.337a18.61 18.61 0 0 1-.707-.367l-.191.352ZM13.862.405c0 2.923 2.131 5.23 4.567 6.573l.193-.35c-2.375-1.31-4.36-3.509-4.36-6.223h-.4Zm-.518.2h.718v-.4h-.718v.4Z" fill="#fff" mask="url(#a)"/></svg>