<svg width="371" height="343" fill="none" xmlns="http://www.w3.org/2000/svg"><path d="M11.32 307.219s18.424-11.493 28.625-16.036c3.996-1.781 7.886-4.254 10.923-7.315 4.806-6.025 11.936-9.658 18.997-12.602 7.113-2.931 13.968-6.397 20.864-9.883l.86-.434c4.23-2.123 8.403-4.189 13.339-3.425.968.154 1.937.305 2.908.455 4.21.654 8.436 1.31 12.581 2.306 8.712 2.143 9.036 3.529 5.292 11.583-4.576 9.883-5.242 19.824 2.275 28.795 5.481 6.581 12.019 11.798 20.497 14.11l2.217.613c8.757 2.427 17.463 4.839 26.694 4.765 4.429.008 8.799.131 13.225.312 1.069.055 1.7.151 2.477.269.352.053.733.111 1.198.172.031-.172-.21-.377-.452-.582-.241-.205-.483-.41-.451-.582-5.187-.869-10.427-1.094-15.665-1.32-7.141-.307-14.276-.614-21.264-2.55-9.567-2.616-18.201-6.081-25.167-13.375-6.683-7.002-8.922-15.031-6.196-24.251.651-2.196 1.718-4.256 2.78-6.308l.001-.001c.516-.998 1.032-1.994 1.499-3.003 1.664-3.599.384-6.494-3.333-7.93-8.121-3.17-16.618-4.274-25.302-4.404-1.897-.028-4.031.343-5.713 1.238a359.363 359.363 0 0 0-5.73 3.137c-6.545 3.632-13.092 7.266-20.342 9.475-7.454 2.247-15.295 7.365-19.511 12.364-2.918 2.775-6.406 5.254-10.112 6.924-10.278 4.668-29.055 16.269-29.055 16.269l1.041 1.214Zm50.36-81.113c-.268-.349-.533-.702-.797-1.055-.793-1.058-1.586-2.116-2.478-3.078-5.321-5.774-11.109-11.094-18.07-14.937-11.808-6.561-21.628-15.393-29.285-26.551-.377-.563-.818-1.127-1.486-1.98a213.5 213.5 0 0 1-.77-.987c.067.485.117.886.16 1.227.09.713.148 1.168.258 1.598 1.727 6.483 1.426 13.021 1.124 19.57-.05 1.093-.1 2.187-.142 3.28-.103 3.047.435 5.586 2.528 7.918 2.208 2.392 3.374 5.228 3.035 8.674-.342 3.619 1.4 6.463 3.778 8.972 9.237 12.317 16.436 12.876 26.235 13.637l.001.001c1.03.08 2.088.162 3.18.26 3.102.276 6.26.668 8.233 3.344.733 1.046 1.108 2.892.745 4.037-2.297 5.479-3.603 8.436-3.981 9.045-1.174 3.088-2.364 6.193-3.621 9.202l-.028.065-.09.219c-1.036 2.488-2.12 5.091-5.389 5.655 1.657-3.135 3.275-6.204 4.87-9.229a6712.21 6712.21 0 0 1 5.955-11.283c.146-.407.302-.835.466-1.285 1.5-4.234.553-6.261-3.799-7.592-1.545-.483-3.21-.68-4.82-.762-11.781-.693-18.324-1.711-29.12-14.526-2.494-2.453-4.172-5.642-3.945-9.262.167-3.55-1.393-6.098-3.125-8.929l-.02-.034c-1.237-1.974-2.063-4.46-2.315-6.822-.236-2.349-.081-4.763.074-7.192v-.004c.043-.667.086-1.336.12-2.004.676-10.574-1.306-20.382-8.257-28.712-.107-.147-.168-.317-.227-.48a2.775 2.775 0 0 0-.107-.272c.175-.17.35-.34.526-.568.875.96 1.765 1.92 2.654 2.881l.006.006.007.007c.89.96 1.779 1.92 2.654 2.88 6.054 6.763 12.999 11.641 22.364 12.355 2.844.218 5.685.673 8.525 1.127 1.808.289 3.615.578 5.424.807 10.735 1.425 19.989 5.762 27.23 13.98 1.074 1.224 1.915 2.675 2.584 4.123-.428-.398-.858-.796-1.29-1.195-1.345-1.241-2.699-2.491-3.986-3.773-5.27-5.313-11.486-8.914-18.885-10.348-4.531-.872-9.066-1.515-13.66-2.044-8.613-.991-17.049-2.324-23.8-8.58 3.87 6.615 8.439 12.666 14.411 17.184 3.556 2.67 7.272 5.112 10.99 7.555 3.716 2.442 7.433 4.885 10.988 7.555 3.733 2.842 7.072 6.169 10.408 9.494l.011.011.023.023c.924.92 1.847 1.839 2.778 2.748.613.593.986 1.47 1.353 2.335.176.415.35.827.55 1.203a5.254 5.254 0 0 1-.455.309 11.964 11.964 0 0 0-.237.152l-.032.023-.006.004-.025.018ZM204.735 60.044a49503.21 49503.21 0 0 1 12.048-44.226l.04.01.035.01h.002c.192.053.344.094.497.046.058.972.081 1.956.104 2.94l.001.03c.051 2.15.102 4.305.504 6.357 2.516 12.635 6.07 24.997 11.531 36.813 3.958 8.457 6.819 17.243 6.33 26.841a232.03 232.03 0 0 1-.09 1.844c-.169 3.307-.339 6.635.146 9.892.965 6.6 2.061 13.187 3.156 19.775l.001.003c1.095 6.587 2.19 13.175 3.156 19.775 1.46 10.088.565 19.968-3.259 29.575-5.676 14.181-22.138 22.621-38.274 16.916-4.864-1.683-9.73-3.251-15.086-2.813-2.36.138-3.346.698-3.899 3.048l-.306 1.317-.001.004c-1.36 5.863-2.712 11.695-5.949 17.05-2.465 4.085-4.183 8.6-5.898 13.105-.295.776-.59 1.552-.889 2.325-.42 1.144.069 3.05.802 4.096.337.523 2.414.093 3.571-.35 1.298-.501 2.576-1.079 3.856-1.657l.01-.005c1.683-.76 3.368-1.521 5.106-2.115 2.685-.884 5.391-1.692 8.095-2.499l.009-.003c3.521-1.051 7.039-2.102 10.505-3.318 8.325-2.867 15.698-7.417 22.68-12.72 2.327-1.751 4.791-3.323 7.257-4.895 2.775-1.77 5.554-3.542 8.142-5.574 4.597-3.576 8.918-7.507 13.232-11.433l.002-.001a739.221 739.221 0 0 1 3.609-3.271c3.731-3.338 5.059-7.517 3.327-10.994-4.299-8.693-5.721-17.515-4.368-27.273 1.479-10.447 4.783-19.889 11.291-28.132 1.808-2.24 3.691-4.453 5.567-6.659l.001-.001.033-.039a617.364 617.364 0 0 0 2.89-3.414 5.28 5.28 0 0 0-.284-.263 4.989 4.989 0 0 1-.283-.263c-.965 1.102-1.936 2.188-2.904 3.271l-.007.007-.002.002c-1.673 1.871-3.335 3.729-4.928 5.634-9.956 11.874-13.273 26.032-12.863 40.994.153 5.179 2.144 10.558 4.316 15.365 1.837 4.054 1.044 7.09-1.696 9.581-6.998 6.395-14.109 12.674-21.502 18.546-2.844 2.234-5.899 4.191-8.952 6.148-2.195 1.407-4.389 2.813-6.504 4.321-7.094 5.071-14.855 8.694-23.119 11.275-6.82 2.142-13.641 4.398-20.462 6.655-1.066.325-2.083.776-3.266 1.299-.613.272-1.27.563-2.001.866.088-.606.141-1.153.19-1.653.094-.968.171-1.763.447-2.479 1.014-2.43 2.085-4.83 3.156-7.23 1.072-2.399 2.143-4.799 3.157-7.229.329-.803.663-1.607.999-2.411 1.43-3.43 2.866-6.875 3.851-10.401 1.884-6.76 3.86-8.111 10.676-6.169.458.122.916.273 1.374.423.457.151.916.302 1.374.424.847.245 1.695.501 2.543.757 2.708.818 5.432 1.641 8.228 2.164 13.881 2.623 26.236-4.326 32.896-15.098 4.127-6.726 5.565-14.413 5.911-22.23.524-12.015-1.313-23.834-3.727-35.547-.246-1.221-.501-2.44-.757-3.66-1.473-7.023-2.946-14.048-2.495-21.295.459-7.643-.351-15.075-3.004-22.305-1.156-3.157-2.329-6.309-3.501-9.46l-.001-.001-.002-.006v-.001c-2.693-7.238-5.384-14.474-7.88-21.763-3.308-9.655-5.116-19.518-2.548-29.777.367-1.557.305-3.196.235-5.044-.035-.942-.073-1.939-.057-3.006-.395.628-.722 1.098-1 1.499-.303.437-.55.792-.766 1.178-.778 1.316-1.56 2.627-2.342 3.938l-.004.007c-2.063 3.458-4.123 6.91-6.093 10.425-3.604 6.389-8.736 11.087-15.284 14.325a303.093 303.093 0 0 0-14.205 7.554c-8.586 4.876-17.116 9.869-24.351 16.72-7.379 6.988-13.322 15.173-19.261 23.354l-.005.007a565.853 565.853 0 0 1-5.173 7.05c-.285.394-.323.93-.362 1.47-.017.24-.035.48-.073.709l.857.358c.898-1.207 1.801-2.413 2.704-3.62 2.461-3.291 4.928-6.59 7.334-9.92 6.874-9.677 14.316-18.884 24.307-25.408 9.235-5.96 18.977-11.222 28.66-16.37 6.899-3.635 12.492-8.441 16.332-15.23 1.016-1.797 2.148-3.504 3.445-5.46l.001-.002.003-.004.005-.007c.511-.77 1.047-1.579 1.611-2.446-1.142 3.529-2.254 6.928-3.34 10.249l-.001.002-.003.01a1916.705 1916.705 0 0 0-4.674 14.411c-3.8 11.85-5.746 22.75-4.447 24.38Z" fill="#D399A9"/><path fill-rule="evenodd" clip-rule="evenodd" d="M318.398 223.233c-1.47.48-2.94.96-4.41 1.454-.002.172.053.346.109.404.102.022.203.058.301.094.181.064.353.126.502.091l1.189-.31c10.233-2.664 20.472-5.329 28.181-13.576 6.606-7.091 14.836-11.283 24.354-13.097.342-.029.644-.159 1.039-.33.271-.117.585-.253.985-.387-.301-.135-.537-.252-.733-.349l-.001-.001h-.002c-.323-.16-.536-.266-.75-.305-7.635-1.034-13.498-5.148-19.058-10.35-8.054-7.598-17.345-13.316-28.535-15.093-.369-.08-.736-.254-1.375-.558a63.303 63.303 0 0 0-1.369-.634c.38-.153.69-.266.949-.36.489-.178.791-.288 1.019-.473 7.051-6.05 12.623-13.272 15.972-21.85 1.514-3.862 2.49-7.931 3.467-11.999.411-1.715.823-3.43 1.274-5.13 1.767-6.588 1.693-13.204.009-19.844-2.226-8.892-2.67-17.756.624-26.508l.368-.965.002-.006c.664-1.736 1.331-3.48 1.794-5.267.29-.98.393-2.042.513-3.278.055-.57.114-1.178.196-1.83-.357.221-.591.356-.74.443l-.004.002c-.188.109-.243.14-.243.172-.164.367-.303.734-.441 1.096-.162.427-.321.846-.514 1.249-2.258 4.798-4.915 9.417-10.735 10.136-5.706.72-11.466 1.267-17.158 1.125-11.099-.223-21.489 2.21-31.561 6.49-.303.124-.543.378-.792.64-.084.089-.168.179-.257.264 1.843-.145 3.461-.638 5.024-1.305 8.334-3.442 17.037-4.578 26.019-5.192 2.269-.163 4.566-.138 6.871-.114 6.472.069 13.006.138 19.132-3.928-1.952 3.546-4.653 6.375-7.315 9.165-2.822 2.956-5.601 5.868-7.402 9.54 3.311-3.478 6.596-6.956 9.977-10.536l5.159-5.46c-2.295 7.33-1.997 14.351-.202 21.338 2.009 7.968 1.777 15.845.218 23.932-2.434 12.791-7.377 24.164-16.547 33.461-1.868 1.871-3.967 3.738-6.342 4.853-5.328 2.451-10.713 4.844-16.26 6.487-10.746 3.177-21.402 4.168-31.482-2.654-2.62-1.765-5.729-1.524-8.403.335-1.743 1.182-3.375 2.595-4.835 4.069-3.562 3.543-7.093 7.152-10.615 10.752l-.02.02a3868.63 3868.63 0 0 1-3.44 3.514 65.317 65.317 0 0 0-1.786 1.942c-.317.353-.636.709-.963 1.065.085.145.183.291.282.436.098.145.197.291.281.436.626-.231 1.253-.471 1.883-.713h.002c.882-.339 1.774-.681 2.684-1.002 2.709-.96 5.327-2.153 7.946-3.347 4.761-2.169 9.526-4.34 14.844-5.115 4.332-.596 8.669-1.463 12.966-2.322l1.684-.336c.75-.161 1.967-.776 2.091-1.406.372-1.778 1.41-1.935 2.906-1.97 8.458-.162 16.655-2.111 24.074-5.912 6.26-3.185 11.875-1.721 17.658.091 8.413 2.638 14.97 8.072 21.614 13.576 3.393 2.812 6.808 5.642 10.505 8.128-.285.029-.55.063-.8.096-.61.079-1.13.146-1.619.098-1.718-.184-3.436-.346-5.152-.508h-.002l-.005-.001h-.006c-3.903-.369-7.798-.736-11.661-1.353a187.351 187.351 0 0 0-3.261-.494c-4.387-.638-8.825-1.284-12.618-3.136-10.964-5.398-22.449-6.719-34.296-6.838-.777-.012-1.585.18-2.381.368a25.21 25.21 0 0 1-.964.215c.026.144.039.288.051.432.012.144.024.288.051.432 1.304.02 2.602.026 3.898.033h.005c2.588.013 5.168.026 7.771.141 8.45.356 16.595 1.915 24.07 5.996 1.54.828 3.199 1.485 4.863 1.74 8.493 1.392 16.985 2.784 25.539 3.89 2.211.27 4.481.242 6.749.214 1.03-.013 2.06-.026 3.084-.01-.186.917-.478 1.2-.766 1.254-6.638 1.511-12.04 5.055-17.111 9.523-.746.656-1.482 1.328-2.218 2l-.001.001c-3.58 3.266-7.173 6.544-11.967 8.142-1.64.549-3.249 1.148-4.852 1.743l-.001.001-.003.001h-.001l-.003.001-.002.001-.002.001h-.002l-.001.001c-1.443.536-2.879 1.07-4.328 1.565-1.47.494-2.94.974-4.409 1.454l-.026.009Zm-36.978-40.274c-12.72.558-24.459 4.755-36.431 9.121 2.307-2.382 4.601-4.778 6.894-7.174a1610.36 1610.36 0 0 1 6.894-7.173c3.563-3.629 6.788-3.868 11.415-1.729 2.378 1.1 4.884 1.95 7.384 2.798 1.284.435 2.567.871 3.829 1.338.406.155.738.452 1.075.753.185.166.373.334.575.48-.152.163-.304.36-.457.558-.379.491-.767.993-1.178 1.028Z" fill="#D399A9"/><path d="M226.974 320.199c-3.728-12.308-7.565-25.02-11.401-37.789.087-.056.159-.113.232-.169.073-.056.146-.113.233-.169.325.655.691 1.298 1.056 1.938.7 1.229 1.396 2.45 1.793 3.741 1.131 3.734 2.17 7.5 3.209 11.271l.005.017c1.275 4.626 2.552 9.259 4.004 13.842 1.264 3.987 3.221 7.755 5.179 11.466 1.625 3.082 3.362 6.1 5.099 9.121a461.328 461.328 0 0 1 3.194 5.613c.504.928.717 2.081.583 3.402-.097-.099-.201-.185-.302-.27-.195-.162-.381-.318-.492-.547-3.009-6.487-7.946-10.99-13.871-14.874-4.671-3.061-9.603-4.055-14.955-3.847-2.302.081-4.601-.068-6.9-.218-.919-.071-1.833-.487-2.628-1.189 2.032.067 4.087.014 6.142-.039 7.597-.194 15.198-.389 21.675 5.457-20.112-32.224-48.031-53.98-84.572-64.59 8.73.878 16.734 4.218 24.324 8.242 7.705 4.027 15.349 8.34 22.406 13.392a155.148 155.148 0 0 1 19.596 16.743c4.174 4.301 7.954 9.013 11.617 13.58l.001.001.001.001c1.605 2.001 3.188 3.975 4.772 5.874Zm-121.726-68.386a7.753 7.753 0 0 1-.589.587c2.664.482 5.291.978 7.892 1.469h.003l.003.001h.004c6.521 1.231 12.875 2.43 19.234 3.306 2.182.262 5.306-.957 6.884-2.601 6.077-6.352 13.271-6.648 21.012-4.979 2.124.458 4.221 1.063 6.316 1.668 2.43.701 4.857 1.402 7.321 1.871 12.849 2.377 23.458 8.46 32.113 18.195.463.524 1.004.934 1.558 1.354l.132.1.242.185c.186-.917.02-1.38-.263-1.672-6.119-6.245-12.353-12.493-20.883-15.266-9.559-3.134-19.179-6.095-28.983-8.255-6.822-1.539-13.57-.317-18.772 5.243-2.689 2.893-6.09 3.36-9.759 2.558-.6-.124-1.215-.248-1.829-.371l-.006-.002a392.08 392.08 0 0 1-1.835-.372 809.28 809.28 0 0 0-6.391-1.36l-.006-.002c-2.135-.448-4.27-.897-6.39-1.36-.029-.121-.041-.258-.054-.402-.012-.13-.024-.268-.049-.404 2.256-.815 4.491-1.706 6.725-2.596 5.038-2.007 10.068-4.012 15.305-5.129 13.526-2.838 26.298-7.786 39.071-12.735 8.26-3.201 16.522-6.402 24.987-9.032.596-.189 1.167-.514 1.843-.899.307-.175.635-.362.997-.554a18.963 18.963 0 0 1-.583-.293l-.002-.001c-.296-.154-.423-.22-.5-.182-2.35.772-4.729 1.495-7.111 2.219-5.763 1.751-11.548 3.509-16.998 5.992-12.302 5.602-25.134 9.214-38.047 12.849l-2.477.698c-6.861 1.923-13.59 4.233-20.334 6.547l-.002.001a842.745 842.745 0 0 1-9.086 3.08c-.25.067-.436.267-.693.544Zm10.054-10.878c1.003-.542 1.999-1.08 3.063-1.215 6.801-.935 12.995-3.546 19.249-6.329 4.227-1.892 8.846-3.032 13.405-4.056 5.772-1.295 9.677-4.746 12.512-9.708a265.338 265.338 0 0 1 2.863-4.83c1.846-3.066 3.689-6.126 5.286-9.314 2.142-4.268 3.976-8.657 5.819-13.066.4-.959.801-1.918 1.206-2.877.248-.558.247-1.202.246-1.756v-.004c0-.239-.001-.462.02-.652-2.35.433-4.672.901-6.979 1.366l-.002.001-.004.001h-.003l-.002.001h-.003l-.004.001-.007.001-.002.001c-5.044 1.017-10.011 2.018-15.027 2.614-7.606.922-14.465-1.999-21.089-5.261.031-.172.076-.33.122-.488.045-.157.091-.315.122-.487.268.062.548.104.829.147.561.085 1.122.17 1.579.407 11.761 5.927 23.622 5.126 35.596.645 1.361-.497 2.829-.69 4.311-.884.658-.087 1.32-.173 1.976-.288a26.934 26.934 0 0 0-.039 1.957c.005 1.539.01 3.082-.573 4.362-2.381 5.429-5.105 10.623-7.886 15.873-.848 1.634-1.772 3.228-2.694 4.82-1.333 2.3-2.663 4.593-3.752 6.991-3.031 6.512-8.201 9.944-14.79 12.032-3.418 1.113-6.789 2.391-10.154 3.666l-.009.003-.002.001c-2.949 1.117-5.894 2.234-8.862 3.236-4.393 1.48-8.851 2.756-13.324 4.036-1.355.387-2.711.775-4.068 1.17a5.27 5.27 0 0 0-.497-1.331c.531-.227 1.051-.507 1.568-.786ZM81.998 225.2c1.09-3.665 1.028-7.233-1.22-10.775-.076.117-.14.212-.19.287-.149.22-.192.283-.106.284a2.179 2.179 0 0 0-.013.863c2.184 7.855-1.125 13.73-6.893 18.706-.666.566-1.341 1.121-2.016 1.677-1.688 1.389-3.376 2.779-4.919 4.317-5.627 5.555-7.845 12.745-10.051 19.9a189.41 189.41 0 0 1-1.594 5.006c-.961 2.747 1.942 4.803 4.897 3.352 9.099-4.582 18.256-9.219 27.076-14.322a192.127 192.127 0 0 0 4.069-2.445l.002-.001c5.066-3.102 10.139-6.207 16.151-7.434.808-.18 1.566-.463 2.324-.746.38-.141.759-.282 1.144-.411a3.076 3.076 0 0 0-.11-.346c-.041-.116-.083-.232-.11-.347a9.428 9.428 0 0 1-.93.05c-.541.012-1.066.024-1.547.2-1.244.48-2.502.933-3.758 1.385-3.24 1.165-6.469 2.327-9.436 3.941-2.589 1.413-5.078 3.002-7.566 4.59-5.203 3.321-10.402 6.64-16.498 8.339-.54.171-1.037.521-1.532.869-.3.211-.599.421-.905.59-.69.37-1.38.748-2.07 1.126-1.924 1.054-3.855 2.111-5.815 3.013-.716.326-1.526.408-2.56.511-.555.056-1.175.118-1.88.228.463-1.462.889-2.849 1.298-4.181l.002-.007.017-.054v-.003l.006-.016.001-.005c.862-2.805 1.648-5.365 2.538-7.871.842-2.46 1.741-4.92 3.04-7.087 2.89-4.904 6.805-8.929 11.343-12.428 3.609-2.822 6.479-6.288 7.811-10.755Zm105.477-56.755c.177-.457.359-.913.541-1.371.435-1.091.873-2.19 1.254-3.319 6.972-20.086 10.959-40.619 9.378-61.926-.568-8.176-.678-16.23.534-24.265.031-.222.057-.447.084-.674.192-1.657.398-3.432 2.645-4.865-.152 1.028-.282 1.978-.406 2.876v.002c-.241 1.757-.455 3.314-.745 4.87-1.069 5.838-.77 11.667-.469 17.508.122 2.367.244 4.736.275 7.108.174 15.303-.168 30.541-5.62 45.185-1.13 3.022-2.034 6.138-2.94 9.259l-.001.002a219.475 219.475 0 0 1-1.651 5.512c-.335 1.072-.891 2.085-1.437 3.082-.241.44-.481.878-.699 1.315-.287-.062-.515-.18-.743-.299Zm-65.69-61.269c.009-.331.019-.661.064-.969-.19-.003-.362-.023-.517-.041-.111-.013-.213-.025-.306-.028l-.02-.001h-.018c-7.444 13.119-10.701 27.163-10.292 42.182.306 10.301 4.494 18.819 11.75 25.945.354.319.778.604 1.191.881l.003.002.007.005.336.227c.013-.92-.21-1.383-.606-1.792-4.818-4.846-8.186-10.418-9.753-17.171-1.512-6.638-1.587-13.196-.682-19.855 1.295-9.76 3.792-19.041 8.58-27.713.229-.477.246-1.076.263-1.672Zm182.291 118.802c-1.621-.238-3.267-.393-4.914-.548-6.342-.596-12.689-1.193-17.587-6.517-1.414-1.575-2.593-3.548-3.254-5.513-1.323-3.874-2.472-7.803-3.103-11.781-.785-5.246 1.866-9.406 5.372-13.092.328-.319.619-.675 1.085-1.244l.378-.46c-5.811-.794-10.734.999-15.509 2.739l-.008.003-.807.293c-3.359 1.227-6.624 2.675-9.952 4.151a316.22 316.22 0 0 1-5.388 2.351c.071-.119.131-.232.186-.338.132-.25.24-.455.403-.574 9.007-6.078 18.949-9.381 29.772-9.968.599-.028 1.193.259 1.787.547.319.154.639.309.96.415-.183.294-.339.609-.493.922-.293.594-.581 1.178-1.04 1.586-5.531 4.462-7.82 11.388-4.491 19.605l.447 1.095c2.158 5.312 4.284 10.544 10.338 12.411 2.902.9 5.938 1.42 8.959 1.936 1.031.177 2.061.353 3.084.544.952.188 1.938.278 2.933.369.323.029.647.059.971.092a6.982 6.982 0 0 0-.023.128c-.054.29-.102.546-.106.848Zm-32.537-64.791a241.079 241.079 0 0 1-3.882 3.563c.169.233.339.408.565.641 1.639-1.379 3.283-2.753 4.927-4.128 16.883-14.112 33.771-28.229 44.914-47.876a2.144 2.144 0 0 0-1.338.958c-10.644 15.659-23.728 29.04-38.457 40.842-2.317 1.891-4.523 3.945-6.729 6ZM126.234 95.943c-1.079 1.64-2.177 3.31-2.36 5.636 3.546-2.478 5.565-6.705 3.98-8.454-.426 1.001-1.02 1.905-1.62 2.818Zm88.441 184.562c-1.878-1.376-2.976-2.758-4.053-4.115-.599-.755-1.193-1.503-1.911-2.237 1.863.335 4.837 3.523 5.964 6.352Zm43.493-61.755c1.406.383 2.815.768 4.303.625-2.332-.975-5.725-1.811-7.459-1.261 1.07.067 2.112.351 3.156.636ZM201.421 70.118c.163-.691.226-1.414.29-2.137.152-1.736.305-3.474 1.826-4.791.144.03.301.076.459.122l.017.005.12.034.154.042.032.008.028.008.107.025c-.276 1.175-.567 2.35-.858 3.524v.002a299.651 299.651 0 0 0-.857 3.523 42.648 42.648 0 0 1-1.318-.365ZM76.996 207.697a400.29 400.29 0 0 1-1.548-2.324c-.867.6-.061 2.479.55 3.339.621.874 1.257 1.748 1.892 2.622.64-.517.284-1.873-.173-2.557l-.721-1.08Zm122.965 114.429c-.72-.159-1.507-.312-2.294-.465-.448-.088-.896-.175-1.333-.264-.534-.108-1.199-.609-1.15-1.152h.002c1.025.177 2.052.355 3.065.544.682.127 1.825.653 1.71 1.337Z" fill="#D399A9"/><path d="M231.854 221.303h.002l.003.001c1.373.522 2.756 1.047 4.153 1.551-10.583 5.16-13.309 14.727-7.478 24.078 4.766 7.676 12.359 10.591 20.715 12.374a46.67 46.67 0 0 1 10.909 3.822c1.919.967 3.723 2.179 5.523 3.389 2.262 1.52 4.519 3.037 6.997 4.06 7.418 3.084 13.255 8.204 19.091 13.38l2.213 1.749c-3.441-7.943-3.783-15.84-2.514-23.884.885-5.476-.421-10.299-3.92-14.412-4.853-5.619-8.433-11.962-11.839-18.475-2.04-3.834-7.308-8.287-12.088-9.543-.322-.085.279.579.279.579 4.291 1.539 9.385 6.011 11.442 10.502 3.058 6.679 7.159 12.745 11.897 18.42 2.991 3.532 3.617 7.716 3.261 12.343-.278 3.276-.251 6.582-.223 9.879v.002c.013 1.646.027 3.29.003 4.926-.007.458-.072.971-.137 1.485-.144.026-.274.068-.404.109-.13.04-.259.081-.403.108l-.774-1.647c-1.576-3.355-3.141-6.686-4.62-10.099-5.94-13.641-14.784-25.096-26.242-34.473-1.864-1.562-4.122-2.667-6.387-3.775l-.001-.001c-1.111-.543-2.223-1.087-3.291-1.686 20.882 12.72 32.127 32.502 40.89 53.219-1.816-1.1-3.695-2.264-5.62-3.456-2.899-1.796-5.901-3.655-8.945-5.454-1.164-.688-2.379-1.288-3.587-1.883l-.001-.001c-1.981-.977-3.944-1.946-5.636-3.285-5.334-4.254-11.333-6.231-17.974-7.473-8.989-1.678-16.213-6.189-19.58-15.274-3.092-8.281.868-15.885 9.399-18.159.22-.059.406-.17.661-.321.214-.126.475-.281.843-.458-8.879-5.164-17.965-8.044-27.782-8.076-1.752-.026-3.489.737-5.235 1.504-.829.364-1.66.729-2.496 1.011.026.201.066.401.106.602.04.201.08.402.105.602 10.156-4.895 19.179-1.469 28.685 2.14Z" fill="#D399A9"/><path d="m221.769 211.523.047.025c6.231 3.261 12.352 6.464 18.53 9.498.749.389 1.969.067 2.968-.196l.156-.041c.76-.236 1.472-.55 2.221-.881 2.002-.885 4.274-1.889 8.459-1.827-4.587.739-7.357 2.356-9.804 3.785l-.333.193-.167.097c-1.659.94-2.904.751-4.65-.069-4.099-2.026-8.257-3.91-12.412-5.794l-.005-.002a959.24 959.24 0 0 1-5.16-2.351c-.732-.333-1.387-.777-2.028-1.212a49.58 49.58 0 0 0-.445-.299c.221-.255.416-.544.609-.831.361-.536.718-1.067 1.239-1.354 6.215-3.328 12.502-6.619 18.775-9.903l.001-.001.002-.001 4.891-2.562c.629-.331 1.311-.378 2.158-.138a3842.955 3842.955 0 0 0-25.052 13.864Zm99.992-103.933c.525-.944 1.073-1.931 1.664-2.998-2.528.184-4.5 3.472-3.771 6.8.69-1.251 1.375-2.484 2.107-3.801v-.001Zm-40.635-11.802c-.932.604-1.796 1.162-2.622 1.695-1.151.744-2.229 1.44-3.32 2.15 1.072-2.841 4.052-4.645 5.942-3.845Zm26.063 129.592c-.547-.09-1.111-.184-1.7-.159 1.222 1.649 4.704 1.611 7.072-.291-.626.027-1.25.159-1.882.293-.653.138-1.314.278-1.995.305-.487.02-.984-.062-1.495-.148Zm-179.721-48.678 2.932 2.542c1.287 1.117 2.492 2.163 3.717 3.219-3.855.031-7.035-2.919-6.649-5.761ZM18.89 292.007l.02-.014.096-.066c7.789-5.388 15.729-10.881 23.332-16.047.468-.323.764-.297 1.233-.256.18.015.383.033.632.034-8.934 5.528-16.982 11.778-25.071 18.06h-.002c-4.554 3.537-9.396 6.966-13.704 9.848l-1.465-1.267c4.968-3.443 9.959-6.854 14.93-10.292Z" fill="#D399A9"/></svg>