<svg width="426" height="373" fill="none" xmlns="http://www.w3.org/2000/svg"><path d="M418.434 275.726s-22.7-7.608-34.804-9.868c-4.741-.888-9.547-2.544-13.588-5.049-6.697-5.231-15.273-7.302-23.6-8.65-8.379-1.323-16.618-3.284-24.907-5.257l-1.033-.246c-5.081-1.194-10.085-2.341-15.182-.258-.999.413-2 .823-3.003 1.233-4.347 1.779-8.712 3.564-12.902 5.694-8.794 4.529-8.787 6.098-2.71 13.778 7.439 9.427 10.698 19.918 4.934 31.463-4.194 8.462-9.869 15.731-18.37 20.382-.741.407-1.481.816-2.221 1.224-8.77 4.845-17.488 9.662-27.408 11.945-4.747 1.143-9.402 2.394-14.103 3.721-1.132.333-1.785.598-2.588.923-.363.147-.757.307-1.24.491-.078-.176.128-.458.335-.74.206-.281.413-.563.335-.739 5.34-2.26 10.903-3.843 16.462-5.426 7.579-2.158 15.154-4.315 22.152-8.18 9.59-5.255 17.963-11.182 23.566-20.788 5.375-9.221 5.72-18.405.436-27.595-1.261-2.188-2.932-4.124-4.597-6.053l-.001-.001c-.81-.938-1.618-1.875-2.377-2.837-2.706-3.434-2.075-6.867 1.544-9.358 7.898-5.479 16.728-8.839 26.007-11.201 2.028-.516 4.412-.665 6.444-.135 2.323.603 4.636 1.25 6.95 1.896 7.948 2.22 15.9 4.441 24.241 4.953 8.569.502 18.29 3.982 24.091 8.264 3.839 2.229 8.215 3.995 12.618 4.837 12.217 2.374 35.325 10.009 35.325 10.009l-.806 1.568Zm-74.777-74.096c.198-.443.392-.889.585-1.335.58-1.338 1.159-2.676 1.869-3.936 4.228-7.555 9.073-14.743 15.554-20.646 10.985-10.06 19.255-22.046 24.609-35.973.261-.701.59-1.419 1.087-2.504.17-.371.36-.785.573-1.256.053.537.101.98.142 1.357.087.788.142 1.29.133 1.779-.192 7.396 1.805 14.33 3.806 21.277.334 1.159.668 2.319.991 3.481.891 3.242.965 6.102-.683 9.139-1.756 3.13-2.28 6.47-1.034 10.079 1.293 3.794.154 7.29-1.754 10.59-6.753 15.575-14.331 18.018-24.644 21.343h-.002c-1.083.35-2.197.709-3.343 1.094-3.257 1.09-6.543 2.32-7.974 5.694-.517 1.31-.447 3.386.235 4.521 3.867 5.288 6.024 8.124 6.586 8.68 2.049 3.012 4.12 6.037 6.239 8.942l.046.063.154.211c1.748 2.404 3.575 4.918 7.226 4.686-2.579-2.939-5.1-5.816-7.584-8.651-3.135-3.578-6.212-7.089-9.276-10.577l-.829-1.258c-2.694-4.156-2.197-6.573 2.129-9.114 1.535-.914 3.27-1.552 4.975-2.052 12.458-3.76 19.214-6.527 27.51-23.035 2.047-3.269 3.03-7.119 1.86-10.944-1.088-3.764-.068-6.896 1.065-10.376l.014-.041c.82-2.434 1.069-5.311.735-7.909-.349-2.579-1.133-5.129-1.921-7.694l-.002-.004c-.216-.705-.433-1.411-.642-2.119-3.431-11.167-3.817-22.194 1.505-32.906.077-.186.099-.383.12-.574.012-.11.024-.217.046-.319a5.617 5.617 0 0 1-.71-.474c-.693 1.254-1.401 2.511-2.109 3.769l-.005.009-.005.009a534.693 534.693 0 0 0-2.109 3.768c-4.761 8.803-10.96 15.812-20.821 18.977-2.995.962-5.925 2.176-8.854 3.391-1.865.773-3.73 1.546-5.611 2.254-11.148 4.277-19.962 11.298-25.623 21.965-.839 1.588-1.37 3.359-1.716 5.083.357-.536.717-1.073 1.078-1.611 1.124-1.676 2.256-3.363 3.308-5.067 4.292-7.048 10.036-12.502 17.604-15.933 4.636-2.096 9.335-3.947 14.126-5.69 8.984-3.268 17.69-6.859 23.329-15.296-2.457 8.085-5.808 15.744-11.056 22.119-3.13 3.774-6.491 7.345-9.851 10.916-3.361 3.571-6.722 7.143-9.851 10.917-3.275 4.003-6.004 8.426-8.731 12.846l-.009.015-.019.03c-.755 1.223-1.509 2.446-2.275 3.659-.506.792-.681 1.829-.853 2.85-.083.49-.165.977-.283 1.431.213.097.396.158.568.215l.176.06.117.043.041.016a.049.049 0 0 0 .007.003l.031.013ZM147.716 60.164a55234.267 55234.267 0 0 0-24.246-44.346l-.04.021-.035.02h-.001c-.193.106-.345.19-.523.176.188 1.058.415 2.119.642 3.18l.006.032c.497 2.32.994 4.644 1.088 6.948.537 14.194-.11 28.362-2.941 42.432-2.079 10.084-2.897 20.239.084 30.408.186.65.377 1.302.569 1.954 1.028 3.503 2.063 7.029 2.376 10.646.655 7.325 1.167 14.671 1.679 22.016v.003c.512 7.346 1.024 14.691 1.678 22.017 1.017 11.193 4.507 21.56 11.068 30.883 9.718 13.755 29.534 18.592 45.378 8.343 4.786-3.051 9.603-5.979 15.46-6.88 2.566-.457 3.767-.109 4.962 2.27l.665 1.334.003.004c2.959 5.94 5.903 11.848 10.745 16.763 3.69 3.75 6.688 8.151 9.68 12.544.516.756 1.031 1.513 1.55 2.266.743 1.119.706 3.288.189 4.598-.228.647-2.566.718-3.92.539-1.521-.206-3.039-.498-4.56-.79l-.012-.002c-1.999-.385-4.001-.77-6.018-.962-3.106-.26-6.215-.434-9.321-.607l-.01-.001c-4.046-.226-8.088-.451-12.116-.869-9.663-.943-18.735-3.934-27.58-7.834-2.944-1.283-5.989-2.337-9.037-3.392-3.429-1.188-6.863-2.376-10.159-3.893-5.846-2.658-11.486-5.768-17.119-8.873l-.001-.001c-1.569-.865-3.137-1.73-4.708-2.584-4.856-2.625-7.35-6.767-6.384-10.939 2.386-10.423 1.651-20.248-2.299-30.367-4.26-10.826-10.221-20.105-19.311-27.28-2.514-1.939-5.1-3.831-7.676-5.715l-.001-.001-.046-.034c-1.33-.974-2.66-1.945-3.973-2.921.069-.116.153-.235.237-.355a5.72 5.72 0 0 0 .237-.354 442.5 442.5 0 0 0 3.951 2.763l.009.007.002.001c2.274 1.578 4.532 3.145 6.729 4.781 13.717 10.185 20.9 24.52 24.291 40.67 1.162 5.594.404 11.873-.694 17.584-.933 4.818.695 7.872 4.272 9.84 9.142 5.068 18.376 9.981 27.808 14.386 3.623 1.667 7.4 2.984 11.176 4.301 2.714.946 5.427 1.893 8.081 2.968 8.906 3.623 18.158 5.521 27.682 6.173 7.861.55 15.755 1.224 23.648 1.898 1.226.076 2.433.298 3.835.557.727.134 1.506.278 2.368.416-.249-.627-.446-1.2-.626-1.724-.349-1.014-.636-1.847-1.115-2.544-1.71-2.346-3.473-4.646-5.236-6.945-1.764-2.3-3.527-4.6-5.237-6.945a403.301 403.301 0 0 0-1.688-2.33c-2.412-3.313-4.835-6.639-6.794-10.17-3.751-6.766-6.216-7.71-13.028-3.881a27.24 27.24 0 0 0-1.366.805c-.452.279-.905.558-1.365.806-.846.481-1.689.972-2.534 1.464-2.695 1.57-5.406 3.15-8.269 4.427-14.216 6.367-29.246 2.078-39.147-7.769-6.148-6.157-9.658-14.032-12.031-22.328-3.638-12.75-4.694-25.896-5.104-39.076a512.262 512.262 0 0 1-.125-4.12c-.219-7.909-.438-15.82-2.777-23.476-2.45-8.08-3.484-16.258-2.49-24.691.432-3.682.882-7.362 1.333-11.042v-.001l.001-.007v-.001c1.034-8.453 2.068-16.902 2.878-25.358 1.075-11.202.49-22.243-4.892-32.586-.791-1.576-1.144-3.35-1.543-5.35a61.995 61.995 0 0 0-.708-3.238c.584.571 1.054.992 1.456 1.35.437.391.793.71 1.123 1.069 1.171 1.211 2.346 2.417 3.52 3.622l.007.008c3.097 3.18 6.19 6.355 9.203 9.62 5.501 5.928 12.208 9.653 20.06 11.45a334.283 334.283 0 0 1 17.168 4.463c10.457 3.032 20.883 6.202 30.397 11.698 9.702 5.603 18.172 12.86 26.636 20.114l.007.006a622.217 622.217 0 0 0 7.353 6.236c.407.35.585.915.765 1.484.08.252.16.506.26.742l-.828.603a1794.86 1794.86 0 0 0-3.827-3.19c-3.482-2.9-6.972-5.806-10.405-8.762-9.85-8.617-20.189-16.586-32.575-21.024-11.429-4.027-23.224-7.176-34.927-10.217-8.33-2.133-15.56-5.855-21.416-12.152-1.549-1.668-3.201-3.21-5.092-4.974h-.001l-.001-.002-.004-.004-.007-.006c-.745-.696-1.527-1.425-2.355-2.211 2.129 3.492 4.191 6.853 6.207 10.136l.002.003.005.009c2.984 4.861 5.865 9.555 8.703 14.259 7.11 11.736 11.987 22.928 11.012 25.008Z" fill="#596676"/><path fill-rule="evenodd" clip-rule="evenodd" d="M67.6 264.281c1.7.138 3.4.277 5.102.43.047.185.033.385-.013.462-.103.049-.202.114-.299.177-.177.115-.346.226-.515.226l-1.354-.028c-11.657-.236-23.32-.472-33.7-7.343-8.9-5.914-18.8-8.302-29.472-7.81-.373.056-.731-.007-1.198-.089-.32-.056-.692-.121-1.156-.163.289-.221.512-.407.697-.561l.001-.001.002-.002c.305-.254.506-.422.726-.518 7.923-3.064 13.158-8.978 17.789-15.98 6.693-10.211 15.193-18.722 26.739-23.493.374-.18.723-.461 1.332-.951.338-.272.757-.609 1.305-1.03-.447-.067-.809-.108-1.11-.143-.57-.066-.922-.107-1.215-.246-9.11-4.683-16.935-11.002-22.723-19.345-2.613-3.753-4.701-7.867-6.79-11.98a240.662 240.662 0 0 0-2.68-5.175c-3.582-6.614-5.197-13.728-5.09-21.28.11-10.106-1.685-19.727-7.458-28.269l-.641-.941-.004-.005c-1.157-1.693-2.319-3.392-3.273-5.19-.562-.976-.944-2.09-1.389-3.384a67.714 67.714 0 0 0-.68-1.913c.44.146.726.231.908.286l.004.001c.23.069.297.088.306.123.269.351.513.709.753 1.062.283.416.561.825.871 1.207 3.65 4.568 7.682 8.842 14.108 8.122 6.304-.688 12.621-1.576 18.69-3.186 11.845-3.081 23.611-3.132 35.51-1.121.356.055.679.266 1.012.484.113.073.227.148.344.217-2.014.317-3.875.201-5.722-.114-9.82-1.557-19.444-.547-29.234 1.094-2.475.407-4.932 1.021-7.398 1.638-6.924 1.73-13.913 3.477-21.524.686 3.001 3.302 6.622 5.645 10.192 7.955 3.783 2.448 7.509 4.86 10.38 8.337-4.44-2.882-8.855-5.772-13.397-8.745a10427.54 10427.54 0 0 0-6.931-4.534c4.338 7.272 5.816 14.879 5.68 22.832-.114 9.06 2.152 17.448 5.894 25.722 5.885 13.095 14.1 24.026 26.313 31.649 2.483 1.527 5.212 2.992 8.045 3.58 6.342 1.265 12.73 2.453 19.1 2.794 12.337.655 24.02-1.01 33.083-10.908 2.357-2.563 5.754-3.1 9.097-1.792 2.173.821 4.285 1.92 6.228 3.126 4.727 2.888 9.438 5.854 14.137 8.814l.026.016c1.531.964 3.061 1.928 4.59 2.887.814.518 1.608 1.068 2.413 1.625.43.299.864.599 1.304.897a7.914 7.914 0 0 1-.19.539 8.476 8.476 0 0 0-.189.539c-.731-.086-1.465-.183-2.203-.281h-.001c-1.034-.137-2.078-.276-3.137-.388-3.15-.336-6.264-.945-9.378-1.554-5.662-1.108-11.327-2.216-17.229-1.685-4.799.469-9.672.65-14.5.83l-1.892.071c-.846.019-2.308-.329-2.603-.974-.854-1.811-2.007-1.714-3.62-1.368-9.113 1.992-18.403 2.001-27.333-.176-7.53-1.813-13.176 1.195-18.914 4.619-8.348 4.983-13.989 12.489-19.704 20.094-2.919 3.884-5.857 7.794-9.185 11.406.313-.042.606-.073.882-.102.675-.071 1.25-.132 1.762-.309a452.163 452.163 0 0 1 5.395-1.864h.002l.006-.002.001-.001.002-.001h.003c4.091-1.395 8.174-2.786 12.16-4.437 1.109-.465 2.238-.914 3.37-1.365 4.541-1.807 9.136-3.636 12.73-6.594 10.376-8.596 22.354-12.954 35.03-16.115.83-.211 1.746-.213 2.648-.215.367-.001.733-.001 1.089-.016.008.161.032.319.055.476.024.158.048.315.056.477-1.394.355-2.784.694-4.172 1.033l-.005.001c-2.773.677-5.536 1.351-8.298 2.142-8.972 2.545-17.308 6.303-24.279 12.593-1.44 1.282-3.05 2.412-4.77 3.112-8.751 3.667-17.503 7.334-26.394 10.71-2.302.856-4.743 1.407-7.183 1.958-1.108.25-2.216.5-3.31.778.434.937.82 1.166 1.143 1.149 7.505-.078 14.206 2.339 20.789 5.833a180.31 180.31 0 0 1 2.89 1.576l.002.001c4.676 2.586 9.368 5.181 14.92 5.668 1.899.169 3.778.399 5.649.627l.002.001h.008l.002.001h.006c1.684.206 3.361.411 5.042.571 1.703.154 3.402.292 5.101.43l.03.003Zm29.346-52.66c13.785-2.658 27.45-1.163 41.407.453a1720.826 1720.826 0 0 1-9.231-5.928c-3.073-1.982-6.146-3.965-9.231-5.928-4.75-2.979-8.269-2.41-12.684 1.069-2.268 1.788-4.739 3.342-7.202 4.891-1.266.796-2.53 1.591-3.764 2.416-.396.269-.676.673-.96 1.083-.157.225-.315.453-.494.661.204.136.417.308.632.482.533.429 1.078.869 1.527.801Z" fill="#596676"/><path d="M190.478 344.864c.847-14.154 1.707-28.769 2.552-43.446a3.41 3.41 0 0 1-.293-.122 3.41 3.41 0 0 0-.293-.122 42.113 42.113 0 0 1-.637 2.35c-.436 1.496-.869 2.984-.964 4.471-.258 4.294-.407 8.599-.556 12.909l-.001.019c-.183 5.289-.366 10.584-.75 15.87-.334 4.601-1.469 9.143-2.618 13.624-.954 3.722-2.044 7.403-3.134 11.087a510.414 510.414 0 0 0-1.988 6.838c-.303 1.124-.236 2.416.247 3.798.078-.132.167-.251.254-.367.167-.225.327-.439.387-.713 1.567-7.727 5.709-13.821 11.068-19.504 4.226-4.478 9.261-6.807 15.054-7.954 2.49-.503 4.917-1.252 7.344-2.001.967-.311 1.841-.992 2.514-1.948-2.163.592-4.38 1.062-6.598 1.531-8.196 1.737-16.398 3.474-21.848 11.403 13.32-39.709 37.691-70.19 74.162-90.926-9.138 3.177-16.866 8.808-23.976 15.068-7.232 6.291-14.326 12.874-20.601 20.099a171.176 171.176 0 0 0-16.728 22.973c-3.376 5.682-6.223 11.703-8.982 17.539v.001l-.001.002c-1.209 2.557-2.402 5.079-3.614 7.521Zm113.036-104.509c.214.143.464.31.782.479-2.734 1.199-5.424 2.404-8.087 3.596h-.002l-.002.001-.003.002h-.001l-.003.001c-6.679 2.99-13.186 5.903-19.782 8.47-2.272.84-5.935.333-8.048-1.027-8.144-5.256-15.935-3.731-23.809.04-2.161 1.035-4.255 2.222-6.348 3.407-2.426 1.374-4.85 2.747-7.372 3.881-13.171 5.84-22.991 15.079-29.781 27.736-.362.68-.837 1.258-1.324 1.851l-.116.141-.212.261c-.434-.937-.375-1.475-.146-1.861 4.963-8.265 10.05-16.562 18.487-21.72 9.45-5.808 19.008-11.447 28.969-16.273 6.922-3.398 14.473-3.815 21.475.815 3.625 2.415 7.392 2.045 11.122.245.612-.286 1.239-.576 1.866-.867l.006-.002c.63-.291 1.259-.583 1.873-.87a955.898 955.898 0 0 1 6.505-3.095l.007-.003a931.49 931.49 0 0 0 6.505-3.094c-.001-.138-.023-.288-.046-.446a4.782 4.782 0 0 1-.051-.446c-2.628-.296-5.253-.679-7.877-1.062-5.917-.863-11.825-1.724-17.727-1.582-15.232.42-30.197-1.617-45.162-3.654-9.679-1.317-19.359-2.635-29.111-3.288-.688-.05-1.384-.252-2.207-.492-.374-.109-.774-.226-1.211-.339.233-.19.411-.343.55-.463l.002-.002c.278-.241.398-.344.49-.324 2.718.227 5.454.393 8.194.56 6.629.402 13.284.806 19.764 2.074 14.628 2.857 29.314 3.446 44.094 4.038l2.836.114c7.85.306 15.658 1.06 23.484 1.815l.002.001c3.505.338 7.015.677 10.532.976.286.008.536.175.883.406Zm-13.568-9.092c-1.214-.324-2.42-.646-3.596-.519-7.533.74-14.844-.475-22.264-1.858-5.018-.947-10.263-.987-15.415-.918-6.522.089-11.593-2.612-15.904-7.207-1.416-1.504-2.863-2.977-4.308-4.448-2.765-2.815-5.525-5.625-8.053-8.635-3.391-4.028-6.481-8.266-9.586-12.523-.675-.926-1.351-1.852-2.03-2.777-.41-.534-.573-1.226-.714-1.819l-.001-.005a7.313 7.313 0 0 0-.188-.695c2.631-.136 5.241-.229 7.834-.321h.02l.008-.001h.003c5.669-.201 11.253-.399 16.784-1.044 8.394-.959 15.002-5.848 21.271-11.042-.078-.177-.167-.334-.256-.492a5.381 5.381 0 0 1-.256-.491c-.271.135-.561.252-.851.37-.58.235-1.16.469-1.589.84-11.096 9.369-24.022 11.547-38.01 9.807-1.588-.185-3.211-.016-4.85.155-.729.076-1.46.152-2.193.198.21.673.377 1.38.543 2.088.389 1.653.778 3.308 1.731 4.531 3.944 5.213 8.195 10.086 12.522 15.005 1.328 1.535 2.727 3.008 4.124 4.479 2.018 2.125 4.031 4.245 5.813 6.537 4.918 6.208 11.342 8.565 18.942 9.117 3.951.318 7.893.825 11.83 1.332l.01.001h.002c3.449.443 6.893.886 10.333 1.202 5.09.462 10.197.689 15.323.916 1.552.069 3.106.138 4.661.213a5.798 5.798 0 0 1 .194-1.554c-.629-.107-1.258-.275-1.884-.442Zm31.689-25.403c-2.108-3.651-2.955-7.493-1.451-11.867.111.106.204.191.278.259.215.197.277.254.186.277.139.292.218.599.234.922-.33 8.984 4.723 14.438 12.183 18.297.859.436 1.726.859 2.592 1.282 2.165 1.058 4.332 2.116 6.38 3.371 7.458 4.516 11.676 11.659 15.875 18.768.984 1.667 1.967 3.332 2.991 4.961 1.734 2.699-.853 5.648-4.393 4.848-10.932-2.583-21.94-5.213-32.705-8.427-1.67-.498-3.329-1.039-4.99-1.58h-.001l-.002-.001c-6.228-2.029-12.463-4.061-19.225-3.837-.912.014-1.798-.095-2.684-.204a36.58 36.58 0 0 0-1.331-.148 3.409 3.409 0 0 1 .029-.4c.014-.135.029-.27.029-.4.344-.041.68-.113 1.01-.184.584-.126 1.15-.248 1.711-.182 1.457.196 2.922.359 4.385.522 3.772.421 7.533.84 11.128 1.811 3.139.853 6.215 1.919 9.291 2.986 6.43 2.229 12.855 4.457 19.827 4.719.623.045 1.247.293 1.867.539.375.15.749.298 1.121.401.835.22 1.671.449 2.509.678 2.332.637 4.674 1.277 7.007 1.743.851.166 1.741.046 2.877-.108.609-.082 1.29-.174 2.074-.237a555.33 555.33 0 0 1-2.463-4.152l-.004-.007-.031-.053-.002-.003-.01-.017-.003-.004c-1.642-2.787-3.14-5.331-4.737-7.791-1.533-2.424-3.127-4.832-5.074-6.823-4.356-4.519-9.585-7.834-15.348-10.424-4.593-2.103-8.558-5.085-11.13-9.535ZM193.983 172c-.307-.444-.619-.887-.932-1.332-.745-1.058-1.497-2.125-2.195-3.238-12.619-19.756-22.153-40.756-25.913-64.011-1.484-8.915-3.429-17.581-6.786-25.888-.09-.23-.176-.464-.262-.7-.63-1.728-1.306-3.58-4.083-4.542.426 1.065.809 2.05 1.172 2.981v.003c.709 1.822 1.337 3.437 2.046 5.031 2.642 5.987 3.813 12.316 4.986 18.658.476 2.569.952 5.141 1.526 7.693 3.731 16.457 7.999 32.711 17.596 47.02 1.986 2.952 3.754 6.062 5.524 9.177l.001.002c1.045 1.838 2.09 3.678 3.182 5.488.634 1.064 1.49 2.009 2.331 2.938.371.41.74.818 1.086 1.231.292-.14.506-.325.721-.511Zm54.762-82.528a9.156 9.156 0 0 0-.318-1.023c.203-.052.383-.117.545-.176.115-.042.222-.081.321-.11l.021-.005.02-.005c11.341 12.164 18.431 26.392 21.838 42.604 2.309 11.126-.001 21.333-5.959 30.833-.297.433-.679.847-1.051 1.25l-.003.003-.006.007-.302.33c-.25-.983-.129-1.538.191-2.077 3.926-6.431 6.111-13.269 6.063-20.913-.078-7.506-1.677-14.559-4.352-21.469-3.889-10.134-8.943-19.449-16.299-27.523-.367-.453-.539-1.091-.709-1.726ZM83.664 263.558c1.677-.67 3.403-1.258 5.13-1.846 6.649-2.263 13.302-4.528 17.192-11.493 1.114-2.05 1.872-4.468 2.078-6.745.427-4.494.654-9.001.312-13.429-.502-5.827-4.41-9.61-9.114-12.666-.433-.257-.837-.564-1.482-1.055a85.534 85.534 0 0 0-.523-.397c6.029-2.34 11.768-1.677 17.334-1.034l.009.001.94.108c3.918.456 7.79 1.173 11.737 1.904 2.099.389 4.221.782 6.38 1.141-.106-.109-.199-.216-.286-.315-.205-.234-.374-.426-.579-.512-11.216-4.212-22.725-5.209-34.482-3.067-.65.123-1.213.583-1.776 1.044-.303.247-.607.495-.923.69.27.27.519.568.764.863.467.563.925 1.115 1.522 1.435 7.074 3.369 11.302 10.21 9.836 19.876-.067.429-.133.859-.198 1.289-.955 6.249-1.896 12.405-7.91 15.957-2.882 1.709-6.005 3.043-9.112 4.37-1.062.454-2.121.907-3.169 1.373-.973.445-2.007.795-3.05 1.147-.34.114-.68.229-1.02.347l.06.132c.131.297.248.56.33.882Zm18.305-77.817a257.48 257.48 0 0 0 5.076 2.827c-.122.293-.26.524-.443.833a2080.1 2080.1 0 0 0-6.341-3.166c-21.72-10.812-43.445-21.628-60.426-39.846a2.369 2.369 0 0 1 1.679.685c15.426 14.069 32.884 25.069 51.702 33.955 2.97 1.435 5.86 3.073 8.753 4.712ZM241.097 78.564c1.577 1.482 3.183 2.993 3.974 5.44-4.438-1.75-7.685-5.766-6.433-8.047.713.964 1.582 1.781 2.459 2.607Zm-47.593 220.581c1.662-1.957 2.485-3.72 3.293-5.451.45-.963.895-1.917 1.477-2.888-1.912.836-4.285 5.016-4.77 8.339Zm-62.456-55.094c-1.41.771-2.823 1.545-4.456 1.772 2.252-1.643 5.677-3.408 7.677-3.262-1.13.346-2.175.918-3.221 1.49ZM153.849 70.12c-.351-.7-.604-1.46-.858-2.219-.607-1.822-1.216-3.647-3.185-4.67-.146.07-.304.159-.461.248l-.017.01a18.144 18.144 0 0 1-.274.152l-.032.017-.029.015-.108.054c.597 1.19 1.21 2.375 1.822 3.56l.001.003c.613 1.185 1.225 2.37 1.822 3.558.46-.248.92-.496 1.319-.728Zm168.669 115.689c.369-.994.737-1.988 1.064-2.889 1.084.421.701 2.643.266 3.721-.443 1.097-.901 2.197-1.359 3.298-.818-.391-.783-1.937-.469-2.788l.498-1.342ZM219.941 340.015c.732-.355 1.537-.721 2.341-1.087.459-.208.917-.417 1.362-.624.546-.253 1.131-.96.939-1.53l-.002.001c-1.054.452-2.109.905-3.148 1.367-.698.311-1.79 1.169-1.492 1.873Z" fill="#596676"/><path d="m159.922 240.051-.001.001-.001.001-.003.002c-1.339.91-2.688 1.827-4.058 2.726 12.672 2.824 18.045 12.386 14.185 23.908-3.145 9.453-10.542 14.523-19.046 18.575a51.43 51.43 0 0 0-10.721 6.892c-1.811 1.528-3.435 3.29-5.056 5.048-2.036 2.209-4.069 4.414-6.464 6.147-7.166 5.207-12.115 12.191-17.049 19.237l-1.926 2.442c1.657-9.399.001-17.955-3.418-26.258-2.352-5.647-2.186-11.153.513-16.459 3.766-7.27 5.982-14.99 7.966-22.846 1.207-4.634 5.716-10.759 10.521-13.33.324-.173-.151.693-.151.693-4.208 2.749-8.526 8.85-9.582 14.193-1.57 7.946-4.415 15.501-8.043 22.8-2.303 4.555-1.903 9.202-.337 14.073 1.138 3.442 1.955 6.994 2.769 10.538l.001.001c.407 1.769.813 3.536 1.258 5.285.124.488.326 1.022.527 1.557.161-.009.311.002.461.013.149.011.299.021.46.013l.408-1.965c.832-4.002 1.657-7.974 2.369-12.013 2.878-16.151 9.429-30.7 19.316-43.691 1.6-2.152 3.739-3.916 5.884-5.684h.001c1.052-.868 2.105-1.736 3.097-2.652-19.137 18.989-26.133 43.083-30.226 67.545a693.635 693.635 0 0 0 5.143-5.145c2.649-2.668 5.392-5.431 8.197-8.139 1.072-1.037 2.221-1.99 3.364-2.939h.001c1.874-1.556 3.732-3.097 5.203-4.967 4.631-5.928 10.559-9.583 17.363-12.617 9.211-4.101 15.804-10.788 17.088-21.394 1.196-9.672-4.998-16.813-14.73-17.068-.25-.007-.479-.078-.791-.175-.261-.08-.581-.179-1.021-.275 8.2-7.812 17.207-13.227 27.728-15.775 1.871-.477 3.93-.103 5.999.272.982.179 1.967.357 2.936.446.024.222.032.447.04.673.009.225.017.451.041.672-12.144-2.649-20.945 3.335-30.215 9.639Z" fill="#596676"/><path d="m168.234 226.981-.045.039c-5.847 5.093-11.591 10.095-17.441 14.931-.703.608-2.094.576-3.233.55l-.177-.005c-.876-.058-1.72-.213-2.608-.376-2.374-.437-5.067-.932-9.539.207 5.108-.382 8.493.643 11.483 1.548l.407.123.203.061c2.02.583 3.307.062 4.97-1.265 3.877-3.222 7.854-6.308 11.828-9.391l.004-.004c1.647-1.278 3.294-2.556 4.932-3.842.7-.545 1.289-1.189 1.865-1.82.134-.146.267-.292.401-.435a9.166 9.166 0 0 1-.867-.735c-.523-.482-1.042-.96-1.674-1.135-7.518-1.978-15.103-3.898-22.671-5.814h-.002l-.003-.001-5.902-1.495c-.759-.194-1.501-.069-2.349.404a4267.814 4267.814 0 0 1 30.418 8.455ZM34.383 141.12l-2.552-2.79c2.759-.449 5.716 2.572 5.786 6.328-1.06-1.166-2.111-2.313-3.233-3.537v-.001Zm40.558-23.062 3.246 1.147c1.425.503 2.76.974 4.112 1.455-1.878-2.773-5.535-3.944-7.358-2.602Zm5.231 145.656c.563-.237 1.144-.482 1.782-.606-.888 2.082-4.633 2.932-7.66 1.498.68-.131 1.383-.149 2.094-.167.736-.019 1.481-.039 2.218-.183.528-.104 1.04-.32 1.566-.542Zm180.28-98.223-2.494 3.476a1688.57 1688.57 0 0 1-3.162 4.405c4.142-.953 6.797-4.932 5.656-7.881ZM406.42 261.35l-.024-.01-.119-.046c-9.733-3.784-19.655-7.642-29.132-11.236-.584-.226-.895-.123-1.388.041a7.908 7.908 0 0 1-.668.199c10.996 3.641 21.227 8.282 31.511 12.948l.002.001c5.79 2.627 11.86 5.065 17.219 7.052l1.247-1.734c-6.21-2.42-12.436-4.8-18.648-7.215Z" fill="#596676"/></svg>