<svg width="371" height="343" fill="none" xmlns="http://www.w3.org/2000/svg"><path d="M11.41 306.813s18.423-11.493 28.625-16.036c3.995-1.781 7.886-4.254 10.923-7.315 4.806-6.026 11.936-9.658 18.997-12.602 7.113-2.931 13.968-6.397 20.864-9.883l.86-.435c4.23-2.122 8.403-4.189 13.339-3.425.967.155 1.937.305 2.908.456 4.21.653 8.436 1.309 12.581 2.306 8.711 2.143 9.036 3.528 5.292 11.583-4.576 9.883-5.242 19.824 2.275 28.794 5.481 6.582 12.018 11.799 20.497 14.111.74.203 1.479.408 2.217.613 8.757 2.427 17.462 4.839 26.694 4.764 4.429.009 8.798.131 13.225.312 1.068.056 1.7.152 2.477.27.352.053.733.111 1.198.172.031-.173-.21-.377-.452-.582-.241-.205-.483-.41-.452-.582-5.186-.869-10.426-1.094-15.664-1.32-7.141-.307-14.276-.614-21.264-2.55-9.567-2.616-18.201-6.081-25.167-13.375-6.684-7.002-8.922-15.031-6.197-24.251.652-2.196 1.719-4.256 2.781-6.308l.001-.001c.516-.998 1.032-1.994 1.499-3.003 1.664-3.599.384-6.495-3.333-7.931-8.121-3.169-16.618-4.274-25.302-4.403-1.897-.028-4.031.343-5.713 1.238-1.921 1.022-3.826 2.079-5.731 3.136-6.544 3.633-13.09 7.267-20.341 9.475-7.454 2.248-15.296 7.365-19.511 12.364-2.918 2.775-6.406 5.254-10.112 6.925-10.278 4.667-29.055 16.269-29.055 16.269l1.041 1.214ZM61.77 225.7a122.4 122.4 0 0 1-.797-1.055c-.794-1.058-1.587-2.116-2.478-3.078-5.321-5.774-11.109-11.095-18.07-14.937-11.808-6.561-21.628-15.393-29.285-26.551-.377-.563-.819-1.127-1.486-1.98-.228-.292-.483-.617-.77-.987.067.485.117.886.16 1.227.09.713.147 1.168.258 1.598 1.727 6.483 1.426 13.02 1.124 19.57-.05 1.093-.1 2.187-.142 3.28-.103 3.047.435 5.586 2.528 7.918 2.208 2.391 3.374 5.227 3.035 8.674-.342 3.618 1.4 6.463 3.778 8.972 9.237 12.317 16.436 12.876 26.235 13.637h.001c1.03.08 2.088.162 3.18.261 3.102.276 6.26.668 8.233 3.344.732 1.046 1.108 2.892.745 4.037-2.298 5.479-3.603 8.436-3.982 9.045-1.173 3.088-2.363 6.193-3.62 9.201l-.028.066-.091.219c-1.035 2.488-2.118 5.09-5.388 5.655 1.657-3.136 3.275-6.204 4.869-9.229 2.012-3.816 3.986-7.562 5.955-11.284.147-.406.302-.834.467-1.284 1.5-4.234.553-6.262-3.799-7.592-1.546-.483-3.21-.68-4.82-.762-11.782-.693-18.324-1.711-29.12-14.526-2.494-2.453-4.172-5.642-3.946-9.263.168-3.549-1.392-6.098-3.124-8.929l-.02-.033c-1.237-1.974-2.063-4.46-2.315-6.822-.236-2.349-.081-4.763.074-7.192v-.004c.043-.668.086-1.336.12-2.005.676-10.574-1.306-20.382-8.258-28.711-.107-.147-.167-.317-.226-.48a2.794 2.794 0 0 0-.107-.273 5.05 5.05 0 0 0 .526-.567c.875.96 1.764 1.92 2.654 2.88l.006.007.007.007c.89.96 1.779 1.92 2.654 2.88 6.054 6.763 12.999 11.64 22.364 12.355 2.844.218 5.684.673 8.525 1.127 1.807.289 3.615.578 5.424.807 10.735 1.425 19.989 5.762 27.23 13.98 1.074 1.224 1.915 2.675 2.584 4.123-.428-.398-.859-.796-1.29-1.195-1.345-1.242-2.699-2.491-3.986-3.773-5.27-5.313-11.486-8.915-18.885-10.348-4.531-.873-9.066-1.515-13.66-2.044-8.613-.991-17.049-2.325-23.8-8.58 3.87 6.615 8.439 12.665 14.411 17.183 3.556 2.671 7.272 5.113 10.99 7.556 3.716 2.442 7.433 4.885 10.988 7.555 3.733 2.841 7.071 6.169 10.408 9.493l.011.011.023.024c.923.919 1.846 1.839 2.778 2.748.613.592.985 1.47 1.352 2.334.176.415.351.827.55 1.203-.167.13-.315.222-.454.309l-.143.091-.094.062-.033.023-.005.004a5.414 5.414 0 0 1-.026.018ZM204.825 59.638a49503.53 49503.53 0 0 1 12.048-44.227l.04.01.035.01h.001c.192.053.345.095.498.046.058.973.081 1.956.104 2.94l.001.03c.051 2.152.102 4.306.504 6.358 2.515 12.634 6.07 24.997 11.531 36.813 3.958 8.456 6.818 17.242 6.33 26.841-.027.613-.058 1.228-.09 1.843-.169 3.307-.339 6.636.146 9.892.965 6.6 2.061 13.188 3.156 19.776v.002c1.096 6.588 2.191 13.176 3.157 19.776 1.46 10.088.565 19.968-3.259 29.575-5.676 14.18-22.138 22.621-38.274 16.916-4.864-1.683-9.73-3.251-15.086-2.813-2.36.137-3.346.698-3.899 3.048l-.306 1.317-.001.004c-1.36 5.863-2.713 11.694-5.949 17.05-2.465 4.085-4.183 8.6-5.898 13.105-.295.776-.59 1.552-.889 2.325-.42 1.144.069 3.049.802 4.096.337.522 2.414.093 3.571-.35 1.298-.502 2.576-1.079 3.856-1.658l.01-.004c1.682-.76 3.368-1.521 5.106-2.116 2.685-.884 5.391-1.691 8.095-2.499l.009-.002c3.521-1.052 7.039-2.102 10.505-3.319 8.325-2.867 15.698-7.416 22.68-12.719 2.326-1.752 4.79-3.323 7.257-4.896 2.775-1.769 5.553-3.541 8.142-5.574 4.597-3.575 8.918-7.507 13.232-11.432l.001-.001a734.652 734.652 0 0 1 3.61-3.271c3.731-3.338 5.058-7.518 3.327-10.995-4.3-8.692-5.721-17.514-4.368-27.272 1.479-10.447 4.783-19.889 11.291-28.133 1.808-2.239 3.691-4.453 5.567-6.658l.001-.001.033-.039a656.636 656.636 0 0 0 2.89-3.414c-.085-.087-.185-.175-.284-.263-.099-.088-.199-.175-.284-.263a391.75 391.75 0 0 1-2.903 3.27l-.007.008-.002.002c-1.673 1.87-3.335 3.729-4.928 5.634-9.956 11.874-13.273 26.032-12.863 40.994.153 5.179 2.144 10.558 4.315 15.365 1.838 4.053 1.045 7.09-1.695 9.58-6.998 6.396-14.109 12.675-21.502 18.547-2.844 2.233-5.899 4.191-8.953 6.148-2.194 1.407-4.388 2.813-6.504 4.321-7.093 5.071-14.854 8.694-23.118 11.275-6.82 2.141-13.641 4.398-20.462 6.655-1.066.325-2.084.776-3.266 1.299-.613.272-1.27.562-2.001.866.088-.606.141-1.153.189-1.653.095-.968.172-1.763.448-2.479 1.014-2.43 2.085-4.83 3.156-7.23 1.071-2.4 2.143-4.8 3.157-7.229.328-.804.663-1.607.999-2.411 1.43-3.43 2.866-6.875 3.851-10.402 1.884-6.759 3.859-8.11 10.676-6.168.458.122.916.272 1.373.423.458.151.917.301 1.375.423.847.246 1.694.502 2.543.758 2.708.818 5.432 1.64 8.227 2.164 13.881 2.622 26.237-4.326 32.897-15.099 4.127-6.726 5.564-14.412 5.911-22.23.524-12.014-1.313-23.833-3.727-35.546-.246-1.221-.502-2.441-.757-3.661-1.473-7.023-2.946-14.047-2.495-21.294.459-7.643-.351-15.076-3.004-22.305a2118.403 2118.403 0 0 0-3.501-9.46l-.001-.002-.002-.005v-.001c-2.693-7.239-5.385-14.475-7.88-21.763-3.308-9.656-5.116-19.519-2.548-29.777.366-1.557.305-3.196.235-5.045A55.348 55.348 0 0 1 220.95.46c-.395.627-.722 1.098-1 1.499-.303.436-.55.792-.766 1.178-.778 1.316-1.56 2.627-2.342 3.937l-.005.008c-2.063 3.458-4.122 6.91-6.092 10.425-3.604 6.388-8.736 11.086-15.284 14.325a303.032 303.032 0 0 0-14.206 7.554c-8.585 4.876-17.115 9.868-24.35 16.72-7.379 6.987-13.322 15.173-19.261 23.354l-.005.007a565.853 565.853 0 0 1-5.173 7.05c-.285.394-.324.93-.362 1.47a7.71 7.71 0 0 1-.073.709l.857.358c.898-1.207 1.801-2.413 2.704-3.62 2.461-3.292 4.928-6.59 7.334-9.92 6.874-9.677 14.316-18.885 24.307-25.408 9.235-5.96 18.977-11.222 28.659-16.37 6.9-3.636 12.493-8.442 16.333-15.23 1.016-1.797 2.148-3.505 3.445-5.46l.001-.002.003-.004.005-.007a306.74 306.74 0 0 0 1.611-2.446c-1.142 3.529-2.254 6.927-3.34 10.248l-.001.003-.003.01a1913.747 1913.747 0 0 0-4.674 14.41c-3.8 11.851-5.746 22.751-4.447 24.381Z" fill="#596676"/><path fill-rule="evenodd" clip-rule="evenodd" d="M318.488 222.826c-1.47.48-2.94.96-4.41 1.455-.002.172.053.346.109.404.102.022.203.058.301.093.18.065.353.126.502.091l1.189-.309c10.233-2.664 20.472-5.329 28.181-13.576 6.605-7.091 14.836-11.283 24.354-13.097.341-.029.644-.16 1.039-.33.271-.117.585-.253.985-.388-.301-.134-.537-.251-.733-.348l-.002-.001-.001-.001c-.323-.16-.536-.265-.75-.304-7.635-1.034-13.498-5.148-19.058-10.351-8.055-7.597-17.345-13.315-28.536-15.093-.368-.079-.735-.253-1.375-.557-.356-.169-.796-.378-1.368-.634.38-.153.69-.266.948-.36.49-.178.792-.288 1.02-.473 7.05-6.05 12.623-13.272 15.972-21.851 1.514-3.861 2.49-7.93 3.466-11.998.412-1.715.824-3.431 1.275-5.13 1.767-6.588 1.693-13.204.008-19.844-2.226-8.892-2.669-17.757.625-26.508l.368-.965.002-.006c.664-1.737 1.331-3.48 1.794-5.267.29-.98.393-2.042.512-3.278.056-.57.114-1.178.197-1.83-.357.221-.591.356-.741.443l-.003.002c-.188.109-.243.14-.243.172-.164.367-.303.734-.441 1.096-.162.427-.322.846-.514 1.248-2.258 4.798-4.915 9.418-10.735 10.137-5.706.72-11.466 1.267-17.158 1.125-11.099-.223-21.489 2.21-31.561 6.49-.303.124-.543.378-.792.64a9.397 9.397 0 0 1-.257.264c1.843-.145 3.461-.638 5.024-1.305 8.334-3.442 17.037-4.578 26.019-5.192 2.268-.163 4.566-.139 6.871-.114 6.472.068 13.005.137 19.131-3.928-1.951 3.546-4.652 6.375-7.315 9.165-2.821 2.956-5.6 5.868-7.401 9.54 3.311-3.478 6.596-6.957 9.977-10.536 1.691-1.79 3.405-3.606 5.159-5.46-2.295 7.33-1.997 14.351-.203 21.338 2.01 7.968 1.778 15.845.219 23.932-2.434 12.791-7.377 24.164-16.547 33.461-1.868 1.87-3.967 3.737-6.342 4.852-5.328 2.452-10.713 4.845-16.26 6.488-10.746 3.176-21.402 4.168-31.482-2.655-2.62-1.764-5.729-1.523-8.403.335-1.743 1.182-3.375 2.596-4.835 4.07-3.562 3.543-7.093 7.152-10.615 10.752l-.02.02a2894.769 2894.769 0 0 1-3.44 3.513c-.609.628-1.194 1.281-1.787 1.942-.317.354-.636.71-.962 1.066.084.145.183.29.281.436.099.145.197.29.282.435.626-.23 1.253-.47 1.883-.712h.001c.883-.339 1.775-.681 2.685-1.003 2.709-.96 5.327-2.153 7.946-3.346 4.761-2.17 9.526-4.341 14.844-5.115 4.332-.597 8.669-1.463 12.965-2.322l1.685-.336c.75-.161 1.967-.776 2.091-1.407.372-1.777 1.41-1.934 2.906-1.97 8.458-.161 16.655-2.11 24.074-5.911 6.26-3.185 11.875-1.721 17.658.091 8.413 2.638 14.97 8.071 21.613 13.576 3.393 2.811 6.809 5.642 10.505 8.127-.284.03-.549.064-.799.096-.611.079-1.13.147-1.619.098-1.718-.183-3.436-.345-5.153-.507h-.001l-.005-.001h-.006c-3.903-.369-7.798-.736-11.661-1.353-1.077-.177-2.168-.335-3.261-.494-4.387-.638-8.825-1.284-12.619-3.136-10.963-5.398-22.448-6.719-34.295-6.838-.777-.012-1.585.179-2.381.368-.325.076-.647.153-.964.215.026.144.039.288.051.432.012.144.024.288.051.432 1.304.019 2.602.026 3.898.032h.005c2.588.013 5.168.026 7.771.142 8.45.356 16.595 1.915 24.07 5.996 1.54.828 3.199 1.485 4.863 1.74 8.492 1.392 16.985 2.784 25.539 3.889 2.211.271 4.481.243 6.749.214 1.03-.012 2.06-.025 3.084-.01-.186.918-.478 1.201-.766 1.254-6.638 1.512-12.04 5.055-17.111 9.524-.746.656-1.482 1.328-2.218 2h-.001c-3.58 3.267-7.173 6.544-11.967 8.143-1.64.549-3.249 1.147-4.852 1.743l-.001.001h-.003l-.001.001-.003.001-.002.001h-.002l-.002.001-.002.001c-1.442.536-2.879 1.07-4.328 1.565-1.469.494-2.939.974-4.409 1.454l-.025.008Zm-36.978-40.273c-12.72.558-24.46 4.755-36.432 9.121 2.308-2.382 4.601-4.778 6.895-7.174 2.293-2.396 4.587-4.792 6.894-7.174 3.563-3.628 6.788-3.868 11.415-1.728 2.377 1.099 4.884 1.95 7.383 2.797 1.285.436 2.568.871 3.83 1.339.405.155.737.451 1.075.753.185.166.372.334.574.48a8.15 8.15 0 0 0-.456.558c-.38.491-.768.993-1.178 1.028Z" fill="#596676"/><path d="M227.064 319.793c-3.728-12.308-7.565-25.02-11.402-37.789.087-.056.16-.113.233-.169.073-.057.146-.113.233-.169.325.655.691 1.297 1.056 1.938.7 1.228 1.396 2.45 1.793 3.741 1.131 3.733 2.169 7.5 3.209 11.271l.005.017c1.275 4.626 2.552 9.259 4.004 13.841 1.264 3.988 3.221 7.756 5.179 11.467 1.625 3.082 3.361 6.1 5.099 9.12a454.005 454.005 0 0 1 3.194 5.614c.504.927.717 2.081.582 3.402a3.76 3.76 0 0 0-.301-.27c-.195-.163-.381-.318-.492-.547-3.009-6.487-7.947-10.99-13.871-14.875-4.671-3.06-9.603-4.054-14.956-3.846-2.302.081-4.6-.069-6.899-.218-.919-.071-1.833-.488-2.628-1.19 2.032.067 4.087.015 6.142-.038 7.597-.194 15.197-.389 21.675 5.457-20.113-32.224-48.031-53.98-84.572-64.591 8.73.878 16.733 4.219 24.324 8.243 7.705 4.026 15.349 8.339 22.406 13.391a155.383 155.383 0 0 1 19.596 16.743c4.174 4.301 7.954 9.013 11.617 13.58l.001.001v.002c1.606 2.001 3.189 3.975 4.773 5.874Zm-121.726-68.387c-.159.171-.344.372-.589.588 2.664.482 5.291.978 7.891 1.468l.002.001h.002l.003.001h.004c6.521 1.231 12.875 2.43 19.234 3.306 2.182.262 5.306-.957 6.884-2.601 6.077-6.352 13.271-6.648 21.012-4.979 2.124.457 4.221 1.063 6.316 1.668 2.43.701 4.857 1.402 7.321 1.871 12.849 2.377 23.458 8.46 32.113 18.195.463.524 1.003.934 1.558 1.354l.132.1.242.185c.186-.917.02-1.38-.263-1.672-6.119-6.246-12.354-12.493-20.883-15.266-9.559-3.134-19.179-6.096-28.983-8.255-6.822-1.54-13.57-.317-18.772 5.242-2.689 2.894-6.09 3.361-9.759 2.559-.6-.124-1.215-.248-1.829-.372l-.006-.001c-.617-.124-1.233-.248-1.836-.372-2.12-.463-4.255-.912-6.39-1.36l-.006-.002c-2.135-.448-4.27-.897-6.39-1.36-.029-.121-.041-.258-.054-.402-.012-.131-.024-.268-.049-.405 2.256-.814 4.491-1.705 6.725-2.595 5.038-2.008 10.068-4.012 15.305-5.129 13.526-2.838 26.298-7.786 39.07-12.735 8.261-3.201 16.522-6.402 24.988-9.032.596-.189 1.167-.514 1.843-.899.307-.175.635-.362.997-.554-.246-.118-.435-.217-.583-.293l-.002-.001c-.296-.154-.423-.22-.501-.183-2.349.773-4.728 1.496-7.11 2.22-5.763 1.751-11.548 3.509-16.998 5.992-12.302 5.602-25.134 9.213-38.047 12.848l-2.477.698c-6.861 1.924-13.591 4.234-20.334 6.548l-.002.001c-3.022 1.037-6.046 2.075-9.086 3.079-.25.068-.436.268-.693.544Zm10.054-10.878c1.003-.541 1.998-1.079 3.063-1.215 6.801-.934 12.995-3.545 19.249-6.328 4.227-1.893 8.846-3.032 13.405-4.057 5.771-1.294 9.677-4.745 12.512-9.707.932-1.625 1.898-3.228 2.863-4.831 1.846-3.066 3.689-6.125 5.285-9.313 2.143-4.268 3.977-8.657 5.82-13.067.4-.958.801-1.917 1.205-2.877.249-.557.248-1.201.247-1.755v-.004a6.33 6.33 0 0 1 .019-.653c-2.35.434-4.672.902-6.978 1.367l-.002.001h-.004l-.003.001h-.002l-.003.001-.004.001-.007.001-.003.001c-5.043 1.016-10.011 2.018-15.026 2.613-7.607.922-14.466-1.998-21.09-5.261.032-.172.077-.329.123-.487.045-.157.091-.315.122-.487.268.062.548.104.829.147.561.085 1.122.17 1.579.407 11.761 5.927 23.622 5.126 35.596.645 1.361-.497 2.829-.69 4.311-.885.658-.086 1.32-.173 1.976-.287-.044.638-.042 1.297-.04 1.957.006 1.539.011 3.081-.572 4.361-2.382 5.429-5.105 10.623-7.887 15.874-.847 1.634-1.771 3.228-2.693 4.819-1.333 2.3-2.663 4.594-3.752 6.992-3.031 6.512-8.201 9.944-14.79 12.031-3.418 1.114-6.789 2.391-10.155 3.667l-.008.003-.002.001c-2.949 1.117-5.894 2.233-8.862 3.236-4.393 1.48-8.851 2.755-13.325 4.035-1.354.388-2.71.776-4.067 1.17a5.28 5.28 0 0 0-.498-1.33 18.994 18.994 0 0 0 1.569-.787Zm-33.304-15.734c1.09-3.666 1.028-7.233-1.22-10.775-.076.117-.14.211-.19.287-.15.219-.192.282-.106.284a2.175 2.175 0 0 0-.013.862c2.184 7.856-1.125 13.731-6.894 18.707-.666.565-1.34 1.121-2.016 1.677-1.687 1.389-3.375 2.779-4.918 4.317-5.628 5.554-7.845 12.745-10.051 19.9a190.977 190.977 0 0 1-1.594 5.006c-.961 2.746 1.942 4.803 4.897 3.351 9.099-4.581 18.256-9.219 27.075-14.322 1.368-.79 2.718-1.617 4.07-2.444v-.001h.002c5.066-3.102 10.138-6.207 16.151-7.435.808-.179 1.566-.462 2.324-.745.379-.141.759-.282 1.144-.411a3.158 3.158 0 0 0-.11-.347c-.041-.115-.083-.231-.11-.346-.312.036-.623.043-.93.05-.541.012-1.067.024-1.547.2-1.244.48-2.502.932-3.758 1.384-3.24 1.166-6.469 2.328-9.436 3.942-2.589 1.413-5.078 3.002-7.567 4.59-5.203 3.321-10.401 6.639-16.497 8.339-.54.171-1.038.521-1.533.869-.3.211-.598.421-.904.59-.69.37-1.38.747-2.07 1.126-1.924 1.053-3.855 2.111-5.815 3.013-.716.326-1.526.407-2.56.511-.555.056-1.175.118-1.88.228.463-1.463.889-2.85 1.298-4.181l.002-.007.017-.054v-.003l.006-.017.001-.005c.862-2.804 1.648-5.364 2.538-7.87.842-2.461 1.741-4.921 3.04-7.087 2.89-4.904 6.805-8.93 11.343-12.428 3.609-2.823 6.479-6.289 7.81-10.755Zm105.476-56.755c.177-.457.359-.913.542-1.372.434-1.09.873-2.19 1.254-3.318 6.972-20.086 10.959-40.619 9.378-61.926-.568-8.176-.678-16.23.534-24.266.031-.221.057-.446.084-.673.192-1.657.397-3.432 2.645-4.866-.152 1.029-.282 1.979-.406 2.877v.002c-.242 1.756-.456 3.314-.745 4.87-1.07 5.837-.77 11.667-.469 17.508.122 2.367.244 4.736.275 7.108.174 15.303-.168 30.541-5.62 45.185-1.13 3.022-2.035 6.138-2.94 9.259l-.001.002a218.157 218.157 0 0 1-1.651 5.511c-.335 1.073-.891 2.086-1.437 3.083-.242.44-.481.877-.699 1.315-.287-.062-.515-.181-.744-.299Zm-65.689-61.269a8.17 8.17 0 0 1 .064-.969c-.19-.003-.362-.023-.517-.041-.111-.013-.213-.025-.306-.029h-.021l-.018-.001c-7.443 13.119-10.701 27.164-10.292 42.183.307 10.301 4.494 18.819 11.751 25.944.354.319.778.605 1.191.882l.003.002.007.005c.113.076.226.151.335.227.014-.92-.209-1.384-.606-1.792-4.817-4.846-8.185-10.418-9.753-17.172-1.511-6.637-1.586-13.196-.682-19.855 1.296-9.759 3.793-19.04 8.581-27.712.229-.477.246-1.076.263-1.672Zm182.291 118.801c-1.621-.237-3.268-.392-4.914-.547-6.343-.596-12.689-1.193-17.587-6.518-1.415-1.574-2.593-3.547-3.254-5.513-1.323-3.873-2.472-7.802-3.103-11.78-.785-5.246 1.865-9.406 5.372-13.093.328-.318.619-.674 1.085-1.243l.378-.46c-5.811-.795-10.734.999-15.509 2.739l-.008.003-.807.293c-3.36 1.227-6.625 2.675-9.952 4.151-1.77.785-3.559 1.579-5.388 2.351.07-.119.13-.233.186-.338.132-.25.24-.455.403-.574 9.006-6.078 18.949-9.381 29.772-9.968.599-.028 1.193.259 1.787.546.319.155.639.31.96.415-.183.295-.339.61-.493.923-.293.594-.582 1.178-1.04 1.586-5.531 4.461-7.82 11.387-4.491 19.605.15.365.298.73.446 1.095 2.159 5.312 4.285 10.544 10.339 12.41 2.902.901 5.938 1.42 8.958 1.937 1.032.177 2.062.353 3.085.544.952.187 1.938.278 2.933.368.323.03.647.059.971.092l-.024.129c-.053.289-.101.546-.105.847Zm-32.537-64.79a236.97 236.97 0 0 1-3.883 3.563c.17.232.34.408.566.641a1955.21 1955.21 0 0 1 4.927-4.128c16.883-14.112 33.771-28.229 44.913-47.877a2.152 2.152 0 0 0-1.337.958c-10.644 15.66-23.729 29.04-38.457 40.843-2.318 1.891-4.523 3.945-6.729 6ZM126.323 95.536c-1.078 1.64-2.176 3.311-2.359 5.636 3.546-2.478 5.565-6.704 3.98-8.453-.426 1.001-1.02 1.905-1.621 2.817Zm88.442 184.563c-1.879-1.376-2.976-2.759-4.053-4.115-.6-.756-1.193-1.503-1.911-2.237 1.862.335 4.837 3.522 5.964 6.352Zm43.492-61.755c1.407.383 2.816.767 4.304.625-2.332-.976-5.725-1.812-7.459-1.262 1.07.068 2.112.352 3.155.637ZM201.511 69.712c.162-.691.226-1.414.289-2.138.153-1.735.306-3.473 1.827-4.79.144.03.301.076.459.121l.017.005.12.035.154.042.031.008.029.007c.036.01.072.018.107.025-.276 1.175-.567 2.35-.858 3.525v.002a321.583 321.583 0 0 0-.858 3.523 43.07 43.07 0 0 1-1.317-.365ZM77.085 207.291c-.534-.799-1.069-1.598-1.547-2.324-.867.6-.062 2.479.55 3.339.621.874 1.257 1.748 1.892 2.622.64-.517.284-1.873-.173-2.557l-.722-1.08ZM200.051 321.72c-.72-.159-1.507-.312-2.294-.466-.448-.087-.897-.175-1.333-.263-.534-.108-1.199-.609-1.15-1.152h.001c1.026.177 2.052.354 3.066.543.682.128 1.825.654 1.71 1.338Z" fill="#596676"/><path d="m231.944 220.896.001.001h.001l.003.001c1.372.521 2.755 1.046 4.153 1.551-10.583 5.16-13.309 14.727-7.478 24.077 4.766 7.677 12.359 10.592 20.715 12.375a46.686 46.686 0 0 1 10.909 3.822c1.919.967 3.722 2.178 5.523 3.388 2.261 1.52 4.519 3.037 6.997 4.061 7.417 3.084 13.255 8.203 19.091 13.38l2.213 1.748c-3.441-7.942-3.783-15.839-2.515-23.883.886-5.477-.42-10.3-3.919-14.412-4.854-5.619-8.434-11.963-11.839-18.475-2.04-3.834-7.308-8.287-12.088-9.544-.322-.084.279.58.279.58 4.291 1.539 9.384 6.011 11.442 10.502 3.058 6.679 7.159 12.745 11.897 18.419 2.99 3.533 3.617 7.717 3.261 12.344-.278 3.276-.251 6.582-.223 9.879v.001c.013 1.646.027 3.29.003 4.927-.007.457-.072.971-.137 1.484a3.403 3.403 0 0 0-.404.109c-.13.041-.26.082-.403.109l-.774-1.648c-1.577-3.355-3.142-6.685-4.621-10.098-5.94-13.642-14.783-25.096-26.241-34.473-1.864-1.563-4.122-2.668-6.387-3.776h-.001c-1.111-.543-2.223-1.088-3.291-1.687 20.882 12.72 32.127 32.502 40.89 53.219a639.92 639.92 0 0 1-5.62-3.455c-2.899-1.796-5.901-3.656-8.945-5.454-1.164-.689-2.379-1.288-3.587-1.884h-.001c-1.981-.977-3.945-1.946-5.636-3.285-5.334-4.254-11.333-6.231-17.974-7.473-8.989-1.678-16.214-6.189-19.58-15.274-3.092-8.281.868-15.885 9.399-18.16.22-.059.406-.169.661-.32.213-.126.475-.281.843-.458-8.879-5.164-17.965-8.045-27.782-8.076-1.752-.026-3.489.737-5.235 1.504-.829.364-1.661.729-2.496 1.011.025.2.065.401.105.602.041.201.081.401.106.602 10.156-4.895 19.179-1.469 28.685 2.139Z" fill="#596676"/><path d="m221.859 211.117.047.025c6.231 3.261 12.352 6.464 18.53 9.498.749.388 1.969.067 2.968-.196l.156-.041c.76-.236 1.472-.55 2.221-.882 2.002-.885 4.274-1.889 8.458-1.826-4.586.739-7.357 2.356-9.804 3.784l-.332.194-.167.097c-1.659.94-2.904.751-4.65-.069-4.099-2.026-8.257-3.911-12.412-5.794l-.005-.002c-1.722-.781-3.444-1.561-5.16-2.351-.732-.333-1.387-.777-2.029-1.212a57.756 57.756 0 0 0-.444-.3c.221-.254.416-.543.609-.831.361-.535.717-1.066 1.238-1.353 6.216-3.328 12.503-6.62 18.775-9.904h.002l.002-.002c1.632-.854 3.263-1.708 4.891-2.562.629-.331 1.311-.377 2.158-.138a3863.73 3863.73 0 0 0-25.052 13.865Zm99.992-103.933c.525-.944 1.073-1.931 1.664-2.998-2.528.184-4.5 3.472-3.771 6.8.69-1.252 1.375-2.485 2.107-3.801v-.001Zm-40.635-11.802-2.622 1.695c-1.151.744-2.23 1.44-3.32 2.15 1.072-2.842 4.051-4.645 5.942-3.845Zm26.062 129.592c-.546-.091-1.11-.184-1.699-.16 1.222 1.65 4.704 1.611 7.072-.291-.626.027-1.25.16-1.882.293-.653.139-1.315.279-1.995.306-.487.02-.984-.063-1.496-.148Zm-179.72-48.678c1.044.903 2.009 1.741 2.932 2.541 1.287 1.117 2.492 2.163 3.717 3.219-3.855.032-7.035-2.918-6.649-5.76ZM18.98 291.6l.02-.013.096-.066c7.789-5.388 15.729-10.881 23.332-16.047.468-.323.764-.297 1.233-.257.18.016.383.034.631.035-8.933 5.528-16.981 11.777-25.07 18.059l-.002.001c-4.554 3.537-9.396 6.966-13.704 9.848l-1.465-1.267c4.968-3.443 9.959-6.854 14.93-10.293Z" fill="#596676"/></svg>