<svg width="410" height="385" fill="none" xmlns="http://www.w3.org/2000/svg"><path d="M409.521 302.809s-20.641-12.579-30.259-20.455c-3.769-3.084-8.174-5.718-12.736-7.208-8.396-1.769-15.573-7.044-22.031-12.596-6.471-5.609-13.345-10.695-20.259-15.812l-.863-.638c-4.226-3.147-8.367-6.264-10.074-11.555-.33-1.04-.665-2.079-1.001-3.12-1.454-4.514-2.914-9.046-3.995-13.667-2.223-9.736-1.008-10.751 8.875-11.053 12.118-.389 22.339-4.696 27.503-16.657 3.807-8.742 5.728-17.852 3.789-27.441l-.499-2.511c-1.963-9.923-3.915-19.788-8.604-28.932-2.206-4.41-4.268-8.817-6.301-13.311-.479-1.09-.699-1.766-.97-2.598-.123-.376-.256-.785-.428-1.277-.187.055-.27.397-.353.74-.083.342-.166.685-.353.74 1.729 5.593 4.124 10.918 6.518 16.24 3.264 7.256 6.525 14.507 8.092 22.425 2.181 10.823 3.05 21.143-.722 31.718-3.624 10.148-10.49 16.388-21.024 18.286-2.51.449-5.091.418-7.664.387h-.001c-1.251-.015-2.5-.03-3.737.011-4.411.143-6.651 2.864-6.221 7.279.907 9.662 4.056 18.665 8.268 27.367.92 1.901 2.356 3.838 4.087 5.063a399.485 399.485 0 0 0 5.985 4.133c6.884 4.693 13.771 9.388 19.592 15.496 5.961 6.29 14.971 11.531 22.051 13.226 4.218 1.514 8.428 3.745 11.942 6.596 9.78 7.889 30.706 20.766 30.706 20.766l.687-1.642Zm-105.852-9.543c-.214.442-.432.881-.651 1.32-.656 1.318-1.311 2.636-1.823 4.004-3.083 8.178-5.482 16.595-5.824 25.439-.623 15.025-4.499 29.207-11.77 42.4-.371.657-.711 1.378-1.226 2.468-.176.373-.372.789-.597 1.26.449-.309.822-.56 1.14-.773.665-.446 1.089-.73 1.461-1.055 5.585-4.959 12.238-7.927 18.903-10.901 1.113-.496 2.225-.993 3.334-1.499 3.082-1.421 5.338-3.224 6.611-6.472 1.275-3.392 3.513-5.969 7.11-7.354 3.77-1.469 5.73-4.623 7.036-8.243 7.634-15.345 4.591-22.785.45-32.911l-.001-.002a275.01 275.01 0 0 1-1.33-3.293c-1.276-3.223-2.464-6.56-.79-9.86.675-1.252 2.324-2.548 3.644-2.76 6.598-.453 10.191-.633 10.986-.56 3.659-.377 7.341-.745 10.962-.999l.079-.005.263-.019c2.993-.214 6.123-.438 8.319 2.532-3.947-.08-7.808-.155-11.614-.229-4.801-.094-9.514-.185-14.2-.283l-1.51.178c-4.962.624-6.505 2.58-5.653 7.573.292 1.779.929 3.534 1.652 5.176 5.2 12.064 7.458 19.081.108 36.224-1.193 3.708-3.526 6.971-7.24 8.555-3.615 1.608-5.37 4.433-7.319 7.571l-.024.038c-1.345 2.216-3.405 4.28-5.628 5.712-2.219 1.408-4.697 2.461-7.191 3.521l-.004.002c-.685.291-1.371.583-2.054.882-10.854 4.615-19.619 11.489-24.429 22.566-.093.18-.231.326-.365.465a3.453 3.453 0 0 0-.217.244c-.256-.089-.513-.179-.827-.24.517-1.35 1.028-2.715 1.538-4.08l.004-.009.003-.01c.511-1.365 1.021-2.729 1.538-4.08 3.7-9.402 5.08-18.748 1.11-28.42-1.205-2.938-2.173-5.99-3.141-9.043-.616-1.942-1.232-3.885-1.909-5.798-3.949-11.39-4.261-22.762.294-34.072.68-1.68 1.703-3.242 2.808-4.631-.182.624-.362 1.251-.543 1.88-.562 1.958-1.129 3.929-1.761 5.85-2.65 7.898-3.124 15.881-.851 23.957 1.397 4.943 3.024 9.775 4.795 14.608 3.32 9.063 6.21 18.12 3.363 27.963 4.645-7.157 8.379-14.726 9.887-22.925.879-4.871 1.45-9.789 2.022-14.706.571-4.918 1.143-9.836 2.021-14.707.961-5.133 2.601-10.117 4.24-15.098l.006-.016.011-.035a415.27 415.27 0 0 0 1.346-4.137c.282-.905.969-1.715 1.645-2.512.325-.382.647-.762.921-1.149.213.102.379.203.535.298a10.01 10.01 0 0 0 .309.181.016.016 0 0 1 .007.004l.031.015ZM66.987 233.989c-16.71 3.394-33.36 6.759-50.012 10.125l-.01-.045-.008-.04v-.001c-.044-.218-.079-.39-.204-.518a90.855 90.855 0 0 1 2.873-1.573l.028-.016c2.115-1.126 4.232-2.254 6.072-3.679 11.31-8.818 21.829-18.533 30.852-29.872 6.433-8.164 13.742-15.401 23.533-19.713.623-.28 1.25-.556 1.878-.832 3.374-1.485 6.77-2.979 9.766-5.09 6.083-4.259 12.087-8.642 18.092-13.025l.003-.001c6.004-4.383 12.009-8.765 18.091-13.025 9.304-6.495 19.579-10.544 31.046-11.543 16.941-1.443 33.566 10.711 35.957 29.613.758 5.679 1.631 11.303 4.744 16.411 1.316 2.279 2.367 2.98 4.98 2.355.488-.117.976-.236 1.463-.354l.005-.001c6.511-1.578 12.987-3.148 19.932-2.606 5.296.41 10.645-.138 15.983-.685.919-.094 1.838-.188 2.757-.277 1.348-.155 2.998-1.594 3.673-2.845.351-.597-1.114-2.449-2.133-3.378-1.148-1.04-2.361-2.023-3.576-3.006l-.01-.009c-1.597-1.293-3.196-2.588-4.656-4.02-2.222-2.229-4.378-4.517-6.532-6.803l-.008-.007c-2.805-2.977-5.609-5.951-8.551-8.79-7.014-6.848-15.224-11.907-23.989-16.2-2.905-1.439-5.7-3.104-8.497-4.771-3.147-1.876-6.299-3.754-9.614-5.312-5.854-2.785-11.925-5.118-17.986-7.447h-.002c-1.688-.649-3.375-1.297-5.057-1.955-5.185-2.042-10.006-1.274-12.599 2.186-6.496 8.622-14.56 14.446-24.943 17.978-11.13 3.751-22.173 5.185-33.625 2.833-3.132-.68-6.275-1.446-9.406-2.209l-.001-.001-.056-.013c-1.617-.394-3.232-.788-4.84-1.168a6.23 6.23 0 0 0-.12.414 5.32 5.32 0 0 1-.12.413c1.578.408 3.145.832 4.705 1.254l.01.002.004.001c2.696.729 5.375 1.453 8.067 2.086 16.787 3.967 32.527.188 47.204-7.698 5.075-2.741 9.43-7.41 13.125-11.973 3.113-3.855 6.53-4.584 10.377-3.103 9.86 3.764 19.66 7.698 29.196 12.116 3.643 1.712 7.117 3.772 10.59 5.831 2.496 1.48 4.991 2.959 7.549 4.309 8.589 4.52 16.073 10.429 22.771 17.359 5.539 5.712 11.193 11.369 16.848 17.025.856.897 1.813 1.684 2.925 2.599.576.474 1.194.982 1.861 1.557-.647.216-1.217.437-1.739.638-1.01.391-1.839.711-2.69.794-2.923.206-5.845.341-8.768.475-2.922.134-5.845.268-8.768.474-.964.075-1.93.143-2.897.212-4.127.292-8.272.585-12.272 1.369-7.665 1.505-9.996.215-11.471-7.535-.108-.517-.187-1.047-.267-1.578a27.644 27.644 0 0 0-.266-1.579c-.179-.966-.348-1.936-.517-2.908-.54-3.103-1.084-6.223-1.961-9.265-4.33-15.118-17.418-23.933-31.462-25.173-8.752-.742-17.116 1.67-25.065 5.233-12.212 5.485-23.049 13.22-33.493 21.476a499.177 499.177 0 0 0-3.262 2.584c-6.25 4.975-12.5 9.952-19.933 13.126-7.832 3.364-14.82 7.884-20.685 14.137-2.561 2.729-5.11 5.471-7.659 8.212v.001l-.005.005v.001c-5.855 6.296-11.706 12.591-17.708 18.716-7.95 8.117-16.856 14.846-28.344 17.419-1.731.414-3.33 1.295-5.135 2.288a62.368 62.368 0 0 1-2.96 1.56c.821.079 1.452.168 1.99.245.586.083 1.063.151 1.555.172 1.697.116 3.393.239 5.087.362h.01c4.47.324 8.934.647 13.414.85 8.156.391 15.394 3.147 21.889 8.041a337.766 337.766 0 0 0 14.614 10.353c9.142 6.102 18.372 12.09 28.804 15.861 10.638 3.847 21.75 5.666 32.856 7.484l.009.001c3.204.525 6.407 1.049 9.598 1.622.535.086 1.087-.143 1.644-.375.247-.103.494-.206.741-.282l-.072-1.031c-1.649-.291-3.3-.585-4.953-.88-4.503-.803-9.018-1.607-13.533-2.336-13.061-2-25.939-4.8-37.422-11.476-10.544-6.206-20.647-13.265-30.608-20.323-7.065-5.044-14.641-8.206-23.312-8.632-2.296-.111-4.56-.384-7.153-.697h-.003l-.006-.001-.01-.001a373.655 373.655 0 0 0-3.238-.38c4.081-.628 8.018-1.221 11.864-1.8l.003-.001.01-.001c5.696-.858 11.193-1.687 16.671-2.556 13.687-2.144 25.5-5.657 26.473-7.764Z" fill="#5F9282"/><path fill-rule="evenodd" clip-rule="evenodd" d="M172.482 39.361c1.212 1.222 2.424 2.444 3.651 3.659.173-.084.318-.225.347-.31a2.835 2.835 0 0 1-.057-.346c-.026-.212-.051-.414-.16-.545l-.903-1.028c-7.764-8.847-15.533-17.698-27.59-21.244-10.355-3.025-18.639-9.116-25.201-17.676-.199-.325-.48-.56-.847-.868a13.524 13.524 0 0 1-.878-.786c.017.366.018.66.02.903v.004c.002.4.003.666.071.898 2.788 8.11 1.628 16-.768 24.13-3.53 11.809-4.573 23.908-.747 35.927.105.406.115.858.132 1.646.01.439.022.981.054 1.678-.342-.301-.61-.553-.832-.763-.422-.398-.682-.643-.981-.778-9.541-3.988-19.51-5.92-29.716-4.963-4.598.424-9.134 1.487-13.668 2.55-1.912.448-3.823.895-5.74 1.296-7.435 1.536-13.979 4.917-19.741 9.912-7.731 6.658-16.327 11.53-26.679 12.629-.38.04-.761.078-1.143.117H21.1c-2.06.208-4.126.416-6.135.849-1.12.2-2.228.63-3.517 1.129-.595.23-1.228.475-1.92.72.4.244.651.408.812.514l.004.002c.202.133.26.172.293.156.447-.02.881-.065 1.31-.109a17.88 17.88 0 0 1 1.499-.112c5.9-.154 11.824.18 15.448 5.61 3.569 5.315 6.992 10.771 9.696 16.504 5.326 11.15 12.94 20.268 22.232 28.147.275.239.648.351 1.033.467.13.039.261.079.391.124-1.065-1.76-2.365-3.123-3.81-4.344-7.59-6.569-13.07-14.657-18.17-23.285-1.296-2.174-2.42-4.472-3.548-6.776-3.168-6.472-6.365-13.005-13.47-17.066 4.502.169 8.666 1.44 12.771 2.694 4.351 1.33 8.637 2.638 13.19 2.593a4197.111 4197.111 0 0 0-15.467-4.656c-2.626-.787-5.29-1.585-8.01-2.403 8.437-1.38 15.272-5.187 21.325-10.465 6.92-5.981 14.871-9.688 23.694-12.18 13.94-3.973 27.723-4.741 41.553-.269 2.795.924 5.701 2.078 7.997 3.883 5.102 4.074 10.174 8.234 14.581 12.93 8.531 9.1 14.844 19.204 13.097 32.64-.446 3.488 1.349 6.46 4.534 8.191 2.047 1.143 4.268 2.059 6.464 2.774 5.305 1.772 10.659 3.48 16.001 5.184l.03.009c1.74.555 3.479 1.11 5.214 1.666.929.292 1.871.547 2.824.806.511.138 1.024.278 1.542.424.102-.156.197-.327.292-.497.096-.171.191-.341.293-.498a152.964 152.964 0 0 0-1.65-1.517l-.001-.001c-.778-.709-1.564-1.425-2.339-2.169-2.309-2.215-4.804-4.223-7.301-6.231-4.538-3.651-9.079-7.305-12.507-12.207-2.759-4.011-5.789-7.891-8.791-11.736l-1.176-1.507c-.535-.665-1.755-1.569-2.445-1.377-1.954.519-2.629-.435-3.412-1.905-4.388-8.332-10.424-15.511-17.913-20.99-6.298-4.634-7.649-10.952-8.737-17.609-1.582-9.687.545-18.925 2.699-28.284 1.1-4.78 2.208-9.592 2.833-14.511.171.268.338.514.495.747.383.568.71 1.05.907 1.561.676 1.8 1.373 3.59 2.07 5.379l.001.001.002.006.001.002.001.002v.002c1.585 4.066 3.167 8.124 4.485 12.274a194.8 194.8 0 0 0 1.138 3.491c1.558 4.682 3.134 9.42 3.188 14.118.112 13.603 4.539 25.687 10.343 37.53.376.778.971 1.487 1.556 2.185.238.284.476.566.696.851a4.9 4.9 0 0 1 .404-.267c.137-.084.274-.168.404-.267-.632-1.306-1.275-2.6-1.916-3.893l-.002-.004-.001-.001c-1.28-2.58-2.557-5.153-3.743-7.8-3.871-8.583-6.391-17.464-6.069-26.938.054-1.946-.121-3.924-.7-5.707-2.86-9.143-5.721-18.286-8.898-27.346-.836-2.334-1.999-4.578-3.16-6.82a120.518 120.518 0 0 1-1.552-3.063c1.005-.273 1.433-.124 1.63.136 4.822 5.846 11.046 9.448 18.026 12.258 1.025.414 2.061.81 3.098 1.207h.001c5.038 1.928 10.094 3.864 14.081 7.833 1.366 1.357 2.765 2.658 4.159 3.954l.001.002.002.001.001.001.003.003.002.002.001.001.002.002.001.001a194.267 194.267 0 0 1 3.721 3.522 599.301 599.301 0 0 1 3.65 3.659l.021.021Zm-21.573 56.911c6.914 12.374 16.957 21.952 27.283 31.677a1823.144 1823.144 0 0 0-10.581-3.271c-3.53-1.083-7.059-2.167-10.582-3.271-5.39-1.73-7.24-4.818-7.425-10.49-.095-2.914-.502-5.832-.908-8.742a162.328 162.328 0 0 1-.583-4.478c-.049-.48.08-.96.212-1.446.072-.267.145-.537.189-.811.238.069.51.122.784.175.678.132 1.371.267 1.611.657Z" fill="#5F9282"/><path d="M314.629 81.823a19124.896 19124.896 0 0 1-31.886 30.23 3.686 3.686 0 0 0-.285-.146 3.698 3.698 0 0 1-.284-.147c.489-.651.945-1.337 1.4-2.02.872-1.31 1.739-2.613 2.825-3.653 3.147-2.992 6.375-5.907 9.606-8.826l.014-.013c3.964-3.581 7.934-7.168 11.766-10.902 3.335-3.25 6.104-7.08 8.816-10.883 2.253-3.158 4.387-6.393 6.523-9.631 1.318-2 2.638-4 3.986-5.983.671-.965 1.712-1.754 3.093-2.28-.05.146-.084.292-.118.434-.064.276-.125.539-.298.763-4.948 6.236-6.959 13.398-7.861 21.232-.709 6.176.768 11.579 3.65 16.799 1.231 2.25 2.232 4.61 3.232 6.971.389.95.432 2.067.131 3.209-.949-2.055-2.029-4.073-3.108-6.091-3.991-7.458-7.984-14.92-5.408-24.286-21.997 36.113-29.68 74.758-21.968 116.406-3.491-9.122-4.169-18.752-3.96-28.314.152-9.676.621-19.435 2.118-28.98a173.007 173.007 0 0 1 6.858-27.86c2.191-6.302 4.989-12.416 7.7-18.343l.001-.001.001-.002c1.188-2.597 2.36-5.158 3.456-7.683Zm-7.171 155.258c.25.073.542.157.879.293-.852-2.891-1.672-5.752-2.484-8.584v-.001l-.001-.003-.001-.003v-.001l-.001-.003c-2.036-7.102-4.02-14.021-6.327-20.783-.83-2.302-3.604-4.8-6.029-5.547-9.355-2.869-13.245-9.877-15.455-18.41-.607-2.342-1.053-4.73-1.499-7.117-.516-2.767-1.033-5.532-1.798-8.217-4.059-13.968-3.311-27.561 2.045-41.036.29-.722.427-1.465.568-2.226l.033-.181.064-.334c-1.006.274-1.383.67-1.532 1.098-3.154 9.208-6.251 18.532-4.746 28.402 1.662 11.074 3.525 22.123 6.278 32.954 1.879 7.555 6.468 13.656 14.598 16.051 4.222 1.228 6.387 4.377 7.423 8.428.177.659.361 1.332.545 2.005l.002.006c.184.676.369 1.351.547 2.012.599 2.34 1.22 4.688 1.841 7.036l.002.007a950.707 950.707 0 0 1 1.842 7.035 3.38 3.38 0 0 1-.374.255 4.93 4.93 0 0 0-.377.251c-1.938-1.837-3.942-3.615-5.944-5.392-4.515-4.007-9.023-8.008-12.752-12.659-9.584-12.034-20.89-22.264-32.198-32.494-7.313-6.617-14.626-13.234-21.474-20.339-.486-.499-1.095-.904-1.815-1.384-.327-.218-.678-.451-1.05-.715.006.304.003.542 0 .727v.003c-.004.371-.006.53.069.588 1.943 1.951 3.851 3.956 5.762 5.963 4.623 4.857 9.263 9.732 14.457 13.912 11.721 9.436 21.728 20.393 31.799 31.42l1.932 2.115c5.343 5.862 11.004 11.401 16.678 16.952l.001.001a925.683 925.683 0 0 1 7.605 7.498c.192.215.484.3.887.417Zm-15.845-4.562c-1.04-.727-2.072-1.448-2.74-2.439-4.329-6.298-10.022-11.153-15.916-15.982-3.996-3.259-7.438-7.283-10.736-11.306-4.173-5.093-9.557-7.253-15.91-7.592-2.082-.115-4.16-.274-6.236-.433-3.972-.304-7.937-.607-11.905-.602-5.316.003-10.599.373-15.906.744-1.153.081-2.308.162-3.464.239-.679.031-1.319.355-1.869.632l-.004.002c-.238.12-.459.232-.659.307a474.332 474.332 0 0 0 4.848 6.258l.001.002.003.003.002.003.002.002.002.002.002.004.005.006.002.003c3.532 4.508 7.012 8.948 10.111 13.639 4.72 7.105 5.243 15.387 5.31 23.606-.187.055-.367.088-.546.122a5.291 5.291 0 0 0-.546.122c-.072-.297-.17-.597-.268-.898-.196-.6-.392-1.201-.385-1.774.017-14.661-6.709-26.058-17.152-35.727-1.175-1.106-2.1-2.469-3.034-3.846-.416-.612-.832-1.226-1.274-1.822.656-.275 1.311-.607 1.966-.939 1.528-.775 3.06-1.551 4.624-1.611 6.591-.345 13.118-.232 19.731-.09 2.049.026 4.097.148 6.14.27 2.954.176 5.9.352 8.83.237 7.992-.241 13.99 3.186 19.36 8.696 2.816 2.843 5.772 5.557 8.723 8.267l.007.007.002.002c2.586 2.374 5.168 4.746 7.649 7.197 3.668 3.629 7.165 7.425 10.674 11.235 1.063 1.154 2.127 2.309 3.197 3.461a5.834 5.834 0 0 0-1.074 1.16c-.492-.416-1.031-.792-1.567-1.167Zm.998 40.991c-4.191.748-7.708 2.593-10.107 6.6.154.016.28.033.381.046.292.038.376.048.334-.037.316-.082.605-.222.865-.419 6.721-6.099 14.219-5.745 22.052-2.494.895.379 1.786.773 2.676 1.167 2.225.984 4.451 1.968 6.752 2.734 8.338 2.821 16.598 1.432 24.818.049 1.927-.324 3.852-.648 5.776-.917 3.212-.417 3.807-4.332.886-6.546-9.105-6.76-18.296-13.55-27.78-19.771-1.47-.965-2.968-1.895-4.465-2.825l-.002-.001-.001-.001c-5.618-3.488-11.242-6.981-15.468-12.348-.583-.713-1.243-1.326-1.903-1.939-.33-.307-.66-.613-.981-.933a3.674 3.674 0 0 0-.29.283 3.674 3.674 0 0 1-.29.283c.193.292.356.598.515.9.283.532.557 1.049.973 1.438a194.81 194.81 0 0 1 3.255 3.047c2.779 2.639 5.549 5.27 8.637 7.415 2.7 1.868 5.525 3.55 8.348 5.231 5.904 3.515 11.804 7.027 16.541 12.24.44.452 1.037.772 1.631 1.09.359.193.718.385 1.039.606.712.501 1.433.998 2.155 1.496 2.009 1.386 4.026 2.778 5.903 4.277.682.549 1.168 1.314 1.788 2.291.333.524.705 1.11 1.167 1.756-1.686.271-3.279.54-4.808.799l-.008.001-.062.01-.004.001-.018.003-.006.001c-3.22.545-6.159 1.043-9.097 1.41-2.868.393-5.765.728-8.568.52-6.323-.425-12.284-2.305-18.033-5.071-4.61-2.178-9.493-3.3-14.601-2.392Zm-109.176-76.54c-.543.052-1.088.099-1.635.147-1.302.113-2.615.226-3.928.411-23.463 3.107-45.879 9.405-66.281 21.628-7.849 4.653-15.805 8.788-24.403 11.599-.236.08-.473.166-.712.254-1.743.637-3.612 1.319-6.161-.199 1.098-.364 2.109-.709 3.063-1.035l.003-.001c1.867-.637 3.523-1.203 5.216-1.693 6.34-1.854 11.989-5.067 17.649-8.286 2.292-1.304 4.588-2.609 6.932-3.826 15.134-7.823 30.461-15.1 47.752-16.997 3.571-.387 7.122-1.045 10.679-1.705h.003c2.098-.389 4.199-.779 6.306-1.113 1.235-.202 2.52-.156 3.785-.111.559.02 1.113.04 1.657.038.082.316.078.602.075.889Zm-28.104 95.964a9.227 9.227 0 0 1-.996.421c.092.19.158.371.218.534.043.117.082.225.125.319l.009.021.009.018c16.769.845 32.367-2.935 47.101-10.849 10.092-5.455 16.471-13.877 19.931-24.657.141-.511.212-1.076.282-1.625v-.004l.002-.009.058-.448c-.922.446-1.271.9-1.48 1.499-2.412 7.213-6.27 13.349-12.204 18.284-5.846 4.822-12.332 8.175-19.407 10.604-10.355 3.589-20.834 5.745-31.854 5.318-.589.011-1.193.293-1.794.574Zm27.041-240.7c.574 1.731 1.243 3.446 1.912 5.161 2.577 6.607 5.156 13.217 2.308 20.751-.858 2.194-2.232 4.353-3.857 5.992-3.191 3.253-6.524 6.36-10.166 8.976-4.825 3.403-10.288 2.846-15.707 1.201-.481-.167-.981-.279-1.779-.458a123.81 123.81 0 0 1-.647-.145c2.115 6.177 6.36 10.177 10.477 14.057l.007.006.695.655c2.899 2.729 5.972 5.253 9.104 7.824 1.665 1.368 3.349 2.751 5.031 4.184-.153-.01-.296-.013-.429-.016-.315-.006-.573-.011-.772-.114-10.548-5.92-18.804-14.158-24.797-24.63-.328-.58-.339-1.315-.35-2.05-.006-.395-.012-.79-.067-1.162.384.035.776.032 1.163.03.738-.006 1.463-.011 2.098.241 7.202 3.271 15.236 2.086 21.745-5.333.288-.332.577-.662.866-.992 4.204-4.802 8.346-9.532 7.176-16.487-.555-3.337-1.556-6.616-2.552-9.878-.34-1.115-.68-2.227-1.001-3.34-.289-1.04-.693-2.067-1.1-3.101a140.16 140.16 0 0 1-.394-1.013l.14-.04c.315-.092.594-.172.896-.319Zm-48.179 64.75c1.835.681 3.67 1.361 5.485 2.081.147-.285.236-.541.355-.883-2.191-.941-4.38-1.889-6.569-2.837-22.476-9.738-44.959-19.479-70.071-20.74.48.55 1.02.786 1.621.85 20.897 2.76 40.746 9.086 59.848 17.836 3.039 1.359 6.185 2.526 9.331 3.693Zm7.741 177.141c2.17.253 4.381.51 6.785-.471-4.237-2.288-9.45-2.183-10.398.268 1.21-.077 2.405.062 3.613.203Zm139.362-180.227c-.429 2.557-1.255 4.339-2.066 6.089-.452.974-.899 1.937-1.27 3.019-.598-2.02 1.086-6.572 3.336-9.108Zm-83.165-12.389c-.321-1.59-.643-3.184-1.529-4.593.196 2.808 1.06 6.6 2.474 8.05-.468-1.098-.706-2.276-.945-3.457ZM78.663 232.25c-.769.184-1.52.482-2.27.78-1.803.716-3.608 1.433-5.679.578a7.981 7.981 0 0 1-.108-.517l-.003-.019-.026-.137a9.723 9.723 0 0 0-.035-.174l-.008-.036-.007-.031a3.368 3.368 0 0 0-.029-.119c1.307-.313 2.621-.611 3.935-.909l.002-.001c1.313-.298 2.626-.596 3.933-.908.108.517.216 1.034.296 1.493Zm199.039 54.985c-.527.931-1.055 1.862-1.538 2.701 1.031.563 2.497-1.178 3.046-2.216a340.84 340.84 0 0 0 1.663-3.193c-.834-.378-2.005.654-2.457 1.45l-.714 1.258Zm52.348-179.507c.202.796.443 1.655.683 2.514.137.49.275.979.405 1.457.159.586-.007 1.498-.571 1.72l-.001-.001c-.336-1.109-.673-2.218-.992-3.321-.214-.741-.262-2.141.476-2.369Z" fill="#5F9282"/><path d="M213.824 126.406v-.006c-.168-1.626-.337-3.264-.535-4.906 10.424 7.947 21.302 5.876 27.687-4.598 5.253-8.578 4.357-17.587 1.954-26.79a51.913 51.913 0 0 1-1.652-12.76c.002-2.393.306-4.792.609-7.188.382-3.01.762-6.013.542-8.99-.641-8.919 1.533-17.284 3.764-25.677l.633-3.075c-6.18 7.393-13.863 11.68-22.498 14.44-5.89 1.857-10.034 5.567-12.376 11.103-3.162 7.636-7.682 14.368-12.458 21.01-2.793 3.947-4.589 11.412-3.449 16.795.076.363.436-.567.436-.567-.614-5.038 1.288-12.34 4.727-16.63 5.114-6.381 9.097-13.492 12.373-21.042 2.019-4.74 5.867-7.455 10.647-9.413 3.398-1.36 6.672-3.04 9.938-4.717h.002c1.63-.837 3.258-1.672 4.898-2.466.459-.222 1.002-.414 1.545-.606.098.13.205.239.31.347.106.109.211.217.31.347l-1.252 1.593c-2.549 3.245-5.079 6.467-7.735 9.644-10.599 12.727-17.571 27.25-21.171 43.333-.622 2.635-.592 5.434-.562 8.24v.001c.015 1.377.03 2.755-.032 4.117 2.213-27.128 16.268-48.202 32.493-67.274-.185 2.356-.404 4.807-.627 7.317-.337 3.782-.686 7.697-.953 11.624-.103 1.502-.092 3.01-.081 4.509v.001c.018 2.46.037 4.896-.45 7.249-1.565 7.43-.532 14.386 1.552 21.613 2.824 9.779 1.949 19.22-5.404 27.11-6.691 7.215-16.234 7.077-22.761-.271-.168-.19-.371-.32-.649-.498-.232-.149-.517-.332-.877-.61-.698 11.414.979 21.891 5.855 31.671.85 1.756 2.477 3.102 4.113 4.455.776.643 1.555 1.287 2.253 1.977.187-.125.367-.266.546-.406.18-.14.36-.28.546-.406-9.945-7.654-11.048-18.341-12.211-29.6Z" fill="#5F9282"/><path d="m209.139 141.325.001-.059c.128-7.828.255-15.517.184-23.179.012-.939-.918-1.992-1.679-2.854l-.118-.134c-.615-.638-1.283-1.189-1.987-1.769-1.881-1.549-4.016-3.307-6.045-7.5 3.028 4.193 6.021 6.14 8.665 7.86l.359.234.179.117c1.764 1.18 2.199 2.513 2.256 4.66.034 5.09.238 10.168.442 15.242v.005c.085 2.104.169 4.206.241 6.308.035.894-.079 1.768-.191 2.624-.026.198-.052.395-.076.592a9.016 9.016 0 0 0-1.131-.191c-.713-.091-1.419-.18-1.965-.555-6.418-4.519-12.834-9.126-19.236-13.724l-.001-.001-.003-.002-4.993-3.584c-.644-.46-1.03-1.114-1.216-2.077a4273.9 4273.9 0 0 0 26.314 17.987ZM55.779 93.823c-1.202-.05-2.457-.102-3.814-.156 1.447 2.422 5.703 2.74 8.648.352-1.59-.061-3.158-.126-4.833-.196h-.002Zm8.573 46.317 2.997 1.761c1.316.773 2.548 1.497 3.798 2.228-3.362.353-6.645-1.708-6.795-3.989Zm115.87-90.703c.183.589.371 1.196.69 1.77 1.03-2.04-.749-5.484-3.824-6.889.34.61.783 1.164 1.232 1.726.464.58.934 1.168 1.301 1.831.263.475.43 1.01.601 1.562Zm41.421 203.09c.377-1.49.728-2.868 1.063-4.187.467-1.838.905-3.56 1.343-5.306 1.959 3.818.614 8.456-2.406 9.493Zm168.962 50.356-.023-.013-.113-.061c-9.253-5.054-18.685-10.206-27.624-15.186-.556-.304-.678-.611-.872-1.098-.074-.186-.158-.398-.281-.646 9.964 6.123 20.203 11.004 30.495 15.91h.001c5.795 2.762 11.626 5.864 16.646 8.709l-.528 2.09c-5.908-3.221-11.795-6.479-17.701-9.705Z" fill="#5F9282"/></svg>