<svg width="475" height="405" fill="none" xmlns="http://www.w3.org/2000/svg"><path d="M.448 3.009V.802c8.27 8.374 14.757 14.954 15.078 15.354 20.251 20.989 43.099 37.533 70.018 49.26 4.703 2.051 9.289 4.914 12.88 8.475 5.693 7.02 14.088 11.213 22.397 14.597 8.369 3.37 16.441 7.37 24.561 11.392l1.013.502c4.982 2.449 9.894 4.832 15.675 3.89 1.133-.191 2.269-.376 3.406-.562 4.931-.807 9.881-1.616 14.732-2.824 10.196-2.596 10.563-4.224 6.096-13.634-5.461-11.546-6.336-23.198 2.394-33.79 6.366-7.77 13.982-13.95 23.903-16.741.866-.246 1.73-.493 2.594-.74 10.247-2.93 20.433-5.841 31.259-5.841 5.194-.052 10.317-.238 15.506-.492 1.253-.075 1.993-.194 2.903-.34.411-.065.858-.136 1.403-.212.038.201-.243.444-.524.687-.282.242-.563.485-.525.686-6.074 1.068-12.217 1.383-18.357 1.697-8.371.428-16.736.856-24.912 3.193-11.194 3.158-21.287 7.304-29.387 15.924-7.771 8.274-10.32 17.711-7.036 28.498.785 2.57 2.055 4.974 3.321 7.37v.002c.616 1.165 1.23 2.329 1.787 3.508 1.986 4.205.512 7.612-3.833 9.331-9.494 3.794-19.447 5.17-29.63 5.404-2.225.052-4.731-.363-6.711-1.397-2.263-1.18-4.507-2.402-6.751-3.624-7.709-4.197-15.421-8.396-23.944-10.918-8.763-2.564-18.007-8.491-22.999-14.314-3.447-3.226-7.562-6.1-11.924-8.024-17.177-7.633-32.775-16.99-47.61-28.388-3.796-2.912-15.772-14.826-28.823-27.81l-.002-.002-.004-.004C5.775 8.301 3.104 5.645.448 3.009Zm111.203 138.517c-.311.412-.618.829-.925 1.245-.92 1.248-1.84 2.496-2.876 3.633-6.185 6.822-12.922 13.116-21.048 17.689-13.786 7.806-25.218 18.256-34.09 31.414-.438.664-.95 1.33-1.725 2.336-.265.344-.56.728-.894 1.165.074-.569.13-1.039.177-1.44.098-.837.161-1.371.286-1.876 1.964-7.62 1.549-15.283 1.133-22.961-.07-1.282-.14-2.564-.197-3.846-.15-3.572.456-6.554 2.889-9.309 2.566-2.825 3.906-6.162 3.476-10.2-.435-4.241 1.58-7.593 4.345-10.558 10.716-14.532 19.153-15.256 30.637-16.242h.001c1.206-.104 2.447-.21 3.727-.336 3.635-.353 7.334-.843 9.623-3.999.849-1.234 1.271-3.403.836-4.742-2.747-6.404-4.306-9.859-4.756-10.569-1.405-3.611-2.83-7.24-4.334-10.757l-.032-.076-.11-.256c-1.237-2.908-2.532-5.95-6.371-6.581 1.972 3.661 3.898 7.245 5.797 10.777 2.395 4.456 4.747 8.83 7.091 13.176.176.475.362.975.559 1.501 1.801 4.952.709 7.338-4.382 8.94-1.808.581-3.76.828-5.646.939-13.81.925-21.472 2.181-34.01 17.312-2.902 2.901-4.84 6.656-4.54 10.899.23 4.162-1.575 7.165-3.58 10.501l-.023.04c-1.431 2.327-2.376 5.25-2.65 8.022-.253 2.757-.05 5.586.156 8.433v.005c.057.783.113 1.566.16 2.35.893 12.393-1.339 23.914-9.411 33.748-.124.174-.194.373-.26.566-.04.111-.077.22-.124.32.206.197.413.395.622.66 1.017-1.134 2.051-2.268 3.085-3.403l.007-.008.008-.008a558.26 558.26 0 0 0 3.085-3.402c7.035-7.989 15.133-13.775 26.11-14.702 3.332-.283 6.66-.842 9.986-1.402 2.117-.357 4.234-.713 6.353-.998 12.576-1.773 23.386-6.947 31.799-16.654 1.249-1.445 2.221-3.154 2.992-4.859-.498.471-.999.942-1.502 1.413-1.565 1.469-3.14 2.948-4.637 4.463-6.131 6.281-13.386 10.563-22.05 12.314-5.305 1.067-10.616 1.864-15.999 2.527-10.091 1.245-19.971 2.889-27.83 10.289 4.476-7.795 9.777-14.933 16.738-20.289 4.144-3.165 8.48-6.064 12.815-8.964 4.336-2.9 8.672-5.799 12.815-8.965 4.35-3.367 8.234-7.301 12.116-11.232l.012-.013.027-.027a450.262 450.262 0 0 1 3.231-3.25c.714-.7 1.142-1.733 1.564-2.75.203-.488.404-.973.635-1.416-.198-.151-.372-.257-.537-.358-.057-.035-.113-.069-.169-.105a2.594 2.594 0 0 1-.149-.098l-.007-.005a.729.729 0 0 0-.029-.021Zm169.34 193.383c4.851 17.295 9.7 34.523 14.549 51.751l.047-.013.041-.012h.002c.225-.064.403-.114.583-.058.059-1.141.076-2.295.094-3.449l.001-.035c.039-2.523.078-5.05.531-7.461 2.829-14.84 6.88-29.371 13.172-43.28 4.562-9.955 7.832-20.285 7.169-31.537-.038-.719-.081-1.44-.124-2.161-.229-3.876-.461-7.778.077-11.602 1.07-7.749 2.292-15.485 3.514-23.221v-.003c1.222-7.736 2.444-15.471 3.514-23.221 1.617-11.844.473-23.422-4.103-34.651-6.791-16.576-26.176-26.318-45.045-19.475-5.688 2.02-11.379 3.906-17.665 3.443-2.769-.139-3.931-.787-4.601-3.538-.125-.513-.248-1.027-.372-1.541l-.001-.005c-1.65-6.862-3.292-13.688-7.138-19.938-2.93-4.767-4.988-10.045-7.041-15.312-.354-.907-.707-1.814-1.065-2.718-.503-1.338.052-3.577.901-4.811.391-.616 2.831-.133 4.192.376 1.527.576 3.031 1.241 4.537 1.907l.013.005c1.98.876 3.963 1.753 6.007 2.433 3.158 1.011 6.338 1.933 9.517 2.854l.011.003c4.139 1.199 8.275 2.397 12.35 3.791 9.791 3.283 18.48 8.548 26.718 14.701 2.745 2.032 5.65 3.851 8.557 5.672 3.271 2.049 6.547 4.101 9.601 6.459 5.425 4.15 10.53 8.719 15.627 13.282l.001.001c1.42 1.271 2.838 2.541 4.264 3.802 4.407 3.879 6.004 8.767 4.006 12.861-4.959 10.235-6.543 20.594-4.863 32.025 1.833 12.237 5.798 23.278 13.508 32.883 2.142 2.609 4.371 5.187 6.592 7.756l.001.001.039.045a839.397 839.397 0 0 1 3.422 3.976c-.099.104-.215.208-.331.312a5.858 5.858 0 0 0-.33.311c-1.141-1.283-2.291-2.548-3.436-3.808l-.008-.009-.002-.002c-1.98-2.178-3.946-4.341-5.833-6.56-11.788-13.83-15.812-30.402-15.474-47.952.13-6.075 2.414-12.402 4.915-18.059 2.116-4.772 1.158-8.325-2.08-11.22-8.267-7.433-16.666-14.729-25.391-21.545-3.357-2.592-6.958-4.859-10.558-7.125-2.587-1.628-5.173-3.257-7.668-5.005-8.366-5.88-17.503-10.055-27.219-13.002-8.017-2.447-16.038-5.029-24.059-7.611-1.253-.371-2.45-.89-3.842-1.492a99.138 99.138 0 0 0-2.354-.996c.108.71.175 1.35.237 1.936.12 1.135.218 2.066.549 2.903 1.212 2.84 2.491 5.644 3.77 8.448 1.279 2.805 2.558 5.609 3.77 8.448.393.939.793 1.878 1.194 2.818 1.71 4.009 3.427 8.035 4.615 12.162 2.274 7.908 4.604 9.474 12.578 7.132a29.86 29.86 0 0 0 1.608-.509c.535-.181 1.071-.363 1.608-.51.991-.296 1.982-.604 2.975-.913 3.168-.984 6.355-1.975 9.627-2.615 16.254-3.208 30.809 4.824 38.722 17.393 4.904 7.848 6.662 16.849 7.143 26.013.729 14.084-1.313 27.962-4.033 41.721-.276 1.434-.565 2.867-.853 4.3-1.66 8.25-3.321 16.502-2.723 24.996.61 8.959-.268 17.683-3.311 26.186-1.327 3.713-2.672 7.421-4.016 11.128l-.001.001-.002.006-.001.002c-3.089 8.514-6.176 17.025-9.034 25.596-3.787 11.355-5.814 22.938-2.704 34.944.444 1.822.387 3.745.323 5.914v.001c-.033 1.104-.068 2.272-.039 3.524a43.244 43.244 0 0 0-1.187-1.749c-.36-.509-.652-.923-.909-1.374a1098.49 1098.49 0 0 0-2.784-4.595l-.005-.009c-2.452-4.036-4.901-8.065-7.244-12.167-4.287-7.458-10.35-12.919-18.06-16.654a355.31 355.31 0 0 1-16.73-8.724c-10.115-5.637-20.166-11.41-28.715-19.377-8.72-8.124-15.767-17.666-22.81-27.204l-.006-.008a661.446 661.446 0 0 0-6.133-8.218c-.338-.46-.388-1.088-.439-1.721a8.85 8.85 0 0 0-.092-.83l1.002-.428c1.065 1.406 2.134 2.812 3.205 4.22 2.917 3.835 5.842 7.681 8.695 11.563 8.153 11.282 16.968 22.01 28.747 29.565 10.886 6.901 22.36 12.979 33.764 18.924 8.125 4.198 14.731 9.781 19.299 17.705 1.208 2.099 2.552 4.09 4.091 6.37v.001l.002.002.003.005.006.009c.606.898 1.242 1.841 1.912 2.853-1.372-4.128-2.709-8.103-4.014-11.988l-.001-.002-.004-.011a2310.252 2310.252 0 0 1-5.618-16.856c-4.569-13.861-6.954-26.625-5.447-28.549Z" fill="#D399A9"/><path fill-rule="evenodd" clip-rule="evenodd" d="M412.734 142.457a622.394 622.394 0 0 1-5.185-1.664c-.004-.202.058-.406.124-.475.119-.027.237-.07.352-.112.211-.078.412-.152.588-.112l1.397.352c12.026 3.026 24.058 6.054 33.177 15.652 7.814 8.254 17.506 13.091 28.685 15.128.4.031.757.181 1.221.377.319.135.689.291 1.159.445-.352.161-.628.3-.856.416l-.002.001h-.001c-.377.191-.627.317-.877.365-8.944 1.285-15.781 6.165-22.251 12.319-9.374 8.986-20.215 15.78-33.321 17.971-.431.096-.86.304-1.607.667-.416.202-.93.451-1.599.756.447.176.812.306 1.116.414.575.204.93.33 1.2.545 8.326 7.027 14.929 15.444 18.938 25.472 1.812 4.514 2.996 9.277 4.179 14.038.499 2.007.998 4.015 1.544 6.003 2.134 7.71 2.11 15.469.198 23.272-2.526 10.448-2.961 20.848.985 31.08.145.376.293.752.44 1.128l.003.007c.795 2.03 1.594 4.068 2.153 6.16.35 1.145.481 2.391.633 3.839.07.668.144 1.38.247 2.145-.42-.257-.696-.413-.872-.513l-.004-.002c-.222-.126-.286-.163-.287-.2a23.421 23.421 0 0 1-.527-1.281c-.195-.499-.386-.99-.616-1.459-2.692-5.606-5.852-10.998-12.685-11.785-6.697-.791-13.458-1.377-20.132-1.156-13.013.366-25.221-2.389-37.073-7.311-.356-.143-.641-.439-.935-.744a9.762 9.762 0 0 0-.304-.307c2.163.152 4.065.716 5.904 1.483 9.806 3.958 20.023 5.207 30.563 5.842 2.661.169 5.355.118 8.058.068 7.589-.142 15.25-.285 22.473 4.424-2.323-4.139-5.516-7.431-8.665-10.678-3.337-3.44-6.624-6.828-8.771-11.118 3.916 4.048 7.802 8.096 11.8 12.261 2 2.084 4.028 4.197 6.103 6.354-2.761-8.573-2.479-16.81-.441-25.021 2.281-9.363 1.934-18.598.029-28.067-2.976-14.977-8.881-28.268-19.723-39.083-2.209-2.176-4.687-4.345-7.483-5.63-6.272-2.825-12.61-5.58-19.13-7.454-12.633-3.623-25.139-4.684-36.894 3.412-3.056 2.095-6.705 1.841-9.858-.313-2.055-1.369-3.982-3.011-5.708-4.726-4.211-4.121-8.386-8.32-12.551-12.508l-.023-.024c-1.357-1.364-2.713-2.728-4.068-4.087a80.143 80.143 0 0 1-2.114-2.26c-.375-.412-.752-.827-1.138-1.241.097-.171.211-.342.326-.514.114-.171.228-.342.325-.513.737.264 1.474.54 2.216.817l.001.001h.001c1.039.389 2.087.781 3.157 1.15 3.186 1.1 6.268 2.474 9.35 3.849 5.604 2.499 11.212 4.999 17.456 5.857 5.087.658 10.18 1.633 15.227 2.599l1.978.378c.882.183 2.315.892 2.467 1.63.453 2.081 1.671 2.256 3.426 2.283 9.92.109 19.551 2.316 28.288 6.703 7.371 3.676 13.942 1.906 20.707-.274 9.841-3.173 17.479-9.608 25.217-16.126 3.952-3.329 7.931-6.681 12.242-9.631a34.754 34.754 0 0 1-.938-.105c-.717-.087-1.327-.161-1.9-.1-2.013.232-4.026.439-6.037.645h-.002l-.006.001h-.007c-4.574.469-9.138.937-13.662 1.697-1.261.218-2.539.414-3.82.611-5.138.79-10.336 1.589-14.768 3.797-12.806 6.434-26.261 8.093-40.154 8.345-.91.021-1.86-.195-2.795-.409-.381-.087-.76-.173-1.133-.242.03-.17.043-.339.056-.508.013-.169.026-.338.056-.507 1.529-.035 3.051-.055 4.571-.075h.006c3.035-.04 6.059-.08 9.111-.24 9.907-.498 19.443-2.404 28.17-7.26 1.799-.986 3.738-1.772 5.687-2.087 9.946-1.713 19.892-3.426 29.913-4.804 2.59-.338 5.252-.326 7.912-.315 1.208.005 2.416.01 3.617-.017-.227-1.075-.572-1.404-.911-1.464-7.798-1.71-14.167-5.814-20.156-11.006-.881-.762-1.75-1.543-2.62-2.324h-.001c-4.23-3.797-8.474-7.606-14.112-9.435-1.928-.629-3.821-1.315-5.706-1.999h-.002l-.002-.001-.001-.001-.005-.001h-.001l-.001-.001-.002-.001h-.002l-.001-.001h-.001a203.987 203.987 0 0 0-5.09-1.794 622.394 622.394 0 0 0-5.185-1.664l-.03-.009Zm-42.981 47.58c-14.923-.534-28.73-5.344-42.811-10.35 2.729 2.771 5.441 5.559 8.154 8.347 2.712 2.788 5.424 5.577 8.153 8.347 4.212 4.221 7.996 4.472 13.403 1.919 2.777-1.312 5.708-2.333 8.631-3.351a171.683 171.683 0 0 0 4.478-1.606c.475-.185.861-.537 1.254-.894.216-.196.434-.394.669-.567a9.648 9.648 0 0 1-.54-.65c-.45-.573-.91-1.158-1.391-1.195Z" fill="#D399A9"/><path d="M304.599 29.612a20711.47 20711.47 0 0 0-13.012 44.424c.103.065.189.13.275.196.085.065.172.13.274.196.376-.772.799-1.529 1.221-2.283.809-1.448 1.613-2.886 2.066-4.405 1.292-4.388 2.474-8.816 3.656-13.247l.006-.02c1.452-5.438 2.905-10.883 4.565-16.27 1.444-4.689 3.703-9.126 5.964-13.496 1.877-3.63 3.884-7.187 5.893-10.745 1.24-2.197 2.482-4.396 3.693-6.613.582-1.093.821-2.448.65-3.995-.112.117-.233.22-.351.32-.227.192-.444.376-.571.645-3.468 7.637-9.215 12.964-16.126 17.576-5.449 3.633-11.223 4.846-17.502 4.653-2.7-.073-5.395.124-8.089.32-1.077.093-2.145.59-3.071 1.42 2.383-.097 4.793-.055 7.204-.013 8.91.156 17.826.312 25.366-6.605-23.28 37.98-55.814 63.76-98.564 76.55 10.229-1.113 19.583-5.106 28.446-9.898 8.998-4.795 17.921-9.925 26.149-15.917a182.124 182.124 0 0 0 22.821-19.82c4.855-5.084 9.242-10.646 13.494-16.036l.001-.002.001-.001c1.864-2.362 3.701-4.692 5.541-6.934ZM162.5 110.966c-.188-.199-.408-.432-.697-.683 3.12-.591 6.196-1.197 9.241-1.797l.001-.001h.003l.004-.001h.001l.003-.001c7.636-1.505 15.076-2.971 22.525-4.059 2.556-.328 6.231 1.071 8.097 2.985 7.187 7.391 15.627 7.669 24.688 5.639 2.487-.557 4.94-1.287 7.392-2.016 2.842-.846 5.682-1.691 8.567-2.264 15.046-2.91 27.429-10.144 37.487-21.642.537-.62 1.167-1.105 1.814-1.604l.153-.118c.094-.072.188-.145.282-.22.227 1.075.037 1.62-.292 1.964-7.117 7.383-14.368 14.769-24.344 18.102-11.181 3.765-22.434 7.33-33.91 9.955-7.986 1.871-15.911.501-22.065-5.969-3.181-3.368-7.173-3.883-11.469-2.907-.702.15-1.422.301-2.141.452l-.007.002c-.722.152-1.444.303-2.149.454-2.482.563-4.981 1.109-7.481 1.656l-.007.001c-2.5.547-4.999 1.093-7.481 1.656-.032.143-.045.303-.059.472-.013.154-.026.315-.054.475 2.653.934 5.283 1.957 7.911 2.98 5.928 2.306 11.846 4.609 17.998 5.87 15.888 3.199 30.913 8.881 45.939 14.563 9.718 3.675 19.436 7.35 29.389 10.354.701.216 1.373.592 2.169 1.037.362.202.749.418 1.175.64-.287.141-.509.258-.681.349l-.003.002c-.345.183-.494.261-.585.218-2.763-.883-5.559-1.708-8.359-2.535-6.776-1.999-13.576-4.006-19.991-6.865-14.48-6.453-29.562-10.566-44.74-14.706l-2.912-.795c-8.064-2.191-15.977-4.836-23.908-7.486l-.002-.001c-3.553-1.187-7.11-2.375-10.684-3.525-.294-.076-.514-.309-.818-.631Zm11.894 12.661c1.181.626 2.353 1.247 3.603 1.396 7.985 1.031 15.273 4.034 22.633 7.238 4.976 2.18 10.403 3.472 15.76 4.63 6.78 1.464 11.393 5.473 14.764 11.265 1.109 1.897 2.257 3.768 3.404 5.638 2.194 3.578 4.384 7.149 6.287 10.871 2.553 4.985 4.745 10.115 6.948 15.269.479 1.12.958 2.241 1.441 3.362.297.651.302 1.407.306 2.056v.005c.002.281.004.542.029.765-2.76-.486-5.487-1.013-8.196-1.536l-.003-.001-.004-.001-.004-.001h-.003l-.003-.001h-.004l-.009-.002-.003-.001c-5.924-1.144-11.759-2.271-17.646-2.922-8.929-1.009-16.945 2.481-24.682 6.37.038.202.093.386.148.57.055.184.11.369.148.57.313-.074.642-.127.971-.18.657-.105 1.314-.21 1.847-.492 13.736-7.063 27.654-6.236 41.738-1.095 1.601.571 3.324.783 5.064.997.773.095 1.549.19 2.32.318-.057-.748-.061-1.521-.065-2.294-.008-1.806-.017-3.615-.712-5.11-2.845-6.344-6.088-12.409-9.4-18.54-1.01-1.908-2.108-3.769-3.205-5.626-1.585-2.685-3.166-5.362-4.466-8.163-3.616-7.609-9.712-11.584-17.458-13.969-4.019-1.274-7.985-2.74-11.944-4.204l-.01-.003-.002-.001c-3.469-1.283-6.933-2.563-10.424-3.711-5.165-1.694-10.405-3.147-15.663-4.606-1.593-.442-3.187-.884-4.781-1.333a6.2 6.2 0 0 1-.571 1.564c.625.262 1.237.586 1.847.908Zm-38.907 18.769c1.313 4.288 1.274 8.472-1.328 12.647-.09-.136-.166-.246-.226-.335-.177-.256-.227-.329-.127-.331a2.555 2.555 0 0 1-.023-1.012c2.486-9.233-1.45-16.092-8.262-21.872-.786-.657-1.583-1.302-2.38-1.947-1.992-1.613-3.985-3.227-5.809-5.016-6.652-6.46-9.321-14.871-11.976-23.242-.623-1.962-1.245-3.922-1.917-5.855-1.153-3.212 2.231-5.651 5.711-3.977 10.714 5.286 21.497 10.638 31.888 16.538 1.611.915 3.203 1.871 4.795 2.828l.001.001.001.001c5.971 3.589 11.949 7.183 19.011 8.565.949.203 1.842.527 2.734.851.446.163.892.325 1.345.472a3.798 3.798 0 0 1-.126.407c-.047.136-.095.272-.125.408-.367-.04-.732-.045-1.091-.05-.636-.009-1.252-.018-1.817-.22a207.406 207.406 0 0 0-4.42-1.588c-3.811-1.336-7.608-2.668-11.103-4.532-3.05-1.633-5.984-3.472-8.917-5.311-6.133-3.846-12.261-7.688-19.426-9.622-.635-.196-1.222-.602-1.806-1.005a11.83 11.83 0 0 0-1.066-.683c-.813-.428-1.625-.864-2.439-1.301-2.265-1.217-4.54-2.44-6.847-3.479-.843-.375-1.793-.463-3.007-.575a38.788 38.788 0 0 1-2.207-.25 573.49 573.49 0 0 1 1.562 4.892l.003.008.02.063.001.004.006.02.002.005c1.036 3.28 1.983 6.275 3.05 9.205 1.011 2.878 2.089 5.754 3.632 8.283 3.437 5.723 8.066 10.407 13.421 14.467 4.259 3.275 7.658 7.312 9.262 12.538ZM259.72 207.95c.212.534.429 1.068.648 1.604.52 1.274 1.044 2.56 1.502 3.879 8.366 23.489 13.237 47.531 11.586 72.532-.589 9.594-.641 19.041.857 28.452.038.259.071.523.104.789.241 1.941.499 4.021 3.148 5.68-.187-1.204-.349-2.317-.503-3.369v-.002c-.3-2.058-.565-3.882-.92-5.704-1.309-6.836-1.013-13.675-.716-20.528.12-2.776.241-5.556.255-8.338.059-17.948-.487-35.814-7.02-52.936-1.354-3.533-2.444-7.178-3.536-10.83l-.001-.002c-.644-2.155-1.288-4.311-1.988-6.448-.404-1.254-1.065-2.437-1.715-3.601-.287-.514-.573-1.024-.832-1.535-.336.075-.603.216-.869.357Zm-76.453 72.475c.014.389.028.776.085 1.136-.223.005-.425.03-.606.053-.13.016-.25.031-.359.036l-.024.001-.021.001c-8.853-15.314-12.807-31.753-12.47-49.37.261-12.083 5.091-22.112 13.533-30.537.412-.378.907-.716 1.388-1.045l.003-.002.009-.006c.132-.091.263-.18.391-.27.025 1.079-.232 1.625-.694 2.107-5.603 5.729-9.5 12.296-11.274 20.23-1.709 7.798-1.735 15.49-.611 23.291 1.612 11.432 4.628 22.293 10.326 32.417.273.557.299 1.26.324 1.958Zm212.645-141.051c-1.898.293-3.827.491-5.757.688-7.432.76-14.869 1.52-20.562 7.811-1.644 1.859-3.008 4.184-3.764 6.496-1.515 4.555-2.825 9.173-3.527 13.844-.871 6.16 2.277 11.013 6.424 15.303.387.37.733.785 1.284 1.448l.448.536c-6.807.986-12.598-1.07-18.214-3.065l-.009-.003-.949-.337c-3.951-1.406-7.794-3.074-11.71-4.773-2.083-.904-4.189-1.818-6.341-2.705.084.138.155.271.221.394.157.292.286.531.478.669 10.62 7.042 22.311 10.822 35.009 11.407.702.027 1.396-.315 2.09-.658.373-.184.747-.369 1.122-.496-.217-.343-.403-.712-.587-1.076-.35-.695-.693-1.376-1.235-1.85-6.528-5.18-9.278-13.281-5.453-22.949.173-.429.343-.859.514-1.289 2.48-6.249 4.924-12.406 12.006-14.652 3.395-1.084 6.95-1.721 10.487-2.356 1.209-.217 2.415-.433 3.612-.667 1.115-.229 2.271-.344 3.436-.46.379-.038.759-.075 1.138-.117a5.798 5.798 0 0 0-.029-.151c-.065-.339-.124-.639-.132-.992Zm-37.54 76.289a274.95 274.95 0 0 0-4.587-4.141c.196-.275.394-.482.657-.758 1.935 1.602 3.876 3.198 5.817 4.795 19.933 16.389 39.871 32.783 53.126 55.718-.747-.185-1.228-.579-1.578-1.111-12.632-18.263-28.103-33.83-45.487-47.53-2.736-2.196-5.342-4.584-7.948-6.973ZM8.589 25.4c3.899 3.118 7.555 6.063 11.254 9.049-3.334-.86-7.382-3.386-10.517-6.178-2.414-1.963-5.458-4.867-8.878-8.014v-2.78c3.084 2.993 5.861 5.695 8.14 7.923Zm180.002 268.157c-1.28-1.913-2.584-3.862-2.821-6.587 4.182 2.872 6.59 7.809 4.748 9.876-.509-1.171-1.215-2.225-1.927-3.289ZM290.553 76.278c-2.19 1.632-3.463 3.263-4.714 4.865-.696.891-1.384 1.773-2.22 2.64 2.181-.41 5.639-4.176 6.934-7.505Zm51.591 72.008c1.645-.463 3.295-.927 5.041-.774-2.726 1.166-6.697 2.178-8.735 1.55 1.254-.089 2.473-.432 3.694-.776Zm-65.135 174.84c.197.81.279 1.657.36 2.505.195 2.033.391 4.071 2.188 5.6.168-.037.352-.092.536-.147l.02-.006.141-.041a8.46 8.46 0 0 1 .18-.051l.037-.01.033-.009.126-.03c-.336-1.375-.688-2.75-1.04-4.125v-.003c-.352-1.374-.704-2.748-1.039-4.123a51.17 51.17 0 0 0-1.542.44ZM129.787 162.969c-.619.942-1.239 1.884-1.792 2.74-1.024-.695-.096-2.906.612-3.92a367.595 367.595 0 0 1 2.195-3.094c.755.6.35 2.195-.179 3.001l-.836 1.273Zm143.116-135.36c-.844.192-1.765.38-2.686.567-.525.107-1.05.214-1.561.322-.625.132-1.401.726-1.338 1.362h.002c1.201-.218 2.403-.435 3.59-.667.798-.155 2.133-.783 1.993-1.584Z" fill="#D399A9"/><path d="M311.262 145.542h.001l.001-.001.003-.001c1.605-.624 3.222-1.253 4.856-1.858-12.46-5.951-15.748-17.144-8.998-28.165 5.516-9.047 14.392-12.538 24.174-14.708a54.713 54.713 0 0 0 12.757-4.586c2.242-1.152 4.345-2.59 6.445-4.026 2.638-1.804 5.27-3.605 8.167-4.829 8.669-3.687 15.466-9.746 22.261-15.872l2.579-2.071c-3.96 9.347-4.286 18.61-2.722 28.032 1.09 6.414-.396 12.082-4.459 16.938-5.639 6.636-9.777 14.109-13.708 21.779-2.357 4.515-8.492 9.788-14.086 11.306-.377.103.322-.682.322-.682 5.018-1.846 10.948-7.139 13.318-12.425 3.523-7.861 8.275-15.013 13.777-21.713 3.473-4.172 4.168-9.084 3.707-14.506-.358-3.84-.357-7.717-.356-11.584v-.002c0-1.93.001-3.858-.043-5.777-.013-.536-.094-1.138-.175-1.74a3.86 3.86 0 0 1-.474-.123c-.153-.047-.305-.094-.475-.123l-.891 1.938c-1.817 3.95-3.621 7.87-5.323 11.887-6.836 16.054-17.098 29.571-30.445 40.677-2.172 1.849-4.81 3.167-7.455 4.487l-.001.001c-1.297.648-2.596 1.297-3.843 2.009 24.367-15.115 37.366-38.42 47.446-62.799-2.12 1.307-4.312 2.69-6.558 4.106-3.383 2.134-6.885 4.343-10.438 6.48-1.359.82-2.778 1.534-4.189 2.244h-.001c-2.314 1.165-4.607 2.32-6.578 3.907-6.214 5.039-13.231 7.414-21.007 8.934-10.526 2.053-18.955 7.412-22.817 18.098-3.547 9.74 1.169 18.62 11.195 21.206.258.067.478.195.779.37.251.146.559.325.993.528-10.364 6.141-20.992 9.605-32.505 9.736-2.053.047-4.098-.831-6.153-1.714-.975-.419-1.954-.839-2.937-1.162.029-.236.074-.472.119-.707.045-.236.09-.472.118-.707 11.956 5.643 22.505 1.54 33.619-2.782Z" fill="#D399A9"/><path d="m299.528 157.106.055-.029c7.276-3.884 14.423-7.698 21.64-11.315.874-.463 2.308-.097 3.482.202l.183.046c.894.27 1.732.632 2.613 1.013 2.357 1.019 5.031 2.175 9.937 2.062-5.386-.823-8.65-2.693-11.533-4.345l-.392-.224-.196-.112c-1.955-1.086-3.413-.853-5.453.125-4.788 2.415-9.646 4.664-14.501 6.912l-.005.003c-2.012.932-4.024 1.863-6.029 2.806-.855.398-1.62.925-2.368 1.441l-.518.355c.262.296.493.633.722.969.428.625.852 1.243 1.465 1.576 7.321 3.843 14.725 7.643 22.112 11.435l.001.001.003.001c1.922.987 3.843 1.972 5.761 2.958.74.382 1.54.431 2.531.142a4536.79 4536.79 0 0 1-29.51-16.022Zm118.249 120.933c.624 1.102 1.277 2.254 1.98 3.501-2.967-.193-5.311-4.029-4.487-7.939.821 1.461 1.636 2.9 2.507 4.437v.001Zm-47.541 14.227a3272.51 3272.51 0 0 0-3.091-1.963c-1.357-.862-2.628-1.668-3.914-2.49 1.285 3.323 4.796 5.409 7.005 4.453Zm29.332-152.222c-.639.112-1.3.227-1.991.204 1.417-1.946 5.501-1.934 8.296.274-.735-.026-1.468-.175-2.21-.326-.767-.156-1.544-.314-2.342-.339-.572-.019-1.153.083-1.753.187Zm-210.297 58.794c1.216-1.07 2.339-2.061 3.414-3.009a1904.66 1904.66 0 0 1 4.329-3.81c-4.521-.001-8.222 3.489-7.743 6.819ZM24.132 38.99c.418.335.832.67 1.244 1.005 1.32 1.07 2.625 2.13 4.019 3.144a888.369 888.369 0 0 0 19.512 13.404c3.913 2.65 7.908 5.367 11.939 8.108l.023.016.113.076c9.185 6.245 18.548 12.61 27.514 18.596.552.375.898.342 1.449.29.21-.02.448-.043.74-.047-10.53-6.397-20.027-13.65-29.573-20.94l-.001-.001c-11.354-8.67-22.778-17.395-36.09-24.796l-.89 1.144Z" fill="#D399A9"/></svg>