<svg version="1.1" id="Layer_1" xmlns="http://www.w3.org/2000/svg" x="0" y="0" viewBox="0 0 172.2 179.5" style="enable-background:new 0 0 172.2 179.5" xml:space="preserve"><style>.st0{fill:#171717}</style><path class="st0" d="M164 106.8c1.6.6 3 1.3 4.1 2.3 1.2 1 2.1 2.1 2.8 3.3.7 1.3 1.1 2.6 1.2 4.1.1 1.5-.2 3.1-.8 4.8l-.2.6c-.3.9-.7 1.6-1 2.1-.4.6-.8 1-1.1 1.3-.3.4-.6.7-.9.9-.3.2-.5.5-.6.8-.1.3-.1.6-.1.9.1.3.2.6.4.9l-4.2-1.2c.8-.1 1.5-.3 2.3-.6.7-.3 1.4-.6 2-1.1.6-.4 1.2-.9 1.6-1.5.5-.6.9-1.2 1.1-2 .6-1.6.8-3.2.6-4.5-.2-1.4-.6-2.6-1.4-3.7-.7-1.1-1.7-2-2.9-2.8-1.2-.8-2.5-1.5-4-2s-2.9-.9-4.4-1.1c-1.4-.2-2.8-.1-4.1.3-1.3.4-2.4 1-3.4 1.9-1 .9-1.8 2.2-2.4 3.9-.4 1.1-.6 2.2-.5 3.3.1 1.1.3 2.1.9 3l5.7 2.1c.8.3 1.4.5 1.8.5.4.1.6.1.8.1.4 0 .8-.2 1.1-.4l-1.5 4c0-.2-.1-.3-.2-.4-.1-.1-.1-.2-.2-.3-.2-.2-.5-.5-.9-.7-.4-.2-1-.4-1.7-.7l-4.4-1.6c-.8-.3-1.4-.5-1.8-.6-.4-.1-.6-.1-.8-.1-.4 0-.8.2-1.2.5l1.5-4.1c.1.4.3.7.5.9.2.2.5.4.8.6-.1-.2-.2-.5-.3-.9-.1-.4-.2-.8-.3-1.3-.1-.5-.1-1.2 0-1.9.1-.8.3-1.6.6-2.6l.2-.6c.6-1.7 1.4-3.1 2.5-4.2 1-1.1 2.2-1.9 3.6-2.4 1.3-.5 2.8-.7 4.3-.7 1.8 0 3.3.3 4.9.9z"/><path class="st0" d="M146.1 121.7c0 .5.1.9.4 1.3.1.1.3.3.5.6s.7.6 1.4 1.1l12.8 9c.5.3.8.6 1.2.7.3.2.6.3.9.4.2.1.4.2.6.2h.4c.1 0 .1 0 .2-.1h.2l-8.5 12.1-1.8-1.1h.5c.5 0 .9 0 1.2-.1.3-.1.6-.3.9-.5l.7-.7.6-.9 4.5-6.5-8.6-6-3.3 4.7c-.2.2-.3.4-.5.7-.2.3-.3.5-.5.8-.1.3-.3.5-.3.8-.1.3-.1.6-.1.9 0 .2 0 .4.1.5.1.2.1.3.2.5l-2.6-1.9c.6.1 1.2-.1 1.7-.4.5-.2.8-.5 1-.9.2-.3.5-.7.8-1.1l3.3-4.7-9.5-6.7-4.9 7c-.3.5-.6.9-.7 1.3-.1.4-.2.8-.2 1.2 0 .4 0 .8.1 1.2.1.4.2.9.4 1.3l-1.7-2.4 8.6-12.3zm6.9 29.2-13.9 12.2-1.7-1.8c.5.2.9.2 1.3.2s.8 0 1.2-.2c.4-.1.8-.3 1.1-.5.4-.2.7-.5 1.1-.8l3-2.7-12.6-14.3c-1.1-1.2-2-1.9-2.6-1.9h-.5l3.2-2.8c-.1.3-.1.5 0 .8 0 .6.6 1.5 1.5 2.6l12.6 14.3 2.7-2.3c.4-.3.7-.6 1-.9.3-.3.5-.6.7-1 .2-.3.3-.7.4-1.1.1-.4.1-.8 0-1.3v-.3l1.5 1.8zm-28.3 20c.1-.1.1-.2.1-.4.1-.1.1-.2.1-.3.1-.6-.1-1.6-.8-3.1l-6.9-13.9c-.4-.8-.7-1.3-.9-1.6-.2-.3-.4-.5-.5-.6-.3-.3-.7-.4-1.2-.5l3.9-2c-.1.2-.2.4-.2.7-.1.6.2 1.6.9 3.1l6.9 13.9c.4.8.7 1.3.9 1.6.2.3.4.5.5.6.3.3.7.5 1.2.5l-4 2zm-6.7 3-20.3-14.2 4.3 15.1c.2.8.5 1.5.7 1.9.2.5.5.8.8 1 .1 0 .2.1.2.1.1 0 .1.1.2.1l-2.3.7c.1-.1.2-.2.2-.4.1-.1.1-.2.2-.4.1-.3.1-.7.1-1.2-.1-.5-.2-1.1-.4-1.8l-5.3-18.6 21.4 14.9-4.6-16c-.5-1.6-.9-2.6-1.5-2.9-.1 0-.2-.1-.3-.1-.1 0-.2-.1-.3-.1l2.3-.7c-.1.1-.2.2-.2.3-.1.1-.1.2-.2.4-.2.5-.1 1.5.3 3l4.7 16.3.2.1c.9.6 1.6 1 2.1 1.2.2.1.5.2.8.2l-3.1 1.1zm-30.5 5.6-18.4-1.7.1-2.4c.2.4.4.8.7 1.1.3.3.6.6.9.8.3.2.7.4 1.1.5.4.1.8.2 1.3.2l4 .4 1.8-19c.2-1.6 0-2.7-.4-3.2-.1-.2-.2-.3-.4-.4l4.3.4c-.2.2-.4.3-.6.5-.4.4-.7 1.4-.8 2.9l-1.8 19 3.5.3c.5 0 .9.1 1.4.1.4 0 .8 0 1.2-.1.4-.1.7-.2 1.1-.5.3-.2.7-.5 1-.9l.1-.1.1-.1-.2 2.2zm-18.9-13.3c-1.3 3.4-3.6 5.7-6.7 6.9-1.4.5-2.7.8-4 .8-1.3 0-2.7-.3-4.1-.8-1.4-.5-2.6-1.3-3.6-2.3-1-1-1.9-2.2-2.5-3.7-1.2-2.9-1.2-5.9.1-9.1.6-1.6 1.5-3 2.5-4.2 1-1.1 2.3-2 3.7-2.7 1.4-.6 2.9-1 4.4-1 1.5 0 3 .2 4.3.7 1.4.5 2.6 1.3 3.7 2.3 1 1 1.8 2.2 2.4 3.6 1.1 3.1 1.1 6.2-.2 9.5zm-2.7-.9c.5-1.3.9-2.6 1.2-4 .3-1.4.3-2.7.2-4-.2-1.3-.6-2.5-1.3-3.5-.7-1.1-1.9-1.9-3.4-2.5-1.6-.6-3-.8-4.2-.6-1.3.2-2.4.7-3.4 1.4-1 .8-1.8 1.7-2.6 2.9-.7 1.2-1.4 2.4-1.9 3.7-1.6 4-1.9 7.3-1.1 9.9.3 1.1.8 2 1.6 2.7.7.7 1.7 1.2 2.8 1.7 1.5.6 2.9.8 4.2.6 1.2-.2 2.4-.7 3.4-1.5s1.8-1.8 2.6-3 1.4-2.5 1.9-3.8zm-26.6.5-3.4-2.7c.7 0 1.3-.2 1.8-.7.5-.4.9-.9 1.4-1.5l6.5-8.2c.7-.9 1.4-1.9 1.9-2.8.5-1 .9-1.9 1-2.9.1-1 0-1.9-.4-2.8-.4-.9-1.2-1.9-2.3-2.8-1.3-1.1-2.7-1.7-4.2-2-1-.2-1.8-.2-2.6 0s-1.5.5-2.1.9c-.6.4-1.2 1-1.8 1.6-.6.6-1.1 1.3-1.7 2l-6.1 7.7c-1 1.3-1.5 2.3-1.5 3 0 .1 0 .2.1.3 0 .1 0 .2.1.3l-2.1-1.7c.8 0 1.4-.2 1.9-.6.5-.4 1-.9 1.4-1.5l6.1-7.6c.5-.7 1.1-1.3 1.6-1.9.5-.6 1.1-1.1 1.7-1.5.6-.4 1.3-.7 2-1 .7-.2 1.6-.3 2.5-.2 1.6.1 3.2.8 5 2.3.7.6 1.3 1.1 1.9 1.8.6.6 1.1 1.3 1.4 2.1.3.7.5 1.5.6 2.3.1.8-.1 1.7-.4 2.6-.3 1-1.4 2.6-3.1 4.9l-5.9 7.4c-.5.7-.9 1.2-1.1 1.7-.2.5-.4.9-.3 1.4v.2c0-.2.1-.2.1-.1zm-9.5-22.5c-1.4 1-2.8 1.7-4.2 2.2-1.5.5-2.9.6-4.3.5-1.4-.1-2.8-.6-4.1-1.3-1.3-.8-2.5-1.9-3.5-3.3l-.4-.5c-.5-.7-.9-1.4-1.2-2-.2-.6-.4-1.2-.5-1.7-.1-.5-.2-.9-.2-1.3-.1-.4-.2-.7-.3-.9-.2-.3-.4-.5-.7-.6-.3-.1-.6-.2-.9-.2l3.3-2.8c-.3.7-.6 1.4-.7 2.2-.2.8-.3 1.5-.2 2.3 0 .8.1 1.5.4 2.2.2.7.5 1.4 1 2 1 1.4 2.2 2.4 3.4 3.1 1.2.6 2.5.9 3.8.9 1.3 0 2.6-.3 4-.8 1.3-.5 2.6-1.3 3.9-2.2 1.3-.9 2.4-1.9 3.3-3 .9-1.1 1.6-2.3 2-3.5.4-1.2.5-2.6.3-3.9-.2-1.4-.8-2.8-1.9-4.2-1-1.3-2.1-2.2-3.5-2.8-1.4-.5-3-.6-4.7-.3l3.7-2.3c-.2.7-.2 1.3.2 1.8.2.2.4.4.7.5.3.1.6.3 1.1.5.4.2.9.5 1.4 1 .5.4 1.1 1.1 1.8 2l.4.5c1.1 1.4 1.7 2.9 2.1 4.4.3 1.5.3 2.9 0 4.3s-.9 2.7-1.8 4c-1.2 1.1-2.3 2.3-3.7 3.2z"/><path class="st0" d="M5.1 125.4c.4.3.8.4 1.3.4.2 0 .4 0 .8-.1.3-.1.9-.3 1.7-.6l6.9-2.6-4.4-11.7-6.9 2.6c-.8.3-1.4.6-1.7.7-.3.2-.5.3-.7.5-.3.3-.5.7-.7 1.1l-1.4-4c.4.3.8.4 1.3.4.2 0 .4 0 .8-.1.3-.1.9-.2 1.7-.5l14.5-5.4c.8-.3 1.4-.6 1.8-.7.3-.2.5-.3.6-.5.3-.3.5-.6.6-1.2l1.5 4.1c-.1-.1-.2-.1-.3-.2-.1 0-.2-.1-.4-.1-.6-.2-1.7 0-3.1.6l-7.4 2.8 4.4 11.7 7.4-2.8c.8-.3 1.4-.6 1.8-.7.3-.2.5-.3.6-.4.3-.3.5-.7.6-1.2l1.5 4.1c-.2-.2-.4-.3-.6-.3-.6-.2-1.7 0-3.1.6l-14.5 5.4c-.8.3-1.4.6-1.7.7-.3.2-.5.3-.7.4-.3.3-.5.7-.6 1.2l-1.6-4.2zm4.7-32.2c-.6 0-1.1-.2-1.6-.5-.4-.4-.6-.9-.7-1.5 0-.6.2-1.1.5-1.6.4-.4.9-.7 1.5-.7s1.1.2 1.6.6c.4.4.6.9.7 1.5 0 .6-.2 1.1-.5 1.6-.3.3-.8.5-1.5.6zm-1.7-21c-1.6-.6-2.9-1.4-4.1-2.3-1.2-1-2.1-2.1-2.8-3.3C.5 65.3.1 64 0 62.5c-.1-1.5.2-3.1.8-4.8l.3-.7c.3-.9.7-1.6 1.1-2.1.4-.6.8-1 1.1-1.3.3-.4.6-.7.9-.9.3-.2.5-.5.6-.8.1-.3.2-.6.1-.9-.1-.3-.2-.6-.4-.9l4.2 1.2c-.8.1-1.5.3-2.3.6-.7.3-1.4.6-2 1.1-.6.4-1.2.9-1.6 1.5-.5.6-.9 1.2-1.1 1.9C1 58.1.7 59.6.9 61c.1 1.4.6 2.6 1.3 3.7.7 1.1 1.7 2 2.9 2.9 1.2.8 2.5 1.5 4 2s2.9.9 4.4 1.1c1.4.2 2.8.1 4.1-.3 1.3-.3 2.4-1 3.4-1.9 1-.9 1.8-2.2 2.5-3.9.4-1.1.6-2.2.5-3.2 0-1.1-.3-2.1-.8-3l-5.7-2.1c-.8-.3-1.4-.5-1.8-.6-.4-.1-.6-.1-.8-.1-.4 0-.8.2-1.1.4l1.5-4c0 .2.1.3.2.4.1.1.1.2.2.3.2.2.5.5.9.7.4.2 1 .5 1.6.7l4.4 1.6c.8.3 1.4.5 1.8.6.4.1.6.1.8.1.4 0 .9-.2 1.2-.5L24.9 60c-.1-.4-.3-.7-.5-.9-.2-.2-.5-.4-.8-.6.1.2.2.5.3.9.1.4.2.8.3 1.3.1.5.1 1.2 0 1.9-.1.8-.3 1.6-.6 2.6l-.4.8c-.6 1.7-1.5 3.1-2.5 4.1-1.1 1.1-2.3 1.8-3.6 2.4-1.3.5-2.8.7-4.3.7-1.6-.1-3.1-.4-4.7-1z"/><path class="st0" d="M26 57.7c0-.5-.1-.9-.4-1.3-.1-.1-.3-.3-.5-.6s-.7-.6-1.4-1.1l-12.8-9.1c-.5-.3-.8-.6-1.2-.8-.3-.2-.6-.3-.9-.4-.2-.1-.4-.2-.6-.2h-.4c-.1 0-.1 0-.2.1h-.2L16 32.2l1.8 1.1h-.5c-.5 0-.9 0-1.2.1-.3.1-.6.2-.9.5l-.7.7-.6.9L9.4 42l8.6 6.1 3.3-4.7c.2-.2.3-.4.5-.7.2-.3.3-.5.5-.8.1-.3.3-.5.3-.8.1-.3.1-.6.1-.9 0-.2 0-.4-.1-.5-.1-.2-.1-.3-.2-.5l2.6 1.9c-.6-.1-1.2 0-1.7.4-.5.2-.8.5-1 .9-.2.3-.5.7-.8 1.1l-3.3 4.7 9.4 6.7 4.9-6.9c.3-.5.6-.9.7-1.3.1-.4.2-.8.2-1.2 0-.4 0-.8-.1-1.2-.1-.4-.2-.9-.4-1.3l1.7 2.4L26 57.7zm-6.8-29.3 13.9-12.2 1.7 1.8c-.5-.2-.9-.3-1.3-.3s-.8 0-1.2.2c-.4.1-.8.3-1.1.5-.4.2-.7.5-1.1.8l-3 2.7 12.5 14.3c1.1 1.2 2 1.9 2.6 2h.5L39.5 41c.1-.3.1-.5 0-.8 0-.6-.5-1.5-1.5-2.6L25.5 23.3l-2.7 2.3c-.4.3-.7.6-1 .9-.3.3-.6.6-.7 1-.2.3-.3.7-.4 1.1-.1.4-.1.8 0 1.3v.3l-1.5-1.8zm28.5-20c-.1.1-.1.2-.1.4-.1.1-.1.2-.1.3-.2.6.1 1.6.8 3.1l6.8 14c.4.8.7 1.3.9 1.6.2.3.4.5.5.6.3.3.7.5 1.2.5l-3.9 1.9c.1-.2.2-.4.3-.7.1-.6-.2-1.6-.9-3.1l-6.8-14c-.4-.8-.7-1.3-.9-1.6-.2-.3-.4-.5-.5-.6-.3-.3-.7-.5-1.2-.5l3.9-1.9zm6.5-2.9 20.3 14.3-4.3-15c-.2-.8-.5-1.5-.7-1.9-.2-.5-.5-.8-.8-1-.1 0-.2-.1-.2-.1-.1 0-.1-.1-.2-.1l2.3-.7c-.1.1-.2.2-.2.4-.1.1-.1.2-.2.4-.1.3-.1.7-.1 1.2s.2 1.1.4 1.8l5.2 18.6-21.3-15 4.5 16c.4 1.6.9 2.6 1.4 2.9.1 0 .2.1.2.1.1 0 .2.1.3.1l-2.3.7c.1-.1.2-.2.2-.3.1-.1.1-.2.2-.4.2-.5.1-1.5-.3-3L54 8l-.2-.1c-.9-.6-1.6-1-2.1-1.2-.2-.1-.5-.2-.8-.2l3.3-1zM84.9 0l18.4 1.9-.2 2.4c-.2-.4-.4-.8-.7-1.1-.3-.3-.6-.6-.9-.8-.3-.2-.7-.4-1.1-.5-.4-.1-.8-.2-1.3-.2l-4-.4-1.9 18.9c-.2 1.6-.1 2.7.3 3.2.1.2.2.3.4.4l-4.3-.4c.2-.1.4-.3.6-.5.4-.4.7-1.4.8-2.9l1.9-18.9-3.5-.4c-.5 0-.9-.1-1.4-.1-.4 0-.8 0-1.2.1-.4.1-.7.2-1.1.4-.3.2-.7.5-1 .9l-.1.1-.1.1.4-2.2zm18.7 13.3c1.4-3.4 3.6-5.7 6.7-6.9 1.4-.5 2.7-.8 4-.8 1.3 0 2.7.3 4.1.8 1.4.6 2.6 1.3 3.6 2.3 1 1 1.8 2.2 2.4 3.7 1.2 2.9 1.1 5.9-.2 9.1-.7 1.6-1.5 3-2.5 4.1-1 1.1-2.3 2-3.7 2.7-1.4.6-2.9 1-4.4 1-1.5 0-2.9-.2-4.3-.8-1.4-.6-2.6-1.3-3.7-2.4-1-1-1.8-2.3-2.4-3.7-1.1-2.7-1-5.8.4-9.1zm2.6.9c-.5 1.3-.9 2.6-1.2 4-.3 1.4-.4 2.7-.2 4 .1 1.3.6 2.5 1.3 3.5.7 1.1 1.8 1.9 3.4 2.5 1.6.6 3 .8 4.2.6 1.3-.2 2.4-.7 3.4-1.4 1-.8 1.9-1.7 2.6-2.9.8-1.2 1.4-2.4 1.9-3.7 1.6-4 2-7.3 1.2-9.9-.3-1.1-.8-2-1.6-2.7-.7-.7-1.7-1.3-2.8-1.7-1.5-.6-2.9-.8-4.2-.6-1.3.2-2.4.7-3.4 1.5s-1.9 1.7-2.6 2.9c-.8 1.4-1.4 2.6-2 3.9zm26.8-.3 3.4 2.7c-.7 0-1.3.2-1.8.6-.5.4-.9.9-1.4 1.5l-6.6 8.2c-.7.9-1.4 1.9-1.9 2.8-.5.9-.9 1.9-1 2.9-.1 1 0 1.9.4 2.8.4.9 1.2 1.9 2.3 2.8 1.3 1.1 2.7 1.7 4.2 2 1 .2 1.8.2 2.6 0s1.5-.5 2.1-.9c.6-.4 1.2-.9 1.8-1.6.6-.6 1.1-1.3 1.7-2l6.1-7.6c1-1.3 1.5-2.3 1.5-3v-.3c0-.1 0-.2-.1-.3l2.1 1.7c-.8 0-1.4.2-1.9.6s-1 .9-1.4 1.5l-6.1 7.6c-.5.7-1.1 1.3-1.6 1.9-.5.6-1.1 1.1-1.7 1.5-.6.4-1.3.7-2 1-.7.2-1.6.3-2.5.2-1.6-.1-3.2-.9-5-2.3-.7-.6-1.3-1.2-1.9-1.8-.6-.6-1-1.3-1.4-2.1-.3-.7-.5-1.5-.6-2.3-.1-.8.1-1.7.4-2.6.3-1 1.4-2.6 3.1-4.8l5.9-7.3c.5-.7.9-1.2 1.1-1.7.2-.5.4-.9.3-1.4V14c0 .1 0 0-.1-.1zm9.3 22.4c1.4-1 2.8-1.7 4.2-2.1 1.5-.4 2.9-.6 4.3-.5 1.4.1 2.8.6 4.1 1.3 1.3.8 2.5 1.9 3.5 3.3l.4.5c.5.7.9 1.4 1.2 2 .2.6.4 1.2.5 1.7.1.5.2.9.2 1.3.1.4.2.7.3.9.2.3.4.5.7.6.3.1.6.2.9.2l-3.4 2.8c.3-.7.6-1.4.8-2.2.2-.8.3-1.5.2-2.3 0-.8-.1-1.5-.3-2.2-.2-.7-.5-1.4-1-2-1-1.4-2.2-2.4-3.4-3.1-1.2-.6-2.5-1-3.8-1-1.3 0-2.6.3-4 .8-1.3.5-2.6 1.3-3.9 2.2-1.3.9-2.4 1.9-3.3 3-.9 1.1-1.6 2.3-2 3.5-.4 1.2-.5 2.5-.3 3.9s.8 2.8 1.8 4.2c1 1.3 2.1 2.3 3.5 2.8s3 .6 4.7.3l-3.7 2.3c.2-.7.2-1.3-.2-1.8-.2-.2-.4-.4-.7-.6-.3-.1-.6-.3-1.1-.5-.4-.2-.8-.5-1.4-1-.5-.4-1.1-1.1-1.8-2l-.4-.5c-1-1.5-1.7-2.9-2-4.4-.3-1.5-.3-2.9 0-4.3s.9-2.7 1.8-4c1.1-1 2.2-2.1 3.6-3.1z"/><path class="st0" d="M167.1 54.8c-.4-.3-.8-.4-1.3-.4-.2 0-.4 0-.8.1-.3.1-.9.2-1.7.5l-7 2.5 4.3 11.7 7-2.5c.8-.3 1.4-.5 1.7-.7.3-.2.5-.3.7-.5.3-.3.5-.7.7-1.1l1.5 4.1c-.4-.3-.8-.4-1.3-.4-.2 0-.4 0-.8.1-.3.1-.9.2-1.7.5L153.7 74c-.8.3-1.4.6-1.8.7-.3.2-.5.3-.6.4-.3.3-.5.6-.6 1.1l-1.5-4.1c.1.1.2.1.3.2.1 0 .2.1.4.1.6.2 1.7 0 3.2-.5l7.4-2.7-4.3-11.7-7.4 2.7c-.8.3-1.4.6-1.8.7-.3.2-.5.3-.6.4-.3.3-.5.7-.6 1.2l-1.5-4.1c.2.2.4.3.6.3.6.2 1.7 0 3.2-.5l14.6-5.3c.8-.3 1.4-.5 1.7-.7.3-.2.5-.3.7-.4.3-.3.5-.7.7-1.2l1.3 4.2zm-7.2 33.9c.6 0 1.1.2 1.5.7.4.4.6 1 .5 1.6 0 .6-.2 1.1-.7 1.5-.4.4-.9.6-1.6.6-.6 0-1.1-.3-1.5-.7-.4-.4-.6-1-.6-1.6 0-.6.2-1.1.7-1.5.5-.4 1-.6 1.7-.6z"/></svg>