<svg width="542" height="509" fill="none" xmlns="http://www.w3.org/2000/svg"><path d="M541.82 400.642s-27.312-16.645-40.04-27.067c-4.987-4.08-10.815-7.565-16.853-9.538-11.11-2.34-20.607-9.32-29.152-16.667-8.563-7.422-17.658-14.153-26.808-20.923l-1.141-.844c-5.593-4.165-11.072-8.289-13.331-15.29-.437-1.376-.88-2.752-1.324-4.13-1.925-5.972-3.857-11.969-5.287-18.084-2.942-12.883-1.333-14.226 11.744-14.627 16.035-.514 29.56-6.213 36.394-22.04 5.036-11.568 7.578-23.623 5.013-36.311-.222-1.108-.441-2.216-.66-3.324-2.598-13.13-5.181-26.184-11.386-38.284-2.918-5.835-5.647-11.667-8.337-17.613-.634-1.443-.926-2.338-1.284-3.438-.163-.498-.339-1.038-.566-1.69-.248.072-.358.526-.468.979-.11.453-.22.907-.467.979 2.288 7.401 5.457 14.447 8.625 21.49 4.319 9.602 8.635 19.196 10.708 29.674 2.886 14.322 4.037 27.977-.955 41.971-4.795 13.428-13.882 21.685-27.82 24.196-3.321.595-6.737.554-10.141.513h-.002c-1.655-.02-3.308-.04-4.944.014-5.838.19-8.802 3.79-8.233 9.632 1.2 12.785 5.367 24.698 10.941 36.213 1.218 2.517 3.117 5.08 5.408 6.701 2.616 1.853 5.267 3.66 7.919 5.468 9.109 6.21 18.223 12.423 25.925 20.505 7.889 8.323 19.811 15.259 29.18 17.501 5.582 2.004 11.152 4.956 15.802 8.729 12.941 10.44 40.631 27.478 40.631 27.478l.909-2.173Zm-140.068-12.627c-.283.584-.572 1.166-.861 1.747-.868 1.744-1.736 3.487-2.413 5.297-4.079 10.823-7.253 21.96-7.707 33.662-.823 19.883-5.952 38.649-15.574 56.107-.491.869-.941 1.823-1.622 3.266-.233.493-.493 1.043-.79 1.667.594-.41 1.088-.741 1.509-1.023.879-.59 1.44-.967 1.932-1.396 7.391-6.562 16.194-10.49 25.014-14.425 1.472-.657 2.945-1.314 4.411-1.983 4.079-1.88 7.065-4.267 8.749-8.565 1.687-4.487 4.649-7.897 9.409-9.731 4.988-1.944 7.581-6.117 9.309-10.907 10.102-20.305 6.075-30.15.596-43.55l-.001-.002c-.576-1.408-1.168-2.855-1.761-4.357-1.688-4.266-3.26-8.681-1.045-13.048.893-1.656 3.075-3.371 4.822-3.652 8.731-.6 13.486-.837 14.537-.742 4.841-.499 9.715-.985 14.506-1.321l.105-.007.348-.025c3.96-.283 8.101-.579 11.007 3.35-5.223-.106-10.332-.205-15.367-.303-6.353-.123-12.59-.245-18.791-.374l-1.998.236c-6.566.825-8.608 3.413-7.48 10.021.387 2.354 1.228 4.676 2.186 6.848 6.88 15.965 9.868 25.249.142 47.935-1.579 4.905-4.665 9.223-9.58 11.32-4.783 2.127-7.105 5.866-9.685 10.019l-.031.049c-1.781 2.933-4.506 5.664-7.448 7.558-2.936 1.864-6.215 3.258-9.515 4.66l-.005.002c-.907.386-1.815.772-2.718 1.168-14.363 6.106-25.961 15.202-32.326 29.86-.123.239-.306.431-.483.616a4.224 4.224 0 0 0-.287.322 7.626 7.626 0 0 0-1.094-.317c.684-1.787 1.359-3.593 2.035-5.399l.005-.013.004-.013c.676-1.806 1.351-3.611 2.035-5.398 4.897-12.441 6.722-24.808 1.468-37.607-1.594-3.888-2.875-7.927-4.156-11.966-.815-2.57-1.63-5.141-2.526-7.672-5.225-15.072-5.638-30.12.39-45.086.9-2.224 2.252-4.29 3.716-6.128-.241.826-.48 1.656-.719 2.488-.745 2.591-1.494 5.199-2.33 7.741-3.507 10.451-4.135 21.015-1.127 31.701 1.849 6.541 4.002 12.934 6.345 19.33 4.393 11.992 8.218 23.977 4.451 37.001 6.146-9.469 11.087-19.485 13.083-30.334 1.163-6.446 1.919-12.953 2.675-19.461.756-6.508 1.512-13.015 2.675-19.461 1.271-6.792 3.441-13.387 5.61-19.978l.007-.021.016-.047c.6-1.823 1.2-3.646 1.78-5.473.374-1.199 1.282-2.27 2.178-3.324.429-.507.856-1.009 1.219-1.521.281.135.5.269.707.395a17.393 17.393 0 0 0 .358.211l.051.028.009.004a.398.398 0 0 0 .041.021Zm-313.19-78.438c-22.11 4.49-44.144 8.944-66.178 13.397l-.013-.059-.01-.052v-.003c-.059-.287-.105-.515-.27-.685 1.242-.719 2.52-1.4 3.8-2.082l.039-.02c2.798-1.49 5.6-2.982 8.035-4.869 14.965-11.668 28.884-24.524 40.823-39.527 8.513-10.804 18.184-20.38 31.141-26.087a433.29 433.29 0 0 1 2.485-1.1c4.465-1.965 8.958-3.942 12.924-6.735 8.048-5.637 15.993-11.436 23.939-17.235l.004-.002c7.945-5.799 15.891-11.599 23.939-17.235 12.312-8.595 25.908-13.953 41.081-15.274 22.418-1.91 44.416 14.173 47.581 39.184 1.003 7.516 2.157 14.957 6.277 21.717 1.742 3.016 3.132 3.943 6.591 3.116l1.935-.468.007-.002c8.615-2.088 17.185-4.166 26.375-3.448 7.007.542 14.085-.183 21.149-.906 1.216-.125 2.433-.25 3.648-.368 1.784-.204 3.968-2.108 4.861-3.764.465-.79-1.474-3.24-2.823-4.47-1.519-1.376-3.124-2.676-4.732-3.978l-.013-.011c-2.113-1.711-4.23-3.425-6.162-5.32-2.939-2.95-5.792-5.977-8.643-9.002l-.01-.009c-3.713-3.94-7.422-7.875-11.316-11.631-9.28-9.062-20.145-15.756-31.743-21.437-3.844-1.904-7.542-4.108-11.243-6.313-4.165-2.482-8.335-4.967-12.722-7.03-7.747-3.685-15.779-6.771-23.8-9.853l-.002-.001a1143.44 1143.44 0 0 1-6.693-2.587c-6.861-2.702-13.24-1.685-16.671 2.893-8.596 11.409-19.267 19.116-33.006 23.789-14.727 4.964-29.34 6.861-44.494 3.749-4.144-.899-8.303-1.913-12.446-2.923l-.002-.001-.074-.018c-2.14-.521-4.277-1.042-6.404-1.545-.06.17-.11.359-.159.547-.05.189-.1.378-.158.548 2.087.54 4.16 1.1 6.225 1.658l.014.004.004.001c3.568.965 7.113 1.923 10.675 2.76 22.213 5.249 43.041.249 62.462-10.187 6.716-3.627 12.479-9.805 17.368-15.843 4.12-5.1 8.642-6.065 13.732-4.105 13.046 4.979 26.014 10.185 38.633 16.031 4.821 2.267 9.418 4.992 14.013 7.716 3.303 1.959 6.605 3.916 9.989 5.703 11.367 5.981 21.269 13.8 30.132 22.97 7.33 7.558 14.812 15.043 22.294 22.528 1.133 1.188 2.399 2.229 3.871 3.439.762.627 1.58 1.3 2.462 2.061-.855.286-1.61.577-2.3.844-1.337.517-2.434.941-3.559 1.051-3.869.272-7.736.45-11.603.628s-7.735.355-11.603.628c-1.275.098-2.554.189-3.834.28-5.461.386-10.945.774-16.238 1.811-10.142 1.992-13.227.285-15.18-9.971a37.549 37.549 0 0 1-.352-2.088 36.099 36.099 0 0 0-.352-2.089c-.237-1.278-.46-2.562-.684-3.848-.716-4.105-1.435-8.235-2.595-12.26-5.73-20.004-23.048-31.67-41.632-33.31-11.582-.982-22.649 2.21-33.168 6.925-16.159 7.257-30.5 17.493-44.319 28.418-1.444 1.131-2.881 2.275-4.317 3.418-8.269 6.584-16.541 13.17-26.376 17.369-10.364 4.452-19.61 10.434-27.37 18.708-3.39 3.611-6.764 7.239-10.136 10.866l-.001.001-.006.007-.001.001c-7.746 8.332-15.489 16.661-23.431 24.767-10.52 10.74-22.305 19.644-37.506 23.049-2.291.548-4.407 1.714-6.795 3.028-1.215.67-2.502 1.378-3.917 2.063 1.086.105 1.921.224 2.634.325.775.11 1.406.2 2.057.228 2.246.154 4.49.316 6.731.478l.014.001c5.915.428 11.822.856 17.75 1.124 10.793.517 20.37 4.164 28.964 10.64a446.761 446.761 0 0 0 19.338 13.7c12.098 8.075 24.311 15.999 38.115 20.989 14.077 5.09 28.781 7.497 43.477 9.902l.012.003c4.239.693 8.478 1.387 12.701 2.145.707.115 1.438-.19 2.175-.496.326-.136.654-.272.981-.372l-.096-1.366c-2.182-.384-4.367-.773-6.554-1.163-5.959-1.063-11.933-2.128-17.908-3.091-17.282-2.647-34.323-6.352-49.518-15.186-13.952-8.213-27.322-17.554-40.502-26.893-9.349-6.675-19.374-10.858-30.848-11.422-3.038-.148-6.034-.509-9.465-.922h-.004l-.007-.001-.013-.002a473.2 473.2 0 0 0-4.285-.502 4497.2 4497.2 0 0 1 15.698-2.383l.004-.001.014-.002c7.536-1.135 14.81-2.231 22.06-3.382 18.11-2.836 33.743-7.486 35.03-10.273Z" fill="#5F9282"/><path fill-rule="evenodd" clip-rule="evenodd" d="M228.159 52.035c1.604 1.617 3.208 3.234 4.831 4.842.229-.11.421-.298.46-.411a3.486 3.486 0 0 1-.076-.458c-.035-.28-.067-.547-.212-.72l-1.194-1.36c-10.275-11.707-20.555-23.42-36.509-28.111-13.703-4.003-24.664-12.063-33.347-23.39-.264-.43-.636-.743-1.122-1.15-.333-.278-.72-.602-1.161-1.04.022.486.024.874.026 1.196v.005c.003.53.005.88.095 1.188 3.689 10.733 2.153 21.171-1.016 31.93-4.672 15.627-6.052 31.637-.99 47.54.14.538.153 1.136.176 2.18.013.58.029 1.297.071 2.219-.453-.398-.807-.732-1.102-1.01-.558-.526-.902-.85-1.297-1.029-12.626-5.277-25.817-7.834-39.323-6.567-6.084.561-12.085 1.968-18.085 3.374-2.53.592-5.06 1.185-7.594 1.715-9.84 2.033-18.5 6.507-26.125 13.116-10.23 8.811-21.604 15.258-35.301 16.711-.504.053-1.008.104-1.513.155h-.01c-2.725.275-5.46.551-8.118 1.123-1.481.267-2.948.834-4.653 1.494-.788.305-1.626.629-2.54.953.528.323.86.541 1.074.681l.004.003c.268.176.346.227.388.206a29.75 29.75 0 0 0 1.733-.145c.67-.068 1.327-.136 1.984-.148 7.808-.203 15.646.239 20.442 7.424 4.722 7.032 9.252 14.252 12.83 21.838 7.048 14.755 17.124 26.82 29.418 37.246.364.316.858.465 1.367.618.172.052.346.105.518.164-1.41-2.329-3.13-4.132-5.042-5.748-10.043-8.693-17.294-19.395-24.044-30.811-1.714-2.878-3.202-5.918-4.695-8.968-4.19-8.564-8.421-17.208-17.824-22.582 5.957.224 11.467 1.906 16.9 3.566 5.758 1.758 11.429 3.489 17.453 3.43a5320.844 5320.844 0 0 0-20.466-6.161c-3.475-1.042-7-2.098-10.599-3.18 11.164-1.827 20.209-6.864 28.218-13.847 9.158-7.915 19.679-12.82 31.354-16.118 18.444-5.258 36.683-6.274 54.984-.355 3.698 1.222 7.543 2.749 10.582 5.137 6.751 5.392 13.463 10.896 19.294 17.11 11.289 12.042 19.643 25.412 17.331 43.191-.59 4.615 1.785 8.548 5.999 10.838 2.709 1.513 5.649 2.725 8.554 3.672 7.02 2.345 14.105 4.604 21.174 6.859l.039.012c2.302.735 4.603 1.468 6.9 2.205a98.01 98.01 0 0 0 3.737 1.066c.675.183 1.355.368 2.039.561.136-.206.262-.432.388-.658.126-.226.252-.451.387-.658a204.717 204.717 0 0 0-2.184-2.008l-.001-.001c-1.029-.938-2.069-1.886-3.095-2.871-3.055-2.93-6.357-5.587-9.66-8.244-6.005-4.832-12.014-9.666-16.551-16.153-3.651-5.308-7.66-10.442-11.632-15.53l-1.556-1.994c-.709-.881-2.323-2.076-3.236-1.822-2.585.686-3.478-.576-4.514-2.521-5.808-11.025-13.795-20.525-23.705-27.776-8.333-6.132-10.12-14.49-11.561-23.3-2.092-12.818.721-25.042 3.572-37.427 1.456-6.325 2.922-12.693 3.748-19.202.227.355.447.681.655.989.508.75.941 1.39 1.201 2.066.894 2.382 1.817 4.75 2.74 7.117l.001.002.002.007.001.003.001.002.001.002v.001c2.097 5.381 4.19 10.75 5.934 16.243.479 1.533.992 3.074 1.506 4.619 2.062 6.195 4.148 12.463 4.219 18.681.148 18 6.006 33.99 13.686 49.662.498 1.03 1.285 1.967 2.059 2.891.316.376.629.75.921 1.126.172-.13.353-.242.535-.353.181-.111.363-.223.535-.353a573.748 573.748 0 0 0-2.536-5.152l-.003-.006v-.001c-1.695-3.415-3.384-6.818-4.955-10.321-5.121-11.358-8.456-23.109-8.03-35.645.071-2.576-.16-5.194-.926-7.553-3.785-12.098-7.571-24.196-11.774-36.185-1.107-3.089-2.645-6.058-4.182-9.024-.698-1.348-1.397-2.695-2.054-4.053 1.331-.362 1.897-.165 2.158.179 6.38 7.736 14.617 12.502 23.852 16.22 1.357.548 2.728 1.073 4.099 1.598h.002c6.667 2.552 13.358 5.112 18.632 10.365 1.809 1.795 3.66 3.517 5.504 5.232l.002.002.002.002.002.002.004.003.002.002.002.002.002.002.002.002c1.659 1.544 3.312 3.081 4.923 4.661 1.623 1.608 3.226 3.224 4.83 4.841l.028.028Zm-28.547 75.308c9.149 16.373 22.438 29.048 36.103 41.917a2335.27 2335.27 0 0 0-14.002-4.329c-4.67-1.434-9.341-2.867-14.002-4.329-7.132-2.289-9.58-6.375-9.825-13.881-.126-3.856-.665-7.717-1.202-11.568-.276-1.978-.552-3.954-.771-5.925-.065-.636.106-1.269.28-1.913.096-.354.192-.711.251-1.073.315.091.674.161 1.036.231.897.175 1.815.353 2.132.87Z" fill="#5F9282"/><path d="M416.255 108.223a25000.785 25000.785 0 0 1-42.194 40.002c-.131-.077-.253-.135-.376-.194a4.675 4.675 0 0 1-.376-.194c.647-.862 1.25-1.769 1.852-2.673 1.154-1.734 2.301-3.457 3.738-4.834 4.165-3.959 8.436-7.817 12.711-11.678l.019-.018c5.246-4.739 10.499-9.485 15.569-14.426 4.413-4.301 8.078-9.37 11.666-14.401 2.982-4.178 5.806-8.46 8.632-12.744a667.272 667.272 0 0 1 5.274-7.918c.888-1.277 2.266-2.32 4.094-3.016a5.362 5.362 0 0 0-.157.575c-.085.364-.166.712-.394 1.009-6.548 8.252-9.208 17.729-10.402 28.096-.939 8.172 1.016 15.321 4.83 22.228 1.629 2.976 2.953 6.101 4.277 9.225.514 1.257.571 2.735.173 4.246-1.256-2.719-2.685-5.389-4.114-8.059-5.281-9.87-10.564-19.745-7.155-32.137-29.107 47.786-39.275 98.923-29.069 154.034-4.62-12.071-5.517-24.814-5.241-37.466.202-12.805.823-25.718 2.804-38.348a228.648 228.648 0 0 1 9.074-36.865c2.9-8.34 6.602-16.431 10.189-24.273l.001-.002.001-.002c1.573-3.437 3.123-6.826 4.574-10.167Zm-9.489 205.445c.331.096.717.208 1.163.388a1609.892 1609.892 0 0 1-3.287-11.359v-.001l-.001-.004-.002-.004v-.002l-.001-.003c-2.694-9.398-5.319-18.554-8.373-27.502-1.097-3.045-4.768-6.351-7.976-7.34-12.38-3.796-17.528-13.07-20.452-24.361-.803-3.098-1.393-6.259-1.983-9.417-.684-3.662-1.367-7.32-2.379-10.873-5.371-18.484-4.382-36.47 2.705-54.302.384-.954.565-1.937.752-2.946l.044-.239.084-.441c-1.331.362-1.83.886-2.027 1.452-4.173 12.185-8.272 24.523-6.28 37.583 2.199 14.655 4.664 29.275 8.307 43.606 2.486 9.998 8.559 18.071 19.317 21.24 5.587 1.625 8.452 5.792 9.823 11.153.234.871.477 1.762.721 2.652l.002.009c.245.894.489 1.787.724 2.662.793 3.097 1.615 6.203 2.437 9.31l.002.009c.822 3.107 1.644 6.214 2.437 9.31a4.334 4.334 0 0 1-.494.337 6.572 6.572 0 0 0-.5.333c-2.564-2.431-5.215-4.784-7.864-7.135-5.975-5.303-11.94-10.598-16.875-16.751-12.681-15.925-27.643-29.461-42.605-42.999-9.677-8.755-19.354-17.511-28.416-26.913-.643-.66-1.449-1.196-2.402-1.831a54.643 54.643 0 0 1-1.389-.946c.007.402.003.716 0 .961v.004c-.006.491-.009.702.091.779 2.571 2.582 5.096 5.234 7.624 7.89 6.118 6.427 12.258 12.878 19.131 18.409 15.51 12.486 28.752 26.985 42.077 41.576l2.558 2.799c7.07 7.758 14.561 15.087 22.068 22.432l.002.002c3.363 3.291 6.73 6.584 10.063 9.921.254.285.64.397 1.174.552Zm-20.967-6.037c-1.376-.961-2.742-1.916-3.625-3.227-5.729-8.334-13.262-14.759-21.062-21.149-5.287-4.311-9.841-9.637-14.206-14.96-5.522-6.739-12.646-9.597-21.053-10.046-2.754-.152-5.504-.363-8.251-.573-5.257-.402-10.503-.803-15.754-.796-7.035.003-14.025.492-21.047.984-1.526.107-3.054.214-4.584.316-.898.041-1.746.469-2.474.837l-.005.003a9.501 9.501 0 0 1-.872.406c2.125 2.806 4.277 5.552 6.415 8.28l.002.003.004.004.003.004.002.003.002.003.004.004.006.009.002.003c4.675 5.965 9.279 11.841 13.38 18.048 6.245 9.402 6.938 20.361 7.026 31.237a7.042 7.042 0 0 1-.722.161c-.238.045-.475.089-.722.162a16.322 16.322 0 0 0-.356-1.188c-.259-.795-.518-1.59-.508-2.348.021-19.4-8.879-34.481-22.697-47.276-1.555-1.463-2.779-3.267-4.015-5.089-.55-.81-1.101-1.623-1.686-2.411.869-.364 1.735-.803 2.601-1.242 2.023-1.025 4.05-2.053 6.12-2.132 8.721-.457 17.358-.308 26.108-.12 2.712.035 5.421.197 8.126.358 3.909.233 7.807.465 11.683.313 10.576-.318 18.513 4.217 25.618 11.507 3.727 3.762 7.638 7.354 11.543 10.94l.01.009.002.003c3.422 3.142 6.839 6.28 10.122 9.523 4.853 4.803 9.481 9.826 14.124 14.867a1498.5 1498.5 0 0 0 4.231 4.579 7.738 7.738 0 0 0-1.422 1.536c-.651-.55-1.363-1.048-2.073-1.545Zm1.32 54.242c-5.545.99-10.199 3.431-13.374 8.733.204.022.37.043.504.061.387.05.498.064.443-.049.418-.109.8-.293 1.144-.554 8.894-8.07 18.816-7.602 29.181-3.301 1.184.503 2.362 1.023 3.54 1.544 2.945 1.302 5.891 2.605 8.936 3.618 11.032 3.733 21.963 1.895 32.839.066 2.551-.429 5.098-.858 7.643-1.214 4.251-.551 5.038-5.732 1.172-8.662-12.048-8.945-24.209-17.93-36.759-26.162-1.946-1.277-3.927-2.507-5.909-3.738l-.001-.001-.002-.001c-7.434-4.617-14.876-9.239-20.468-16.34-.771-.944-1.645-1.756-2.519-2.567a51.852 51.852 0 0 1-1.297-1.233 4.819 4.819 0 0 0-.384.374c-.125.131-.25.262-.384.374.255.386.471.792.682 1.19.374.706.737 1.389 1.287 1.904a264.178 264.178 0 0 1 4.307 4.031c3.678 3.493 7.343 6.975 11.429 9.812 3.573 2.473 7.311 4.698 11.047 6.923 7.813 4.651 15.619 9.298 21.887 16.197.583.597 1.373 1.021 2.158 1.442.476.255.95.51 1.375.801.943.663 1.897 1.321 2.852 1.98 2.658 1.834 5.328 3.676 7.811 5.659.903.727 1.546 1.739 2.367 3.032.44.694.932 1.468 1.543 2.323a755.61 755.61 0 0 0-6.362 1.058l-.011.001-.081.014-.005.001-.025.004-.007.002c-4.261.721-8.15 1.379-12.037 1.865-3.796.52-7.629.963-11.339.688-8.367-.562-16.254-3.05-23.861-6.71-6.101-2.882-12.562-4.367-19.322-3.165ZM242.652 260.591c-.718.069-1.44.132-2.163.194-1.723.15-3.46.3-5.197.545-31.048 4.11-60.711 12.445-87.708 28.619-10.385 6.156-20.913 11.629-32.291 15.348-.312.106-.625.22-.941.336-2.308.843-4.78 1.746-8.154-.263 1.454-.481 2.791-.938 4.055-1.369l.003-.001c2.471-.844 4.662-1.593 6.902-2.241 8.391-2.454 15.864-6.705 23.354-10.964 3.034-1.726 6.072-3.454 9.173-5.063 20.026-10.353 40.307-19.982 63.188-22.492 4.725-.511 9.424-1.383 14.131-2.255l.003-.001c2.777-.515 5.557-1.03 8.346-1.472 1.633-.268 3.334-.207 5.008-.148.739.027 1.473.053 2.192.051.109.418.104.797.099 1.176Zm-37.188 126.985c-.442.207-.883.413-1.318.556.122.252.21.492.288.708.057.155.109.297.166.422l.012.027.011.024c22.19 1.118 42.83-3.883 62.327-14.356 13.354-7.218 21.796-18.363 26.374-32.627.186-.677.281-1.424.373-2.151v-.005l.002-.012c.025-.2.05-.398.077-.593-1.22.591-1.682 1.191-1.958 1.983-3.191 9.546-8.297 17.665-16.149 24.195-7.736 6.38-16.318 10.817-25.681 14.031-13.702 4.75-27.569 7.604-42.15 7.038-.779.014-1.579.388-2.374.76ZM241.246 69.07c.759 2.29 1.644 4.56 2.53 6.83 3.41 8.741 6.822 17.489 3.054 27.457-1.136 2.904-2.953 5.76-5.103 7.93-4.224 4.303-8.634 8.415-13.453 11.877-6.385 4.503-13.613 3.766-20.784 1.59-.636-.221-1.298-.37-2.355-.606l-.856-.193c2.799 8.174 8.416 13.467 13.865 18.6l.008.009.92.867c3.837 3.611 7.903 6.95 12.047 10.353 2.204 1.81 4.431 3.64 6.657 5.536a11.892 11.892 0 0 0-.568-.02c-.416-.008-.757-.015-1.021-.152-13.958-7.833-24.882-18.734-32.813-32.591-.433-.769-.448-1.74-.463-2.712-.007-.523-.015-1.047-.089-1.538.509.045 1.027.042 1.54.038.977-.007 1.935-.014 2.775.32 9.531 4.328 20.161 2.76 28.775-7.057.381-.439.763-.876 1.146-1.313 5.563-6.354 11.043-12.613 9.495-21.816-.734-4.415-2.059-8.754-3.377-13.072-.45-1.474-.899-2.946-1.324-4.418-.383-1.378-.917-2.736-1.455-4.105-.175-.445-.351-.89-.522-1.34l.185-.053c.417-.12.786-.228 1.186-.421Zm-63.752 85.68c2.427.901 4.855 1.801 7.257 2.753.194-.376.312-.716.469-1.169-2.899-1.244-5.795-2.499-8.692-3.754-29.741-12.885-59.491-25.774-92.721-27.444.635.728 1.35 1.041 2.145 1.127 27.652 3.651 53.917 12.021 79.193 23.6 4.022 1.798 8.185 3.343 12.349 4.887Zm10.242 234.401c2.872.335 5.798.676 8.979-.622-5.607-3.028-12.505-2.889-13.759.353 1.6-.101 3.182.083 4.78.269Zm184.411-238.485c-.568 3.383-1.661 5.742-2.734 8.057-.598 1.289-1.189 2.564-1.68 3.995-.791-2.673 1.436-8.696 4.414-12.052Zm-110.048-16.393c-.425-2.104-.852-4.214-2.024-6.078.26 3.715 1.404 8.734 3.274 10.652-.619-1.453-.934-3.012-1.25-4.574ZM104.014 307.275c-1.018.244-2.011.638-3.006 1.033-2.384.947-4.773 1.896-7.513.765-.055-.209-.099-.447-.143-.684a23.56 23.56 0 0 0-.085-.437l-.01-.047-.01-.042a4.97 4.97 0 0 0-.038-.158c1.73-.414 3.468-.808 5.207-1.203h.003c1.737-.395 3.475-.789 5.203-1.202.143.684.286 1.368.392 1.975Zm263.378 72.759a564.065 564.065 0 0 1-2.036 3.574c1.364.745 3.304-1.558 4.031-2.932.74-1.396 1.47-2.811 2.2-4.226-1.103-.499-2.653.867-3.252 1.92l-.943 1.664Zm69.268-237.533c.268 1.053.586 2.19.905 3.327.181.648.363 1.296.535 1.929.211.775-.008 1.982-.756 2.276v-.002a338.59 338.59 0 0 1-1.313-4.394c-.283-.981-.347-2.834.629-3.136Z" fill="#5F9282"/><path d="M282.865 167.217v-.003l-.001-.004a390.766 390.766 0 0 0-.707-6.493c13.793 10.516 28.187 7.776 36.637-6.084 6.951-11.351 5.765-23.272 2.585-35.449a68.705 68.705 0 0 1-2.186-16.886c.003-3.166.405-6.34.806-9.51.505-3.983 1.008-7.957.717-11.896-.848-11.803 2.029-22.872 4.981-33.977l.837-4.07c-8.177 9.784-18.344 15.457-29.77 19.108-7.794 2.458-13.278 7.367-16.376 14.691-4.185 10.106-10.166 19.014-16.485 27.803-3.697 5.222-6.073 15.101-4.565 22.223.102.48.578-.75.578-.75-.813-6.666 1.704-16.328 6.254-22.007 6.768-8.443 12.039-17.852 16.373-27.842 2.672-6.272 7.764-9.865 14.089-12.457 4.496-1.8 8.829-4.023 13.151-6.24l.002-.001c2.157-1.107 4.311-2.212 6.482-3.263.606-.294 1.325-.547 2.044-.802.13.172.27.316.41.46.14.143.28.287.41.459-.554.703-1.106 1.406-1.657 2.108-3.372 4.294-6.72 8.556-10.235 12.761-14.025 16.841-23.251 36.057-28.014 57.34-.823 3.487-.783 7.191-.744 10.904v.002c.02 1.821.039 3.645-.043 5.446 2.929-35.897 21.527-63.782 42.997-89.02a942.55 942.55 0 0 1-.83 9.683c-.446 5.004-.908 10.185-1.261 15.381-.136 1.988-.122 3.983-.107 5.967v.001c.024 3.254.048 6.48-.596 9.592-2.07 9.833-.704 19.036 2.054 28.599 3.737 12.941 2.579 25.433-7.151 35.874-8.854 9.547-21.481 9.364-30.118-.359-.223-.25-.492-.423-.859-.659a14.698 14.698 0 0 1-1.16-.806c-.924 15.103 1.295 28.966 7.747 41.908 1.124 2.323 3.277 4.104 5.442 5.895 1.028.85 2.058 1.703 2.982 2.617.247-.167.485-.352.723-.538.237-.185.475-.371.722-.537-13.16-10.129-14.62-24.271-16.158-39.169Z" fill="#5F9282"/><path d="m276.665 186.959.001-.078c.17-10.359.338-20.532.244-30.672.016-1.242-1.214-2.635-2.221-3.776l-.157-.178c-.813-.844-1.698-1.573-2.629-2.34-2.49-2.05-5.314-4.376-8-9.924 4.007 5.547 7.968 8.124 11.466 10.4l.476.309.237.155c2.334 1.562 2.909 3.326 2.985 6.167.046 6.735.315 13.454.585 20.168v.008c.112 2.783.224 5.565.319 8.346.046 1.184-.105 2.34-.253 3.472-.035.263-.069.524-.1.784-.481-.124-.991-.189-1.497-.253-.944-.12-1.878-.239-2.601-.734-8.491-5.979-16.982-12.076-25.453-18.16l-.002-.001-.003-.003-6.608-4.743c-.851-.608-1.363-1.474-1.608-2.748a5635.094 5635.094 0 0 0 34.819 23.801ZM73.731 124.102c-1.59-.066-3.25-.135-5.047-.207 1.915 3.206 7.547 3.627 11.445.466-2.104-.081-4.18-.167-6.397-.259h-.001Zm11.345 61.289c1.412.828 2.718 1.596 3.966 2.33 1.74 1.023 3.37 1.981 5.026 2.948-4.45.468-8.794-2.26-8.992-5.278ZM238.401 65.368c.241.779.491 1.583.913 2.342 1.363-2.7-.991-7.257-5.061-9.115.45.806 1.037 1.54 1.631 2.283.614.768 1.236 1.546 1.722 2.424.348.628.568 1.336.795 2.066Zm54.811 268.739c.498-1.972.962-3.796 1.406-5.54.618-2.433 1.198-4.711 1.777-7.022 2.592 5.053.812 11.19-3.183 12.562Zm223.579 66.634-.031-.017-.15-.082c-12.244-6.687-24.725-13.504-36.554-20.094-.735-.402-.896-.808-1.153-1.454-.098-.245-.21-.526-.372-.853 13.184 8.101 26.733 14.56 40.352 21.051l.002.001c7.668 3.655 15.383 7.759 22.026 11.524l-.698 2.766c-7.818-4.262-15.608-8.574-23.422-12.842Z" fill="#5F9282"/></svg>