<svg width="569" height="456" fill="none" xmlns="http://www.w3.org/2000/svg"><path d="m2.436 379.228-2.199-1.225c12.938-3.593 23.097-6.404 23.673-6.501 32.162-8.527 61.335-22.11 87.97-42.426 4.655-3.547 10.055-6.528 15.597-8.129 10.158-1.776 18.997-7.814 26.984-14.215 8.005-6.469 16.473-12.293 24.99-18.152l1.063-.731c5.206-3.604 10.309-7.177 12.58-13.461.439-1.235.885-2.47 1.331-3.707 1.934-5.361 3.876-10.743 5.366-16.249 3.074-11.602 1.656-12.872-10.202-13.645-14.539-.97-26.637-6.567-32.344-21.148-4.209-10.658-6.139-21.68-3.413-33.117.236-.999.47-1.998.704-2.996 2.77-11.838 5.524-23.606 11.535-34.395 2.832-5.205 5.492-10.413 8.12-15.726.621-1.29.913-2.093 1.274-3.081.162-.447.339-.931.566-1.516.222.073.308.488.394.903.085.415.171.83.393.904-2.309 6.646-5.406 12.943-8.503 19.236-4.221 8.58-8.439 17.154-10.65 26.6-3.068 12.91-4.541 25.269-.448 38.128 3.931 12.339 11.92 20.119 24.494 22.836 2.996.644 6.098.713 9.189.783h.002c1.503.034 3.003.068 4.487.167 5.293.356 7.871 3.716 7.171 9.002-1.49 11.567-5.646 22.251-11.066 32.528-1.185 2.246-2.989 4.513-5.119 5.913a481.157 481.157 0 0 1-7.36 4.715c-8.463 5.352-16.93 10.706-24.176 17.8-7.421 7.308-18.461 13.23-27.035 14.972-5.13 1.644-10.278 4.148-14.617 7.427-17.146 12.88-35.131 23.229-54.728 31.685-5.008 2.165-23.532 7.485-43.718 13.282l-.002.001-.007.001a11874.94 11874.94 0 0 0-12.296 3.537Zm199.789-33.908c.238.539.482 1.075.727 1.612.733 1.61 1.466 3.22 2.023 4.884 3.364 9.952 5.896 20.161 5.941 30.798.124 18.073 4.192 35.268 12.378 51.417.418.804.797 1.684 1.37 3.015.196.455.415.963.665 1.538-.526-.39-.964-.707-1.337-.976-.78-.563-1.277-.922-1.711-1.327-6.503-6.188-14.371-10.03-22.253-13.878-1.316-.643-2.632-1.285-3.942-1.939-3.643-1.834-6.279-4.094-7.673-8.048-1.391-4.127-3.972-7.315-8.235-9.128-4.468-1.922-6.69-5.79-8.109-10.193-8.533-18.748-4.569-27.558.825-39.55v-.001c.567-1.26 1.15-2.555 1.735-3.901 1.666-3.819 3.232-7.777 1.358-11.811-.759-1.531-2.685-3.156-4.262-3.465-7.907-.819-12.215-1.183-13.173-1.129-4.379-.605-8.787-1.2-13.126-1.654l-.095-.01-.315-.034c-3.585-.381-7.335-.779-10.096 2.696 4.744.068 9.384.138 13.958.207 5.771.087 11.436.172 17.069.249.571.088 1.173.181 1.807.277 5.934.955 7.706 3.368 6.475 9.331-.425 2.124-1.262 4.206-2.199 6.148-6.746 14.275-9.749 22.609-1.632 43.506 1.279 4.502 3.946 8.519 8.342 10.576 4.274 2.081 6.265 5.547 8.477 9.398l.026.046c1.524 2.717 3.913 5.282 6.524 7.094 2.606 1.784 5.539 3.151 8.49 4.528h.001l.005.002c.81.378 1.622.757 2.43 1.145 12.846 5.993 23.089 14.613 28.406 28.118.105.221.265.401.419.574.09.101.177.199.251.301.312-.096.623-.193 1.003-.253-.565-1.644-1.121-3.304-1.678-4.964l-.004-.012-.004-.012c-.556-1.66-1.112-3.321-1.677-4.964-4.055-11.446-5.325-22.73-.154-34.183 1.569-3.478 2.858-7.105 4.147-10.731.821-2.307 1.641-4.615 2.534-6.885 5.215-13.517 6.062-27.164 1.06-40.937-.747-2.047-1.91-3.965-3.181-5.68.192.757.383 1.519.574 2.281.595 2.376 1.194 4.767 1.873 7.1 2.855 9.597 3.094 19.205.029 28.811-1.883 5.879-4.038 11.615-6.366 17.347-4.363 10.748-8.211 21.507-5.2 33.448-5.282-8.789-9.453-18.035-10.924-27.946-.854-5.887-1.336-11.818-1.818-17.749-.483-5.93-.965-11.861-1.818-17.748-.941-6.205-2.705-12.26-4.467-18.311l-.006-.019-.012-.043a502.517 502.517 0 0 1-1.445-5.024c-.301-1.1-1.092-2.1-1.872-3.086-.374-.473-.746-.942-1.059-1.418-.26.113-.463.228-.655.336-.066.038-.132.074-.198.11a5.575 5.575 0 0 1-.133.07l-.047.024-.009.004-.037.018Zm286.746-61.382c19.93 4.769 39.791 9.502 59.652 14.236l.013-.054.011-.047.001-.002c.062-.259.11-.465.266-.614a110.48 110.48 0 0 0-3.385-2.009l-.034-.02c-2.493-1.44-4.99-2.882-7.14-4.671-13.219-11.06-25.451-23.166-35.818-37.159-7.388-10.074-15.867-19.069-27.449-24.656-.737-.361-1.479-.719-2.222-1.076-3.99-1.924-8.007-3.86-11.519-6.519-7.129-5.369-14.159-10.882-21.19-16.395l-.003-.002c-7.031-5.513-14.062-11.026-21.19-16.395-10.906-8.188-23.079-13.477-36.811-15.152-20.29-2.436-40.762 11.473-44.419 34.077-1.145 6.79-2.427 13.509-6.378 19.515-1.676 2.683-2.967 3.481-6.08 2.622a884.99 884.99 0 0 1-1.742-.485l-.006-.002c-7.756-2.166-15.47-4.32-23.834-3.957-6.377.273-12.78-.607-19.168-1.485a543.833 543.833 0 0 0-3.301-.448c-1.612-.242-3.535-2.039-4.294-3.57-.397-.731 1.44-2.894 2.702-3.968 1.423-1.203 2.921-2.332 4.421-3.463l.011-.01c1.972-1.487 3.948-2.977 5.761-4.636 2.76-2.585 5.445-5.243 8.128-7.9l.009-.008c3.493-3.46 6.984-6.916 10.636-10.203 8.708-7.934 18.78-13.671 29.486-18.464 3.549-1.607 6.975-3.492 10.404-5.378 3.858-2.122 7.721-4.247 11.768-5.982 7.147-3.102 14.535-5.652 21.913-8.198h.002c2.054-.709 4.108-1.418 6.155-2.139 6.313-2.238 12.072-1.115 15.042 3.149 7.446 10.625 16.89 17.955 29.215 22.628 13.213 4.968 26.417 7.148 40.271 4.798 3.789-.687 7.596-1.476 11.389-2.263l.002-.001.067-.014c1.959-.406 3.915-.812 5.862-1.202.048.156.087.329.127.502.039.173.078.346.126.502-1.912.425-3.811.869-5.702 1.31l-.013.003-.004.001c-3.269.764-6.517 1.523-9.777 2.171-20.327 4.068-39.077-1.123-56.378-11.205-5.982-3.503-11.02-9.292-15.269-14.925-3.58-4.759-7.654-5.777-12.336-4.158-11.998 4.112-23.932 8.431-35.57 13.341-4.447 1.907-8.705 4.236-12.962 6.565-3.06 1.674-6.118 3.348-9.246 4.863-10.505 5.073-19.739 11.86-28.071 19.906-6.891 6.631-13.917 13.191-20.943 19.75-1.066 1.043-2.248 1.949-3.621 3.001a119.98 119.98 0 0 0-2.3 1.793c.767.287 1.443.575 2.061.839 1.197.51 2.18.93 3.198 1.065 3.503.369 7.008.651 10.513.934 3.504.282 7.009.565 10.512.933 1.154.13 2.312.252 3.471.375 4.945.522 9.911 1.046 14.683 2.153 9.144 2.126 11.998.673 14.091-8.575.151-.616.268-1.25.385-1.884.117-.634.235-1.269.386-1.885.255-1.153.498-2.311.742-3.472.778-3.704 1.56-7.43 2.739-11.047 5.829-17.979 21.914-28.025 38.834-28.931 10.544-.529 20.491 2.716 29.891 7.325 14.44 7.095 27.136 16.836 39.338 27.185a645.45 645.45 0 0 1 3.811 3.238c7.3 6.236 14.602 12.473 23.398 16.593 9.268 4.366 17.473 10.086 24.258 17.84 2.964 3.384 5.912 6.783 8.86 10.181v.001l.006.006.001.001c6.769 7.806 13.537 15.609 20.492 23.216 9.213 10.079 19.631 18.531 33.322 22.098 2.063.569 3.947 1.694 6.073 2.962h.001c1.082.646 2.227 1.329 3.49 1.995-.989.061-1.751.143-2.401.213h-.001c-.707.075-1.281.137-1.873.142-2.044.069-4.085.146-6.125.223l-.013.001c-5.383.203-10.757.405-16.147.463-9.813.131-18.621 3.142-26.625 8.751a405.866 405.866 0 0 1-17.983 11.829c-11.234 6.95-22.569 13.76-35.255 17.857-12.938 4.179-26.36 5.903-39.775 7.626l-.012.001c-3.87.497-7.739.994-11.596 1.55-.645.081-1.299-.218-1.958-.519-.292-.133-.585-.267-.879-.369l.13-1.236c1.993-.28 3.988-.565 5.985-.851 5.442-.777 10.898-1.557 16.352-2.244 15.771-1.861 31.356-4.69 45.425-12.233 12.922-7.016 25.351-15.077 37.607-23.141 8.696-5.766 17.927-9.248 28.36-9.401 2.762-.038 5.493-.272 8.62-.54h.004l.007-.001.011-.001c1.232-.105 2.525-.216 3.906-.321-4.876-.924-9.58-1.8-14.176-2.656h-.003l-.013-.003c-6.805-1.266-13.374-2.489-19.917-3.761-16.351-3.142-30.395-7.853-31.476-10.423Z" fill="#D399A9"/><path fill-rule="evenodd" clip-rule="evenodd" d="M370.331 45.786a735.047 735.047 0 0 1-4.537 4.244c-.204-.108-.373-.284-.405-.388.04-.133.062-.274.084-.413.04-.253.078-.494.215-.647l1.126-1.197c9.694-10.304 19.392-20.614 34.021-24.373 12.564-3.204 22.766-10.176 31.003-20.186.253-.382.601-.654 1.054-1.008.311-.242.673-.524 1.087-.907-.035.44-.049.792-.061 1.084v.003c-.019.482-.032.8-.124 1.077-3.685 9.627-2.618 19.15-.078 29.015 3.751 14.331 4.502 28.907-.593 43.185-.143.483-.174 1.026-.227 1.972-.03.526-.067 1.177-.134 2.013.423-.348.755-.64 1.031-.883.524-.46.846-.743 1.21-.893 11.626-4.395 23.68-6.302 35.9-4.729 5.505.7 10.908 2.165 16.311 3.63 2.277.617 4.555 1.234 6.839 1.794 8.869 2.155 16.588 6.487 23.303 12.725 9.009 8.319 19.132 14.527 31.52 16.276.455.064.911.126 1.368.188l.008.001c2.466.335 4.94.671 7.335 1.274 1.336.288 2.65.849 4.177 1.501.705.302 1.456.623 2.275.945-.489.276-.798.464-.996.584l-.004.003c-.249.151-.321.195-.359.175a27.239 27.239 0 0 1-1.568-.186c-.606-.083-1.201-.165-1.797-.197-7.081-.429-14.209-.274-18.788 6.098-4.506 6.236-8.845 12.647-12.33 19.421-6.86 13.172-16.385 23.808-27.871 32.887-.341.275-.793.395-1.26.518-.158.042-.318.084-.476.133 1.353-2.071 2.971-3.653 4.757-5.06 9.389-7.576 16.307-17.063 22.791-27.214 1.647-2.559 3.092-5.271 4.543-7.993 4.073-7.642 8.184-15.357 16.888-19.939-5.415.016-10.47 1.37-15.453 2.706-5.281 1.416-10.483 2.81-15.95 2.567 6.208-1.655 12.4-3.279 18.771-4.951 3.187-.837 6.419-1.685 9.72-2.554-10.076-2.008-18.128-6.864-25.179-13.454-8.065-7.472-17.461-12.254-27.955-15.614-16.578-5.35-33.102-6.844-49.9-2.046-3.395.994-6.933 2.26-9.766 4.332-6.297 4.682-12.563 9.469-18.051 14.926-10.624 10.577-18.626 22.451-17.084 38.662.39 4.208-1.889 7.704-5.786 9.65-2.506 1.288-5.213 2.296-7.88 3.065-6.445 1.908-12.947 3.737-19.434 5.562l-.036.01c-2.113.594-4.225 1.188-6.333 1.785a91.106 91.106 0 0 1-3.425.85c-.619.146-1.242.292-1.869.446a10.025 10.025 0 0 1-.331-.61 10.302 10.302 0 0 0-.331-.609 181.31 181.31 0 0 1 2.045-1.754l.001-.001.001-.001c.964-.819 1.937-1.646 2.899-2.508 2.865-2.564 5.945-4.872 9.027-7.181 5.602-4.197 11.208-8.397 15.53-14.144 3.48-4.703 7.28-9.238 11.045-13.731.493-.588.985-1.175 1.475-1.762.671-.777 2.174-1.811 2.994-1.552 2.326.704 3.176-.413 4.177-2.147 5.617-9.826 13.165-18.198 22.388-24.47 7.756-5.304 9.641-12.836 11.224-20.787 2.302-11.57.131-22.754-2.069-34.085-1.123-5.788-2.254-11.613-2.8-17.548a41.75 41.75 0 0 1-.625.877c-.485.666-.897 1.233-1.155 1.838-.886 2.135-1.799 4.256-2.71 6.374l-.001.002-.002.007-.001.002-.001.002-.001.002v.001c-2.073 4.819-4.14 9.627-5.896 14.557-.483 1.378-.997 2.76-1.512 4.146-2.065 5.559-4.155 11.183-4.415 16.826-.699 16.334-6.517 30.665-13.98 44.65-.484.918-1.228 1.745-1.96 2.559-.298.331-.594.661-.87.993a6.399 6.399 0 0 0-.475-.337c-.161-.107-.322-.213-.475-.337.814-1.544 1.64-3.072 2.464-4.597l.002-.005.001-.002c1.645-3.046 3.285-6.082 4.82-9.213 5.005-10.149 8.401-20.71 8.407-32.104.016-2.34.309-4.709 1.077-6.826 3.816-10.863 7.631-21.726 11.823-32.478 1.101-2.769 2.59-5.415 4.079-8.06.676-1.201 1.352-2.402 1.991-3.614-1.197-.37-1.717-.21-1.964.095-6.034 6.822-13.66 10.89-22.16 13.976-1.249.454-2.51.887-3.771 1.32l-.002.001c-6.131 2.108-12.285 4.222-17.237 8.825-1.698 1.572-3.433 3.078-5.16 4.576l-.002.002-.002.002-.001.001-.004.003-.001.001-.001.001-.002.002-.002.002h-.001l-.001.001a233.298 233.298 0 0 0-4.615 4.077 709.967 709.967 0 0 0-4.536 4.243l-.026.024Zm23.551 69.254c-8.818 14.575-21.278 25.663-34.085 36.916 4.276-1.18 8.561-2.335 12.846-3.49 4.284-1.155 8.569-2.31 12.845-3.491 6.546-1.854 8.897-5.486 9.354-12.291.235-3.497.845-6.985 1.454-10.463.312-1.787.625-3.573.885-5.354.079-.576-.056-1.156-.194-1.745a9.701 9.701 0 0 1-.194-.983c-.289.073-.617.125-.948.178-.82.13-1.659.263-1.963.723Z" fill="#D399A9"/><path d="M197.831 90.893a22923.514 22923.514 0 0 0 37.046 37.633c.122-.066.235-.115.347-.164.113-.05.227-.099.349-.165-.561-.803-1.08-1.645-1.598-2.484-.993-1.61-1.98-3.211-3.242-4.505-3.656-3.724-7.412-7.36-11.172-11l-.017-.016c-4.613-4.466-9.232-8.939-13.68-13.583-3.87-4.043-7.038-8.758-10.138-13.438-2.575-3.886-5.004-7.86-7.435-11.839a619.227 619.227 0 0 0-4.54-7.352c-.766-1.187-1.983-2.177-3.621-2.866.055.177.09.354.124.527.066.333.129.652.327.928 5.684 7.696 7.802 16.381 8.561 25.83.596 7.447-1.402 13.875-5.081 20.025-1.572 2.651-2.872 5.445-4.172 8.239-.506 1.125-.604 2.465-.29 3.849 1.226-2.429 2.606-4.808 3.987-7.187 5.103-8.793 10.209-17.59 7.502-28.946 24.923 44.289 32.549 91.025 21.558 140.731 4.572-10.813 5.786-22.352 5.932-33.845.218-11.629.059-23.37-1.343-34.897a207.685 207.685 0 0 0-7.082-33.748c-2.37-7.661-5.476-15.121-8.487-22.352l-.001-.002-.001-.002c-1.319-3.168-2.621-6.293-3.833-9.371Zm2.173 186.783a10.7 10.7 0 0 0-1.068.316c1.144-3.438 2.247-6.84 3.34-10.208v-.001l.001-.003.002-.004v-.002l.001-.003c2.74-8.446 5.41-16.674 8.462-24.701 1.092-2.73 4.528-5.616 7.471-6.412 11.356-3.058 16.32-11.315 19.328-21.473.826-2.787 1.461-5.637 2.095-8.485.736-3.303 1.471-6.602 2.501-9.795 5.454-16.61 5.121-32.967-.754-49.376-.318-.879-.452-1.776-.59-2.697l-.033-.219c-.02-.134-.04-.268-.062-.403 1.197.37 1.634.862 1.795 1.381 3.405 11.192 6.739 22.52 4.522 34.312-2.456 13.234-5.151 26.427-8.908 39.322-2.57 8.997-8.335 16.134-18.2 18.674-5.122 1.3-7.853 4.993-9.265 9.816a634 634 0 0 1-.738 2.385l-.003.008c-.25.803-.499 1.607-.74 2.393-.817 2.786-1.661 5.581-2.504 8.375l-.002.008c-.844 2.794-1.687 5.589-2.504 8.375.124.111.277.213.438.321.145.097.298.2.443.317 2.404-2.126 4.884-4.178 7.362-6.23 5.59-4.626 11.171-9.245 15.843-14.676 12.01-14.057 26.015-25.876 40.021-37.695 9.059-7.644 18.117-15.288 26.637-23.539.605-.578 1.353-1.04 2.239-1.586.402-.248.832-.514 1.29-.816-.019.365-.026.651-.031.873v.004c-.009.446-.013.637-.107.704-2.414 2.263-4.789 4.591-7.168 6.923-5.754 5.642-11.53 11.305-17.942 16.11-14.47 10.848-26.944 23.594-39.498 36.421l-2.409 2.46c-6.661 6.82-13.69 13.238-20.735 19.67l-.002.002a1114.935 1114.935 0 0 0-9.445 8.69c-.24.25-.594.34-1.083.464Zm19.221-4.822c1.28-.83 2.55-1.654 3.392-2.816 5.461-7.385 12.501-12.981 19.781-18.537 4.935-3.748 9.236-8.439 13.365-13.134 5.223-5.945 11.78-8.315 19.424-8.459 2.506-.052 5.008-.157 7.508-.262 4.784-.2 9.559-.4 14.325-.228 6.386.223 12.715.886 19.074 1.553 1.382.145 2.766.29 4.152.43.813.066 1.569.481 2.218.837l.005.003c.281.154.542.297.779.396a576.697 576.697 0 0 1-6.083 7.315l-.002.002-.003.004-.003.004-.002.002-.002.003-.003.004-.007.007-.002.003c-4.43 5.268-8.793 10.457-12.71 15.963-5.964 8.338-6.936 18.265-7.357 28.134.222.074.436.122.65.169.214.048.429.096.651.169.099-.353.229-.71.359-1.066.261-.714.521-1.427.536-2.115.588-17.611 9.14-31.021 22.084-42.203 1.457-1.279 2.625-2.878 3.804-4.493a64.702 64.702 0 0 1 1.606-2.136c-.777-.357-1.549-.783-2.322-1.209-1.804-.994-3.612-1.99-5.488-2.127-7.902-.688-15.747-.823-23.696-.927-2.462-.053-4.927.008-7.387.07-3.555.089-7.1.178-10.614-.082-9.59-.621-16.937 3.247-23.615 9.642-3.501 3.298-7.164 6.436-10.821 9.569l-.009.008-.002.002c-3.204 2.745-6.404 5.486-9.486 8.327-4.556 4.207-8.914 8.622-13.288 13.052-1.324 1.342-2.65 2.685-3.983 4.024.473.424.909.915 1.242 1.438.608-.478 1.271-.908 1.93-1.336Zm-2.898 49.194c5.002 1.073 9.15 3.434 11.866 8.346-.186.014-.338.029-.46.04-.352.033-.454.043-.4-.058a2.916 2.916 0 0 1-1.021-.539c-7.821-7.604-16.841-7.49-26.385-3.911-1.091.419-2.176.855-3.262 1.291-2.713 1.09-5.428 2.179-8.224 3.004-10.132 3.042-19.996 1.031-29.811-.97-2.302-.469-4.601-.938-6.9-1.341-3.841-.634-4.393-5.362-.792-7.899 11.217-7.743 22.537-15.517 34.187-22.596a252.365 252.365 0 0 1 5.481-3.208l.001-.001.002-.001c6.892-3.958 13.793-7.92 19.091-14.19.73-.833 1.548-1.542 2.367-2.251.409-.355.818-.709 1.216-1.079.119.106.228.229.337.352.109.122.218.245.337.351-.244.343-.452.704-.657 1.059-.361.629-.712 1.238-1.227 1.688-1.362 1.154-2.7 2.34-4.037 3.524-3.447 3.055-6.883 6.101-10.682 8.548-3.32 2.133-6.782 4.036-10.244 5.938-7.237 3.977-14.469 7.95-20.375 14.016-.547.524-1.278.884-2.004 1.242-.44.216-.878.432-1.274.683-.876.573-1.762 1.14-2.65 1.708-2.47 1.582-4.952 3.17-7.268 4.893-.842.631-1.457 1.529-2.243 2.677-.422.616-.892 1.304-1.474 2.061 2.014.395 3.916.785 5.742 1.159l.01.002.073.015.005.001.022.005.007.001c3.845.788 7.355 1.508 10.868 2.071 3.429.591 6.894 1.113 10.27.98 7.612-.248 14.85-2.26 21.87-5.343 5.628-2.425 11.539-3.57 17.638-2.268Zm134.31-87.406c.65.085 1.303.164 1.958.244 1.559.19 3.131.381 4.7.657 28.054 4.705 54.718 13.2 78.716 28.728 9.235 5.914 18.62 11.211 28.83 14.944.28.106.561.219.845.334 2.068.838 4.284 1.735 7.409.017-1.305-.482-2.504-.939-3.637-1.37l-.003-.001c-2.217-.844-4.182-1.592-6.195-2.25-7.54-2.491-14.19-6.583-20.855-10.685-2.7-1.661-5.403-3.325-8.168-4.883-17.853-10.025-35.961-19.401-56.652-22.397-4.273-.612-8.511-1.551-12.756-2.49l-.003-.001c-2.504-.554-5.011-1.109-7.529-1.598-1.474-.294-3.021-.293-4.541-.291-.672.001-1.339.002-1.992-.023-.112.377-.119.721-.127 1.065Zm29.776 116.432c.395.202.788.403 1.179.547a6.376 6.376 0 0 0-.284.633 5.46 5.46 0 0 1-.164.378l-.012.024-.011.021c-20.177.32-38.755-4.867-56.124-14.985-11.896-6.97-19.209-17.352-22.918-30.443-.148-.62-.21-1.301-.271-1.963v-.005l-.001-.012a71.148 71.148 0 0 0-.052-.54c1.089.575 1.49 1.134 1.715 1.862 2.598 8.764 6.978 16.294 13.9 22.468 6.822 6.034 14.474 10.33 22.872 13.541 12.288 4.742 24.786 7.766 38.039 7.71.707.037 1.422.402 2.132.764ZM357.918 60.839c-.761 2.055-1.636 4.087-2.511 6.12-3.369 7.828-6.741 15.661-3.633 24.828.94 2.67 2.5 5.32 4.384 7.358 3.698 4.038 7.573 7.909 11.838 11.202 5.655 4.288 12.239 3.846 18.817 2.095.584-.181 1.189-.294 2.156-.476l.783-.149c-2.796 7.332-8.061 11.961-13.168 16.45l-.008.007-.862.759c-3.596 3.157-7.391 6.061-11.259 9.02a427.902 427.902 0 0 0-6.217 4.817c.184-.007.356-.004.516-.002.378.006.688.011.932-.105 12.915-6.673 23.173-16.225 30.806-28.555.418-.684.462-1.566.505-2.447.024-.475.047-.95.129-1.394-.463.026-.933.006-1.398-.013-.887-.037-1.757-.073-2.53.203-8.787 3.63-18.386 1.873-25.898-7.308-.331-.41-.665-.819-.999-1.227-4.85-5.942-9.629-11.796-7.935-20.1.805-3.986 2.143-7.883 3.475-11.76a275.43 275.43 0 0 0 1.341-3.97c.391-1.238.918-2.454 1.449-3.68.173-.398.346-.797.516-1.2l-.167-.054c-.374-.123-.706-.231-1.062-.42Zm55.183 79.772c-2.232.741-4.464 1.482-6.674 2.271-.165-.348-.261-.66-.39-1.075 2.671-1.039 5.339-2.087 8.008-3.136 27.401-10.763 54.81-21.53 85.025-22.004-.599.641-1.258.902-1.982.955-25.215 2.448-49.318 9.222-72.625 18.939-3.708 1.507-7.534 2.778-11.362 4.05ZM29.27 383.548a3544.343 3544.343 0 0 1 15.268-6.191c-2.708 2.845-7.474 5.477-11.997 7.05-3.297 1.317-7.88 2.738-12.916 4.398l-2.77-1.544c4.695-1.411 8.93-2.678 12.416-3.713Zm367.185-30.488c-2.617.214-5.284.431-8.131-.847 5.185-2.572 11.442-2.23 12.479.753-1.449-.143-2.891-.025-4.348.094ZM236.538 130.802c.41 3.088 1.328 5.263 2.23 7.399.502 1.188.998 2.364 1.399 3.679.802-2.402-1.031-7.939-3.629-11.078Zm100.406-11.431c.452-1.897.906-3.798 2.028-5.453-.352 3.363-1.547 7.883-3.306 9.565.608-1.299.943-2.704 1.278-4.112Zm138.074 161.993c.916.253 1.806.642 2.696 1.032 2.135.934 4.274 1.871 6.796.929a8.976 8.976 0 0 0 .156-.639l.037-.163.049-.208.011-.042.01-.038.039-.142c-1.557-.43-3.122-.842-4.688-1.255l-.003-.001c-1.565-.412-3.13-.824-4.686-1.254-.151.617-.302 1.233-.417 1.781Zm-241.354 57.788c.595 1.14 1.19 2.281 1.736 3.308-1.262.633-2.95-1.518-3.567-2.788-.628-1.29-1.246-2.597-1.865-3.904 1.018-.419 2.382.869 2.892 1.844l.804 1.54Zm-55.43-217.784c-.276.947-.6 1.969-.925 2.991-.185.583-.37 1.166-.546 1.734-.216.697-.055 1.8.614 2.09l.001-.002c.45-1.318.901-2.636 1.329-3.947.288-.882.404-2.562-.473-2.866Z" fill="#D399A9"/><path d="m317.062 148.624.001-.002v-.005c.269-1.946.541-3.906.846-5.871-12.85 9.113-25.83 6.175-33.065-6.671-5.954-10.521-4.504-21.305-1.236-32.259a62.333 62.333 0 0 0 2.513-15.26c.098-2.873-.168-5.767-.433-8.657-.333-3.63-.666-7.254-.277-10.82 1.139-10.687-1.125-20.825-3.457-30.998l-.632-3.72c7.116 9.136 16.167 14.605 26.424 18.278 6.997 2.474 11.821 7.103 14.404 13.848 3.482 9.304 8.632 17.578 14.093 25.754 3.191 4.856 5.039 13.898 3.446 20.315-.107.433-.501-.699-.501-.699.947-6.025-1.035-14.874-4.987-20.172-5.879-7.876-10.368-16.582-13.989-25.786-2.229-5.777-6.738-9.198-12.398-11.749-4.025-1.775-7.889-3.928-11.742-6.077h-.002a283.801 283.801 0 0 0-5.781-3.166c-.542-.285-1.186-.538-1.831-.791a4.264 4.264 0 0 1-.387.404 4.525 4.525 0 0 0-.386.404l1.438 1.965c2.927 4.004 5.832 7.978 8.89 11.905 12.203 15.726 19.975 33.458 23.632 52.927.638 3.191.486 6.551.333 9.921v.001c-.075 1.653-.15 3.307-.131 4.945-1.534-32.676-17.541-58.571-36.239-82.152.125 2.837.286 5.79.45 8.815.248 4.556.505 9.273.662 14 .062 1.81-.014 3.62-.09 5.42v.002c-.124 2.953-.246 5.88.24 8.724 1.572 8.991.043 17.302-2.76 25.897-3.799 11.629-3.139 23.005 5.367 32.787 7.737 8.943 19.204 9.174 27.349.618.21-.22.46-.368.801-.571.285-.169.634-.376 1.078-.696.365 13.739-2.084 26.253-8.346 37.799-1.094 2.073-3.104 3.622-5.125 5.18-.959.74-1.922 1.481-2.789 2.282-.219-.159-.429-.335-.639-.511-.21-.176-.42-.352-.639-.511 12.263-8.781 14.032-21.572 15.895-35.047Z" fill="#D399A9"/><path d="m322.071 166.739.002-.072c.17-9.407.337-18.648.74-27.848.024-1.128 1.185-2.355 2.135-3.359l.147-.156c.765-.741 1.591-1.375 2.46-2.042 2.324-1.783 4.961-3.805 7.573-8.758-3.811 4.911-7.487 7.125-10.734 9.081l-.441.266-.221.134c-2.167 1.345-2.745 2.927-2.903 5.504-.252 6.112-.708 12.203-1.163 18.289v.007a1282.27 1282.27 0 0 0-.552 7.566c-.078 1.073.023 2.127.122 3.159l.066.714c.441-.097.905-.139 1.367-.182.86-.079 1.712-.158 2.383-.585 7.896-5.161 15.794-10.429 23.674-15.686l.002-.001.003-.002 6.146-4.098c.792-.526 1.284-1.296 1.547-2.445a5172.252 5172.252 0 0 1-32.353 20.514Zm186.178-50.695c1.444-.01 2.955-.021 4.587-.03-1.839 2.85-6.964 3.056-10.403.064 1.912-.007 3.799-.02 5.814-.034h.002Zm-12.22 55.277-3.673 1.99c-1.612.875-3.122 1.694-4.654 2.519 4.024.565 8.053-1.776 8.327-4.509ZM360.616 57.568c-.244.7-.496 1.421-.902 2.097-1.153-2.493 1.127-6.556 4.879-8.116-.434.718-.989 1.366-1.551 2.022-.582.678-1.171 1.365-1.64 2.146-.335.56-.557 1.195-.786 1.85Zm-58.177 242.221c-.391-1.806-.755-3.476-1.103-5.073-.485-2.228-.94-4.314-1.393-6.43-2.511 4.505-1.088 10.132 2.496 11.503ZM51.444 375.604c.566-.23 1.13-.456 1.693-.681 1.799-.721 3.58-1.434 5.365-2.26 8.44-4.053 15.823-7.715 24.193-12.002 4.813-2.427 9.74-4.901 14.708-7.396l.029-.015.138-.069c11.324-5.687 22.867-11.483 33.811-17.095.679-.341.839-.705 1.092-1.283.097-.22.207-.47.364-.763-12.221 6.941-24.722 12.378-37.288 17.844l-.002.001c-14.945 6.501-29.983 13.041-44.75 22.198l.647 1.521Z" fill="#D399A9"/></svg>