<svg width="504" height="392" fill="none" xmlns="http://www.w3.org/2000/svg"><path d="m2.107 316.465-1.883-1.151c11.458-2.689 20.456-4.792 20.964-4.857 28.47-6.331 54.502-17.196 78.549-34.047 4.203-2.942 9.037-5.362 13.948-6.568 8.96-1.196 16.915-6.172 24.137-11.496 7.24-5.383 14.863-10.185 22.53-15.015l.956-.602c4.688-2.973 9.284-5.921 11.495-11.345.428-1.066.862-2.132 1.297-3.199 1.883-4.628 3.775-9.273 5.274-14.043 3.103-10.053 1.906-11.215-8.453-12.312-12.699-1.363-23.097-6.694-27.58-19.666-3.31-9.484-4.61-19.206-1.817-29.127.242-.866.482-1.733.722-2.599 2.845-10.27 5.673-20.479 11.319-29.716 2.665-4.459 5.179-8.927 7.669-13.487.589-1.108.874-1.801 1.224-2.653.158-.386.33-.804.55-1.308.192.072.252.439.313.805.06.367.12.733.312.805-2.257 5.74-5.193 11.145-8.127 16.548-4.001 7.365-7.999 14.726-10.269 22.92-3.144 11.199-4.871 21.972-1.742 33.379 3.007 10.946 9.729 18.043 20.646 20.867 2.601.67 5.316.841 8.02 1.011h.002c1.315.083 2.628.166 3.925.306 4.623.498 6.762 3.533 5.962 8.137-1.715 10.079-5.732 19.289-10.843 28.099-1.117 1.925-2.778 3.847-4.693 4.997a418.234 418.234 0 0 1-6.613 3.87c-7.602 4.388-15.207 8.778-21.804 14.735-6.758 6.139-16.637 10.935-24.208 12.157-4.551 1.258-9.149 3.27-13.066 5.988-15.472 10.675-31.59 19.103-49.053 25.815-4.464 1.72-20.876 5.724-38.76 10.087h-.003l-.006.002c-3.6.878-7.26 1.771-10.894 2.663Zm176.184-22.632c.19.48.385.959.58 1.438.585 1.436 1.17 2.872 1.6 4.349 2.594 8.835 4.451 17.866 4.113 27.184-.53 15.834 2.424 31.038 9.023 45.472.338.719.639 1.503 1.094 2.689.155.406.328.858.527 1.371-.447-.361-.819-.653-1.137-.903-.662-.52-1.085-.852-1.451-1.223-5.476-5.649-12.232-9.292-19-12.942-1.129-.609-2.259-1.218-3.383-1.837-3.126-1.736-5.355-3.808-6.436-7.321-1.072-3.663-3.22-6.547-6.89-8.286-3.845-1.841-5.654-5.308-6.742-9.214-6.81-16.722-3.027-24.299 2.122-34.61v-.002a313.854 313.854 0 0 0 1.658-3.354c1.594-3.286 3.106-6.698 1.607-10.297-.611-1.368-2.241-2.86-3.611-3.186-6.896-.997-10.657-1.469-11.497-1.455-3.814-.685-7.654-1.362-11.438-1.913l-.083-.012-.274-.041c-3.128-.46-6.398-.942-8.939 2.004 4.153.227 8.215.453 12.219.675 5.051.28 10.009.556 14.94.822l1.573.307c5.163 1.046 6.63 3.222 5.341 8.401-.447 1.846-1.254 3.639-2.143 5.307-6.414 12.265-9.339 19.458-2.968 38.047.961 3.989 3.154 7.601 6.931 9.558 3.671 1.974 5.292 5.081 7.093 8.531l.021.041c1.239 2.435 3.24 4.765 5.463 6.445 2.22 1.654 4.74 2.956 7.276 4.266h.001l.004.002c.697.36 1.394.72 2.088 1.089 11.039 5.703 19.705 13.616 23.885 25.632.084.197.218.36.347.517.075.092.148.181.208.273.277-.073.554-.147.889-.187a590.779 590.779 0 0 1-1.295-4.407l-.003-.01-.003-.011a559 559 0 0 0-1.294-4.407c-3.146-10.169-3.859-20.096 1.075-29.944 1.497-2.991 2.755-6.122 4.012-9.252.8-1.992 1.6-3.985 2.463-5.941 5.045-11.655 6.27-23.577 2.376-35.817-.582-1.82-1.533-3.541-2.585-5.087.142.669.282 1.343.422 2.018.437 2.101.877 4.217 1.389 6.284 2.161 8.506 2.031 16.931-.994 25.235-1.857 5.083-3.947 10.031-6.188 14.969-4.202 9.259-7.953 18.546-5.738 29.111-4.316-7.884-7.642-16.13-8.58-24.863-.539-5.186-.752-10.398-.964-15.609-.213-5.212-.426-10.423-.965-15.61-.605-5.468-1.935-10.833-3.264-16.195l-.005-.017-.009-.038a412.065 412.065 0 0 1-1.087-4.452c-.226-.974-.883-1.878-1.531-2.769-.311-.427-.62-.851-.878-1.279-.231.09-.413.183-.585.271-.06.031-.118.061-.177.089a2.632 2.632 0 0 1-.162.076l-.007.004-.034.014Zm253.319-43.619c17.286 4.882 34.514 9.73 51.743 14.578l.013-.046.011-.041.001-.002c.063-.225.113-.403.255-.528a95.741 95.741 0 0 0-2.894-1.879l-.029-.019c-2.133-1.35-4.268-2.701-6.089-4.344-11.186-10.155-21.471-21.19-30.056-33.813-6.115-9.084-13.223-17.262-23.169-22.565-.634-.343-1.271-.682-1.908-1.022-3.428-1.826-6.877-3.663-9.859-6.116-6.054-4.955-12.017-10.032-17.98-15.11l-.002-.002c-5.963-5.077-11.926-10.154-17.979-15.109-9.263-7.557-19.738-12.62-31.706-14.573-17.684-2.851-36.107 8.607-40.109 28.275-1.244 5.907-2.604 11.746-6.277 16.868-1.562 2.29-2.721 2.944-5.418 2.081l-1.509-.487-.005-.002c-6.715-2.171-13.396-4.331-20.734-4.309-5.595.014-11.172-.983-16.736-1.978-.959-.172-1.917-.343-2.875-.509-1.404-.269-3.025-1.911-3.635-3.279-.322-.654 1.363-2.484 2.507-3.38 1.288-1.003 2.64-1.939 3.994-2.877l.011-.007c1.779-1.233 3.562-2.468 5.209-3.858 2.509-2.166 4.955-4.399 7.398-6.631l.008-.007c3.183-2.906 6.362-5.81 9.677-8.56 7.908-6.641 16.932-11.309 26.478-15.129 3.166-1.282 6.233-2.811 9.303-4.342 3.454-1.722 6.913-3.447 10.519-4.823 6.369-2.464 12.931-4.436 19.482-6.405l.002-.001a908.062 908.062 0 0 0 5.467-1.655c5.608-1.736 10.612-.549 13.063 3.29 6.145 9.57 14.158 16.324 24.787 20.853 11.397 4.818 22.885 7.194 35.102 5.626 3.343-.467 6.706-1.024 10.055-1.579l.002-.001.059-.009c1.73-.287 3.458-.573 5.177-.846.037.138.065.291.093.444.028.153.057.306.093.444-1.689.305-3.368.626-5.041.946l-.011.002-.003.001c-2.891.553-5.762 1.103-8.64 1.555-17.948 2.844-34.186-2.366-48.983-11.808-5.115-3.279-9.323-8.528-12.845-13.612-2.967-4.295-6.499-5.33-10.657-4.078-10.655 3.177-21.26 6.537-31.627 10.427-3.962 1.512-7.774 3.402-11.585 5.291-2.739 1.358-5.477 2.716-8.27 3.932-9.38 4.072-17.708 9.69-25.29 16.442-6.27 5.564-12.656 11.061-19.042 16.558-.97.875-2.037 1.626-3.278 2.499-.642.453-1.331.938-2.077 1.49.662.278 1.243.554 1.776.807 1.03.49 1.876.892 2.763 1.046 3.055.447 6.115.819 9.174 1.19 3.06.371 6.119.743 9.174 1.19 1.007.154 2.016.302 3.027.45 4.313.632 8.643 1.267 12.784 2.406 7.934 2.185 10.485 1.014 12.646-7.012.154-.535.279-1.086.403-1.637.125-.551.25-1.103.404-1.638.265-1 .519-2.006.773-3.014.813-3.217 1.63-6.452 2.79-9.579 5.741-15.54 20.185-23.77 35.037-23.966 9.254-.09 17.85 3.104 25.92 7.474 12.397 6.724 23.172 15.705 33.493 25.201 1.079.984 2.151 1.978 3.224 2.971 6.173 5.72 12.347 11.441 19.906 15.361 7.962 4.152 14.947 9.451 20.615 16.483 2.477 3.068 4.938 6.149 7.4 9.23v.001l.005.006v.001c5.654 7.076 11.305 14.15 17.128 21.058 7.712 9.153 16.538 16.925 28.403 20.533 1.787.572 3.397 1.623 5.214 2.809l.001.001a66.005 66.005 0 0 0 2.987 1.871c-.869.018-1.539.062-2.111.1h-.001c-.622.042-1.127.075-1.646.059-1.792-.012-3.583-.017-5.372-.021h-.011c-4.722-.013-9.437-.026-14.159-.166-8.599-.232-16.421 2.093-23.629 6.723a354.764 354.764 0 0 1-16.169 9.724c-10.085 5.69-20.254 11.254-31.51 14.393-11.479 3.203-23.296 4.238-35.107 5.273l-.01.001c-3.407.298-6.813.596-10.211.947-.568.048-1.131-.237-1.697-.524-.251-.127-.503-.255-.757-.354l.158-1.078c1.755-.175 3.513-.354 5.272-.534 4.794-.488 9.6-.978 14.401-1.387 13.879-1.072 27.629-2.998 40.218-9.107 11.567-5.689 22.737-12.309 33.757-18.938 7.82-4.743 16.029-7.466 25.172-7.231 2.421.064 4.821-.044 7.569-.168h.009l.011-.001c1.082-.048 2.218-.1 3.431-.144-4.237-.981-8.326-1.915-12.321-2.827h-.003l-.011-.003c-5.915-1.35-11.626-2.653-17.312-3.998-14.209-3.331-26.344-7.954-27.199-10.243Z" fill="#D399A9"/><path fill-rule="evenodd" clip-rule="evenodd" d="M336.122 37.432a585.38 585.38 0 0 1-4.124 3.556c-.175-.102-.316-.261-.34-.353.039-.115.063-.239.087-.36.044-.22.086-.43.212-.559l1.029-1.008c8.854-8.683 17.713-17.37 30.659-20.144 11.117-2.361 20.299-8.107 27.868-16.583.235-.326.549-.552.959-.846.281-.201.607-.435.984-.756-.047.384-.071.692-.092.947v.003c-.034.421-.056.7-.146.939-3.569 8.301-2.971 16.68-1.095 25.41 2.778 12.685 2.92 25.478-2.047 37.802-.142.419-.189.893-.269 1.72-.045.46-.1 1.029-.189 1.758.384-.29.685-.533.935-.736.475-.385.767-.622 1.091-.74 10.339-3.438 20.964-4.682 31.611-2.872 4.796.808 9.477 2.282 14.157 3.756 1.973.621 3.946 1.243 5.927 1.814 7.691 2.2 14.299 6.268 19.959 11.969 7.597 7.605 16.244 13.4 27.032 15.37.396.072.794.142 1.191.213l.008.001c2.147.38 4.302.762 6.378 1.375 1.16.3 2.291.838 3.606 1.463.607.289 1.253.597 1.959.908a28.7 28.7 0 0 0-.893.477l-.003.002c-.224.124-.288.159-.321.141a23.648 23.648 0 0 1-1.367-.219c-.528-.094-1.046-.187-1.567-.236-6.187-.626-12.435-.742-16.671 4.677-4.168 5.302-8.194 10.764-11.487 16.573-6.474 11.294-15.192 20.273-25.574 27.818-.308.23-.708.318-1.122.41-.139.031-.281.062-.421.099 1.259-1.765 2.731-3.094 4.345-4.263 8.492-6.303 14.886-14.368 20.925-23.03 1.533-2.183 2.895-4.507 4.261-6.84 3.838-6.549 7.712-13.16 15.497-16.866-4.743-.178-9.218.83-13.63 1.824-4.676 1.053-9.281 2.09-14.061 1.684 5.496-1.23 10.976-2.434 16.616-3.673 2.821-.62 5.681-1.248 8.603-1.893-8.754-2.115-15.635-6.653-21.577-12.674-6.799-6.83-14.86-11.35-23.932-14.664-14.331-5.273-28.75-7.166-43.633-3.557-3.008.75-6.152 1.733-8.707 3.448-5.681 3.879-11.337 7.85-16.337 12.435-9.679 8.888-17.108 19.005-16.331 33.258.193 3.699-1.927 6.68-5.409 8.247-2.24 1.039-4.647 1.827-7.01 2.405-5.712 1.444-11.472 2.816-17.218 4.185l-.032.007c-1.872.446-3.742.892-5.609 1.339-.999.234-2.009.428-3.031.624-.547.106-1.098.212-1.652.325-.096-.173-.182-.359-.269-.546a8.656 8.656 0 0 0-.268-.546c.609-.49 1.229-.975 1.853-1.464l.001-.001h.001c.873-.684 1.754-1.373 2.627-2.094 2.6-2.145 5.38-4.057 8.161-5.97 5.055-3.478 10.114-6.959 14.102-11.839 3.215-3.996 6.703-7.834 10.16-11.636l1.354-1.49c.615-.657 1.968-1.51 2.677-1.255 2.012.7 2.796-.249 3.735-1.732 5.267-8.407 12.174-15.473 20.474-20.64 6.981-4.371 8.897-10.901 10.566-17.81 2.425-10.051.919-19.924-.607-29.926-.779-5.109-1.563-10.251-1.832-15.469a30.09 30.09 0 0 1-.579.746c-.447.567-.829 1.049-1.076 1.57-.852 1.838-1.726 3.663-2.599 5.487l-.001.001-.002.006-.001.002-.001.002h-.001v.002c-1.985 4.147-3.967 8.285-5.678 12.542-.472 1.189-.971 2.381-1.471 3.577-2.006 4.796-4.036 9.648-4.463 14.58-1.189 14.283-6.792 26.628-13.823 38.613-.457.788-1.137 1.485-1.807 2.172-.273.28-.544.558-.798.84a5.098 5.098 0 0 0-.404-.313c-.137-.099-.275-.198-.403-.312a436.082 436.082 0 0 1 2.32-3.94l.002-.004h.001c1.549-2.61 3.092-5.212 4.548-7.9 4.742-8.711 8.09-17.842 8.498-27.82.097-2.05.437-4.114 1.185-5.941 3.726-9.38 7.452-18.759 11.503-28.027 1.063-2.387 2.461-4.652 3.858-6.916a133.034 133.034 0 0 0 1.872-3.095c-1.035-.367-1.496-.244-1.724.014-5.526 5.761-12.349 9.055-19.903 11.457-1.11.354-2.229.689-3.349 1.024h-.002c-5.445 1.628-10.909 3.263-15.409 7.119-1.543 1.317-3.116 2.574-4.682 3.826l-.001.001-.002.002h-.001l-.004.004h-.001l-.001.001-.001.002h-.002l-.001.002h-.001c-1.409 1.127-2.813 2.25-4.186 3.408a611.528 611.528 0 0 0-4.123 3.555l-.024.02ZM354.3 98.92c-8.239 12.453-19.544 21.725-31.159 31.128 3.787-.883 7.581-1.743 11.374-2.603 3.794-.86 7.587-1.72 11.374-2.603 5.799-1.393 7.986-4.491 8.628-10.435.329-3.054.987-6.087 1.643-9.112.337-1.554.674-3.107.965-4.658.09-.502-.009-1.015-.108-1.536-.055-.287-.111-.576-.136-.867a9.769 9.769 0 0 1-.836.122c-.723.085-1.462.172-1.745.564Z" fill="#D399A9"/><path d="M183.442 70.837a20687.679 20687.679 0 0 0 31.116 34.271c.109-.053.21-.092.31-.131.101-.039.202-.079.311-.132-.463-.723-.888-1.479-1.312-2.232-.812-1.446-1.62-2.882-2.679-4.06-3.071-3.392-6.232-6.71-9.396-10.03l-.014-.015c-3.883-4.075-7.771-8.155-11.502-12.38-3.247-3.678-5.854-7.92-8.404-12.128-2.118-3.495-4.105-7.063-6.093-10.633-1.228-2.204-2.456-4.41-3.716-6.6-.629-1.066-1.661-1.976-3.07-2.638.041.157.066.313.089.466.046.294.09.575.254.825 4.706 6.94 6.254 14.623 6.584 22.925.259 6.544-1.719 12.103-5.158 17.36-1.471 2.266-2.708 4.667-3.945 7.068-.483.968-.617 2.138-.39 3.361 1.159-2.084 2.452-4.118 3.745-6.153 4.781-7.521 9.564-15.046 7.595-25.088 20.263 39.672 25.289 80.876 13.904 124.022 4.386-9.308 5.858-19.372 6.392-29.433.602-10.178.879-20.467.058-30.612a181.991 181.991 0 0 0-5.008-29.809c-1.805-6.793-4.262-13.438-6.644-19.877v-.002l-.001-.001c-1.043-2.822-2.073-5.605-3.026-8.344Zm-4.704 163.671c-.267.057-.581.123-.946.239 1.123-2.97 2.211-5.911 3.287-8.822v-.001l.001-.003.001-.003.001-.002.001-.002c2.698-7.301 5.328-14.413 8.285-21.336 1.053-2.352 4.164-4.758 6.77-5.352 10.055-2.276 14.694-9.332 17.688-18.122.822-2.413 1.479-4.887 2.135-7.359.761-2.866 1.522-5.73 2.537-8.49 5.365-14.355 5.651-28.693 1.087-43.272-.248-.781-.334-1.572-.422-2.384l-.021-.193-.04-.355c1.035.367 1.4.813 1.523 1.274 2.587 9.922 5.106 19.962 2.747 30.212-2.619 11.503-5.447 22.963-9.193 34.125-2.569 7.789-7.871 13.836-16.601 15.712-4.533.957-7.055 4.095-8.462 8.269-.238.678-.485 1.37-.731 2.063l-.003.007c-.247.695-.494 1.39-.733 2.07a943.013 943.013 0 0 1-2.489 7.246l-.002.007a988.43 988.43 0 0 0-2.49 7.247c.105.101.235.196.373.296.124.091.254.186.377.294 2.18-1.777 4.425-3.487 6.668-5.196 5.06-3.854 10.111-7.702 14.396-12.294 11.016-11.887 23.7-21.743 36.385-31.599 8.205-6.375 16.409-12.75 24.163-19.675.55-.485 1.222-.863 2.017-1.31.361-.203.747-.421 1.159-.669-.03.319-.046.569-.058.764v.003c-.024.39-.035.557-.119.613-2.195 1.896-4.357 3.852-6.523 5.81-5.239 4.738-10.499 9.494-16.284 13.475-13.058 8.989-24.434 19.712-35.883 30.502l-2.197 2.07c-6.075 5.738-12.459 11.11-18.856 16.495l-.002.001a991.239 991.239 0 0 0-8.58 7.277c-.219.211-.532.277-.966.368Zm17.007-3.543c1.149-.682 2.291-1.359 3.07-2.347 5.044-6.275 11.408-10.927 17.981-15.536 4.454-3.108 8.387-7.064 12.17-11.03 4.785-5.022 10.611-6.867 17.312-6.722 2.196.043 4.392.04 6.585.036 4.197-.006 8.386-.012 12.555.307 5.585.421 11.105 1.226 16.651 2.035 1.205.175 2.412.351 3.62.524.711.086 1.358.476 1.914.811l.005.003c.24.145.463.279.667.374-1.854 2.101-3.726 4.153-5.586 6.192l-.002.002-.003.003-.002.003-.002.002-.002.002-.003.004-.006.006-.002.002c-4.066 4.458-8.071 8.848-11.697 13.532-5.518 7.092-6.721 15.752-7.439 24.381.192.073.378.122.564.171.186.05.372.099.564.171.099-.306.226-.614.352-.921.253-.616.507-1.232.544-1.834 1.138-15.403 9.103-26.846 20.835-36.182 1.322-1.068 2.401-2.428 3.491-3.801.485-.61.971-1.222 1.482-1.813-.668-.341-1.329-.741-1.991-1.141-1.545-.935-3.093-1.871-4.731-2.057-6.897-.882-13.763-1.279-20.721-1.65-2.155-.134-4.316-.168-6.473-.201-3.117-.047-6.225-.095-9.294-.447-8.377-.883-14.948 2.245-21.024 7.61-3.182 2.765-6.502 5.383-9.816 7.998l-.008.007-.002.001c-2.903 2.291-5.803 4.579-8.603 6.958-4.139 3.524-8.112 7.236-12.099 10.962-1.208 1.128-2.416 2.258-3.631 3.383a6.21 6.21 0 0 1 1.037 1.304c.549-.398 1.144-.751 1.738-1.102Zm-4.279 42.984c4.343 1.116 7.892 3.332 10.097 7.73-.163.005-.296.013-.403.018-.311.017-.4.022-.349-.065a2.538 2.538 0 0 1-.875-.508c-6.581-6.937-14.486-7.156-22.971-4.358-.97.328-1.937.671-2.903 1.015-2.415.858-4.831 1.717-7.309 2.34-8.982 2.306-17.55.196-26.076-1.904-1.999-.493-3.996-.985-5.996-1.419-3.342-.691-3.658-4.851-.414-6.947 10.098-6.384 20.288-12.793 30.742-18.581 1.621-.898 3.267-1.756 4.914-2.616h.001l.002-.001c6.176-3.223 12.36-6.449 17.223-11.753.668-.704 1.41-1.296 2.152-1.888.371-.296.742-.592 1.104-.902.099.097.191.208.282.32.091.111.183.223.282.32-.225.291-.42.6-.612.904-.339.538-.667 1.059-1.135 1.435-1.233.962-2.447 1.954-3.66 2.944-3.127 2.554-6.244 5.099-9.658 7.109-2.983 1.75-6.083 3.294-9.182 4.838-6.48 3.227-12.954 6.452-18.342 11.555-.498.44-1.15.729-1.799 1.017-.393.174-.785.348-1.139.554-.788.47-1.585.935-2.382 1.402-2.22 1.298-4.449 2.601-6.539 4.028-.76.523-1.331 1.288-2.059 2.265a38.476 38.476 0 0 1-1.364 1.753c1.75.418 3.402.826 4.988 1.219l.008.002.064.015.004.001.02.005.005.002c3.34.826 6.389 1.58 9.446 2.198 2.982.638 5.999 1.219 8.961 1.221 6.676.053 13.086-1.453 19.343-3.905 5.016-1.925 10.233-2.719 15.529-1.363Zm120.727-71.804c.567.097 1.135.19 1.706.283 1.359.221 2.729.444 4.094.742 24.405 5.113 47.458 13.496 67.928 27.945 7.878 5.507 15.911 10.479 24.722 14.109.241.102.483.212.727.322 1.782.807 3.691 1.672 6.489.277-1.126-.468-2.16-.91-3.137-1.328l-.002-.001c-1.912-.818-3.607-1.542-5.347-2.19-6.515-2.448-12.195-6.268-17.888-10.096-2.306-1.551-4.615-3.103-6.981-4.566-15.282-9.412-30.81-18.265-48.826-21.62-3.721-.688-7.4-1.659-11.085-2.633h-.002c-2.174-.574-4.35-1.149-6.538-1.666-1.281-.31-2.635-.363-3.967-.415a44.38 44.38 0 0 1-1.744-.091c-.111.326-.13.627-.149.928Zm21.961 103.031c.339.19.676.38 1.013.52-.112.192-.196.378-.271.544a5.08 5.08 0 0 1-.156.326l-.012.02-.01.019c-17.684-.434-33.772-5.635-48.627-15.111-10.173-6.525-16.21-15.876-18.996-27.474-.107-.548-.138-1.147-.168-1.729v-.014l-.026-.475c.933.542 1.264 1.046 1.436 1.691 1.965 7.769 5.535 14.518 11.38 20.171 5.762 5.526 12.311 9.559 19.553 12.669 10.595 4.587 21.434 7.678 33.044 8.097.618.058 1.231.403 1.84.746Zm-9.436-255c-.74 1.774-1.578 3.523-2.416 5.272-3.228 6.737-6.458 13.479-4.06 21.617.729 2.373 2.002 4.749 3.579 6.6 3.097 3.668 6.353 7.195 9.973 10.23 4.801 3.956 10.583 3.801 16.407 2.5.518-.137 1.051-.215 1.905-.34l.691-.103c-2.709 6.323-7.484 10.191-12.115 13.942l-.008.006-.781.634c-3.261 2.638-6.689 5.047-10.181 7.502-1.858 1.306-3.735 2.625-5.615 3.999.161.001.312.009.452.017.33.018.602.034.82-.059 11.547-5.388 20.87-13.392 27.991-23.92.39-.585.46-1.356.529-2.126.038-.415.075-.83.163-1.216-.407.006-.818-.028-1.225-.061-.775-.064-1.536-.127-2.223.088-7.824 2.869-16.17.99-22.424-7.316-.276-.371-.554-.741-.831-1.11-4.039-5.377-8.017-10.673-6.239-17.887.846-3.461 2.156-6.827 3.459-10.176.446-1.144.89-2.286 1.315-3.43.386-1.07.891-2.117 1.4-3.171.165-.343.331-.687.493-1.033l-.143-.053c-.324-.121-.611-.228-.916-.406Zm45.51 71.821c-1.981.57-3.962 1.141-5.925 1.753-.132-.31-.206-.587-.304-.955 2.376-.816 4.75-1.639 7.125-2.463 24.379-8.458 48.767-16.919 75.248-16.266-.548.541-1.135.746-1.771.767-22.17 1.252-43.521 6.333-64.278 14.019-3.3 1.189-6.697 2.167-10.095 3.145Zm-344.771 199.2c4.694-1.7 9.114-3.284 13.59-4.882-2.471 2.396-6.739 4.533-10.756 5.751-2.934 1.036-7 2.119-11.468 3.395l-2.373-1.45c4.163-1.071 7.918-2.03 11.007-2.814Zm322.677-13.715c-2.3.095-4.643.191-7.091-1.029 4.632-2.07 10.1-1.549 10.903 1.1-1.265-.175-2.531-.123-3.812-.071ZM215.932 107.16c.25 2.72.977 4.658 1.692 6.56.397 1.058.791 2.106 1.095 3.272.787-2.076-.622-6.99-2.787-9.832Zm88.346-6.46c.463-1.645.927-3.294 1.969-4.704-.427 2.933-1.635 6.85-3.234 8.261.578-1.117.921-2.335 1.265-3.557ZM419.48 247.466c.794.254 1.559.626 2.325.999 1.836.894 3.677 1.79 5.919 1.055a7.89 7.89 0 0 0 .154-.535l.006-.02a7.456 7.456 0 0 1 .088-.322l.011-.037.01-.032a6.12 6.12 0 0 1 .039-.123c-1.348-.432-2.705-.848-4.062-1.265l-.002-.001a354.43 354.43 0 0 1-4.059-1.264 47.732 47.732 0 0 0-.429 1.545Zm-213.434 42.077c.48 1.02.961 2.039 1.403 2.959-1.127.51-2.53-1.435-3.026-2.568-.504-1.153-.999-2.319-1.495-3.486.906-.331 2.055.846 2.468 1.717l.65 1.378ZM165.201 96.835c-.276.82-.596 1.704-.917 2.588-.182.504-.365 1.007-.539 1.499-.214.603-.112 1.574.464 1.852l.001-.001c.441-1.139.882-2.277 1.303-3.41.284-.763.445-2.23-.312-2.528Z" fill="#D399A9"/><path d="m285.829 125.618.001-.001v-.004c.305-1.695.612-3.403.948-5.113-11.576 7.528-22.841 4.495-28.723-7.013-4.843-9.425-3.192-18.819.059-28.297a54.691 54.691 0 0 0 2.74-13.276c.187-2.514.057-5.058-.073-7.599-.163-3.191-.326-6.376.14-9.486 1.376-9.32-.249-18.28-1.931-27.272l-.423-3.28c5.91 8.253 13.644 13.363 22.498 16.943 6.041 2.415 10.102 6.64 12.126 12.639 2.72 8.272 6.938 15.7 11.432 23.055 2.623 4.366 3.922 12.35 2.3 17.915-.109.375-.414-.63-.414-.63 1.042-5.244-.381-13.065-3.655-17.844-4.87-7.106-8.494-14.89-11.34-23.08-1.748-5.139-5.576-8.294-10.443-10.729-3.463-1.697-6.77-3.72-10.07-5.738H271a245.353 245.353 0 0 0-4.952-2.977c-.464-.27-1.019-.514-1.575-.758-.113.129-.233.234-.353.34a3.75 3.75 0 0 0-.352.34l1.189 1.772c2.422 3.61 4.826 7.194 7.366 10.742 10.131 14.205 16.311 30.01 18.825 47.192.446 2.817.194 5.755-.059 8.701v.001c-.124 1.445-.248 2.891-.29 4.327-.187-28.674-13.291-51.92-28.834-73.236.009 2.49.046 5.082.083 7.737.056 3.999.114 8.14.084 12.286-.01 1.586-.14 3.17-.27 4.744-.213 2.583-.424 5.142-.098 7.651 1.058 7.93-.575 15.155-3.334 22.583-3.738 10.052-3.563 20.038 3.541 28.907 6.46 8.107 16.496 8.714 23.932 1.509.192-.185.415-.306.721-.472.256-.138.569-.307.969-.571-.166 12.046-2.754 22.92-8.647 32.811-1.031 1.777-2.846 3.063-4.672 4.356-.866.613-1.735 1.229-2.523 1.899a9.941 9.941 0 0 1-.541-.47c-.178-.161-.356-.323-.542-.47 11.051-7.257 13.053-18.397 15.161-30.134Z" fill="#D399A9"/><path d="m289.576 141.661.003-.062c.482-8.234.955-16.321 1.634-24.365.061-.987 1.121-2.02 1.988-2.866l.135-.132c.696-.622 1.442-1.148 2.227-1.701 2.099-1.479 4.479-3.158 6.942-7.403-3.512 4.166-6.809 5.976-9.723 7.574l-.395.217-.198.11c-1.946 1.101-2.508 2.467-2.737 4.717-.437 5.345-1.052 10.663-1.666 15.978l-.001.006a1224.5 1224.5 0 0 0-.75 6.607c-.107.937-.055 1.864-.005 2.772.011.21.023.419.032.628.39-.07.798-.091 1.204-.112.756-.039 1.505-.077 2.108-.428 7.098-4.241 14.202-8.576 21.29-12.901l.001-.001.003-.002 5.528-3.372c.713-.432 1.171-1.089 1.441-2.086a4566.855 4566.855 0 0 1-29.061 16.822Zm164.857-37.815c1.265.042 2.588.086 4.019.136-1.712 2.431-6.208 2.43-9.114-.312 1.675.061 3.328.116 5.093.176h.002Zm-12.658 47.982c-1.171.573-2.253 1.105-3.287 1.613-1.443.709-2.795 1.373-4.166 2.042 3.504.636 7.116-1.271 7.453-3.655ZM327.197 47.407c-.238.604-.485 1.228-.865 1.805-.921-2.224 1.219-5.702 4.561-6.935-.405.613-.915 1.16-1.43 1.715-.534.574-1.074 1.154-1.512 1.822-.314.478-.531 1.027-.754 1.593Zm-59.523 210.092c-.278-1.595-.538-3.071-.786-4.482-.346-1.968-.67-3.812-.993-5.681-2.359 3.857-1.311 8.835 1.779 10.163ZM45.158 315.024c.505-.182 1.007-.36 1.508-.537 1.6-.567 3.186-1.129 4.778-1.789a887.157 887.157 0 0 0 21.614-9.657 8826.89 8826.89 0 0 1 13.144-5.957l.026-.012.124-.056c10.118-4.58 20.433-9.249 30.217-13.776.607-.275.76-.588 1.002-1.085.092-.189.198-.405.346-.656-10.95 5.647-22.091 9.967-33.29 14.31l-.002.001c-13.32 5.165-26.721 10.361-39.98 17.859l.513 1.355Z" fill="#D399A9"/></svg>