<svg width="460" height="402" fill="none" xmlns="http://www.w3.org/2000/svg"><path d="M452.01 297.777s-24.52-8.218-37.594-10.659c-5.121-.958-10.312-2.747-14.676-5.453-7.234-5.651-16.497-7.887-25.491-9.344-9.05-1.429-17.95-3.547-26.902-5.678l-1.117-.266c-5.488-1.289-10.892-2.528-16.398-.278-1.079.446-2.16.889-3.243 1.332-4.696 1.921-9.41 3.85-13.936 6.151-9.499 4.891-9.492 6.586-2.927 14.881 8.034 10.183 11.555 21.514 5.329 33.984-4.53 9.14-10.66 16.991-19.842 22.014l-2.399 1.323c-9.473 5.234-18.89 10.436-29.604 12.902-5.128 1.235-10.156 2.586-15.233 4.019-1.223.36-1.928.646-2.795.997-.393.159-.818.332-1.34.531-.084-.191.139-.495.362-.799.223-.304.446-.609.362-.799 5.768-2.441 11.776-4.151 17.781-5.861 8.187-2.331 16.368-4.66 23.926-8.835 10.359-5.677 19.403-12.078 25.455-22.454 5.806-9.96 6.178-19.879.471-29.806-1.363-2.364-3.167-4.454-4.966-6.538l-.001-.001c-.874-1.013-1.747-2.025-2.567-3.064-2.923-3.709-2.241-7.417 1.668-10.108 8.531-5.918 18.068-9.547 28.091-12.099 2.191-.557 4.765-.718 6.96-.146a438.34 438.34 0 0 1 7.507 2.048c8.585 2.398 17.174 4.797 26.183 5.35 9.256.542 19.755 4.302 26.021 8.927 4.147 2.407 8.874 4.314 13.629 5.224 13.197 2.565 38.156 10.811 38.156 10.811l-.87 1.694Zm-80.769-80.033c.214-.479.423-.961.631-1.442.627-1.445 1.253-2.89 2.019-4.251 4.567-8.16 9.8-15.924 16.8-22.301 11.866-10.865 20.798-23.812 26.581-38.855.282-.757.637-1.532 1.175-2.705l.619-1.356c.056.58.108 1.058.153 1.466.093.85.153 1.393.144 1.921-.208 7.988 1.949 15.478 4.11 22.982a446.88 446.88 0 0 1 1.071 3.76c.962 3.501 1.042 6.591-.738 9.871-1.896 3.381-2.462 6.988-1.117 10.887 1.397 4.097.167 7.874-1.895 11.438-7.294 16.823-15.478 19.462-26.618 23.053l-.002.001a302 302 0 0 0-3.612 1.181c-3.516 1.178-7.066 2.505-8.612 6.15-.559 1.415-.483 3.657.253 4.883 4.178 5.712 6.507 8.776 7.114 9.376 2.214 3.254 4.451 6.521 6.74 9.658l.05.068.166.228c1.887 2.597 3.862 5.312 7.805 5.062-2.786-3.174-5.509-6.282-8.192-9.345-3.386-3.864-6.71-7.657-10.02-11.424l-.895-1.358c-2.91-4.49-2.373-7.101 2.3-9.845 1.657-.987 3.532-1.677 5.373-2.216 13.456-4.061 20.754-7.05 29.715-24.881 2.211-3.531 3.273-7.689 2.009-11.82-1.176-4.066-.074-7.449 1.15-11.208l.015-.045c.886-2.628 1.155-5.736.794-8.542-.377-2.786-1.223-5.54-2.075-8.311l-.002-.004c-.234-.762-.468-1.524-.693-2.289-3.707-12.062-4.123-23.972 1.625-35.543.084-.2.107-.413.129-.619.013-.119.026-.235.05-.345-.25-.148-.5-.297-.766-.512a604.269 604.269 0 0 1-2.279 4.071l-.005.009-.005.01a562.96 562.96 0 0 0-2.278 4.07c-5.143 9.508-11.839 17.079-22.49 20.498-3.234 1.039-6.399 2.351-9.563 3.663-2.014.834-4.029 1.669-6.06 2.434-12.042 4.62-21.562 12.203-27.676 23.726-.907 1.715-1.48 3.628-1.854 5.49.385-.579.774-1.159 1.164-1.74 1.215-1.811 2.437-3.633 3.573-5.474 4.636-7.612 10.841-13.503 19.015-17.209 5.008-2.265 10.083-4.263 15.258-6.146 9.704-3.53 19.107-7.408 25.198-16.522-2.654 8.734-6.274 17.006-11.942 23.891-3.38 4.077-7.01 7.934-10.641 11.791-3.63 3.858-7.26 7.715-10.64 11.791-3.537 4.324-6.485 9.102-9.43 13.876l-.01.016-.021.033c-.815 1.321-1.629 2.642-2.457 3.952-.546.856-.735 1.975-.921 3.078-.089.53-.178 1.055-.305 1.546.23.104.427.17.613.232l.19.065c.042.015.084.03.126.047l.044.017.008.003a.488.488 0 0 1 .034.014ZM159.6 64.943a58821.236 58821.236 0 0 0-26.188-47.9l-.043.024-.038.02-.002.002c-.208.113-.373.204-.564.19a96.57 96.57 0 0 0 .693 3.434l.007.035c.536 2.506 1.073 5.016 1.174 7.504.581 15.332-.118 30.635-3.176 45.833-2.246 10.891-3.129 21.86.091 32.844.201.703.407 1.406.614 2.11 1.11 3.784 2.228 7.592 2.567 11.499.707 7.912 1.26 15.847 1.813 23.781v.003c.553 7.934 1.106 15.868 1.813 23.78 1.098 12.09 4.868 23.288 11.955 33.358 10.496 14.857 31.9 20.082 49.014 9.011 5.169-3.295 10.372-6.457 16.697-7.431 2.773-.494 4.07-.117 5.36 2.452.241.48.48.961.719 1.441l.003.005c3.196 6.415 6.376 12.796 11.606 18.105 3.985 4.05 7.224 8.805 10.456 13.549.557.817 1.113 1.635 1.674 2.448.802 1.209.762 3.552.204 4.966-.247.699-2.772.776-4.234.583-1.643-.222-3.283-.538-4.925-.854l-.014-.002c-2.158-.415-4.321-.831-6.499-1.039-3.355-.281-6.713-.469-10.069-.656l-.011-.001c-4.369-.243-8.735-.487-13.086-.938-10.437-1.019-20.236-4.25-29.79-8.462-3.18-1.385-6.469-2.524-9.76-3.664-3.705-1.282-7.413-2.566-10.974-4.205-6.314-2.87-12.406-6.23-18.49-9.584l-.002-.001a937.33 937.33 0 0 0-5.085-2.79c-5.245-2.835-7.939-7.309-6.895-11.816 2.576-11.258 1.783-21.871-2.483-32.8-4.602-11.693-11.041-21.716-20.859-29.466-2.715-2.094-5.508-4.138-8.29-6.173l-.002-.001-.05-.036a759.678 759.678 0 0 1-4.291-3.156c.074-.125.165-.254.256-.383.09-.129.181-.258.255-.383 1.422 1.01 2.848 1.999 4.269 2.985l.01.007.002.002c2.455 1.704 4.895 3.397 7.267 5.163 14.817 11.001 22.575 26.485 26.238 43.93 1.255 6.042.437 12.823-.75 18.992-1.007 5.204.751 8.502 4.614 10.629 9.875 5.473 19.849 10.78 30.037 15.538 3.913 1.8 7.993 3.223 12.071 4.646 2.931 1.022 5.862 2.044 8.729 3.206 9.619 3.913 19.613 5.963 29.899 6.667 8.492.595 17.018 1.322 25.543 2.05 1.325.082 2.628.323 4.143.602.785.145 1.626.3 2.557.449a40.431 40.431 0 0 1-.676-1.862c-.377-1.095-.686-1.994-1.204-2.748-1.847-2.534-3.752-5.018-5.656-7.502-1.905-2.483-3.809-4.967-5.656-7.501-.603-.84-1.213-1.678-1.824-2.516-2.605-3.579-5.222-7.172-7.338-10.985-4.051-7.309-6.714-8.327-14.072-4.193-.497.268-.986.569-1.475.87-.489.302-.978.603-1.475.871-.913.519-1.824 1.05-2.736 1.581-2.911 1.696-5.839 3.402-8.932 4.782-15.355 6.877-31.589 2.245-42.284-8.392-6.64-6.65-10.431-15.156-12.995-24.116-3.929-13.772-5.07-27.972-5.513-42.207-.053-1.483-.094-2.967-.135-4.45-.237-8.543-.473-17.088-2.999-25.358-2.646-8.727-3.764-17.56-2.69-26.669.467-3.977.953-7.952 1.44-11.927v-.001l.001-.007v-.001c1.117-9.13 2.234-18.257 3.109-27.39 1.161-12.1.529-24.025-5.284-35.197-.855-1.703-1.236-3.618-1.667-5.78-.219-1.1-.451-2.265-.765-3.497a43.92 43.92 0 0 0 1.573 1.46c.472.422.856.765 1.213 1.153 1.265 1.31 2.534 2.612 3.802 3.913l.007.008c3.346 3.435 6.687 6.865 9.941 10.39 5.942 6.405 13.186 10.427 21.667 12.368a360.796 360.796 0 0 1 18.544 4.822c11.295 3.274 22.556 6.698 32.832 12.635 10.48 6.052 19.628 13.89 28.77 21.725l.008.006c2.637 2.26 5.274 4.52 7.943 6.736.439.378.631.988.826 1.603.086.273.172.547.28.801l-.894.652c-1.374-1.15-2.753-2.297-4.133-3.447-3.761-3.13-7.531-6.27-11.24-9.462-10.639-9.308-21.806-17.916-35.184-22.71-12.345-4.35-25.085-7.75-37.726-11.035-8.997-2.304-16.806-6.324-23.131-13.125-1.674-1.802-3.458-3.467-5.5-5.373h-.001l-.002-.002-.004-.004-.008-.007c-.804-.751-1.649-1.54-2.543-2.388 2.299 3.772 4.527 7.402 6.704 10.948l.002.003.006.01c3.223 5.25 6.335 10.32 9.399 15.401 7.68 12.677 12.948 24.765 11.895 27.012Z" fill="#596676"/><path fill-rule="evenodd" clip-rule="evenodd" d="M73.066 285.415c1.835.149 3.67.299 5.51.465.05.199.035.415-.014.498a2.866 2.866 0 0 0-.323.192c-.191.124-.374.243-.556.244l-1.463-.03c-12.59-.255-25.188-.511-36.4-7.932-9.612-6.388-20.306-8.967-31.833-8.436-.404.061-.79-.007-1.295-.095a14.395 14.395 0 0 0-1.248-.177c.312-.239.553-.44.753-.606l.001-.001.002-.002c.33-.274.547-.456.784-.56 8.558-3.31 14.213-9.697 19.214-17.26 7.23-11.029 16.41-20.222 28.882-25.376.404-.194.781-.497 1.438-1.026.366-.295.818-.659 1.41-1.113-.482-.072-.873-.117-1.198-.155-.616-.071-.997-.115-1.313-.266-9.84-5.058-18.292-11.883-24.544-20.894-2.822-4.054-5.078-8.498-7.334-12.94-.951-1.873-1.902-3.746-2.896-5.59-3.868-7.143-5.612-14.828-5.497-22.985.12-10.916-1.819-21.307-8.055-30.534-.23-.339-.461-.677-.693-1.016l-.004-.006c-1.25-1.828-2.504-3.663-3.535-5.605-.607-1.055-1.02-2.258-1.5-3.656-.222-.645-.458-1.333-.734-2.066.475.158.783.25.98.309l.005.001c.248.074.32.096.33.133.29.379.554.766.813 1.147.306.45.607.891.941 1.304 3.942 4.934 8.298 9.55 15.239 8.773 6.808-.744 13.632-1.703 20.187-3.442 12.794-3.328 25.503-3.382 38.355-1.211.385.06.733.288 1.094.523.121.08.245.16.37.235-2.174.341-4.185.217-6.18-.123-10.606-1.683-21.002-.591-31.577 1.182-2.672.439-5.327 1.102-7.99 1.768-7.478 1.869-15.027 3.756-23.248.741 3.241 3.567 7.152 6.098 11.008 8.593 4.086 2.644 8.11 5.249 11.213 9.005a4228.704 4228.704 0 0 1-14.471-9.446c-2.454-1.606-4.943-3.235-7.487-4.897 4.685 7.855 6.282 16.071 6.136 24.661-.124 9.786 2.324 18.846 6.366 27.783 6.357 14.144 15.229 25.951 28.421 34.185 2.682 1.65 5.63 3.232 8.689 3.867 6.85 1.366 13.75 2.649 20.63 3.018 13.327.707 25.945-1.091 35.734-11.782 2.547-2.769 6.216-3.349 9.827-1.936 2.346.887 4.627 2.073 6.726 3.377 5.106 3.119 10.194 6.323 15.271 9.52l.027.017c1.654 1.041 3.306 2.082 4.958 3.119a79.77 79.77 0 0 1 2.606 1.755c.465.322.933.646 1.409.969-.057.191-.131.386-.205.582a8.632 8.632 0 0 0-.205.582c-.789-.093-1.582-.198-2.379-.304h-.002c-1.116-.148-2.244-.298-3.387-.419-3.403-.362-6.766-1.02-10.13-1.679-6.115-1.196-12.235-2.393-18.609-1.819-5.184.507-10.447.702-15.662.896l-2.044.076c-.913.021-2.493-.354-2.812-1.051-.922-1.956-2.167-1.851-3.91-1.478-9.842 2.152-19.877 2.161-29.522-.19-8.133-1.958-14.232 1.291-20.43 4.989-9.016 5.383-15.11 13.49-21.282 21.704-3.153 4.195-6.327 8.418-9.921 12.32.337-.045.654-.078.952-.11.73-.077 1.35-.143 1.903-.334a486.565 486.565 0 0 1 5.828-2.013l.002-.001.006-.002h.002l.002-.001.001-.001h.001c4.42-1.506 8.83-3.009 13.135-4.792 1.198-.502 2.417-.987 3.64-1.474 4.905-1.953 9.867-3.928 13.75-7.123 11.207-9.284 24.145-13.991 37.837-17.406.896-.228 1.885-.23 2.86-.232.396-.001.791-.002 1.176-.018.009.175.034.345.06.515.026.17.051.34.06.515-1.505.383-3.007.75-4.506 1.116l-.005.001h-.001c-2.995.731-5.979 1.459-8.963 2.313-9.69 2.749-18.694 6.808-26.224 13.602-1.555 1.386-3.295 2.606-5.152 3.361-9.453 3.961-18.905 7.923-28.509 11.569-2.486.924-5.123 1.519-7.758 2.114-1.197.27-2.394.541-3.576.842.47 1.011.886 1.258 1.235 1.24 8.107-.084 15.345 2.526 22.455 6.3 1.045.554 2.083 1.128 3.122 1.703l.002.001c5.05 2.793 10.118 5.596 16.114 6.122 2.052.183 4.081.431 6.102.678h.006l.005.001h.007l.002.001c1.819.222 3.63.443 5.446.616 1.84.166 3.675.316 5.51.465l.032.003Zm31.696-56.88c14.89-2.871 29.649-1.256 44.725.49-3.332-2.12-6.651-4.262-9.97-6.403-3.32-2.141-6.639-4.283-9.971-6.403-5.13-3.218-8.932-2.604-13.701 1.155-2.45 1.931-5.118 3.609-7.779 5.282-1.367.86-2.733 1.719-4.065 2.61-.428.291-.73.727-1.037 1.169a8.46 8.46 0 0 1-.534.715c.221.147.451.333.684.52.575.464 1.163.939 1.648.865Z" fill="#596676"/><path d="M205.788 372.455c.915-15.288 1.844-31.075 2.756-46.928-.116-.041-.216-.086-.316-.131-.099-.045-.2-.091-.316-.132a46.267 46.267 0 0 1-.688 2.538c-.471 1.617-.939 3.224-1.041 4.829-.279 4.638-.44 9.288-.601 13.943l-.001.022c-.198 5.712-.396 11.432-.81 17.141-.361 4.969-1.586 9.875-2.828 14.715-1.03 4.02-2.207 7.996-3.385 11.975a562.886 562.886 0 0 0-2.148 7.386c-.327 1.214-.254 2.61.267 4.103.085-.142.181-.271.274-.396.182-.243.355-.474.419-.77 1.692-8.347 6.166-14.929 11.954-21.067 4.565-4.837 10.003-7.353 16.261-8.592 2.689-.543 5.311-1.352 7.932-2.161 1.045-.336 1.989-1.071 2.716-2.104-2.336.639-4.731 1.147-7.126 1.654-8.854 1.876-17.712 3.752-23.599 12.316 14.386-42.891 40.71-75.814 80.104-98.211-9.87 3.431-18.217 9.514-25.897 16.275-7.812 6.795-15.474 13.905-22.252 21.709a184.924 184.924 0 0 0-18.068 24.815c-3.647 6.136-6.722 12.64-9.702 18.943v.002l-.001.002c-1.306 2.762-2.594 5.486-3.904 8.124Zm122.093-112.883c.231.154.502.334.845.517a1270.548 1270.548 0 0 0-8.735 3.884l-.002.001-.003.001-.003.001-.001.001-.003.001c-7.214 3.229-14.243 6.375-21.366 9.148-2.455.908-6.412.36-8.694-1.109-8.796-5.677-17.212-4.03-25.717.044-2.334 1.117-4.596 2.399-6.856 3.679-2.62 1.484-5.238 2.968-7.962 4.192-14.227 6.308-24.834 16.288-32.168 29.959-.391.734-.904 1.359-1.43 1.999l-.125.152-.229.282c-.469-1.012-.405-1.593-.158-2.01 5.361-8.927 10.855-17.889 19.968-23.46 10.207-6.274 20.531-12.365 31.291-17.578 7.477-3.67 15.632-4.12 23.195.881 3.916 2.608 7.984 2.209 12.013.265.661-.31 1.338-.623 2.016-.936l.007-.003c.679-.315 1.359-.629 2.022-.939a992.8 992.8 0 0 1 7.027-3.343l.007-.004c2.349-1.11 4.698-2.22 7.026-3.342a3.615 3.615 0 0 0-.049-.481 5.217 5.217 0 0 1-.055-.482c-2.839-.32-5.675-.734-8.509-1.147-6.391-.932-12.772-1.863-19.148-1.709-16.452.454-32.615-1.746-48.78-3.946-10.454-1.424-20.909-2.847-31.443-3.552-.743-.054-1.495-.273-2.384-.532a45.463 45.463 0 0 0-1.308-.366c.252-.205.444-.371.594-.5l.003-.003c.3-.259.429-.371.529-.349 2.935.245 5.89.424 8.85.604 7.161.435 14.348.872 21.348 2.241 15.8 3.086 31.663 3.722 47.626 4.361l3.063.123c8.48.331 16.914 1.145 25.366 1.961l.002.001c3.787.365 7.577.731 11.377 1.054.308.009.579.19.953.439Zm-14.655-9.821c-1.311-.35-2.613-.697-3.884-.56-8.137.799-16.034-.513-24.048-2.007-5.42-1.024-11.085-1.066-16.65-.992-7.044.097-12.522-2.821-17.178-7.785-1.53-1.624-3.092-3.214-4.653-4.803-2.987-3.041-5.968-6.076-8.698-9.327-3.663-4.352-7.001-8.929-10.355-13.527-.729-1-1.459-2-2.193-2.999-.442-.577-.619-1.324-.771-1.965l-.001-.005c-.066-.278-.127-.535-.203-.751a516.55 516.55 0 0 1 8.462-.346l.002-.001h.02l.008-.001h.003c6.124-.217 12.155-.431 18.13-1.128 9.066-1.036 16.204-6.316 22.975-11.927-.084-.191-.181-.36-.277-.53-.096-.17-.192-.34-.276-.531-.293.145-.606.272-.92.399-.626.254-1.253.508-1.716.908-11.985 10.119-25.946 12.472-41.056 10.593-1.715-.2-3.468-.017-5.238.167-.787.082-1.577.165-2.369.214.227.727.407 1.491.587 2.255.42 1.785.84 3.573 1.869 4.895 4.261 5.63 8.852 10.893 13.526 16.206 1.434 1.658 2.945 3.25 4.454 4.838 2.18 2.296 4.354 4.585 6.279 7.061 5.312 6.706 12.251 9.251 20.46 9.847 4.267.345 8.526.892 12.777 1.439l.011.001h.003c3.725.479 7.445.958 11.16 1.299 5.498.499 11.015.744 16.551.989 1.677.075 3.355.149 5.035.231a6.309 6.309 0 0 1 .209-1.679c-.679-.116-1.358-.297-2.035-.478Zm34.228-27.438c-2.277-3.944-3.191-8.093-1.567-12.818.12.114.22.206.3.28.233.213.3.274.201.299.151.315.235.647.253.996-.357 9.703 5.101 15.594 13.159 19.763.928.471 1.864.928 2.8 1.385 2.338 1.143 4.678 2.286 6.891 3.641 8.055 4.877 12.612 12.593 17.147 20.272 1.063 1.8 2.125 3.598 3.231 5.358 1.873 2.915-.921 6.101-4.746 5.236-11.807-2.79-23.698-5.63-35.325-9.102-1.803-.538-3.596-1.122-5.39-1.706l-.001-.001h-.002c-6.727-2.192-13.461-4.386-20.765-4.145-.986.015-1.942-.103-2.899-.22a40.306 40.306 0 0 0-1.439-.16c0-.142.016-.287.032-.432.016-.146.032-.291.031-.433a11.37 11.37 0 0 0 1.092-.198c.63-.136 1.242-.268 1.847-.196 1.574.211 3.156.388 4.736.564 4.076.454 8.138.907 12.021 1.956 3.39.92 6.713 2.073 10.034 3.224 6.946 2.409 13.886 4.815 21.417 5.097.673.049 1.346.317 2.016.583.406.162.81.322 1.211.433.901.238 1.805.485 2.71.732 2.519.689 5.048 1.38 7.568 1.883.92.179 1.881.05 3.107-.116.659-.089 1.394-.189 2.241-.256a651.958 651.958 0 0 1-2.66-4.485l-.005-.007-.033-.058-.002-.003-.011-.018-.003-.005c-1.773-3.011-3.392-5.759-5.116-8.415-1.656-2.618-3.378-5.219-5.481-7.37-4.706-4.88-10.353-8.461-16.578-11.259-4.961-2.271-9.244-5.493-12.022-10.299Zm-137.88-36.573c-.331-.48-.668-.958-1.006-1.438-.805-1.144-1.617-2.296-2.371-3.498-13.631-21.339-23.928-44.022-27.99-69.14-1.603-9.629-3.703-18.99-7.33-27.962a33.255 33.255 0 0 1-.282-.757c-.681-1.866-1.411-3.866-4.41-4.905.46 1.15.874 2.214 1.265 3.22l.001.002c.765 1.968 1.444 3.713 2.21 5.435 2.853 6.467 4.118 13.303 5.385 20.153.514 2.774 1.028 5.553 1.648 8.309 4.03 17.775 8.64 35.332 19.007 50.788 2.144 3.188 4.054 6.547 5.966 9.912l.001.003c1.128 1.985 2.257 3.972 3.437 5.927.685 1.149 1.609 2.17 2.517 3.173.402.444.8.884 1.174 1.33.315-.151.546-.351.778-.552Zm59.15-89.14c-.103-.382-.205-.762-.343-1.105.219-.056.413-.127.588-.19a4.78 4.78 0 0 1 .347-.118l.023-.007.021-.005c12.25 13.138 19.908 28.506 23.588 46.017 2.494 12.017-.001 23.043-6.436 33.304-.322.467-.734.915-1.136 1.35l-.003.004-.007.007c-.11.12-.219.238-.325.356-.271-1.062-.14-1.66.206-2.243 4.24-6.946 6.6-14.333 6.549-22.589-.085-8.107-1.812-15.725-4.701-23.189-4.201-10.946-9.66-21.007-17.605-29.728-.397-.49-.582-1.18-.766-1.865ZM90.416 284.633c1.812-.723 3.676-1.358 5.54-1.992 7.183-2.446 14.369-4.892 18.57-12.415 1.204-2.214 2.023-4.826 2.245-7.286.461-4.853.706-9.722.337-14.505-.542-6.294-4.763-10.379-9.844-13.68-.468-.278-.904-.61-1.601-1.14l-.565-.429c6.512-2.527 12.711-1.811 18.723-1.116l.01.001 1.016.117c4.231.491 8.414 1.266 12.676 2.056 2.268.42 4.559.845 6.891 1.233a8.568 8.568 0 0 1-.308-.34c-.222-.253-.404-.461-.626-.553-12.114-4.55-24.545-5.627-37.244-3.313-.701.132-1.31.63-1.919 1.127-.327.267-.655.535-.997.746.293.29.561.613.826.932.504.607.999 1.204 1.643 1.549 7.641 3.639 12.208 11.029 10.625 21.469-.073.464-.144.928-.215 1.392-1.031 6.75-2.047 13.399-8.544 17.235-3.112 1.847-6.485 3.288-9.841 4.721-1.147.49-2.291.979-3.423 1.483-1.05.481-2.168.858-3.295 1.238-.367.124-.734.248-1.1.376l.063.142c.142.321.268.605.357.952Zm19.771-84.051c1.822 1.032 3.643 2.064 5.483 3.054-.132.316-.28.566-.478.899a2079.97 2079.97 0 0 0-6.849-3.419c-23.46-11.679-46.927-23.361-65.268-43.039.78.014 1.347.294 1.814.74 16.661 15.196 35.518 27.077 55.844 36.676 3.208 1.55 6.331 3.319 9.454 5.089ZM260.463 84.817c1.703 1.602 3.438 3.233 4.292 5.876-4.792-1.89-8.3-6.227-6.948-8.692.771 1.042 1.709 1.924 2.656 2.816Zm-51.406 238.255c1.796-2.113 2.684-4.018 3.557-5.887.486-1.041.966-2.071 1.596-3.12-2.066.903-4.63 5.418-5.153 9.007Zm-67.461-59.508c-1.522.833-3.049 1.668-4.812 1.914 2.432-1.774 6.131-3.681 8.292-3.523-1.221.374-2.349.991-3.48 1.609Zm24.629-187.867c-.38-.757-.653-1.576-.927-2.397-.656-1.968-1.314-3.94-3.441-5.044a8.684 8.684 0 0 0-.497.268l-.019.01c-.043.025-.086.05-.129.073a8.87 8.87 0 0 1-.167.092l-.034.018-.031.016-.117.059a363.969 363.969 0 0 0 1.968 3.846l.001.002c.662 1.28 1.323 2.56 1.968 3.844.497-.268.994-.536 1.425-.787Zm182.183 124.958c.398-1.073.796-2.147 1.149-3.12 1.171.455.758 2.854.287 4.019a348.46 348.46 0 0 1-1.467 3.562c-.884-.422-.846-2.092-.507-3.011l.538-1.45ZM237.612 367.217c.791-.383 1.66-.779 2.529-1.174.495-.225.99-.451 1.471-.674.589-.273 1.221-1.037 1.014-1.652h-.002c-1.139.489-2.279.978-3.4 1.477-.755.336-1.933 1.262-1.612 2.023Z" fill="#596676"/><path d="m172.784 259.244-.001.001h-.001l-.003.002a312.397 312.397 0 0 1-4.383 2.945c13.687 3.051 19.491 13.379 15.322 25.823-3.398 10.211-11.387 15.688-20.573 20.064a55.53 55.53 0 0 0-11.58 7.445c-1.956 1.65-3.71 3.553-5.461 5.452-2.199 2.386-4.395 4.768-6.982 6.639-7.74 5.624-13.086 13.169-18.415 20.779l-2.08 2.637c1.789-10.152.001-19.394-3.692-28.361-2.541-6.1-2.361-12.048.554-17.779 4.068-7.851 6.461-16.19 8.604-24.676 1.304-5.006 6.174-11.621 11.364-14.398.35-.187-.163.748-.163.748-4.545 2.97-9.208 9.559-10.35 15.331-1.695 8.582-4.768 16.743-8.687 24.627-2.487 4.919-2.056 9.939-.364 15.2 1.229 3.718 2.111 7.555 2.991 11.383l.001.001c.439 1.91.878 3.819 1.359 5.708.134.528.351 1.104.569 1.681.174-.009.336.003.497.015.162.011.324.023.498.014l.44-2.122c.899-4.323 1.791-8.613 2.56-12.977 3.108-17.444 10.184-33.159 20.863-47.19 1.728-2.326 4.038-4.23 6.355-6.14l.001-.001c1.137-.936 2.274-1.874 3.346-2.864-20.671 20.51-28.227 46.536-32.648 72.957 1.8-1.775 3.655-3.644 5.555-5.557 2.861-2.882 5.824-5.866 8.853-8.791 1.158-1.12 2.4-2.15 3.634-3.174l.001-.001c2.025-1.68 4.031-3.345 5.621-5.364 5.001-6.403 11.404-10.352 18.754-13.628 9.948-4.43 17.069-11.653 18.457-23.109 1.291-10.447-5.399-18.16-15.91-18.435-.271-.008-.518-.084-.855-.189-.282-.087-.627-.194-1.103-.297 8.858-8.438 18.586-14.287 29.949-17.039 2.022-.515 4.245-.112 6.48.294 1.061.193 2.125.386 3.171.481.026.24.035.483.044.727.009.243.019.487.044.727-13.117-2.862-22.623 3.602-32.636 10.411Z" fill="#596676"/><path d="m181.762 245.127-.048.041c-6.316 5.501-12.52 10.904-18.838 16.128-.76.657-2.263.622-3.493.593l-.191-.004c-.946-.063-1.857-.231-2.817-.407-2.564-.471-5.473-1.006-10.303.223 5.517-.412 9.173.695 12.403 1.673l.439.133.22.066c2.181.629 3.571.066 5.367-1.367 4.189-3.48 8.484-6.813 12.776-10.144l.005-.004c1.779-1.38 3.557-2.76 5.327-4.15.756-.588 1.392-1.284 2.015-1.965.144-.158.288-.315.432-.47-.327-.233-.632-.514-.936-.794-.565-.521-1.125-1.037-1.808-1.226-8.121-2.136-16.313-4.21-24.488-6.279l-.002-.001-.003-.001c-2.126-.538-4.252-1.076-6.374-1.615-.82-.209-1.623-.075-2.538.437a4601.808 4601.808 0 0 1 32.855 9.133ZM37.187 152.386l-2.757-3.013c2.98-.486 6.174 2.777 6.25 6.834-1.146-1.259-2.28-2.498-3.492-3.82l-.001-.001Zm43.807-24.91c1.248.442 2.402.849 3.507 1.239 1.539.543 2.98 1.052 4.44 1.571-2.028-2.995-5.978-4.26-7.947-2.81Zm5.651 157.327c.608-.257 1.235-.521 1.924-.656-.959 2.249-5.004 3.168-8.273 1.619.733-.142 1.493-.161 2.262-.181.794-.02 1.6-.041 2.395-.197.57-.112 1.123-.345 1.692-.585Zm194.724-106.094c-.96 1.336-1.846 2.573-2.693 3.755-1.183 1.65-2.29 3.195-3.416 4.757 4.474-1.029 7.342-5.326 6.109-8.512Zm157.664 103.54-.027-.011-.128-.05c-10.513-4.087-21.23-8.254-31.466-12.135-.631-.245-.967-.134-1.5.044-.203.067-.434.144-.721.214 11.877 3.933 22.928 8.947 34.036 13.986l.002.001c6.254 2.837 12.811 5.47 18.599 7.617l1.346-1.873c-6.707-2.614-13.431-5.185-20.141-7.793Z" fill="#596676"/></svg>