<svg width="408" height="376" fill="none" xmlns="http://www.w3.org/2000/svg"><path d="M12.53 337.15s20.252-12.635 31.467-17.629c4.393-1.958 8.67-4.677 12.008-8.042 5.284-6.624 13.121-10.617 20.884-13.853 7.82-3.223 15.356-7.033 22.937-10.865l.945-.478c4.651-2.334 9.238-4.605 14.664-3.765 1.064.17 2.13.335 3.197.501 4.628.718 9.274 1.439 13.831 2.535 9.576 2.356 9.933 3.879 5.817 12.733-5.031 10.865-5.762 21.794 2.501 31.655 6.026 7.235 13.212 12.97 22.533 15.512l2.438.674c9.626 2.667 19.196 5.32 29.345 5.238 4.869.009 9.672.144 14.538.343 1.175.061 1.869.166 2.724.296.386.058.805.122 1.316.189.035-.19-.231-.415-.496-.64-.266-.225-.531-.451-.497-.64-5.701-.955-11.462-1.203-17.22-1.45-7.85-.338-15.695-.676-23.376-2.804-10.517-2.876-20.009-6.685-27.667-14.704-7.348-7.697-9.809-16.524-6.812-26.66.716-2.414 1.889-4.678 3.057-6.934v-.001c.568-1.097 1.135-2.193 1.648-3.302 1.83-3.956.423-7.139-3.664-8.718-8.927-3.484-18.268-4.698-27.814-4.84-2.087-.031-4.432.376-6.281 1.361-2.112 1.123-4.206 2.285-6.3 3.447-7.194 3.994-14.391 7.988-22.362 10.417-8.194 2.47-16.815 8.096-21.45 13.592-3.207 3.05-7.041 5.776-11.116 7.612-11.298 5.131-31.94 17.885-31.94 17.885l1.145 1.335Zm55.36-89.171c-.294-.383-.585-.771-.875-1.159-.872-1.163-1.744-2.326-2.724-3.384-5.85-6.347-12.212-12.196-19.864-16.421-12.982-7.212-23.777-16.921-32.194-29.188-.415-.619-.9-1.239-1.635-2.176-.25-.321-.53-.678-.846-1.086.074.534.13.974.176 1.349.1.784.162 1.284.283 1.757 1.9 7.127 1.568 14.314 1.236 21.514a417.94 417.94 0 0 0-.155 3.606c-.114 3.35.477 6.141 2.779 8.705 2.427 2.628 3.708 5.746 3.336 9.534-.376 3.979 1.538 7.106 4.153 9.864 10.155 13.541 18.069 14.155 28.84 14.992h.002c1.132.088 2.295.178 3.496.286 3.41.304 6.881.735 9.05 3.676.806 1.151 1.218 3.18.82 4.439-2.526 6.023-3.961 9.274-4.377 9.943-1.29 3.395-2.599 6.808-3.98 10.115l-.031.073-.1.24c-1.139 2.736-2.329 5.596-5.923 6.217 1.821-3.447 3.6-6.82 5.352-10.146 2.212-4.195 4.383-8.313 6.547-12.404.161-.447.332-.917.513-1.412 1.65-4.655.608-6.884-4.176-8.346-1.7-.531-3.53-.748-5.3-.838-12.95-.762-20.143-1.881-32.01-15.969-2.743-2.697-4.588-6.202-4.339-10.182.184-3.903-1.53-6.704-3.435-9.816l-.023-.037c-1.358-2.17-2.266-4.903-2.544-7.5-.259-2.582-.089-5.236.082-7.906v-.005c.047-.733.094-1.468.132-2.203.742-11.624-1.437-22.407-9.078-31.563-.118-.162-.184-.349-.249-.528-.037-.104-.073-.206-.118-.3.192-.186.385-.373.578-.623.962 1.055 1.94 2.11 2.918 3.166l.007.007.007.008c.978 1.056 1.956 2.111 2.918 3.166 6.655 7.434 14.29 12.797 24.585 13.582 3.127.24 6.25.74 9.372 1.239 1.987.318 3.975.636 5.963.887 11.801 1.567 21.974 6.335 29.934 15.369 1.181 1.346 2.106 2.94 2.841 4.532-.47-.437-.944-.875-1.418-1.313-1.478-1.365-2.966-2.739-4.381-4.148-5.794-5.841-12.628-9.8-20.762-11.376-4.98-.959-9.966-1.666-15.016-2.247-9.469-1.089-18.743-2.555-26.165-9.432 4.255 7.272 9.278 13.923 15.843 18.89 3.909 2.936 7.995 5.621 12.08 8.306 4.087 2.685 8.173 5.37 12.081 8.305 4.104 3.124 7.774 6.782 11.442 10.437l.012.012.026.026a434.357 434.357 0 0 0 3.053 3.021c.674.651 1.084 1.616 1.487 2.566.194.457.386.909.605 1.323-.184.143-.347.244-.5.34-.053.033-.106.065-.157.099a4.82 4.82 0 0 0-.14.093l-.006.005-.027.019ZM225.156 65.423c4.416-16.249 8.83-32.434 13.245-48.62l.044.012.038.01h.002c.211.059.378.104.547.05.063 1.07.089 2.151.114 3.233l.001.032c.056 2.366.112 4.734.554 6.99 2.765 13.89 6.673 27.48 12.677 40.469 4.351 9.297 7.495 18.956 6.959 29.508-.03.674-.065 1.35-.099 2.026-.187 3.636-.374 7.295.159 10.875 1.062 7.255 2.266 14.497 3.47 21.739l.001.003c1.204 7.242 2.408 14.484 3.47 21.74 1.605 11.09.621 21.952-3.583 32.513-6.24 15.589-24.336 24.868-42.075 18.596-5.348-1.85-10.697-3.574-16.585-3.092-2.595.151-3.679.767-4.286 3.35l-.337 1.448-.001.005c-1.495 6.445-2.982 12.856-6.54 18.743-2.71 4.491-4.599 9.454-6.483 14.407-.325.853-.65 1.706-.978 2.556-.462 1.257.076 3.352.881 4.502.371.575 2.655.103 3.927-.384 1.427-.551 2.832-1.186 4.238-1.822l.012-.005c1.849-.836 3.702-1.673 5.613-2.326 2.952-.972 5.926-1.86 8.899-2.747l.01-.003c3.871-1.156 7.738-2.31 11.548-3.648 9.152-3.152 17.258-8.153 24.933-13.983 2.557-1.925 5.266-3.653 7.977-5.382 3.051-1.945 6.106-3.893 8.951-6.127 5.054-3.931 9.804-8.253 14.547-12.569l.001-.001a953.352 953.352 0 0 1 3.968-3.596c4.102-3.669 5.561-8.264 3.658-12.086-4.727-9.556-6.29-19.254-4.802-29.982 1.626-11.484 5.258-21.864 12.412-30.926 1.989-2.462 4.058-4.896 6.12-7.32l.001-.001.037-.043c1.065-1.253 2.128-2.503 3.177-3.753a5.914 5.914 0 0 0-.312-.289c-.109-.097-.219-.193-.312-.289-1.06 1.211-2.128 2.405-3.192 3.595l-.007.008-.002.002c-1.839 2.056-3.667 4.099-5.418 6.194-10.945 13.053-14.591 28.618-14.141 45.066.168 5.693 2.357 11.607 4.744 16.891 2.021 4.456 1.149 7.795-1.864 10.532-7.693 7.031-15.51 13.934-23.637 20.389-3.127 2.455-6.485 4.607-9.842 6.759-2.413 1.546-4.825 3.092-7.15 4.749-7.798 5.575-16.331 9.559-25.415 12.395-7.497 2.355-14.996 4.836-22.495 7.317-1.171.357-2.29.852-3.59 1.428-.674.298-1.396.618-2.199.952.096-.667.154-1.268.208-1.817.103-1.065.188-1.938.492-2.726 1.114-2.671 2.292-5.309 3.47-7.947 1.177-2.639 2.355-5.277 3.469-7.948.362-.883.73-1.766 1.098-2.65 1.573-3.771 3.152-7.558 4.234-11.435 2.071-7.431 4.243-8.916 11.736-6.781.504.134 1.007.299 1.511.465.503.165 1.007.331 1.511.465.931.271 1.863.552 2.796.833 2.977.899 5.971 1.803 9.044 2.379 15.26 2.883 28.843-4.756 36.165-16.598 4.536-7.394 6.116-15.844 6.497-24.438.577-13.208-1.443-26.201-4.097-39.077-.27-1.343-.551-2.684-.832-4.025-1.619-7.72-3.239-15.443-2.743-23.409.505-8.403-.385-16.573-3.302-24.521-1.272-3.47-2.561-6.936-3.849-10.4l-.001-.001-.002-.007c-2.961-7.958-5.92-15.913-8.663-23.925-3.636-10.615-5.625-21.458-2.801-32.734.403-1.712.335-3.514.258-5.547a62.04 62.04 0 0 1-.063-3.303c-.434.69-.793 1.206-1.099 1.647-.333.48-.605.871-.842 1.296-.855 1.446-1.715 2.887-2.574 4.328l-.005.009c-2.268 3.8-4.533 7.596-6.698 11.46-3.962 7.023-9.604 12.187-16.803 15.748a333.503 333.503 0 0 0-15.616 8.304c-9.438 5.36-18.816 10.849-26.769 18.382-8.112 7.68-14.645 16.68-21.174 25.673l-.006.007a615.53 615.53 0 0 1-5.687 7.75c-.313.434-.355 1.023-.398 1.617-.019.263-.038.527-.08.779l.943.393c.987-1.326 1.979-2.652 2.972-3.98 2.705-3.617 5.417-7.244 8.062-10.905 7.557-10.637 15.739-20.76 26.722-27.931 10.152-6.552 20.862-12.336 31.506-17.995 7.585-3.998 13.734-9.281 17.955-16.743 1.117-1.976 2.362-3.853 3.787-6.002v-.001l.002-.002.003-.005.005-.008c.561-.846 1.151-1.735 1.771-2.689-1.255 3.88-2.478 7.616-3.672 11.267l-.001.003-.003.01a2088.096 2088.096 0 0 0-5.138 15.843c-4.178 13.027-6.317 25.01-4.889 26.802Z" fill="#596676"/><path fill-rule="evenodd" clip-rule="evenodd" d="M350.109 244.821a571.58 571.58 0 0 0-4.848 1.598c-.003.19.058.381.12.445.111.024.223.064.331.102.198.071.387.139.551.101l1.308-.341c11.249-2.928 22.505-5.858 30.98-14.924 7.261-7.796 16.309-12.404 26.773-14.398.375-.032.708-.175 1.142-.363.298-.129.643-.278 1.083-.426a19.233 19.233 0 0 1-.806-.383l-.002-.001-.001-.001c-.355-.176-.589-.292-.825-.335-8.393-1.136-14.839-5.659-20.95-11.378-8.855-8.352-19.069-14.638-31.371-16.592-.405-.087-.808-.279-1.511-.613-.392-.186-.876-.416-1.504-.697.417-.168.758-.292 1.042-.396.538-.196.87-.317 1.121-.52 7.751-6.651 13.876-14.59 17.558-24.02 1.664-4.246 2.738-8.719 3.811-13.191.453-1.886.905-3.771 1.402-5.639 1.941-7.243 1.86-14.516.009-21.816-2.447-9.774-2.935-19.52.687-29.14.133-.354.268-.708.404-1.061l.002-.007c.73-1.91 1.463-3.825 1.972-5.79.319-1.077.432-2.245.563-3.604.061-.627.126-1.295.216-2.012a25.28 25.28 0 0 1-.814.487l-.003.002c-.207.12-.267.155-.268.19-.18.403-.333.807-.484 1.204-.179.47-.354.93-.566 1.373-2.481 5.275-5.403 10.353-11.801 11.143-6.272.792-12.604 1.393-18.862 1.237-12.201-.245-23.623 2.43-34.696 7.134-.333.137-.597.416-.87.705-.093.097-.186.196-.283.29 2.026-.159 3.804-.702 5.523-1.435 9.162-3.784 18.729-5.033 28.604-5.708 2.493-.179 5.019-.152 7.553-.125 7.115.075 14.297.151 21.032-4.318-2.146 3.898-5.115 7.008-8.042 10.075-3.102 3.25-6.157 6.451-8.137 10.488 3.64-3.824 7.252-7.648 10.968-11.582 1.859-1.969 3.744-3.965 5.672-6.002-2.523 8.056-2.195 15.776-.223 23.456 2.209 8.76 1.954 17.419.241 26.31-2.676 14.061-8.111 26.564-18.191 36.784-2.054 2.056-4.361 4.109-6.972 5.335-5.858 2.695-11.778 5.326-17.875 7.132-11.814 3.492-23.528 4.582-34.609-2.919-2.88-1.94-6.299-1.674-9.238.369-1.916 1.299-3.71 2.853-5.315 4.473-3.916 3.895-7.798 7.863-11.67 11.821l-.021.022c-1.262 1.289-2.522 2.577-3.783 3.862a73.227 73.227 0 0 0-1.963 2.135c-.349.389-.699.78-1.058 1.171.093.16.201.32.309.479.108.16.217.32.309.479a152.07 152.07 0 0 0 2.071-.783h.001a116.98 116.98 0 0 1 2.952-1.102c2.978-1.055 5.856-2.367 8.735-3.679 5.234-2.385 10.472-4.772 16.318-5.623 4.763-.656 9.53-1.609 14.254-2.552l1.851-.37c.825-.177 2.163-.853 2.299-1.546.409-1.955 1.55-2.127 3.194-2.166 9.299-.178 18.31-2.32 26.466-6.498 6.882-3.502 13.055-1.893 19.412.099 9.249 2.9 16.457 8.873 23.76 14.925 3.73 3.091 7.485 6.202 11.549 8.935a30.78 30.78 0 0 0-.879.105c-.671.087-1.243.161-1.78.108-1.889-.202-3.777-.38-5.664-.558h-.002l-.006-.001h-.006c-4.291-.405-8.573-.809-12.82-1.487a201.178 201.178 0 0 0-3.585-.544c-4.822-.701-9.701-1.411-13.871-3.447-12.053-5.934-24.678-7.387-37.703-7.517-.853-.013-1.742.197-2.617.404-.357.084-.711.168-1.06.236.03.159.043.317.056.475.014.159.027.317.057.476 1.433.021 2.86.028 4.285.035h.006c2.845.015 5.68.029 8.542.156 9.29.391 18.244 2.105 26.461 6.591 1.694.91 3.517 1.633 5.346 1.913 9.336 1.531 18.672 3.061 28.076 4.276 2.43.297 4.926.266 7.419.235 1.133-.014 2.265-.028 3.391-.011-.205 1.009-.526 1.32-.843 1.379-7.297 1.662-13.235 5.557-18.81 10.469-.82.722-1.629 1.46-2.439 2.199h-.001c-3.935 3.591-7.885 7.194-13.155 8.951-1.803.605-3.572 1.262-5.334 1.917l-.002.001-.002.001h-.001l-.004.001-.002.001-.002.001h-.002l-.002.001c-1.586.589-3.165 1.176-4.758 1.721a609.583 609.583 0 0 1-4.847 1.599l-.028.009Zm-40.651-44.274c-13.984.614-26.889 5.227-40.05 10.027 2.537-2.618 5.058-5.252 7.579-7.887 2.521-2.634 5.042-5.268 7.579-7.886 3.917-3.989 7.462-4.252 12.549-1.9 2.613 1.209 5.369 2.143 8.117 3.075 1.411.479 2.822.958 4.209 1.472.446.17.811.496 1.182.828.204.182.41.367.632.527a8.54 8.54 0 0 0-.502.614c-.417.539-.844 1.092-1.295 1.13Z" fill="#596676"/><path d="M249.604 351.418c-4.099-13.53-8.317-27.504-12.534-41.542.095-.062.175-.124.255-.186.08-.062.161-.124.256-.186.358.721.76 1.427 1.162 2.131.769 1.351 1.534 2.693 1.97 4.113 1.244 4.104 2.386 8.245 3.528 12.39l.006.019c1.401 5.086 2.806 10.179 4.402 15.216 1.389 4.384 3.54 8.527 5.693 12.606 1.787 3.388 3.695 6.706 5.605 10.026 1.18 2.051 2.36 4.102 3.512 6.171.554 1.02.788 2.288.64 3.741a3.941 3.941 0 0 0-.331-.297c-.215-.179-.42-.35-.541-.602-3.308-7.131-8.736-12.081-15.249-16.352-5.135-3.364-10.557-4.457-16.441-4.228-2.531.088-5.058-.076-7.585-.24-1.01-.078-2.015-.536-2.889-1.308 2.234.074 4.493.016 6.753-.042 8.351-.214 16.706-.428 23.827 5.999-22.11-35.424-52.802-59.342-92.972-71.006 9.597.965 18.395 4.637 26.74 9.061 8.47 4.427 16.873 9.168 24.632 14.722a170.643 170.643 0 0 1 21.541 18.406c4.59 4.728 8.745 9.908 12.771 14.929l.001.001.001.001c1.765 2.2 3.505 4.37 5.247 6.457ZM115.787 276.24a8.575 8.575 0 0 1-.648.645c2.929.53 5.817 1.075 8.676 1.615h.004l.003.001h.001l.003.001c7.169 1.353 14.155 2.671 21.145 3.633 2.398.289 5.833-1.051 7.567-2.859 6.681-6.983 14.59-7.308 23.099-5.473 2.335.503 4.641 1.168 6.944 1.833 2.671.771 5.34 1.542 8.048 2.058 14.126 2.613 25.788 9.3 35.303 20.002.509.576 1.103 1.026 1.713 1.489l.145.109.266.204c.204-1.009.022-1.517-.289-1.838-6.727-6.867-13.581-13.735-22.957-16.783-10.509-3.445-21.084-6.701-31.862-9.075-7.5-1.692-14.918-.348-20.637 5.763-2.956 3.181-6.695 3.695-10.729 2.813-.659-.136-1.335-.272-2.01-.409l-.007-.001c-.678-.136-1.356-.273-2.017-.409a905.97 905.97 0 0 0-7.025-1.495l-.007-.002c-2.347-.493-4.694-.986-7.025-1.495a3.287 3.287 0 0 1-.059-.442 4.738 4.738 0 0 0-.055-.445c2.481-.895 4.938-1.875 7.394-2.853 5.539-2.207 11.068-4.411 16.825-5.639 14.869-3.119 28.91-8.56 42.951-14 9.082-3.519 18.163-7.038 27.47-9.929.655-.208 1.283-.565 2.026-.988.337-.193.698-.398 1.096-.609-.27-.13-.479-.238-.641-.322l-.003-.002c-.325-.169-.465-.241-.549-.2-2.584.849-5.198 1.644-7.817 2.44-6.336 1.925-12.696 3.858-18.687 6.587-13.524 6.158-27.63 10.129-41.826 14.125l-2.723.767c-7.542 2.115-14.94 4.654-22.354 7.198l-.002.001a907.861 907.861 0 0 1-9.988 3.385c-.275.075-.479.295-.762.599Zm11.053-11.959c1.102-.595 2.196-1.186 3.367-1.336 7.477-1.027 14.286-3.897 21.161-6.956 4.647-2.081 9.724-3.334 14.736-4.46 6.345-1.423 10.638-5.217 13.755-10.672 1.025-1.786 2.087-3.549 3.147-5.31 2.03-3.371 4.056-6.734 5.811-10.239 2.355-4.692 4.372-9.517 6.397-14.364.44-1.054.881-2.108 1.326-3.163.273-.613.272-1.321.271-1.93v-.004a6.983 6.983 0 0 1 .021-.718c-2.583.477-5.136.992-7.671 1.503l-.003.001h-.004l-.004.001-.002.001h-.003l-.004.001-.008.001-.003.001c-5.544 1.118-11.005 2.219-16.519 2.873-8.362 1.014-15.902-2.197-23.184-5.783.034-.189.084-.363.134-.536.05-.173.1-.346.135-.535.294.067.602.114.911.161.617.093 1.234.187 1.736.447 12.929 6.516 25.968 5.636 39.131.71 1.497-.547 3.11-.759 4.74-.973.724-.095 1.451-.19 2.172-.315a29.956 29.956 0 0 0-.043 2.15c.005 1.693.011 3.388-.629 4.795-2.619 5.969-5.613 11.678-8.671 17.45-.931 1.797-1.947 3.549-2.961 5.299-1.465 2.528-2.927 5.05-4.125 7.685-3.331 7.16-9.015 10.932-16.258 13.227-3.758 1.224-7.464 2.629-11.164 4.031l-.009.003-.002.001c-3.242 1.229-6.48 2.456-9.743 3.558-4.829 1.627-9.729 3.029-14.647 4.436-1.49.426-2.98.853-4.471 1.286a5.817 5.817 0 0 0-.548-1.462c.585-.25 1.156-.558 1.725-.865Zm-36.613-17.298c1.199-4.029 1.13-7.95-1.34-11.845-.084.129-.154.233-.21.316-.164.241-.21.311-.116.312a2.394 2.394 0 0 0-.014.948c2.4 8.636-1.237 15.095-7.579 20.565-.732.622-1.474 1.233-2.216 1.844-1.855 1.527-3.71 3.055-5.407 4.745-6.186 6.106-8.624 14.011-11.05 21.877-.568 1.844-1.136 3.687-1.752 5.503-1.056 3.02 2.135 5.28 5.384 3.685 10.002-5.037 20.07-10.135 29.765-15.745a208.372 208.372 0 0 0 4.473-2.687l.001-.001.001-.001c5.57-3.41 11.146-6.823 17.755-8.172.889-.198 1.722-.509 2.556-.82.417-.155.834-.31 1.257-.452-.029-.127-.075-.254-.12-.381a3.496 3.496 0 0 1-.121-.381c-.343.041-.686.048-1.023.056-.595.013-1.172.025-1.7.22-1.369.527-2.751 1.024-4.132 1.521-3.561 1.282-7.111 2.559-10.373 4.333-2.846 1.553-5.583 3.3-8.318 5.046-5.72 3.651-11.435 7.299-18.136 9.167-.594.188-1.141.573-1.685.956-.33.232-.658.463-.995.648-.758.407-1.516.822-2.276 1.238-2.114 1.158-4.237 2.321-6.392 3.313-.787.358-1.677.448-2.814.562-.61.061-1.292.129-2.067.25.509-1.608.977-3.133 1.427-4.597l.003-.007.018-.06v-.003l.007-.018.001-.005c.947-3.083 1.812-5.897 2.79-8.652.926-2.706 1.914-5.41 3.341-7.792 3.179-5.39 7.481-9.816 12.471-13.662 3.967-3.103 7.122-6.913 8.586-11.824Zm115.954-62.392c.194-.502.394-1.004.595-1.507.478-1.199.96-2.408 1.379-3.649 7.664-22.081 12.047-44.654 10.309-68.076-.625-8.989-.746-17.844.587-26.677.035-.243.063-.49.092-.74.211-1.821.438-3.773 2.908-5.349-.167 1.131-.31 2.175-.446 3.162v.003c-.265 1.93-.501 3.642-.819 5.353-1.176 6.418-.846 12.826-.516 19.248.134 2.601.268 5.206.302 7.813.192 16.824-.184 33.575-6.178 49.674-1.242 3.322-2.236 6.747-3.232 10.179v.002c-.588 2.024-1.176 4.05-1.815 6.059-.369 1.178-.98 2.293-1.58 3.388-.266.484-.529.965-.769 1.446-.315-.068-.566-.199-.817-.329Zm-72.215-67.355c.011-.364.021-.727.071-1.065a5.394 5.394 0 0 1-.568-.045c-.122-.014-.235-.027-.337-.031l-.022-.001h-.02c-8.183 14.422-11.764 29.861-11.315 46.372.338 11.324 4.941 20.688 12.918 28.522.389.35.856.664 1.309.969l.004.002.007.005c.125.084.249.167.369.25.015-1.011-.23-1.521-.666-1.97-5.296-5.327-8.998-11.453-10.722-18.877-1.662-7.297-1.744-14.507-.75-21.827 1.425-10.729 4.17-20.932 9.434-30.466.251-.524.27-1.183.288-1.838Zm200.398 130.602c-1.782-.261-3.592-.431-5.402-.601-6.972-.656-13.949-1.312-19.334-7.166-1.555-1.73-2.85-3.899-3.577-6.06-1.454-4.258-2.718-8.577-3.411-12.951-.863-5.767 2.051-10.34 5.905-14.393.361-.35.681-.741 1.193-1.366l.416-.507c-6.389-.873-11.801 1.099-17.05 3.012l-.009.003-.886.322c-3.694 1.349-7.283 2.941-10.941 4.564-1.946.863-3.912 1.735-5.923 2.584.077-.131.143-.256.204-.372.145-.274.264-.5.443-.63 9.901-6.682 20.832-10.314 32.729-10.958.659-.032 1.312.284 1.964.6.352.17.704.34 1.056.456-.201.324-.372.671-.542 1.014-.322.654-.639 1.295-1.143 1.744-6.081 4.905-8.597 12.518-4.937 21.552l.491 1.204c2.372 5.839 4.71 11.592 11.365 13.643 3.191.991 6.528 1.561 9.849 2.129 1.134.194 2.266.388 3.39.598 1.047.206 2.131.305 3.224.405.356.033.712.065 1.068.102a5.09 5.09 0 0 1-.026.141c-.059.318-.111.6-.116.931Zm-35.769-71.226c-1.414 1.317-2.828 2.634-4.268 3.917.186.256.373.448.622.705 1.802-1.516 3.609-3.027 5.417-4.538 18.559-15.514 37.124-31.033 49.374-52.632a2.358 2.358 0 0 0-1.47 1.053c-11.702 17.215-26.086 31.924-42.277 44.899-2.548 2.079-4.972 4.337-7.398 6.596Zm-159.738-71.725c-1.186 1.803-2.393 3.64-2.594 6.196 3.898-2.724 6.117-7.371 4.375-9.294-.468 1.101-1.121 2.094-1.781 3.098Zm97.227 202.895c-2.066-1.513-3.272-3.032-4.456-4.524-.659-.83-1.312-1.652-2.102-2.459 2.048.369 5.318 3.873 6.558 6.983Zm47.812-67.889c1.546.421 3.095.844 4.731.687-2.564-1.072-6.294-1.991-8.2-1.387 1.176.074 2.321.387 3.469.7ZM221.513 76.498c.178-.76.248-1.555.318-2.35.168-1.908.335-3.82 2.008-5.267.158.034.331.084.504.134l.019.005a21.79 21.79 0 0 0 .301.085l.035.009.031.007.118.028a339.974 339.974 0 0 1-.943 3.875l-.001.002c-.319 1.29-.638 2.582-.942 3.873a46.648 46.648 0 0 1-1.448-.401ZM84.728 227.742a426.715 426.715 0 0 1-1.7-2.555c-.955.66-.069 2.725.603 3.671.683.96 1.382 1.922 2.08 2.883.704-.569.312-2.06-.19-2.812-.26-.391-.526-.789-.793-1.187Zm135.18 125.795c-.792-.174-1.657-.343-2.522-.512-.493-.096-.986-.192-1.465-.289-.588-.119-1.319-.67-1.265-1.267l.002.001c1.128.194 2.256.389 3.37.597.749.14 2.006.718 1.88 1.47Z" fill="#596676"/><path d="M254.969 242.699h.001l.001.001.003.001c1.509.573 3.029 1.15 4.566 1.704-11.635 5.673-14.632 16.19-8.221 26.47 5.239 8.439 13.586 11.644 22.772 13.603a51.324 51.324 0 0 1 11.993 4.202c2.11 1.063 4.092 2.395 6.072 3.725 2.486 1.671 4.967 3.339 7.691 4.464 8.155 3.391 14.572 9.018 20.988 14.709l2.433 1.922c-3.783-8.732-4.159-17.412-2.765-26.256.974-6.02-.462-11.322-4.308-15.843-5.336-6.177-9.272-13.151-13.015-20.311-2.243-4.214-8.034-9.11-13.289-10.491-.354-.093.307.637.307.637 4.717 1.692 10.316 6.609 12.578 11.546 3.362 7.342 7.87 14.01 13.079 20.249 3.288 3.883 3.976 8.483 3.585 13.569-.306 3.601-.276 7.236-.246 10.861v.001c.015 1.81.03 3.617.004 5.416-.008.503-.079 1.067-.151 1.632-.158.029-.301.075-.444.12a3.58 3.58 0 0 1-.443.119l-.851-1.811c-1.733-3.688-3.453-7.349-5.079-11.102-6.53-14.996-16.252-27.588-28.848-37.897-2.049-1.718-4.532-2.932-7.021-4.15l-.002-.001c-1.221-.597-2.443-1.195-3.617-1.854 22.955 13.984 35.318 35.73 44.951 58.505a676.04 676.04 0 0 1-6.178-3.799c-3.187-1.974-6.487-4.018-9.834-5.995-1.28-.757-2.615-1.416-3.943-2.071h-.001c-2.178-1.075-4.336-2.14-6.196-3.612-5.864-4.676-12.458-6.849-19.76-8.215-9.881-1.845-17.823-6.804-21.525-16.792-3.398-9.103.955-17.462 10.333-19.962.242-.065.447-.187.728-.353.234-.139.521-.309.926-.503-9.761-5.677-19.75-8.844-30.542-8.879-1.926-.028-3.835.81-5.755 1.654-.911.4-1.825.801-2.744 1.111.028.221.072.442.116.662.044.221.088.442.117.662 11.164-5.381 21.083-1.615 31.534 2.352Z" fill="#596676"/><path d="m243.882 231.948.052.028c6.85 3.585 13.578 7.106 20.37 10.441.823.427 2.165.074 3.263-.215l.171-.045c.836-.26 1.618-.605 2.442-.969 2.201-.973 4.699-2.077 9.299-2.009-5.043.813-8.088 2.591-10.778 4.161l-.366.213-.183.106c-1.824 1.033-3.192.826-5.112-.076-4.507-2.227-9.078-4.298-13.645-6.369l-.005-.002a1003.31 1003.31 0 0 1-5.673-2.585c-.804-.366-1.525-.854-2.23-1.332-.164-.111-.326-.221-.489-.329a9.1 9.1 0 0 0 .67-.914c.396-.589.789-1.172 1.361-1.488 6.833-3.659 13.744-7.277 20.64-10.887l.002-.001.002-.001c1.794-.94 3.587-1.878 5.377-2.817.692-.364 1.441-.415 2.372-.152a4284.276 4284.276 0 0 0-27.54 15.242Zm109.924-114.256c.577-1.038 1.18-2.123 1.83-3.296-2.78.202-4.948 3.816-4.146 7.475.759-1.376 1.512-2.731 2.316-4.178v-.001Zm-44.671-12.975-2.882 1.864c-1.266.818-2.452 1.584-3.651 2.363 1.179-3.124 4.454-5.106 6.533-4.227Zm28.651 142.465c-.601-.1-1.22-.203-1.868-.176 1.343 1.814 5.171 1.771 7.774-.32-.688.03-1.374.175-2.069.322-.717.152-1.445.306-2.193.337-.535.021-1.081-.07-1.644-.163Zm-197.572-53.514 3.223 2.794c1.415 1.228 2.74 2.378 4.087 3.539-4.238.035-7.734-3.208-7.31-6.333ZM20.852 320.426l.022-.015.104-.073c8.563-5.923 17.291-11.961 25.65-17.64.514-.356.84-.327 1.356-.282.196.017.42.036.694.038-9.821 6.077-18.668 12.947-27.561 19.853l-.002.001c-5.007 3.888-10.33 7.658-15.066 10.825l-1.61-1.392c5.462-3.785 10.948-7.535 16.413-11.315Z" fill="#596676"/></svg>