<svg version="1.1" id="Layer_1" xmlns="http://www.w3.org/2000/svg" x="0" y="0" width="162.8" height="165.8" style="enable-background:new 0 0 162.8 165.8" xml:space="preserve"><style>.st0{fill:#292929}</style><path class="st0" d="M158.6 106c.7.3 1.2.6 1.6 1.1.4.5.7 1 .9 1.6s.3 1.2.3 1.9-.2 1.3-.4 2c-.4.9-1 1.8-1.8 2.7-.5.4-.8.8-.9 1.1-.1.4-.1.7 0 1v.1l-3.1-1.2h1.2c.5-.1 1-.2 1.4-.5.4-.2.9-.5 1.2-.8.4-.3.7-.7 1-1.1s.5-.8.7-1.3.3-.9.3-1.5c0-.5 0-1-.2-1.4-.1-.4-.4-.9-.7-1.2-.3-.4-.7-.6-1.2-.8-.7-.3-1.4-.3-2.1 0-.9.3-2.4 1.3-4.4 3-.8.7-1.5 1.2-2 1.7-.6.5-1 .8-1.4 1-.6.3-1.3.6-2 .7s-1.4 0-2.1-.3c-1.2-.5-2.1-1.4-2.7-2.7-.5-1.3-.5-2.8.1-4.4.2-.6.5-1.1.8-1.5s.6-.9 1-1.3c.4-.5.7-.9.9-1.1.1-.2.2-.4.3-.5.1-.2.1-.4.1-.6s-.1-.3-.1-.4l3.2 1.2h-.8c-.2 0-.5 0-.7.1-.5.1-1 .3-1.4.5-.4.3-.9.6-1.3 1s-.7.8-1 1.3-.6.9-.7 1.3c-.2.5-.3 1-.4 1.6 0 .6 0 1.1.1 1.6s.4.9.7 1.3.8.7 1.4.9c.6.2 1.2.3 1.9.1.7-.1 1.3-.4 1.8-.7.2-.1.6-.4 1.1-.8s1.1-.9 1.9-1.5c.7-.6 1.4-1.1 2-1.6.6-.4 1-.7 1.4-.9.6-.4 1.3-.7 2-.8.6-.3 1.4-.2 2.1.1zm-9.6 10.8c1.2.8 2.1 1.6 2.9 2.6.8 1 1.3 2.1 1.6 3.2s.4 2.3.2 3.5-.7 2.5-1.5 3.7l-.3.5c-.4.6-.8 1.1-1.2 1.5s-.8.7-1.1.9-.6.4-.9.5c-.3.1-.5.3-.6.5-.2.2-.2.5-.2.7 0 .3 0 .5.1.8l-3.1-1.7c.6.1 1.3 0 1.9-.1.6-.1 1.3-.3 1.8-.5.6-.2 1.1-.5 1.6-.9s.9-.8 1.3-1.4c.8-1.2 1.2-2.4 1.4-3.5.1-1.1 0-2.2-.4-3.2s-1-1.9-1.8-2.8-1.7-1.7-2.8-2.4c-1.1-.7-2.2-1.3-3.3-1.7-1.1-.4-2.2-.6-3.3-.5s-2.1.4-3.1.9c-1 .6-1.9 1.4-2.7 2.6-.7 1.1-1.1 2.3-1.1 3.5s.4 2.5 1.1 3.7l-2.9-2.2c.6 0 1-.3 1.3-.7.1-.2.2-.4.2-.7 0-.2 0-.6.1-1 0-.4.2-.8.3-1.3.2-.5.5-1.2 1-1.9l.3-.5c.8-1.2 1.7-2.2 2.8-2.9 1-.7 2.1-1.1 3.3-1.2 1.2-.2 2.3-.1 3.6.2 1.1.5 2.3 1.1 3.5 1.8z"/><path class="st0" d="M132.5 125.5c0 .2.1.4.3.7.2.3.5.8 1.1 1.4l8.9 9.2c.5.5.9.9 1.3 1.1.4.3.7.4 1 .4h.4l-3.9 3.7c-.5.5-1.2 1-1.9 1.5s-1.4.9-2.1 1.1c-.7.2-1.5.3-2.2.2s-1.4-.5-2.1-1.2c-.5-.5-.8-1-1-1.5s-.2-1.1-.2-1.6.2-1.1.4-1.6.5-1.1.8-1.6l.4-.7-7.7-1.4c-.4-.1-.7-.1-1.1-.2-.4-.1-.8-.1-1.2-.1-.4 0-.8 0-1.2.1-.4.1-.7.2-1.1.3l2.1-2 11.2 2c-.4.5-.7 1.1-.9 1.6-.2.6-.4 1.1-.4 1.7 0 .6.1 1.1.3 1.7.2.6.6 1.1 1 1.6.5.5 1 .9 1.6 1.1.5.3 1.1.4 1.8.4.4 0 .7 0 1-.1s.6-.2.8-.3.5-.3.7-.5.5-.4.8-.7l2-1.9-10.8-11.2c-1-1-1.7-1.5-2.3-1.5h-.5l2.6-2.5v.4c.1.1.1.3.1.4zm-4.6 16.9c1.5 2.6 1.9 5.2 1.1 7.8-.3 1.2-.8 2.2-1.5 3-.7.9-1.5 1.6-2.6 2.2-1 .6-2.2 1-3.3 1.2-1.2.2-2.4.1-3.6-.3-2.5-.7-4.4-2.2-5.8-4.6-.7-1.2-1.2-2.5-1.4-3.7-.2-1.2-.2-2.5.1-3.8.3-1.2.8-2.4 1.5-3.4s1.6-1.8 2.7-2.4c1.1-.6 2.2-1 3.4-1.2 1.2-.1 2.4-.1 3.6.3 2.3.8 4.3 2.4 5.8 4.9zm-2 1.3c-.6-1-1.2-1.9-2-2.8-.8-.9-1.6-1.6-2.5-2.2-.9-.5-1.9-.9-2.9-.9-1.1-.1-2.2.2-3.3.9-1.2.7-2 1.5-2.5 2.4s-.8 1.9-.8 2.9.2 2.1.6 3.1c.4 1.1.9 2.1 1.5 3.1 1.8 3 3.7 4.9 5.8 5.7.9.3 1.7.5 2.5.3.8-.1 1.6-.5 2.5-1 1.2-.7 2-1.5 2.5-2.4s.7-1.9.7-2.9-.2-2.1-.6-3.2c-.4-1-.9-2-1.5-3zm-18-.7c-.1.1-.1.2-.2.3s-.1.2-.2.4c-.1.3 0 .6 0 .9 0 .4.2.9.4 1.5l4 12.1c.4 1.3.9 2.1 1.3 2.4.1 0 .1.1.2.1s.1.1.2.1L110 162c.3-.3.4-.7.5-1.1v-.8c0-.2-.1-.4-.2-.7s-.2-.6-.3-1l-3.9-11.8c-.3-.8-.6-1.4-.9-1.7-.3-.2-.6-.4-1-.4h-.3c-.1 0-.2 0-.4.1-.2 0-.4.1-.7.2-.3.1-.6.2-1.1.3l-1.4.4c-.8.2-1.4.5-1.9.7s-.9.5-1.2.7c-.1.1-.3.2-.4.4-.2.2-.3.4-.5.6-.1.2-.3.4-.4.6-.1.2-.2.4-.2.6v-2.3l12.2-3.8z"/><path class="st0" d="M96.6 146.8c-.1.1-.2.2-.2.3-.1.1-.2.2-.2.3-.1.2-.2.5-.2.9s0 .9.1 1.5l1.7 12.7c.2 1.3.5 2.2.9 2.6.1 0 .1.1.2.1.1.1.1.1.2.1l-3.7.5c.3-.3.6-.6.7-1 0-.1.1-.2.1-.3v-1.2c0-.3-.1-.6-.1-1L94.5 150c-.1-.9-.3-1.5-.5-1.8s-.5-.5-.9-.6c-.1 0-.2 0-.2-.1h-1.1c-.3 0-.7.1-1.1.1l-1.4.2c-.8.1-1.5.2-2 .3s-1 .3-1.3.5c-.1.1-.3.2-.5.3s-.4.3-.6.5-.3.4-.5.5c-.2.2-.3.4-.3.5l.4-2.3 12.1-1.3zm-25 9.8c.2.8.3 1.6.5 2.4.1.8.1 1.6 0 2.4-.1.7-.4 1.2-.7 1.7-.3.5-.7.9-1.2 1.1-.5.3-1 .5-1.6.6s-1.2.1-1.8 0c-.4-.1-.9-.2-1.2-.5-.4-.2-.7-.5-1-.8s-.4-.7-.6-1.1c-.1-.4-.1-.8 0-1.3.1-.4.2-.8.5-1.1.2-.3.5-.5.8-.7s.6-.4 1-.5l.9-.6c.3-.2.6-.5.8-.8.2-.3.4-.7.5-1.3.1-.3 0-.8-.1-1.4-.1-.6-.3-1.2-.5-1.8-.3-.6-.6-1.1-.9-1.6-.4-.5-.8-.7-1.2-.8-.2 0-.5 0-.7.2-.3.2-.5.4-.8.7s-.5.7-.7 1.1c-.2.4-.4.9-.5 1.3-.1.4-.2.9-.2 1.3s.1.8.2 1.1l-3-.6c.4-.1.8-.4 1.1-.7.4-.3.7-.7 1-1.1.3-.4.6-.9.9-1.3l.9-1.2c.3-.3.6-.6.9-.8s.6-.3.9-.2c.5.1.9.4 1.3.8.4.5.7 1 1 1.6s.5 1.2.6 1.8.1 1.1.1 1.5c-.1.7-.4 1.3-.8 1.7s-.8.8-1.2 1.1c-.5.3-.9.7-1.2 1-.4.3-.6.8-.7 1.3-.2.8 0 1.5.4 2.1s1 1 1.8 1.2c.4.1.8.1 1.2 0 .4-.1.8-.2 1.1-.4.3-.2.6-.5.8-.8.2-.3.4-.7.5-1.1.1-.7.1-1.6 0-2.8-.2-1.1-.4-2.3-.8-3.5s-.8-2.4-1.4-3.7c-.5-1.2-1.1-2.4-1.8-3.4-.6-1-1.3-1.9-2-2.6-.7-.7-1.4-1.1-2.1-1.2-.4-.1-.7-.1-1.1 0-.4 0-.7.1-1 .3.5-.5 1-.9 1.6-1.1.6-.2 1.3-.3 2-.1.5.1 1 .3 1.4.6s.8.6 1.2 1c.4.4.7.8 1 1.2s.6.9.8 1.3c.6-.3 1.1-.6 1.7-.9.5-.3 1.1-.5 1.6-.6.5-.2 1.1-.3 1.7-.3s1.2 0 1.9.1c.6.1 1.1.3 1.7.6.5.3 1 .6 1.3 1 .4.4.7.9.8 1.4.2.5.2 1.1.1 1.8-.2.9-.5 1.6-1 2.2-.5.6-1.1 1.1-1.8 1.5-.7.4-1.5.8-2.3 1.1-1.1.2-1.9.4-2.6.6zm1.9-9.8c-.5-.1-1-.1-1.4-.1-.4.1-.9.2-1.3.3s-.8.3-1.2.5c-.4.2-.8.4-1.3.6.7 1.4 1.2 2.8 1.8 4.1.5 1.3 1 2.7 1.4 4.2.6-.2 1.2-.4 1.8-.7.6-.2 1.1-.5 1.6-.9.5-.3.9-.8 1.2-1.2.4-.5.6-1.1.7-1.7.1-.6.1-1.2 0-1.8s-.3-1.1-.6-1.6-.7-.8-1.1-1.2c-.4-.2-.9-.4-1.6-.5zm-18.8-4c-.1 0-.2 0-.3.1-.1 0-.2.1-.4.1-.1 0-.1.1-.2.2l-.3.3-.5.5c-.2.2-.4.5-.6.9l-6.7 10.9c-.7 1.2-1 2-.9 2.6 0 .1.1.1.1.2s0 .2.1.2l-4.7-2.9c-.4-.3-.9-.6-1.4-.9-.5-.3-.9-.6-1.4-1s-.9-.7-1.3-1.1c-.4-.4-.7-.8-1-1.2-.5-.7-.9-1.5-1.1-2.3-.2-.8-.3-1.6-.2-2.5 0-.8.2-1.6.5-2.5.3-.8.6-1.6 1.1-2.3 1.4-2.2 3.2-3.7 5.4-4.4.8-.2 1.6-.3 2.4-.3.8.1 1.6.2 2.4.4.8.2 1.5.5 2.3.9l2.1 1.2 4.6 2.9zm-11.8-4.3c-2.2.6-4.1 2.1-5.6 4.5s-2 4.8-1.5 7.1c.2.9.5 1.6 1 2.3s1 1.3 1.7 1.9c.6.6 1.3 1.1 2.1 1.5.7.5 1.5.9 2.2 1.4l9.6-15.6c-.8-.5-1.6-1-2.3-1.4-.7-.5-1.5-.9-2.2-1.2-.8-.3-1.5-.5-2.3-.6-.9-.2-1.8-.1-2.7.1zm-2.9-4.4c-.2 0-.4.1-.7.3s-.8.6-1.3 1.1l-9 9.1c-.5.5-.9.9-1.1 1.3-.2.4-.4.7-.4 1v.4l-3.8-3.8c-.5-.5-1.1-1.1-1.6-1.8s-.9-1.4-1.1-2.1c-.3-.7-.3-1.5-.2-2.2.1-.7.5-1.4 1.1-2.1.5-.5 1-.8 1.5-1s1.1-.3 1.6-.2c.5 0 1.1.2 1.6.4s1.1.5 1.6.8l.7.4 1.2-7.7c.1-.4.1-.7.2-1.1 0-.4.1-.8.1-1.2 0-.4 0-.8-.1-1.2-.1-.4-.2-.7-.3-1.1l2.1 2-1.8 11.2c-.5-.4-1.1-.7-1.6-.9-.6-.2-1.1-.4-1.7-.4s-1.1.1-1.7.3-1.1.6-1.6 1.1-.9 1-1.1 1.6c-.3.5-.4 1.1-.3 1.8 0 .4 0 .7.1 1s.2.6.3.8c.1.2.3.5.5.7s.4.5.7.8l2 1.9 10.9-11c1-1 1.5-1.8 1.5-2.3v-.5l2.5 2.5h-.4c-.1.1-.2.1-.4.1z"/><path class="st0" d="M31.5 125.4c-.2-.1-.5-.2-.8-.2h-1.1c-.4 0-.7.1-1.1.1s-.6.1-.9.1l-16.9 2.8 9.9-14.2c.4-.6.8-1.2 1-1.7s.4-.9.4-1.2v-.4l2.2 3.4c-.3-.1-.5-.1-.7-.1s-.5.1-.7.2-.4.3-.7.6c-.3.3-.6.7-.9 1.1l-1.9 2.7 4.5 7.1 3.6-.6c.5-.1.9-.2 1.2-.3.3-.1.6-.2.7-.3.1-.1.3-.2.4-.4.1-.2.2-.4.3-.8v-.1l1.5 2.2zm-7.7.4-4.5-7-6.1 8.7 10.6-1.7zm-10.1-10.9c-1.3.4-2.6.7-3.8.7-1.3 0-2.4-.2-3.5-.7s-2-1.1-2.9-2c-.8-.9-1.5-2.1-2-3.5l-.1-.5c-.2-.7-.4-1.3-.4-1.9v-1.4c0-.4.1-.8.1-1v-.8c-.1-.3-.2-.5-.4-.6-.2-.2-.4-.3-.7-.4l3.3-1.4c-.4.5-.8 1-1.1 1.6s-.6 1.1-.7 1.7c-.2.6-.3 1.2-.3 1.8 0 .6.1 1.2.3 1.8.5 1.4 1.1 2.4 1.9 3.2.8.8 1.7 1.4 2.8 1.7 1 .3 2.1.4 3.3.3s2.4-.3 3.6-.8c1.2-.4 2.3-.9 3.3-1.6 1-.6 1.8-1.4 2.5-2.3.6-.9 1-1.9 1.2-3s0-2.4-.4-3.7c-.3-.9-.7-1.7-1.3-2.3-.6-.7-1.3-1.2-2.1-1.5l-4.7 1.6c-.7.2-1.2.4-1.4.6-.3.1-.5.3-.5.4-.2.2-.4.5-.5.8l-1.1-3.3c.1.1.2.1.3.2.1 0 .2.1.3.1h1c.4-.1.8-.2 1.4-.4l3.6-1.2c.7-.2 1.2-.4 1.4-.6.3-.2.5-.3.6-.3.3-.2.4-.6.5-1l1.1 3.4c-.3-.2-.5-.3-.8-.3h-.9c.2.1.4.2.7.4.3.2.6.4.9.7.3.3.6.7 1 1.2.3.5.7 1.2.9 2l.2.5c.5 1.4.6 2.7.5 3.9-.1 1.2-.5 2.3-1.1 3.4-.6 1-1.4 1.9-2.4 2.7-1.1.8-2.2 1.4-3.6 1.8zm-4.3-32c-.5 0-.9-.2-1.2-.5-.3-.4-.5-.8-.5-1.3s.2-.9.5-1.3c.3-.3.8-.5 1.3-.5s.9.2 1.3.6c.3.4.5.8.5 1.3s-.2.9-.5 1.2c-.5.3-.9.5-1.4.5zM4.2 62.5c-.7-.2-1.2-.6-1.7-1-.5-.5-.8-1-1-1.6s-.3-1.2-.4-1.9c0-.7.1-1.3.3-2 .3-.9.9-1.9 1.7-2.7.4-.5.7-.9.8-1.2.1-.4.1-.7 0-1V51l3.2 1.1c-.2 0-.4 0-.6.1-.2 0-.4 0-.6.1-.5.1-.9.3-1.4.5-.4.2-.8.5-1.2.9-.4.3-.7.7-1 1.1-.3.4-.5.9-.7 1.3-.2.5-.2 1-.3 1.5 0 .5.1 1 .2 1.4.2.4.4.8.8 1.2.3.3.8.6 1.3.8.7.2 1.4.2 2.1-.1.9-.3 2.4-1.4 4.3-3.2.8-.7 1.4-1.3 2-1.8.5-.5 1-.8 1.3-1.1.6-.4 1.3-.6 2-.7.7-.1 1.4-.1 2.1.2 1.3.4 2.2 1.3 2.8 2.6.6 1.3.6 2.8.1 4.4-.1.6-.3 1.2-.6 1.6s-.6.9-1 1.4-.7.9-.8 1.2c-.1.2-.2.4-.3.5-.1.2-.1.4-.1.6s.1.3.1.4l-3.1-1.1h.8c.3 0 .5-.1.7-.1.5-.1 1-.3 1.4-.6.4-.3.8-.6 1.2-1 .4-.4.7-.8 1-1.3s.5-.9.7-1.4.3-1.1.3-1.6c0-.6 0-1.1-.2-1.6s-.4-.9-.8-1.3-.8-.7-1.4-.9-1.2-.2-1.9-.1c-.7.2-1.2.4-1.8.8-.2.1-.6.4-1 .8-.5.4-1.1.9-1.8 1.6-.7.7-1.3 1.2-1.9 1.6-.5.4-1 .8-1.4 1-.6.4-1.3.7-2 .9-.7.2-1.4.1-2.2-.2zm9.2-11.1c-1.2-.7-2.2-1.5-3-2.5s-1.4-2-1.8-3.1c-.4-1.1-.5-2.3-.3-3.5.1-1.2.6-2.5 1.3-3.7l.3-.5c.4-.7.8-1.2 1.2-1.5.4-.4.8-.7 1.1-.9l.9-.6c.3-.2.5-.3.6-.6.1-.2.2-.5.2-.7 0-.3-.1-.5-.2-.8l3.2 1.6c-.6 0-1.3 0-1.9.2-.6.1-1.2.3-1.8.6-.6.2-1.1.6-1.5 1-.5.4-.9.9-1.2 1.4-.7 1.2-1.1 2.4-1.2 3.6-.1 1.1.1 2.2.5 3.2s1.1 1.9 1.9 2.7c.8.8 1.8 1.6 2.9 2.2 1.1.7 2.2 1.2 3.4 1.5 1.1.3 2.2.5 3.3.4 1.1-.1 2.1-.4 3.1-1s1.8-1.5 2.6-2.8c.7-1.2 1-2.3.9-3.6-.1-1.2-.5-2.4-1.3-3.6l2.9 2.1c-.6 0-1 .3-1.3.8-.1.2-.2.5-.2.7v1c0 .4-.1.8-.3 1.3-.2.5-.5 1.2-.9 2l-.3.5c-.8 1.3-1.6 2.3-2.7 3-1 .7-2.1 1.2-3.2 1.4s-2.3.2-3.6-.1c-1.2-.5-2.5-1-3.6-1.7z"/><path class="st0" d="M29.5 41.9c0-.2-.1-.4-.3-.7-.2-.3-.6-.7-1.2-1.3l-9.2-8.8c-.5-.5-1-.8-1.3-1.1-.4-.2-.7-.4-1-.4h-.4l3.7-3.9c.5-.5 1.1-1.1 1.8-1.6s1.4-.9 2.1-1.2c.7-.3 1.4-.4 2.2-.3.7.1 1.5.4 2.1 1.1.5.5.8 1 1 1.5s.3 1.1.3 1.6-.1 1.1-.3 1.6c-.2.6-.5 1.1-.8 1.6l-.5.9 7.7 1.1c.4 0 .8.1 1.1.1.4 0 .8.1 1.2.1s.8-.1 1.2-.1c.4-.1.7-.2 1.1-.3l-2 2.1-11.3-1.5c.4-.5.7-1.1.9-1.6.2-.6.3-1.2.3-1.7 0-.6-.1-1.1-.3-1.7-.2-.6-.6-1.1-1.1-1.6s-1-.8-1.6-1.1c-.6-.2-1.1-.3-1.8-.3-.4 0-.7 0-1 .1s-.5.2-.8.3c-.2.1-.5.3-.7.5s-.5.4-.8.7l-1.9 2 11.2 10.7c1 1 1.8 1.5 2.3 1.5h.5l-2.5 2.6v-.4c.1-.2.1-.4.1-.5zM33.1 25c-1.6-2.5-2.1-5.1-1.4-7.8.3-1.2.7-2.2 1.4-3.1.6-.9 1.4-1.7 2.5-2.4 1-.7 2.1-1.1 3.3-1.3s2.4-.2 3.6.1c2.5.6 4.5 2 6 4.4.8 1.2 1.3 2.4 1.6 3.7.3 1.2.3 2.5 0 3.8-.2 1.3-.7 2.4-1.4 3.4s-1.5 1.9-2.6 2.5c-1 .7-2.1 1.1-3.3 1.3-1.2.2-2.4.2-3.6-.1-2.4-.5-4.5-2-6.1-4.5zm1.9-1.3c.6.9 1.3 1.8 2.1 2.7.8.9 1.7 1.5 2.6 2.1.9.5 1.9.8 3 .8s2.2-.3 3.3-1.1c1.2-.8 2-1.6 2.4-2.5.5-.9.7-1.9.6-2.9 0-1-.3-2.1-.7-3.1-.4-1.1-1-2.1-1.6-3.1-1.9-2.9-3.9-4.8-6.1-5.4-.9-.3-1.7-.4-2.5-.2s-1.6.5-2.5 1.1c-1.1.7-1.9 1.6-2.4 2.5-.4.9-.6 1.9-.6 3 0 1 .3 2.1.7 3.1.5 1 1.1 2 1.7 3zm18.2-.3c.1-.1.1-.2.2-.3.1-.1.1-.2.1-.4v-.9c-.1-.4-.2-.9-.4-1.5l-4.4-12c-.5-1.3-1-2-1.4-2.3-.1 0-.1 0-.2-.1-.1 0-.1-.1-.2-.1l3.5-1.3c-.4.4-.5.7-.6 1.1v.3c0 .1 0 .3.1.5s.1.4.2.7c.1.3.2.6.3 1l4.3 11.7c.3.8.6 1.4.9 1.7.3.2.6.3 1 .4h.3c.1 0 .2-.1.4-.1.2-.1.4-.1.7-.2s.6-.2 1-.4l1.4-.5c.8-.3 1.4-.5 1.9-.8s.9-.5 1.2-.8l.4-.4c.2-.2.3-.4.4-.6s.3-.4.4-.6.2-.4.2-.6l.1 2.3-11.8 4.2z"/><path class="st0" d="M64.2 19.2c.1-.1.2-.2.2-.3.1-.1.1-.2.2-.3.1-.2.1-.6.1-.9 0-.4 0-.9-.2-1.5L62.3 3.6c-.2-1.3-.6-2.2-1-2.5-.1 0-.1-.1-.2-.1 0-.1-.1-.2-.2-.2l3.7-.7c-.3.3-.5.6-.7 1 0 .1 0 .2-.1.3v.5c0 .2 0 .4.1.7 0 .3.1.6.2 1l2.2 12.2c.2.9.4 1.5.6 1.8.3.3.6.5.9.5.1 0 .2 0 .2.1h.4c.2 0 .4 0 .7-.1.3-.1.7-.1 1.1-.2l1.4-.3c.8-.1 1.5-.3 2-.4.5-.2 1-.3 1.3-.5.1-.1.3-.2.5-.4.2-.1.4-.3.5-.5.2-.2.3-.4.5-.6l.3-.6-.3 2.3-12.2 2.3zM88.9 8.3c-.2-.8-.4-1.5-.6-2.3s-.2-1.6-.1-2.4c.1-.7.3-1.2.6-1.7S89.5 1 90 .7s1-.5 1.6-.6 1.2-.1 1.8 0c.5.1.9.2 1.3.4s.7.4 1 .8c.3.3.5.6.6 1.1.1.4.2.8.1 1.3-.1.2-.2.6-.4.9-.2.3-.5.5-.7.7l-.9.6-.9.6c-.3.2-.5.5-.8.8-.2.3-.4.8-.4 1.3 0 .3 0 .8.1 1.4.1.6.3 1.2.6 1.7.3.6.6 1.1 1 1.5s.8.7 1.2.8c.2 0 .5 0 .7-.2.3-.2.5-.4.8-.8.2-.3.5-.7.7-1.1.2-.4.4-.9.5-1.3.1-.4.2-.9.2-1.3s-.1-.8-.3-1.1l3 .5c-.4.1-.8.4-1.1.7-.3.3-.7.7-1 1.2-.3.4-.6.9-.9 1.3-.3.5-.6.9-.8 1.2-.3.4-.5.6-.8.9-.3.2-.6.3-.9.2-.5-.1-.9-.3-1.3-.8s-.8-1-1-1.6c-.3-.6-.5-1.2-.7-1.8-.3-.5-.4-1-.3-1.4.1-.7.3-1.3.7-1.7l1.2-1.2c.4-.3.8-.7 1.2-1.1.4-.4.6-.8.7-1.3.1-.8 0-1.5-.4-2.1s-1-1-1.9-1.1c-.4-.1-.8 0-1.2 0-.4.1-.8.2-1.1.5-.3.2-.6.5-.8.8-.2.3-.3.7-.4 1.1-.1.7-.1 1.7.1 2.8s.5 2.2.9 3.5c.4 1.2.9 2.4 1.5 3.6s1.2 2.3 1.9 3.3 1.4 1.8 2.1 2.5c.7.7 1.4 1 2.1 1.1.4.1.7.1 1.1 0 .4 0 .7-.2 1-.3-.5.5-1 .9-1.6 1.2-.6.2-1.3.3-2 .2-.5-.1-1-.3-1.5-.5l-1.2-.9c-.4-.3-.7-.7-1-1.1l-.9-1.2c-.6.4-1.1.7-1.6 1s-1 .5-1.6.7c-.5.2-1.1.3-1.7.4s-1.2.1-1.9-.1c-.6-.1-1.1-.3-1.7-.5-.5-.2-1-.6-1.4-1s-.7-.8-.9-1.3c-.2-.5-.2-1.1-.1-1.7.1-.9.4-1.6.9-2.2.5-.6 1.1-1.2 1.8-1.6.7-.5 1.4-.9 2.2-1.2 1-.4 1.7-.7 2.4-.9zm-1.5 9.9c.5.1 1 .1 1.4 0s.8-.2 1.3-.4l1.2-.6c.4-.2.8-.5 1.2-.7-.7-1.4-1.4-2.7-1.9-4-.6-1.3-1.1-2.6-1.6-4.1-.6.2-1.2.5-1.7.8-.6.3-1.1.6-1.5 1-.5.4-.8.8-1.2 1.3-.3.5-.6 1.1-.7 1.8-.1.6-.1 1.2 0 1.8s.3 1.1.6 1.5c.3.4.7.8 1.2 1.1.5.2 1.1.4 1.7.5zm18.9 3c.1 0 .2 0 .3-.1.1 0 .2-.1.4-.1.1 0 .1-.1.2-.2l.3-.3c.1-.1.3-.3.4-.5.2-.2.4-.5.6-.9l6.3-11.2c.7-1.2.9-2.1.8-2.6 0-.1-.1-.1-.1-.2s0-.2-.1-.2l4.9 2.7c.5.3.9.5 1.4.8s1 .6 1.4 1c.5.3.9.7 1.3 1.1.4.4.8.8 1.1 1.2.5.7.9 1.5 1.2 2.3.2.8.4 1.6.3 2.4 0 .8-.1 1.7-.4 2.5-.2.8-.6 1.6-1 2.4-1.3 2.3-3 3.8-5.3 4.6-.8.3-1.6.4-2.4.4s-1.6-.1-2.4-.3c-.8-.2-1.5-.5-2.3-.8-.7-.3-1.5-.7-2.2-1.1l-4.7-2.9zm11.9 3.8c2.2-.7 4-2.3 5.4-4.8s1.8-4.9 1.2-7.1c-.2-.9-.6-1.6-1.1-2.3S122.6 9.5 122 9c-.7-.5-1.4-1-2.1-1.4-.8-.4-1.5-.9-2.2-1.3l-9 16c.8.5 1.6.9 2.3 1.3.8.4 1.5.8 2.3 1.1.8.3 1.5.5 2.3.5.9.2 1.7.1 2.6-.2zm3.2 4.2c.2 0 .4-.1.7-.3.3-.2.7-.6 1.3-1.2l8.6-9.4c.5-.5.8-1 1-1.4s.3-.7.4-1v-.4l4 3.6c.6.5 1.1 1.1 1.6 1.8s.9 1.3 1.2 2 .4 1.4.3 2.2c-.1.7-.4 1.5-1 2.2-.5.5-.9.9-1.5 1.1-.5.2-1 .3-1.6.3-.5 0-1.1-.1-1.7-.3-.6-.2-1.1-.4-1.6-.7l-.7-.4-.9 7.7c0 .4-.1.8-.1 1.1v1.2c0 .4.1.8.1 1.2.1.4.2.7.4 1.1l-2.1-1.9 1.3-11.3c.5.4 1.1.6 1.7.8.6.2 1.2.3 1.7.3.6 0 1.1-.1 1.7-.4.6-.2 1.1-.6 1.6-1.1s.8-1.1 1-1.6c.2-.6.3-1.1.3-1.8 0-.4-.1-.7-.1-1s-.2-.5-.4-.8c-.1-.2-.3-.5-.6-.7-.2-.2-.4-.5-.7-.7l-2-1.9-10.7 11.4c-.9 1-1.4 1.8-1.4 2.3 0 .2 0 .3.1.5l-2.6-2.4h.4s.1 0 .3-.1z"/><path class="st0" d="M130.3 37.6c.2.1.5.2.8.2h1.1c.4 0 .7-.1 1.1-.1.4-.1.6-.1.8-.2l16.8-3.5-9.2 14.6c-.4.7-.7 1.2-.9 1.7s-.3.9-.4 1.2v.5l-2.3-3.3c.3.1.5.1.7.1s.4-.1.6-.3c.2-.1.4-.3.7-.6s.5-.7.8-1.1l1.8-2.8-4.8-6.9-3.5.7c-.5.1-.8.2-1.2.3-.3.1-.5.2-.7.4-.1.1-.3.2-.4.4-.1.2-.2.4-.2.8v.1l-1.6-2.2zm7.6-.8 4.8 6.8 5.7-9-10.5 2.2zm10.7 10.7c1.3-.5 2.5-.8 3.8-.8s2.4.1 3.5.5 2.1 1 3 1.9 1.6 2 2.1 3.4l.2.5c.3.7.4 1.3.5 1.9.1.6.1 1 0 1.4 0 .4 0 .8-.1 1 0 .3 0 .6.1.8.1.3.2.5.4.6.2.2.4.3.7.3l-3.3 1.5c.4-.5.8-1 1.1-1.6s.5-1.2.7-1.8.2-1.2.2-1.8-.1-1.2-.4-1.8c-.5-1.3-1.2-2.4-2-3.2s-1.8-1.3-2.8-1.6-2.1-.4-3.3-.2c-1.2.1-2.4.4-3.6.9-1.2.5-2.3 1-3.3 1.7s-1.8 1.5-2.4 2.4c-.6.9-.9 1.9-1.1 3-.1 1.1.1 2.4.6 3.7.3.9.8 1.7 1.4 2.3.6.6 1.3 1.1 2.1 1.4l4.7-1.8c.7-.3 1.1-.5 1.4-.6.3-.2.4-.3.5-.4.2-.2.4-.5.5-.8l1.2 3.3c-.1-.1-.2-.1-.3-.2-.1 0-.2-.1-.3-.1-.3 0-.6 0-1 .1s-.8.2-1.4.5l-3.6 1.4c-.7.3-1.1.5-1.4.6-.3.2-.4.3-.5.4-.3.3-.4.6-.5 1l-1.3-3.4c.3.2.5.3.8.3s.5 0 .9-.1c-.2-.1-.4-.2-.7-.4-.3-.1-.6-.4-.9-.7-.3-.3-.7-.7-1-1.2-.4-.5-.7-1.2-1-2l-.2-.5c-.5-1.4-.7-2.7-.7-3.9.1-1.2.4-2.4.9-3.4.6-1 1.3-1.9 2.3-2.7 1.1-.7 2.2-1.3 3.5-1.8zm5.7 31.8c.5 0 .9.1 1.3.5.3.3.5.8.5 1.3s-.1.9-.5 1.3c-.3.4-.7.5-1.2.5s-.9-.2-1.3-.5c-.3-.3-.5-.8-.5-1.3s.1-.9.5-1.3c.3-.3.7-.5 1.2-.5zM56 82.6c6.9-3.5 12.7-9.5 12.9-17h-4.2c0 7.1-3.5 12.9-10 16.3v1.2c6.5 3.5 10 9.2 10 16.3h4.2c-.2-7.3-6.1-13.3-12.9-16.8zm51.8 0c-6.9 3.5-12.7 9.5-12.9 17h4.2c0-7.1 3.5-12.9 10-16.3v-1.2c-6.5-3.5-10-9.2-10-16.3h-4.2c.2 7.3 6.1 13.3 12.9 16.8z"/></svg>