<svg width="337" height="273" fill="none" xmlns="http://www.w3.org/2000/svg"><path d="M332.343 174.788s-17.874-3.318-27.214-3.735c-3.659-.166-7.448-.902-10.751-2.358-5.59-3.224-12.258-3.873-18.661-4.006-6.44-.107-12.843-.71-19.284-1.316l-.804-.075c-3.946-.36-7.83-.693-11.442 1.413-.707.417-1.417.831-2.127 1.245-3.081 1.798-6.174 3.603-9.099 5.648-6.133 4.336-5.961 5.515-.579 10.646 6.592 6.301 10.153 13.844 7.041 23.135-2.257 6.807-5.755 12.873-11.655 17.27l-1.54 1.156c-6.081 4.571-12.127 9.116-19.343 11.883a282.35 282.35 0 0 0-10.211 4.291c-.816.37-1.279.638-1.848.968-.258.149-.537.311-.881.5-.077-.124.048-.358.174-.591.125-.234.251-.467.174-.592 3.776-2.264 7.79-4.044 11.803-5.823 5.471-2.425 10.937-4.848 15.79-8.495 6.655-4.967 12.323-10.31 15.519-18.126 3.065-7.502 2.352-14.444-2.594-20.795-1.18-1.512-2.641-2.79-4.097-4.064l-.001-.001c-.708-.62-1.415-1.238-2.087-1.882-2.399-2.295-2.288-4.943.17-7.2 5.358-4.955 11.641-8.416 18.369-11.175 1.47-.603 3.247-.967 4.831-.784 1.81.208 3.618.449 5.426.69 6.211.828 12.426 1.656 18.752 1.158 6.496-.53 14.173 1.058 18.989 3.663 3.123 1.27 6.6 2.134 9.999 2.302 9.438.491 27.621 3.785 27.621 3.785l-.44 1.265Zm-64.07-47.797c.102-.354.2-.71.299-1.066.294-1.067.588-2.134.988-3.157 2.38-6.128 5.262-12.046 9.51-17.17 7.194-8.727 12.143-18.616 14.695-29.654.122-.555.293-1.13.552-1.998.089-.297.188-.629.298-1.005.097.398.18.726.251 1.005.148.583.243.956.288 1.324.638 5.581 2.874 10.583 5.114 15.595.374.836.748 1.673 1.114 2.513 1.013 2.343 1.371 4.486.454 6.944-.989 2.539-1.029 5.106.29 7.688 1.373 2.715.887 5.465-.198 8.148-3.429 12.426-8.868 15.065-16.271 18.657h-.001c-.778.378-1.577.766-2.398 1.177-2.333 1.164-4.674 2.436-5.393 5.125-.25 1.04.022 2.593.655 3.375 3.468 3.566 5.39 5.471 5.871 5.829 1.86 2.048 3.738 4.103 5.638 6.063l.042.043.138.142c1.568 1.622 3.209 3.319 5.929 2.758-2.25-1.936-4.45-3.832-6.619-5.702a7592.798 7592.798 0 0 0-8.094-6.97l-.756-.858c-2.466-2.84-2.348-4.71.636-7.079 1.057-.85 2.294-1.513 3.523-2.069 8.969-4.146 13.756-6.942 18.246-20.233 1.193-2.675 1.525-5.673.241-8.425-1.217-2.716-.782-5.179-.298-7.915l.006-.033c.359-1.916.241-4.106-.285-6.024-.535-1.903-1.394-3.737-2.259-5.582l-.001-.003a140.53 140.53 0 0 1-.708-1.525c-3.762-8.034-5.219-16.284-2.352-24.902.039-.148.034-.298.029-.444-.002-.084-.005-.166.001-.245-.188-.079-.377-.157-.584-.28a417.133 417.133 0 0 1-1.186 3.056l-.003.007-.003.008c-.399 1.02-.799 2.04-1.187 3.056-2.648 7.123-6.567 13.05-13.647 16.473-2.149 1.04-4.224 2.264-6.298 3.487-1.32.78-2.64 1.558-3.98 2.29-7.929 4.396-13.813 10.608-16.94 19.228-.463 1.283-.675 2.671-.753 4.004l.64-1.326c.668-1.379 1.34-2.768 1.951-4.16 2.481-5.754 6.223-10.463 11.55-13.844 3.264-2.067 6.601-3.956 10.019-5.774 6.409-3.409 12.575-7.03 15.922-13.97-.992 6.339-2.701 12.452-5.972 17.8-1.953 3.17-4.102 6.21-6.251 9.252-2.149 3.041-4.298 6.082-6.251 9.251-2.039 3.357-3.623 6.971-5.205 10.584l-.006.011-.011.026c-.437.999-.875 1.998-1.323 2.992-.296.649-.318 1.447-.339 2.233-.011.377-.021.751-.061 1.106.17.05.313.076.449.101.047.009.093.017.139.027.031.006.062.012.092.02l.033.007.005.002.025.006ZM105.967 41.366c-7.654-10.289-15.29-20.533-22.925-30.778l-.028.02-.024.019h-.001c-.134.1-.24.18-.374.188.252.776.535 1.55.818 2.324l.009.023c.619 1.692 1.238 3.386 1.553 5.109 1.907 10.615 2.92 21.337 2.28 32.216-.495 7.802-.035 15.524 3.283 22.855.21.47.422.94.635 1.409 1.144 2.525 2.295 5.067 2.914 7.753 1.267 5.44 2.43 10.908 3.593 16.377v.002c1.163 5.469 2.326 10.938 3.593 16.377 1.95 8.308 5.671 15.734 11.592 22.05 8.763 9.313 24.175 10.852 35.003 1.468 3.276-2.8 6.588-5.512 10.895-6.81 1.882-.615 2.822-.48 3.972 1.182l.642.933.002.003c2.854 4.152 5.693 8.283 9.854 11.466 3.171 2.429 5.892 5.421 8.607 8.407.467.514.935 1.029 1.404 1.54.678.763.88 2.397.629 3.437-.103.511-1.853.812-2.89.821-1.165.006-2.338-.053-3.512-.112h-.009c-1.544-.078-3.09-.155-4.627-.086-2.363.133-4.719.331-7.073.53h-.008c-3.066.259-6.129.517-9.202.63-7.365.314-14.503-.975-21.567-2.971-2.349-.653-4.75-1.123-7.153-1.594-2.705-.529-5.412-1.06-8.051-1.851-4.677-1.38-9.248-3.121-13.811-4.86h-.002c-1.271-.484-2.541-.969-3.813-1.444-3.93-1.46-6.243-4.31-5.958-7.55.69-8.09-.902-15.4-4.944-22.59-4.35-7.688-9.814-14.035-17.408-18.467-2.095-1.192-4.24-2.34-6.377-3.485l-.039-.02c-1.103-.592-2.205-1.182-3.296-1.777.039-.094.09-.193.14-.292a4.37 4.37 0 0 0 .14-.291c1.09.563 2.179 1.112 3.264 1.66l.008.003.002.001c1.876.946 3.74 1.885 5.565 2.882 11.392 6.206 18.31 16.224 22.57 28.009 1.466 4.083 1.561 8.884 1.34 13.295-.191 3.721 1.356 5.845 4.254 6.947 7.411 2.842 14.874 5.559 22.432 7.872 2.901.87 5.88 1.461 8.859 2.051 2.14.424 4.281.849 6.39 1.376 7.08 1.781 14.238 2.229 21.467 1.711 5.97-.418 11.977-.747 17.983-1.076.93-.073 1.861-.034 2.943.013.56.023 1.161.049 1.824.062a28.949 28.949 0 0 1-.654-1.23c-.369-.726-.673-1.322-1.107-1.795a267.092 267.092 0 0 0-4.673-4.668c-1.569-1.543-3.138-3.085-4.672-4.668a370.477 370.477 0 0 0-1.516-1.573c-2.165-2.235-4.338-4.48-6.185-6.927-3.537-4.691-5.49-5.139-10.207-1.539-.32.235-.631.492-.942.75-.31.257-.621.515-.941.75-.585.451-1.167.91-1.75 1.369-1.86 1.466-3.731 2.941-5.749 4.204-10.015 6.293-21.77 4.659-30.257-1.697-5.275-3.978-8.747-9.528-11.41-15.514-4.086-9.202-6.272-18.975-7.975-28.842a381.033 381.033 0 0 1-.53-3.084c-1.002-5.924-2.005-11.85-4.574-17.358-2.697-5.816-4.34-11.856-4.486-18.302-.065-2.814-.116-5.63-.167-8.444v-.006c-.117-6.465-.234-12.928-.52-19.372-.378-8.537-1.987-16.776-7.128-23.984-.762-1.101-1.216-2.397-1.727-3.86a47.078 47.078 0 0 0-.876-2.36c.5.369.899.635 1.239.863.37.247.67.449.957.684 1.009.787 2.02 1.57 3.03 2.351l.006.005c2.666 2.063 5.328 4.123 7.939 6.259 4.763 3.875 10.2 5.966 16.295 6.485 4.483.4 8.958.907 13.381 1.54 8.184 1.171 16.359 2.451 24.094 5.577 7.889 3.186 15.025 7.746 22.157 12.303l.006.004c2.058 1.315 4.115 2.63 6.19 3.91.342.22.536.627.732 1.036.086.181.173.363.274.53l-.559.541a1612.77 1612.77 0 0 0-3.215-1.994c-2.925-1.811-5.857-3.627-8.752-5.486-8.318-5.436-16.936-10.334-26.718-12.36-9.021-1.818-18.223-2.936-27.344-3.984-6.49-.722-12.32-2.755-17.39-6.87-1.34-1.09-2.746-2.074-4.354-3.2l-.001-.001-.002-.001-.003-.002-.006-.005c-.634-.443-1.299-.91-2.004-1.413 1.97 2.401 3.877 4.71 5.74 6.965l.001.002.005.006c2.759 3.34 5.422 6.563 8.053 9.8 6.589 8.072 11.441 15.97 10.928 17.638Z" fill="#D399A9"/><path fill-rule="evenodd" clip-rule="evenodd" d="M67.337 203.324c1.292-.075 2.585-.151 3.882-.216.055.134.065.286.039.348-.073.048-.14.108-.206.165-.121.106-.236.206-.363.225l-1.022.122c-8.79 1.057-17.584 2.114-26.116-1.954-7.318-3.504-15.015-4.252-22.987-2.752-.275.082-.55.073-.91.061a9.947 9.947 0 0 0-.887-.001c.194-.197.342-.36.465-.496v-.001l.001-.001c.203-.223.337-.371.492-.467 5.633-3.142 8.943-8.143 11.683-13.899 3.952-8.386 9.442-15.685 17.618-20.495.263-.175.496-.423.901-.855.226-.241.505-.539.873-.913-.343-.003-.62.004-.85.009-.436.011-.705.018-.94-.056-7.345-2.557-13.898-6.48-19.133-12.139-2.362-2.546-4.368-5.418-6.374-8.29-.846-1.21-1.692-2.421-2.564-3.607-3.393-4.594-5.36-9.772-6.08-15.462-.986-7.61-3.354-14.654-8.6-20.466a273.6 273.6 0 0 0-.581-.639l-.004-.004c-1.05-1.15-2.102-2.305-3.01-3.556-.526-.674-.931-1.471-1.403-2.397a51.62 51.62 0 0 0-.713-1.367c.346.064.57.098.713.12h.003c.18.027.232.035.242.06.24.235.461.478.679.718.257.283.51.562.783.816 3.228 3.048 6.712 5.835 11.468 4.613 4.667-1.184 9.323-2.521 13.715-4.374 8.58-3.57 17.423-4.854 26.582-4.603.274.005.539.13.812.257.093.044.186.088.282.127-1.48.451-2.893.562-4.315.52-7.548-.131-14.678 1.647-21.865 3.918-1.818.568-3.6 1.29-5.39 2.014-5.022 2.035-10.093 4.088-16.11 2.795 2.606 2.166 5.576 3.544 8.505 4.903 3.103 1.44 6.16 2.859 8.688 5.169a2993.56 2993.56 0 0 1-11-5.157l-5.691-2.675c4.031 5.009 5.948 10.572 6.688 16.566.873 6.824 3.465 12.891 7.155 18.717 5.811 9.223 13.145 16.572 23.135 21.011 2.03.885 4.236 1.698 6.428 1.84 4.903.28 9.832.497 14.657.079 9.346-.814 17.954-3.302 23.72-11.704 1.502-2.177 4-2.941 6.652-2.311 1.72.388 3.424.99 5.013 1.692 3.86 1.67 7.716 3.402 11.563 5.13l.021.009 3.757 1.685c.667.303 1.322.633 1.986.967.356.178.713.358 1.076.536-.021.139-.053.282-.085.425a5.845 5.845 0 0 0-.086.426c-.559.012-1.121.017-1.686.021h-.001c-.792.007-1.591.013-2.399.041-2.405.081-4.81-.047-7.216-.176-4.375-.233-8.752-.467-13.133.557-3.56.861-7.204 1.513-10.815 2.159l-1.415.254c-.634.104-1.77-.003-2.06-.456-.835-1.272-1.691-1.077-2.868-.646-6.64 2.463-13.625 3.453-20.57 2.762-5.853-.567-9.78 2.293-13.733 5.475-5.748 4.631-9.195 10.872-12.688 17.195-1.783 3.229-3.579 6.48-5.698 9.548.23-.064.447-.118.652-.17.5-.125.925-.232 1.292-.419a337.917 337.917 0 0 1 3.86-1.972v-.001l.005-.002.001-.001h.001l.001-.001h.001c2.929-1.482 5.852-2.96 8.673-4.623.785-.467 1.587-.925 2.39-1.383 3.223-1.84 6.484-3.702 8.874-6.306 6.892-7.562 15.437-12.107 24.633-15.826.602-.246 1.29-.345 1.968-.442.276-.039.551-.078.817-.127.023.12.058.236.093.352.034.116.069.232.092.353-1.01.414-2.02.816-3.028 1.218l-.003.001v.001c-2.014.802-4.02 1.601-6.013 2.488-6.476 2.864-12.346 6.572-16.922 12.039-.947 1.117-2.038 2.137-3.257 2.845-6.192 3.684-12.384 7.368-18.712 10.848-1.64.887-3.418 1.56-5.194 2.232a95.21 95.21 0 0 0-2.407.936c.426.658.74.79.982.743 5.635-.854 10.93.254 16.248 2.184.782.284 1.562.582 2.341.88h.001c3.79 1.45 7.593 2.904 11.818 2.682 1.446-.073 2.883-.1 4.314-.126h.014a149.16 149.16 0 0 0 3.852-.105c1.297-.065 2.589-.141 3.881-.216l.022-.002Zm16.49-42.702c10.084-3.458 20.517-3.78 31.182-4.042-2.527-1.15-5.047-2.315-7.568-3.481a1397.26 1397.26 0 0 0-7.568-3.48c-3.887-1.737-6.473-.937-9.425 2.147-1.516 1.584-3.209 3.014-4.897 4.44-.868.732-1.734 1.464-2.574 2.215-.27.244-.437.577-.608.916a5.949 5.949 0 0 1-.3.549c.167.081.346.188.526.295.446.267.902.54 1.232.441Z" fill="#D399A9"/><path d="M168.261 250.907c-.862-10.732-1.762-21.813-2.681-32.938-.085-.017-.159-.039-.233-.06-.074-.022-.148-.044-.233-.061-.053.61-.142 1.223-.23 1.834-.17 1.171-.338 2.336-.252 3.464.261 3.256.604 6.509.949 9.765l.001.015c.422 3.996.845 7.997 1.116 12.012.236 3.494-.136 7.03-.526 10.521-.324 2.899-.753 5.783-1.183 8.668-.265 1.782-.53 3.564-.771 5.352-.109.877.079 1.841.588 2.829.045-.107.099-.206.152-.302.102-.187.2-.365.216-.577.36-5.977 2.829-10.997 6.257-15.837 2.703-3.815 6.242-6.099 10.477-7.575 1.819-.642 3.565-1.462 5.31-2.281.695-.337 1.28-.941 1.684-1.732-1.563.674-3.18 1.262-4.798 1.85-5.98 2.174-11.962 4.348-15.221 10.887 5.811-31.268 20.909-56.767 46.137-76.219-6.535 3.356-11.749 8.408-16.432 13.868-4.773 5.496-9.409 11.196-13.363 17.293a130.1 130.1 0 0 0-10.146 19.045c-1.937 4.63-3.44 9.458-4.896 14.138l-.001.002v.001c-.639 2.051-1.268 4.073-1.921 6.038Zm73.928-90.548c.176.084.382.183.639.277-1.929 1.191-3.824 2.382-5.7 3.56h-.001l-.002.001-.002.002h-.001l-.002.001c-4.705 2.955-9.29 5.834-13.977 8.463-1.62.873-4.428.879-6.161.08-6.679-3.09-12.376-1.118-17.898 2.551-1.515 1.007-2.964 2.121-4.412 3.233-1.678 1.291-3.355 2.58-5.132 3.699-9.285 5.785-15.691 13.772-19.456 24.008-.2.55-.496 1.035-.8 1.532l-.072.118a21.11 21.11 0 0 0-.132.219c-.426-.658-.438-1.07-.307-1.384 2.857-6.74 5.803-13.517 11.601-18.288 6.491-5.368 13.081-10.62 20.06-15.304 4.845-3.287 10.478-4.4 16.233-1.66 2.982 1.432 5.775.755 8.388-.993.43-.28.871-.565 1.312-.849l.005-.003c.442-.286.884-.571 1.316-.852 1.51-1.01 3.037-2.013 4.563-3.016l.005-.003c1.526-1.003 3.053-2.006 4.563-3.015-.015-.104-.047-.214-.081-.331a3.454 3.454 0 0 1-.085-.33c-2.008.056-4.023.046-6.036.036-4.54-.022-9.074-.045-13.497.687-11.408 1.929-22.876 1.981-34.344 2.034-7.417.034-14.835.068-22.237.61-.522.035-1.067-.044-1.711-.137-.293-.042-.606-.088-.947-.127.156-.167.273-.301.365-.406l.001-.002c.184-.21.263-.3.334-.295 2.068-.117 4.143-.282 6.22-.447 5.028-.399 10.074-.8 15.081-.533 11.301.6 22.406-.512 33.582-1.632l2.144-.214c5.935-.601 11.886-.861 17.85-1.121h.002c2.671-.117 5.346-.234 8.023-.381.215-.024.421.075.706.212Zm-11.164-5.4c-.948-.115-1.888-.23-2.759-.01-5.586 1.354-11.212 1.215-16.937.96-3.874-.181-7.822.345-11.688.942-4.894.757-8.994-.736-12.722-3.736a223.37 223.37 0 0 0-3.709-2.888c-2.377-1.824-4.75-3.644-6.97-5.64-2.976-2.67-5.748-5.529-8.534-8.401-.605-.625-1.211-1.25-1.82-1.873-.364-.358-.561-.861-.729-1.293l-.002-.003c-.073-.187-.14-.36-.214-.503 1.964-.381 3.916-.727 5.856-1.07l.002-.001h.003l.003-.001h.004l.003-.001.006-.001h.002c4.242-.752 8.419-1.492 12.51-2.563 6.21-1.609 10.661-5.985 14.825-10.554a3.994 3.994 0 0 0-.245-.342 3.945 3.945 0 0 1-.244-.343c-.19.13-.396.249-.601.368-.411.238-.823.476-1.106.801-7.351 8.218-16.84 11.224-27.542 11.397-1.213.029-2.416.328-3.63.63a39.22 39.22 0 0 1-1.628.381c.229.484.429.998.629 1.513.468 1.201.935 2.405 1.781 3.224 3.518 3.502 7.23 6.716 11.005 9.956 1.16 1.014 2.368 1.973 3.574 2.931 1.743 1.385 3.481 2.765 5.064 4.3 4.355 4.147 9.434 5.239 15.207 4.85 3.005-.179 6.023-.215 9.036-.251h.01c2.64-.032 5.276-.064 7.896-.191 3.876-.191 7.741-.561 11.619-.933 1.174-.113 2.35-.225 3.527-.333a4.43 4.43 0 0 1-.019-1.189c-.484-.014-.975-.074-1.463-.133Zm21.137-22.455c-1.971-2.523-3.015-5.322-2.347-8.77.095.068.174.122.237.165.182.126.235.162.169.189.136.204.227.427.274.668.702 6.79 5.079 10.356 11.097 12.468.692.237 1.388.463 2.085.69 1.74.566 3.481 1.132 5.154 1.859 6.085 2.606 10.014 7.53 13.923 12.431.917 1.149 1.832 2.297 2.774 3.413 1.59 1.847-.043 4.338-2.79 4.111-8.493-.785-17.049-1.597-25.483-2.874-1.308-.198-2.613-.429-3.919-.66h-.002c-4.898-.866-9.801-1.734-14.862-.85-.684.107-1.362.119-2.04.131-.338.006-.677.012-1.017.029a2.739 2.739 0 0 1-.02-.304c-.003-.102-.006-.205-.021-.303.255-.067.5-.157.741-.246.425-.156.838-.308 1.266-.317 1.117-.007 2.236-.04 3.353-.072 2.881-.083 5.753-.166 8.559.184 2.45.308 4.877.785 7.302 1.261 5.071.995 10.138 1.99 15.408 1.449.473-.032.968.088 1.461.208.298.073.595.145.885.183.651.077 1.304.16 1.958.244 1.821.232 3.65.465 5.453.568.658.035 1.314-.149 2.152-.385.45-.126.952-.268 1.535-.398-.809-.998-1.565-1.948-2.292-2.861l-.004-.005-.029-.037-.001-.002-.009-.011-.003-.003c-1.53-1.922-2.926-3.676-4.387-5.357-1.409-1.66-2.863-3.302-4.537-4.593-3.754-2.936-8.037-4.875-12.644-6.213-3.676-1.095-6.974-2.917-9.379-5.99Zm-99.567-11.946c-.277-.301-.559-.602-.841-.903-.673-.717-1.351-1.439-1.993-2.202-11.581-13.519-20.972-28.3-26.262-45.387-2.059-6.546-4.439-12.857-7.843-18.747-.092-.163-.181-.33-.271-.5-.657-1.232-1.36-2.552-3.55-2.981.432.755.825 1.455 1.196 2.117l.001.002c.726 1.295 1.369 2.443 2.071 3.566 2.62 4.223 4.17 8.857 5.724 13.501.629 1.882 1.26 3.765 1.961 5.623 4.548 11.98 9.478 23.75 18.21 33.492 1.805 2.009 3.463 4.161 5.124 6.316l.001.001c.98 1.272 1.961 2.544 2.974 3.79.589.733 1.333 1.352 2.063 1.962.323.269.644.537.948.811a2.42 2.42 0 0 0 .487-.461Zm32.439-67.851c-.109-.255-.217-.51-.347-.736.147-.06.276-.128.391-.19a3.27 3.27 0 0 1 .23-.115l.015-.007.014-.006c9.816 7.945 16.653 17.893 20.931 29.722 2.914 8.121 2.258 16.04-1.216 23.814-.178.357-.422.71-.658 1.052l-.002.002-.004.006-.192.28c-.292-.713-.26-1.142-.076-1.582 2.271-5.25 3.19-10.624 2.344-16.366-.853-5.636-2.802-10.77-5.545-15.682-3.997-7.209-8.783-13.677-15.169-18.97-.324-.301-.521-.763-.716-1.222ZM79.339 201.08c1.19-.681 2.426-1.306 3.661-1.93 4.76-2.406 9.523-4.814 11.71-10.462.621-1.66.936-3.559.85-5.293-.156-3.423-.462-6.836-1.188-10.13-.994-4.328-4.333-6.758-8.194-8.558-.352-.148-.689-.336-1.226-.637l-.435-.243c4.285-2.398 8.67-2.507 12.924-2.612h.007l.719-.019c2.993-.072 5.981.057 9.026.189 1.619.07 3.256.141 4.918.183a6.078 6.078 0 0 1-.249-.207c-.179-.154-.326-.281-.489-.323-8.879-1.98-17.638-1.511-26.252 1.344-.475.161-.85.567-1.225.973a6.855 6.855 0 0 1-.621.617c.232.173.45.371.666.568.41.373.814.739 1.296.917 5.676 1.784 9.58 6.481 9.5 13.904l-.012.99c-.057 4.8-.112 9.528-4.259 12.835-1.986 1.59-4.192 2.924-6.388 4.251-.75.454-1.499.906-2.237 1.368-.685.438-1.426.81-2.173 1.185-.243.122-.487.244-.729.369l.058.093c.13.209.246.395.342.628Zm5.525-60.449c1.369.54 2.738 1.08 4.116 1.589-.06.233-.14.421-.245.672-1.699-.573-3.4-1.141-5.103-1.709-17.475-5.83-34.956-11.662-49.653-23.562.545-.068.966.072 1.335.337 13.088 8.945 27.38 15.368 42.47 20.057 2.384.765 4.732 1.69 7.08 2.616Zm93.265-95.316c1.342.948 2.71 1.913 3.564 3.67-3.522-.846-6.389-3.522-5.689-5.37.638.65 1.378 1.172 2.125 1.7ZM165.696 216.21c1.043-1.647 1.475-3.06 1.899-4.447.236-.772.47-1.537.805-2.328-1.349.831-2.692 4.225-2.704 6.775Zm-52.794-34.813c-.978.729-1.959 1.46-3.163 1.804 1.52-1.474 3.908-3.164 5.427-3.266-.813.38-1.538.92-2.264 1.462Zm-1.269-133.195c-.339-.489-.609-1.033-.88-1.577-.65-1.306-1.301-2.614-2.89-3.174a6.182 6.182 0 0 0-.32.235l-.012.01-.083.063a9.873 9.873 0 0 1-.107.08l-.022.016-.02.014a3.097 3.097 0 0 1-.076.052 272.21 272.21 0 0 0 1.747 2.485h.001c.586.827 1.172 1.653 1.747 2.484.32-.236.64-.47.915-.688Zm139.071 69.131c.172-.786.344-1.573.494-2.285.86.202.807 1.913.594 2.77-.217.872-.445 1.747-.673 2.623-.656-.207-.794-1.373-.647-2.046l.232-1.062Zm-60.803 126.808c.513-.344 1.079-.704 1.645-1.065.323-.205.646-.41.958-.613.384-.248.749-.842.544-1.25l-.001.001c-.745.452-1.491.904-2.222 1.361-.493.308-1.223 1.068-.924 1.566Z" fill="#D399A9"/><path d="m134.189 175.332-.001.001v.001l-.002.001c-.91.826-1.827 1.659-2.762 2.48 9.827.782 14.879 7.402 13.196 16.474-1.364 7.441-6.389 12.037-12.354 15.983a39.034 39.034 0 0 0-7.332 6.318c-1.2 1.341-2.234 2.837-3.267 4.331-1.297 1.876-2.592 3.749-4.21 5.306-4.836 4.674-7.818 10.449-10.782 16.27l-1.19 2.04c.251-7.243-1.9-13.502-5.35-19.382-2.366-3.997-2.824-8.155-1.357-12.431 2.063-5.864 2.911-11.903 3.572-18.021.416-3.612 3.158-8.694 6.499-11.136.225-.165-.04.536-.04.536-2.873 2.513-5.474 7.557-5.702 11.687-.339 6.141-1.679 12.123-3.634 17.995-1.25 3.668-.457 7.12 1.236 10.617 1.22 2.468 2.211 5.052 3.198 7.631h.001c.493 1.287.985 2.573 1.505 3.841.146.354.354.734.561 1.114.121-.023.235-.03.348-.038.114-.008.228-.016.348-.039l.098-1.521c.202-3.097.403-6.171.51-9.284.454-12.448 3.84-24.081 9.899-34.896.974-1.788 2.396-3.34 3.822-4.896v-.001c.7-.763 1.4-1.528 2.048-2.322-12.379 16.304-15.088 35.162-15.576 53.988 1.079-1.413 2.187-2.895 3.322-4.413 1.71-2.287 3.48-4.655 5.302-6.988.696-.893 1.46-1.731 2.219-2.565v-.001c1.245-1.368 2.479-2.724 3.387-4.285 2.854-4.948 6.924-8.324 11.72-11.325 6.491-4.059 10.74-9.785 10.583-17.896-.125-7.399-5.538-12.113-12.882-11.274-.19.021-.369-.008-.614-.047a8.241 8.241 0 0 0-.797-.099c5.339-6.742 11.538-11.768 19.179-14.797 1.357-.557 2.944-.494 4.54-.431.757.031 1.517.061 2.254.025.041.164.072.332.102.501.03.169.06.338.102.502-9.412-.707-15.396 4.725-21.699 10.446Z" fill="#D399A9"/><path d="m139.055 164.625-.029.033c-3.858 4.449-7.647 8.818-11.533 13.074-.465.532-1.514.655-2.373.755l-.134.016c-.665.049-1.315.022-2.001-.007-1.831-.077-3.909-.164-7.15 1.165 3.8-.828 6.454-.415 8.798-.051l.319.049.159.024c1.58.225 2.493-.303 3.603-1.477 2.574-2.833 5.238-5.574 7.899-8.314l.003-.003c1.103-1.135 2.206-2.27 3.302-3.411.468-.484.843-1.03 1.21-1.566l.254-.369c-.25-.13-.49-.296-.729-.461-.445-.307-.885-.611-1.379-.676-5.862-.691-11.769-1.332-17.662-1.971h-.001l-.003-.001-4.595-.499c-.592-.066-1.137.107-1.724.553 8.016 1.024 16.05 2.092 23.766 3.137Zm-109.733-50.39c-.697-.575-1.427-1.176-2.214-1.827 2.027-.63 4.57 1.328 5.02 4.145-.92-.764-1.832-1.515-2.805-2.317v-.001Zm28.054-21.634 2.563.519c1.124.227 2.178.44 3.245.659-1.705-1.886-4.58-2.38-5.808-1.178ZM76.73 201.567c.398-.238.809-.483 1.275-.644-.447 1.659-3.172 2.695-5.6 1.937.497-.17 1.023-.258 1.557-.347.55-.093 1.11-.186 1.648-.373.386-.133.747-.35 1.12-.573Zm125.155-92.94c-.537 1.023-1.033 1.971-1.507 2.878-.661 1.264-1.281 2.448-1.912 3.646 3.014-1.155 4.589-4.427 3.419-6.524Zm119.903 56.623-.02-.004-.094-.023c-7.719-1.815-15.588-3.665-23.094-5.363-.463-.109-.686.002-1.039.177a6.207 6.207 0 0 1-.482.22c8.654 1.574 16.838 3.981 25.065 6.4l.001.001c4.632 1.362 9.454 2.552 13.694 3.479l.754-1.436c-4.926-1.162-9.859-2.292-14.785-3.451Z" fill="#D399A9"/></svg>