<svg width="312" height="288" fill="none" xmlns="http://www.w3.org/2000/svg"><path d="M9.201 258.19s15.483-9.659 24.057-13.477c3.358-1.497 6.627-3.575 9.18-6.147 4.039-5.064 10.03-8.117 15.965-10.591 5.977-2.464 11.739-5.376 17.534-8.306l.723-.365c3.556-1.784 7.062-3.521 11.21-2.879.813.13 1.628.257 2.444.383 3.538.549 7.09 1.101 10.573 1.938 7.322 1.801 7.594 2.965 4.448 9.735-3.846 8.306-4.406 16.66 1.911 24.199 4.607 5.531 10.101 9.915 17.227 11.858l1.863.516c7.359 2.039 14.675 4.067 22.433 4.004 3.723.007 7.395.11 11.115.262a18.59 18.59 0 0 1 2.082.226c.295.045.616.094 1.006.145.027-.145-.176-.317-.379-.489-.203-.173-.406-.345-.38-.489-4.359-.73-8.763-.92-13.164-1.109-6.001-.259-11.998-.517-17.871-2.144-8.04-2.198-15.296-5.11-21.151-11.24-5.616-5.885-7.498-12.632-5.207-20.381.548-1.846 1.444-3.576 2.337-5.301v-.001c.434-.839.868-1.676 1.26-2.524 1.399-3.025.323-5.458-2.801-6.665-6.825-2.663-13.966-3.592-21.263-3.7-1.595-.024-3.389.288-4.802 1.04a303.742 303.742 0 0 0-4.816 2.636c-5.5 3.053-11.002 6.107-17.095 7.963-6.264 1.889-12.855 6.189-16.398 10.391-2.452 2.332-5.383 4.415-8.498 5.819-8.637 3.923-24.418 13.673-24.418 13.673l.875 1.02Zm42.323-68.168a82.38 82.38 0 0 1-.67-.887c-.666-.889-1.333-1.778-2.082-2.587-4.472-4.852-9.336-9.324-15.186-12.553-9.924-5.514-18.177-12.936-24.612-22.314-.317-.473-.688-.947-1.249-1.664a190.91 190.91 0 0 1-.647-.829c.056.408.099.744.135 1.031.075.599.124.982.216 1.343 1.452 5.448 1.199 10.943.945 16.447-.042.919-.085 1.838-.119 2.757-.086 2.56.365 4.694 2.125 6.654 1.855 2.01 2.835 4.393 2.55 7.289-.287 3.041 1.176 5.432 3.175 7.54 7.763 10.352 13.813 10.822 22.048 11.462h.001c.865.067 1.755.136 2.672.219 2.608.232 5.261.561 6.92 2.81.615.879.93 2.431.626 3.393-1.931 4.605-3.028 7.089-3.346 7.601-.986 2.596-1.987 5.205-3.044 7.733l-.023.055-.076.184c-.87 2.092-1.78 4.279-4.528 4.753 1.392-2.635 2.752-5.214 4.092-7.756 1.69-3.207 3.35-6.355 5.005-9.483l.392-1.079c1.261-3.559.465-5.263-3.193-6.381-1.299-.406-2.698-.572-4.05-.64-9.902-.583-15.4-1.438-24.473-12.208-2.096-2.062-3.507-4.742-3.316-7.784.14-2.984-1.17-5.125-2.626-7.504l-.018-.029c-1.038-1.659-1.732-3.748-1.944-5.733-.198-1.974-.069-4.003.062-6.044v-.004c.036-.56.072-1.122.101-1.684.567-8.886-1.098-17.129-6.94-24.129-.09-.124-.141-.267-.19-.404a2.386 2.386 0 0 0-.09-.229c.146-.143.294-.285.441-.477a407.7 407.7 0 0 0 2.231 2.421l.005.006.006.006c.747.806 1.495 1.613 2.23 2.42 5.088 5.683 10.925 9.783 18.795 10.383 2.39.183 4.778.565 7.165.947 1.52.243 3.038.486 4.558.678 9.022 1.198 16.8 4.843 22.884 11.75.903 1.028 1.61 2.247 2.172 3.464l-1.084-1.004c-1.13-1.043-2.268-2.094-3.35-3.171-4.429-4.465-9.653-7.492-15.87-8.696-3.809-.734-7.62-1.274-11.48-1.718-7.24-.833-14.329-1.954-20.003-7.211 3.252 5.559 7.092 10.644 12.112 14.441 2.988 2.244 6.111 4.297 9.235 6.35 3.124 2.052 6.247 4.105 9.235 6.349 3.137 2.388 5.943 5.184 8.747 7.979l.01.009.019.019c.776.774 1.551 1.547 2.334 2.31.515.498.829 1.236 1.137 1.962.148.349.295.695.462 1.011-.14.109-.264.187-.382.26a4.547 4.547 0 0 0-.2.128l-.026.019-.005.004-.021.015Zm120.225-139.56c3.376-12.422 6.751-24.796 10.125-37.17l.034.01.029.008h.002c.161.044.289.08.418.038.048.818.068 1.644.087 2.471l.001.025c.043 1.808.086 3.619.424 5.343 2.113 10.619 5.101 21.008 9.69 30.938 3.327 7.108 5.731 14.491 5.32 22.558-.022.516-.049 1.032-.075 1.55-.143 2.778-.286 5.576.122 8.313.811 5.546 1.732 11.083 2.653 16.619v.002c.92 5.537 1.841 11.073 2.653 16.62 1.227 8.478.475 16.781-2.739 24.855-4.77 11.917-18.605 19.011-32.166 14.217-4.088-1.415-8.177-2.733-12.678-2.365-1.984.116-2.813.587-3.277 2.562l-.258 1.106-.001.004c-1.142 4.927-2.279 9.828-4.999 14.329-2.072 3.433-3.516 7.227-4.956 11.013-.249.653-.497 1.305-.748 1.954-.353.962.059 2.563.674 3.443.283.439 2.029.078 3.001-.294 1.091-.422 2.165-.907 3.241-1.393l.009-.004c1.413-.639 2.83-1.279 4.291-1.778 2.256-.743 4.53-1.422 6.803-2.1l.007-.002c2.959-.884 5.916-1.767 8.828-2.789 6.997-2.41 13.194-6.233 19.061-10.69 1.955-1.472 4.026-2.792 6.099-4.114 2.332-1.487 4.667-2.976 6.843-4.684 3.863-3.005 7.494-6.309 11.12-9.609l.001-.001c1.01-.918 2.02-1.837 3.033-2.748 3.136-2.806 4.252-6.318 2.797-9.24-3.614-7.305-4.808-14.719-3.671-22.92 1.243-8.78 4.02-16.715 9.489-23.643 1.52-1.882 3.102-3.742 4.678-5.596h.001l.028-.033c.814-.958 1.627-1.914 2.429-2.87a4.415 4.415 0 0 0-.239-.22c-.083-.074-.167-.148-.238-.222-.81.926-1.627 1.84-2.441 2.749l-.005.006-.001.002c-1.406 1.572-2.803 3.133-4.142 4.735-8.367 9.978-11.155 21.877-10.81 34.451.128 4.353 1.801 8.874 3.626 12.913 1.545 3.407.878 5.959-1.425 8.052-5.881 5.375-11.857 10.652-18.07 15.587-2.391 1.877-4.958 3.522-7.524 5.167-1.844 1.182-3.688 2.363-5.466 3.631-5.961 4.262-12.484 7.307-19.429 9.475-5.731 1.8-11.464 3.697-17.196 5.593-.896.274-1.751.652-2.745 1.092-.515.228-1.067.473-1.682.728.074-.51.118-.969.159-1.389.079-.814.144-1.482.376-2.084a276.063 276.063 0 0 1 2.653-6.076c.9-2.016 1.8-4.033 2.653-6.075.276-.675.557-1.35.839-2.026 1.202-2.883 2.409-5.778 3.237-8.742 1.583-5.681 3.243-6.816 8.972-5.184.385.102.77.229 1.154.356.385.126.77.253 1.156.355.712.207 1.424.422 2.137.637 2.276.687 4.565 1.379 6.914 1.819 11.666 2.204 22.05-3.636 27.647-12.689 3.468-5.653 4.676-12.113 4.968-18.683.44-10.096-1.104-20.029-3.133-29.873-.206-1.026-.421-2.051-.636-3.077-1.238-5.902-2.476-11.805-2.097-17.896.386-6.423-.294-12.67-2.524-18.745-.972-2.654-1.958-5.302-2.943-7.95v-.002l-.002-.004v-.001c-2.263-6.083-4.525-12.165-6.623-18.29-2.779-8.115-4.299-16.404-2.141-25.025.308-1.308.256-2.686.197-4.24-.029-.79-.061-1.628-.048-2.525-.331.527-.606.922-.84 1.26-.255.366-.462.665-.643.99-.654 1.105-1.312 2.207-1.969 3.309l-.004.006c-1.733 2.906-3.464 5.808-5.12 8.761-3.029 5.37-7.342 9.317-12.845 12.04a254.717 254.717 0 0 0-11.938 6.348c-7.216 4.098-14.384 8.293-20.464 14.052-6.202 5.872-11.196 12.751-16.187 19.626l-.005.006c-1.44 1.983-2.879 3.966-4.347 5.925-.24.331-.272.782-.305 1.236a6.356 6.356 0 0 1-.061.595l.721.301c.754-1.014 1.513-2.028 2.272-3.043 2.068-2.765 4.141-5.538 6.163-8.337 5.777-8.132 12.032-15.87 20.428-21.352 7.761-5.009 15.949-9.43 24.086-13.757 5.798-3.056 10.499-7.095 13.726-12.8.854-1.51 1.805-2.945 2.895-4.588l.001-.002.003-.004.004-.006c.429-.647.879-1.326 1.354-2.055-.96 2.965-1.894 5.822-2.807 8.613l-.001.002-.003.008a1585.358 1585.358 0 0 0-3.927 12.111c-3.194 9.96-4.829 19.12-3.738 20.49Z" fill="#D399A9"/><path fill-rule="evenodd" clip-rule="evenodd" d="M267.273 187.607c-1.236.403-2.471.807-3.706 1.222-.002.145.044.291.091.34.085.018.17.049.253.078.152.055.296.106.422.077l.999-.26c8.6-2.239 17.205-4.479 23.684-11.409 5.551-5.96 12.468-9.483 20.467-11.007.287-.025.541-.135.873-.278.228-.098.492-.212.828-.326a13.782 13.782 0 0 1-.616-.293h-.001l-.001-.001c-.272-.134-.451-.223-.631-.256-6.416-.869-11.344-4.326-16.016-8.698-6.769-6.385-14.578-11.191-23.982-12.684-.309-.067-.618-.214-1.155-.469-.3-.142-.67-.318-1.15-.533.319-.128.58-.224.797-.303.411-.149.665-.242.857-.397 5.925-5.084 10.608-11.154 13.422-18.363 1.273-3.246 2.093-6.665 2.914-10.084.346-1.442.691-2.883 1.071-4.311 1.485-5.537 1.422-11.097.007-16.678-1.871-7.472-2.243-14.922.525-22.277l.309-.811.002-.005c.558-1.46 1.118-2.925 1.507-4.427.244-.823.331-1.716.431-2.754.047-.48.096-.99.165-1.539-.3.186-.496.3-.622.373l-.003.001c-.158.092-.204.118-.204.145-.138.309-.255.617-.371.92-.136.36-.27.712-.432 1.05-1.897 4.033-4.13 7.915-9.022 8.52-4.795.605-9.636 1.064-14.42.945-9.327-.188-18.059 1.858-26.524 5.454-.254.104-.456.318-.665.538a6.45 6.45 0 0 1-.216.222c1.549-.122 2.908-.537 4.222-1.097 7.004-2.893 14.318-3.848 21.867-4.364 1.906-.136 3.837-.116 5.774-.095 5.439.057 10.93.115 16.078-3.301-1.64 2.98-3.909 5.357-6.147 7.702-2.371 2.484-4.707 4.931-6.22 8.018 2.782-2.923 5.543-5.847 8.384-8.855 1.421-1.505 2.862-3.03 4.336-4.588-1.928 6.159-1.678 12.06-.17 17.932 1.689 6.696 1.493 13.316.184 20.113-2.046 10.75-6.201 20.308-13.907 28.121-1.57 1.572-3.334 3.141-5.33 4.078-4.478 2.06-9.003 4.071-13.665 5.452-9.031 2.669-17.986 3.503-26.458-2.231-2.201-1.483-4.815-1.28-7.062.282-1.465.993-2.836 2.181-4.063 3.42-2.994 2.977-5.961 6.01-8.921 9.036l-.016.017c-.965.985-1.928 1.97-2.892 2.952-.512.528-1.003 1.077-1.501 1.632-.266.298-.535.597-.809.896.071.122.154.244.237.366.082.122.165.244.236.366.526-.193 1.053-.395 1.583-.598l.001-.001c.742-.284 1.491-.572 2.256-.842 2.277-.807 4.477-1.809 6.678-2.812 4.001-1.824 8.005-3.648 12.475-4.299 3.641-.501 7.285-1.23 10.896-1.951l1.416-.283c.63-.135 1.653-.652 1.758-1.182.312-1.494 1.184-1.626 2.441-1.656 7.109-.135 13.997-1.773 20.233-4.967 5.26-2.678 9.98-1.447 14.839.076 7.071 2.217 12.582 6.783 18.165 11.409 2.851 2.363 5.722 4.742 8.828 6.831-.239.024-.462.053-.672.08-.513.067-.95.123-1.361.083-1.443-.155-2.887-.291-4.33-.427h-.005l-.002-.001h-.003c-3.28-.309-6.554-.618-9.8-1.136-.905-.149-1.822-.282-2.741-.416-3.686-.536-7.416-1.079-10.604-2.635-9.214-4.537-18.866-5.647-28.823-5.747-.652-.01-1.332.151-2.001.309-.272.065-.543.129-.81.181.022.121.033.242.043.363.01.121.02.242.043.363 1.096.016 2.187.022 3.276.027h.004c2.175.011 4.343.022 6.531.119 7.102.299 13.947 1.61 20.228 5.039 1.295.696 2.689 1.249 4.088 1.463 7.137 1.17 14.274 2.339 21.463 3.268 1.858.227 3.765.204 5.671.18.866-.01 1.732-.021 2.593-.008-.157.771-.402 1.009-.645 1.054-5.578 1.27-10.118 4.248-14.38 8.003-.626.552-1.245 1.116-1.864 1.681v.001c-3.009 2.745-6.029 5.499-10.058 6.842-1.378.462-2.73.965-4.077 1.466h-.001l-.002.001h-.001l-.003.001-.002.001h-.001l-.002.001h-.001c-1.212.451-2.42.9-3.638 1.316-1.235.415-2.47.818-3.705 1.222l-.021.007Zm-31.077-33.846c-10.69.469-20.556 3.996-30.617 7.665 1.939-2.002 3.866-4.015 5.794-6.029 1.927-2.014 3.854-4.027 5.794-6.029 2.994-3.049 5.704-3.251 9.593-1.452 1.998.924 4.104 1.638 6.205 2.351 1.079.366 2.157.732 3.218 1.125.341.129.62.379.903.633.156.139.314.28.484.402-.128.138-.255.303-.384.469-.319.413-.645.835-.99.865Z" fill="#D399A9"/><path d="M190.439 269.098a14528.388 14528.388 0 0 1-9.582-31.758c.073-.047.134-.094.195-.142.061-.047.123-.095.196-.142.273.551.581 1.091.888 1.629.588 1.032 1.173 2.059 1.506 3.144.951 3.138 1.824 6.303 2.697 9.472l.004.014c1.072 3.888 2.145 7.782 3.366 11.633 1.062 3.351 2.706 6.518 4.352 9.636 1.366 2.591 2.825 5.127 4.285 7.666a382.532 382.532 0 0 1 2.685 4.717c.423.78.602 1.749.489 2.859a3.32 3.32 0 0 0-.253-.227c-.164-.136-.321-.267-.413-.459-2.53-5.452-6.679-9.236-11.658-12.501-3.926-2.572-8.07-3.407-12.569-3.233-1.935.068-3.866-.057-5.798-.183-.773-.06-1.541-.41-2.209-1 1.708.057 3.435.013 5.162-.032 6.384-.163 12.772-.327 18.216 4.586-16.903-27.081-40.366-45.365-71.075-54.282 7.337.737 14.063 3.545 20.442 6.927 6.475 3.384 12.899 7.008 18.83 11.254a130.468 130.468 0 0 1 16.468 14.071c3.509 3.615 6.685 7.575 9.764 11.413v.001l.001.001c1.349 1.682 2.68 3.34 4.011 4.936ZM88.14 211.626c-.134.144-.29.312-.496.493 2.24.406 4.447.822 6.632 1.235h.003l.003.001h.003c5.48 1.034 10.821 2.042 16.165 2.778 1.833.221 4.459-.804 5.785-2.186 5.107-5.338 11.153-5.586 17.658-4.184 1.785.385 3.548.893 5.309 1.402 2.042.589 4.082 1.178 6.152 1.572 10.799 1.998 19.714 7.11 26.989 15.292.388.44.843.784 1.309 1.138l.11.084.204.155c.156-.771.017-1.16-.221-1.405-5.143-5.249-10.382-10.5-17.55-12.83-8.034-2.634-16.118-5.123-24.358-6.937-5.733-1.294-11.404-.267-15.776 4.405-2.26 2.432-5.118 2.825-8.202 2.15-.504-.104-1.021-.208-1.537-.312l-.005-.001c-.518-.104-1.036-.209-1.542-.313-1.782-.389-3.577-.766-5.37-1.143l-.006-.001c-1.794-.377-3.589-.754-5.37-1.143a2.533 2.533 0 0 1-.046-.338c-.01-.11-.02-.225-.041-.34 1.896-.685 3.775-1.433 5.652-2.181 4.234-1.687 8.461-3.372 12.863-4.311 11.367-2.385 22.1-6.543 32.835-10.703 6.942-2.69 13.885-5.38 20.999-7.59.502-.159.981-.432 1.549-.756.258-.147.534-.304.838-.465-.206-.099-.366-.182-.49-.246l-.002-.001c-.248-.129-.355-.185-.42-.154-1.975.65-3.974 1.257-5.976 1.865-4.843 1.472-9.705 2.95-14.285 5.037-10.339 4.707-21.123 7.743-31.975 10.798l-2.082.586c-5.766 1.617-11.422 3.558-17.09 5.503v.001c-2.54.871-5.081 1.743-7.636 2.588-.21.056-.367.224-.583.457Zm8.449-9.142c.843-.455 1.68-.907 2.574-1.021 5.716-.785 10.921-2.98 16.177-5.319 3.552-1.59 7.434-2.548 11.266-3.409 4.85-1.088 8.132-3.988 10.515-8.158.783-1.365 1.595-2.713 2.406-4.06 1.551-2.576 3.1-5.148 4.442-7.827 1.8-3.587 3.342-7.275 4.89-10.981.337-.806.674-1.612 1.014-2.418.209-.468.208-1.01.207-1.475v-.004c0-.201-.001-.388.016-.548-1.975.364-3.926.758-5.864 1.149h-.002l-.004.001h-.004l-.002.001-.004.001-.006.001h-.002c-4.238.855-8.413 1.696-12.628 2.197-6.393.775-12.157-1.68-17.724-4.422.026-.144.065-.277.103-.409.038-.132.076-.265.103-.409.225.051.46.087.696.123.472.071.943.143 1.327.342 9.884 4.981 19.853 4.308 29.915.542 1.145-.418 2.378-.58 3.623-.743.554-.073 1.11-.146 1.661-.242-.037.536-.035 1.09-.033 1.645.004 1.293.009 2.59-.481 3.665-2.002 4.563-4.29 8.928-6.628 13.34-.712 1.374-1.489 2.713-2.264 4.051-1.12 1.933-2.237 3.86-3.153 5.875-2.547 5.473-6.892 8.357-12.429 10.112-2.873.936-5.706 2.009-8.535 3.081l-.007.003h-.002c-2.478.94-4.953 1.878-7.447 2.72-3.692 1.244-7.438 2.316-11.198 3.392-1.139.326-2.278.652-3.418.983a4.43 4.43 0 0 0-.419-1.118c.447-.191.884-.427 1.319-.661ZM68.6 189.26c.916-3.08.864-6.078-1.026-9.055a11.57 11.57 0 0 1-.16.241c-.125.185-.16.238-.089.239a1.828 1.828 0 0 0-.01.725c1.835 6.601-.946 11.539-5.794 15.721-.56.475-1.127.942-1.694 1.409-1.418 1.168-2.837 2.336-4.134 3.628-4.73 4.668-6.592 10.711-8.447 16.724-.434 1.41-.869 2.819-1.34 4.207-.807 2.309 1.633 4.037 4.116 2.817 7.647-3.85 15.343-7.748 22.755-12.036 1.15-.665 2.284-1.359 3.42-2.054v-.001l.001-.001c4.258-2.606 8.521-5.216 13.574-6.248.679-.151 1.316-.388 1.953-.626.32-.118.638-.237.962-.345-.023-.097-.058-.194-.093-.292a2.696 2.696 0 0 1-.092-.291 7.953 7.953 0 0 1-.782.042c-.455.01-.896.02-1.3.169-1.046.403-2.103.783-3.158 1.163-2.723.979-5.437 1.956-7.93 3.312-2.176 1.188-4.268 2.523-6.36 3.858-4.372 2.791-8.741 5.58-13.864 7.008-.454.144-.872.438-1.288.73a8.292 8.292 0 0 1-.76.496c-.58.311-1.16.628-1.74.946-1.617.886-3.24 1.775-4.887 2.533-.602.274-1.282.342-2.151.429-.467.047-.988.099-1.58.192a397.45 397.45 0 0 0 1.09-3.514l.003-.006.013-.045.001-.003.005-.014v-.004c.725-2.357 1.386-4.508 2.133-6.614.708-2.068 1.464-4.136 2.555-5.956 2.43-4.122 5.719-7.505 9.533-10.445 3.033-2.372 5.445-5.285 6.565-9.039Zm88.643-47.697c.149-.384.302-.768.455-1.153.365-.916.734-1.84 1.054-2.789 5.859-16.88 9.21-34.137 7.882-52.043-.478-6.871-.571-13.64.448-20.393.026-.186.048-.375.07-.566.162-1.392.335-2.884 2.223-4.089-.127.864-.237 1.663-.34 2.417l-.001.002c-.202 1.476-.382 2.785-.626 4.093-.898 4.906-.646 9.805-.394 14.714.103 1.989.205 3.98.231 5.973.147 12.861-.141 25.668-4.723 37.975-.95 2.539-1.71 5.158-2.471 7.781v.002a186.566 186.566 0 0 1-1.388 4.631c-.281.901-.748 1.753-1.208 2.591-.203.37-.404.737-.587 1.105-.241-.052-.433-.152-.625-.251Zm-55.206-51.491a7.11 7.11 0 0 1 .054-.815c-.16-.002-.304-.019-.435-.034-.093-.01-.179-.02-.257-.024h-.032c-6.256 11.025-8.993 22.827-8.65 35.45.258 8.657 3.777 15.815 9.875 21.804.298.268.654.508 1.001.741l.003.001.006.004.282.191c.011-.773-.176-1.162-.51-1.506-4.048-4.072-6.879-8.755-8.196-14.431-1.27-5.578-1.333-11.09-.573-16.686 1.089-8.202 3.187-16.002 7.211-23.29.193-.401.207-.905.221-1.405Zm153.199 99.842c-1.362-.2-2.746-.33-4.13-.46-5.33-.501-10.663-1.003-14.78-5.478-1.189-1.323-2.179-2.981-2.735-4.633-1.111-3.255-2.077-6.557-2.608-9.901-.659-4.408 1.568-7.904 4.515-11.002.276-.268.521-.567.912-1.045l.318-.387c-4.884-.668-9.021.84-13.034 2.302l-.007.002-.678.247c-2.823 1.031-5.567 2.248-8.364 3.488-1.487.66-2.991 1.327-4.528 1.976.059-.1.11-.196.157-.284.11-.21.201-.383.338-.482 7.569-5.109 15.925-7.885 25.021-8.378.503-.023 1.002.218 1.501.46.269.13.538.26.807.348-.153.248-.284.513-.414.775-.246.5-.489.99-.874 1.333-4.648 3.75-6.572 9.571-3.774 16.477.126.306.25.613.375.92 1.814 4.464 3.601 8.861 8.689 10.43 2.439.757 4.99 1.193 7.528 1.627.868.149 1.733.297 2.592.457.801.158 1.63.234 2.465.31.272.025.544.05.817.078l-.02.108a4.101 4.101 0 0 0-.089.712Zm-27.344-54.451a199.673 199.673 0 0 1-3.263 2.994c.142.196.285.343.475.539 1.378-1.159 2.759-2.314 4.141-3.469 14.188-11.86 28.381-23.724 37.746-40.236a1.8 1.8 0 0 0-1.124.805c-8.946 13.161-19.942 24.406-32.32 34.325-1.948 1.589-3.801 3.315-5.655 5.042ZM105.776 80.631c-.907 1.378-1.83 2.782-1.983 4.737 2.98-2.083 4.676-5.635 3.344-7.105-.358.842-.857 1.6-1.361 2.368Zm74.327 155.108c-1.579-1.156-2.501-2.318-3.406-3.458-.504-.635-1.003-1.263-1.607-1.88 1.566.282 4.065 2.96 5.013 5.338Zm36.551-51.9c1.182.323 2.367.646 3.617.526-1.96-.82-4.811-1.522-6.268-1.06.899.057 1.774.295 2.651.534Zm-47.69-124.911c.136-.581.19-1.189.243-1.797.128-1.458.257-2.919 1.536-4.026.12.026.252.064.385.103l.014.004.101.029.129.035.027.007.024.006.09.021c-.232.988-.477 1.975-.721 2.962v.002c-.245.987-.489 1.974-.721 2.96-.385-.102-.77-.204-1.107-.306ZM64.395 174.551c-.449-.672-.898-1.343-1.3-1.954-.729.505-.052 2.084.462 2.806.522.735 1.056 1.47 1.59 2.204.538-.434.238-1.574-.145-2.149l-.606-.907Zm103.342 96.167c-.605-.133-1.267-.262-1.928-.391-.377-.074-.753-.147-1.12-.222-.449-.091-1.008-.511-.967-.968h.002c.862.149 1.724.298 2.576.457.573.107 1.533.549 1.437 1.124Z" fill="#D399A9"/><path d="M194.54 185.985h.001l.001.001h.002c1.154.438 2.316.88 3.491 1.303-8.895 4.337-11.186 12.377-6.285 20.236 4.006 6.451 10.386 8.901 17.409 10.399a39.216 39.216 0 0 1 9.168 3.213c1.613.812 3.129 1.83 4.642 2.847 1.9 1.277 3.797 2.552 5.88 3.413 6.234 2.592 11.139 6.894 16.045 11.244l1.859 1.47c-2.892-6.676-3.179-13.312-2.113-20.072.744-4.603-.354-8.656-3.294-12.112-4.079-4.723-7.088-10.054-9.949-15.527-1.715-3.222-6.142-6.965-10.159-8.02-.271-.072.234.487.234.487 3.606 1.293 7.887 5.052 9.616 8.826 2.57 5.613 6.016 10.711 9.998 15.48 2.514 2.969 3.04 6.485 2.741 10.373-.234 2.753-.211 5.532-.188 8.303v.001c.012 1.383.023 2.765.003 4.14-.006.385-.061.816-.115 1.248-.121.022-.231.057-.34.091a2.623 2.623 0 0 1-.339.091l-.65-1.384c-1.325-2.819-2.64-5.618-3.883-8.487-4.992-11.464-12.424-21.091-22.053-28.972-1.567-1.313-3.465-2.241-5.368-3.172l-.001-.001c-.934-.456-1.868-.914-2.766-1.417 17.549 10.69 27 27.315 34.364 44.726-1.526-.924-3.105-1.903-4.723-2.904-2.436-1.51-4.959-3.072-7.517-4.584-.979-.578-2-1.082-3.015-1.583h-.001c-1.665-.822-3.315-1.636-4.736-2.761-4.483-3.575-9.524-5.236-15.106-6.281-7.554-1.41-13.626-5.201-16.455-12.836-2.599-6.959.729-13.35 7.899-15.261.185-.05.342-.143.556-.27.179-.106.399-.236.708-.384-7.462-4.341-15.098-6.761-23.349-6.788-1.472-.022-2.931.619-4.399 1.264-.697.306-1.395.613-2.098.85.022.169.056.337.089.506.034.169.068.337.089.506 8.535-4.114 16.118-1.235 24.107 1.798Z" fill="#D399A9"/><path d="m186.064 177.766.04.021c5.237 2.741 10.38 5.432 15.573 7.982.629.327 1.655.057 2.494-.164l.131-.035c.639-.198 1.237-.462 1.867-.741 1.683-.743 3.592-1.587 7.108-1.535-3.854.621-6.182 1.98-8.239 3.181l-.279.163-.14.081c-1.395.79-2.441.631-3.909-.058-3.445-1.702-6.939-3.286-10.431-4.869l-.004-.002a809.193 809.193 0 0 1-4.336-1.976c-.615-.28-1.166-.653-1.705-1.018a61.64 61.64 0 0 0-.374-.252c.186-.214.35-.457.512-.698.303-.451.603-.897 1.041-1.138 5.223-2.797 10.507-5.563 15.778-8.323l.002-.001.002-.001c1.371-.718 2.742-1.435 4.11-2.153.529-.278 1.101-.317 1.813-.116a3327.938 3327.938 0 0 0-21.054 11.652Zm84.035-87.346 1.399-2.52c-2.125.155-3.783 2.918-3.17 5.715.58-1.052 1.156-2.088 1.771-3.194v-.001Zm-34.15-9.92c-.784.509-1.51.978-2.204 1.426-.967.625-1.873 1.21-2.79 1.806.901-2.388 3.405-3.903 4.994-3.231Zm21.903 108.912c-.459-.076-.933-.155-1.428-.134 1.027 1.386 3.953 1.353 5.943-.245-.526.023-1.051.134-1.581.246-.549.116-1.105.234-1.677.257-.41.017-.827-.053-1.257-.124Zm-151.039-40.91 2.464 2.136c1.082.939 2.095 1.818 3.124 2.705-3.24.027-5.912-2.452-5.588-4.841Zm-91.249 96.903.016-.011.08-.056c6.546-4.528 13.219-9.144 19.609-13.486.393-.271.642-.25 1.036-.215.15.013.322.028.53.029-7.507 4.645-14.27 9.898-21.069 15.177l-.001.001c-3.828 2.972-7.897 5.854-11.518 8.276l-1.23-1.065c4.175-2.893 8.369-5.76 12.547-8.65Z" fill="#D399A9"/></svg>