<svg width="50" height="50" fill="none" xmlns="http://www.w3.org/2000/svg"><g filter="url(#a)"><circle cx="25" cy="22" r="22" fill="#fff"/><g clip-path="url(#b)"><path d="M10.016 24.778a14.655 14.655 0 0 1 6.527-3.837 17.492 17.492 0 0 1 7.66-.4c1.333.187 2.478.466 3.69.56.601.081 1.207.117 1.812.106.599.047 1.2.047 1.799 0a8.66 8.66 0 0 0 3.464-.856c1.082-.523 2.252-1.306 3.032-2.221l1.5-.5c-.586 1.195-2.403 2.746-3.5 3.5s-3.024 1.291-4.35 1.41a13.32 13.32 0 0 1-3.916-.094c-1.332-.186-2.545-.573-3.717-.826a17.146 17.146 0 0 0-7.314 0 14.268 14.268 0 0 0-6.58 3.29l-.107-.132Z" fill="#292929"/></g><path d="M31.03 22.603c.445-.045.886-.117 1.32-.217 1.383-.294 2.399-.544 3.65-1.256 2.206-1.256 4.344-3.404 4.79-5.853l-1.826-.275c-.488 3.234-2.477 5.578-5.675 6.652-.382.127-1.675.522-2.19.515l-.069.434Zm-3.028-.87c.337-.034.67-.089.998-.164 1.047-.223 1.816-.412 2.763-.951 1.67-.951 3.288-2.576 3.626-4.43l-1.382-.208c-.37 2.448-1.876 4.222-4.296 5.034-.289.096-1.267.396-1.657.39l-.052.329Z" fill="#292929"/><g clip-path="url(#c)"><path d="M9.78 26.493a12.987 12.987 0 0 0 4 1.84c1.444.402 2.949.533 4.44.387a12.56 12.56 0 0 0 4.347-1.227c.694-.32 1.363-.695 2-1.12.64-.426 1.226-.92 1.853-1.333-.587.507-1.147 1.053-1.747 1.533-.62.485-1.27.93-1.946 1.334a13.238 13.238 0 0 1-4.414 1.573 12.705 12.705 0 0 1-4.76-.067 13.72 13.72 0 0 1-4.506-1.733l.733-1.187Z" fill="#292929"/></g></g><defs><clipPath id="b"><path fill="#fff" transform="translate(10 18.13)" d="M0 0h27.931v6.728H0z"/></clipPath><clipPath id="c"><path fill="#fff" transform="translate(9 25)" d="M0 0h17.386v4.573H0z"/></clipPath><filter id="a" x="0" y="0" width="50" height="50" filterUnits="userSpaceOnUse" color-interpolation-filters="sRGB"><feFlood flood-opacity="0" result="BackgroundImageFix"/><feColorMatrix in="SourceAlpha" values="0 0 0 0 0 0 0 0 0 0 0 0 0 0 0 0 0 0 127 0" result="hardAlpha"/><feOffset dy="3"/><feGaussianBlur stdDeviation="1.5"/><feComposite in2="hardAlpha" operator="out"/><feColorMatrix values="0 0 0 0 0.160784 0 0 0 0 0.160784 0 0 0 0 0.160784 0 0 0 0.08 0"/><feBlend in2="BackgroundImageFix" result="effect1_dropShadow_1044_2902"/><feBlend in="SourceGraphic" in2="effect1_dropShadow_1044_2902" result="shape"/></filter></defs></svg>