<svg width="72" height="53" fill="none" xmlns="http://www.w3.org/2000/svg"><path d="m71.669 26.942-71.189.88v-3.103l71.189.879v1.344Z" fill="#B3B5B6"/><path d="M71.667 26.944a27.759 27.759 0 0 1-3.665-1.273C57.464 21.411 47.36 12.065 47.016 0h2.582c0 10.131 7.397 18.229 16.043 22.996 1.034.562 4.547 2.372 6.015 2.59l.01 1.358Z" fill="#B3B5B6"/><path d="M71.667 25.596a28.783 28.783 0 0 0-3.665 1.272c-10.538 4.26-20.642 13.596-20.986 25.671h2.582c0-10.131 7.397-18.229 16.043-22.993 1.034-.565 4.547-2.375 6.015-2.592l.01-1.358Z" fill="#B3B5B6"/></svg>