<svg width="16" height="16" fill="none" xmlns="http://www.w3.org/2000/svg"><g clip-path="url(#a)"><path d="M8.02 0c.014.296.025.591.04.888.067 1.275.178 2.539.566 3.763.502 1.585 1.594 2.55 3.173 3 1.204.343 2.444.426 3.686.484.144.003.286.018.427.047-.584.039-1.169.075-1.754.118-.984.075-1.952.24-2.881.584-1.465.54-2.327 1.618-2.742 3.095-.332 1.178-.418 2.387-.478 3.601l-.021.375c0 .006-.014.011-.053.044-.019-.365-.035-.705-.055-1.046-.063-1.116-.197-2.225-.551-3.298-.46-1.397-1.375-2.334-2.762-2.82-1.254-.437-2.558-.543-3.869-.61A7.166 7.166 0 0 1 0 8.163c.525-.028 1.053-.04 1.576-.09C2.7 7.967 3.82 7.85 4.88 7.412c1.248-.516 2.06-1.423 2.487-2.69.428-1.267.532-2.599.593-3.929l.034-.792L8.02 0Z" fill="#292929"/></g><defs><clipPath id="a"><path fill="#fff" d="M0 0h15.912v16H0z"/></clipPath></defs></svg>