<svg width="400" height="377" fill="none" xmlns="http://www.w3.org/2000/svg"><path d="M399.835 298.336s-20.071-12.45-29.408-20.22c-3.659-3.042-7.942-5.649-12.389-7.14-8.19-1.793-15.162-7.003-21.429-12.478-6.279-5.53-12.956-10.553-19.673-15.605l-.838-.631c-4.105-3.107-8.127-6.185-9.754-11.367a763.887 763.887 0 0 0-.954-3.057c-1.386-4.422-2.778-8.861-3.798-13.384-2.097-9.53-.902-10.513 8.757-10.732 11.843-.286 21.863-4.416 27.001-16.063 3.787-8.512 5.734-17.399 3.914-26.783-.157-.819-.313-1.639-.468-2.458-1.842-9.711-3.674-19.364-8.184-28.335-2.121-4.326-4.103-8.648-6.054-13.054-.46-1.07-.67-1.732-.928-2.547-.117-.368-.244-.768-.408-1.251-.183.052-.267.386-.351.72-.084.335-.168.669-.351.721 1.646 5.478 3.946 10.699 6.244 15.918 3.133 7.115 6.264 14.225 7.734 21.974 2.047 10.592 2.817 20.682-.95 30.986-3.619 9.887-10.377 15.931-20.684 17.704-2.456.42-4.978.37-7.491.32h-.001c-1.222-.024-2.442-.049-3.651-.019-4.312.107-6.521 2.747-6.135 7.065.811 9.447 3.819 18.268 7.867 26.803.885 1.865 2.273 3.769 3.955 4.979a393.564 393.564 0 0 0 5.815 4.084c6.69 4.639 13.383 9.28 19.024 15.292 5.776 6.192 14.54 11.383 21.444 13.093 4.11 1.513 8.206 3.724 11.618 6.537 9.495 7.785 29.842 20.528 29.842 20.528l.684-1.6Zm-103.354-10.14c-.211.43-.428.857-.646 1.285-.65 1.282-1.301 2.565-1.812 3.897-3.075 7.968-5.484 16.173-5.887 24.812-.724 14.676-4.62 28.503-11.827 41.338-.367.639-.705 1.341-1.217 2.402-.174.363-.369.768-.593 1.227.441-.299.808-.541 1.12-.747.653-.431 1.069-.705 1.435-1.019 5.496-4.803 12.019-7.652 18.555-10.506 1.091-.476 2.182-.953 3.268-1.439 3.023-1.364 5.242-3.109 6.511-6.273 1.272-3.304 3.478-5.804 7.004-7.131 3.695-1.406 5.633-4.472 6.937-7.999 7.578-14.935 4.662-22.228.694-32.154l-.001-.002c-.416-1.042-.845-2.114-1.274-3.227-1.222-3.16-2.357-6.429-.696-9.641.669-1.218 2.29-2.471 3.581-2.668 6.451-.392 9.963-.54 10.739-.463 3.578-.341 7.179-.672 10.719-.891l.078-.005.257-.016c2.926-.186 5.985-.381 8.108 2.538-3.856-.109-7.628-.212-11.345-.314-4.691-.128-9.295-.254-13.873-.386-.467.052-.96.107-1.477.163-4.853.571-6.376 2.47-5.582 7.356.272 1.74.88 3.46 1.574 5.069 4.988 11.829 7.14 18.702-.174 35.396-1.194 3.613-3.499 6.784-7.14 8.303-3.544 1.543-5.281 4.29-7.21 7.342l-.023.036c-1.332 2.155-3.36 4.156-5.543 5.538-2.179 1.359-4.608 2.369-7.053 3.385l-.005.002c-.671.279-1.344.558-2.013.846-10.642 4.425-19.258 11.074-24.043 21.86-.093.176-.229.316-.361.452-.076.079-.15.155-.213.236-.25-.089-.5-.178-.807-.24a522.967 522.967 0 0 0 1.534-3.975l.004-.009.004-.01c.509-1.329 1.018-2.659 1.534-3.974 3.687-9.158 5.108-18.279 1.303-27.761-1.155-2.879-2.077-5.869-2.999-8.859-.587-1.903-1.174-3.806-1.821-5.68-3.77-11.16-3.988-22.274.55-33.289.678-1.637 1.689-3.155 2.78-4.504-.183.608-.364 1.22-.545 1.833-.565 1.909-1.134 3.831-1.766 5.703-2.65 7.696-3.175 15.493-1.017 23.401 1.327 4.841 2.88 9.574 4.573 14.31 3.174 8.881 5.928 17.753 3.071 27.348 4.593-6.957 8.3-14.323 9.837-22.323.896-4.752 1.492-9.553 2.089-14.354.596-4.801 1.192-9.602 2.088-14.354.978-5.008 2.619-9.866 4.26-14.72l.005-.015.011-.034a396.89 396.89 0 0 0 1.347-4.032c.283-.883.96-1.668 1.627-2.442.32-.371.638-.74.909-1.115.207.101.368.201.521.295l.156.097.106.061.038.021.007.004.029.015ZM65.679 228.452a52674.685 52674.685 0 0 1-48.945 9.507l-.008-.044-.008-.038v-.002c-.041-.213-.074-.381-.195-.508.92-.524 1.87-1.019 2.819-1.515l.028-.015c2.075-1.084 4.152-2.169 5.96-3.548 11.12-8.528 21.472-17.94 30.376-28.949 6.348-7.928 13.546-14.942 23.146-19.081.611-.268 1.226-.533 1.842-.798 3.308-1.425 6.637-2.859 9.581-4.898 5.976-4.115 11.877-8.351 17.778-12.587l.002-.001c5.901-4.236 11.802-8.472 17.778-12.587 9.141-6.275 19.211-10.152 30.423-11.039 16.565-1.279 32.714 10.725 34.906 29.211.696 5.555 1.506 11.057 4.508 16.072 1.269 2.237 2.29 2.93 4.848 2.34l1.432-.335.005-.001c6.374-1.492 12.714-2.976 19.496-2.393 5.171.442 10.402-.052 15.621-.545a500.1 500.1 0 0 1 2.696-.25c1.319-.141 2.943-1.534 3.611-2.752.348-.58-1.069-2.4-2.058-3.316-1.113-1.026-2.291-1.995-3.471-2.966l-.009-.008c-1.55-1.276-3.104-2.554-4.519-3.964-2.153-2.195-4.242-4.447-6.33-6.697l-.007-.007c-2.719-2.931-5.435-5.859-8.288-8.655-6.8-6.745-14.783-11.751-23.314-16.014-2.828-1.428-5.545-3.077-8.265-4.727-3.061-1.857-6.126-3.716-9.353-5.265-5.699-2.766-11.612-5.092-17.517-7.414l-.002-.001a813.025 813.025 0 0 1-4.926-1.949c-5.051-2.035-9.767-1.321-12.327 2.039-6.414 8.375-14.338 14.003-24.51 17.374-10.904 3.58-21.705 4.895-32.877 2.508-3.055-.688-6.12-1.46-9.173-2.23l-.002-.001-.054-.013a697.968 697.968 0 0 0-4.72-1.179c-.044.125-.082.264-.12.403-.038.14-.076.279-.12.404 1.538.411 3.065.836 4.587 1.261l.01.002.003.001c2.629.733 5.241 1.462 7.866 2.1 16.372 4.006 31.781.435 46.182-7.158 4.98-2.639 9.271-7.167 12.917-11.597 3.072-3.742 6.416-4.428 10.163-2.951 9.605 3.753 19.15 7.672 28.433 12.062 3.547 1.702 6.926 3.741 10.303 5.78 2.428 1.465 4.854 2.93 7.343 4.269 8.358 4.482 15.625 10.314 22.115 17.136 5.368 5.624 10.85 11.195 16.331 16.765.83.884 1.758 1.66 2.838 2.562.559.468 1.159.969 1.806 1.536-.633.206-1.192.417-1.703.61-.99.374-1.803.68-2.635.755-2.858.179-5.714.288-8.571.396-2.856.109-5.713.218-8.571.396-.942.066-1.887.125-2.832.185-4.035.253-8.087.508-12.001 1.243-7.501 1.411-9.769.133-11.151-7.451-.101-.506-.174-1.025-.248-1.544-.073-.519-.146-1.039-.247-1.545-.168-.945-.326-1.894-.484-2.845-.504-3.036-1.011-6.089-1.844-9.068-4.114-14.805-16.834-23.519-30.547-24.839-8.546-.793-16.737 1.5-24.532 4.92-11.974 5.265-22.623 12.74-32.89 20.726-1.074.827-2.141 1.663-3.208 2.499-6.145 4.813-12.29 9.628-19.578 12.671-7.678 3.227-14.54 7.59-20.32 13.655a2183.494 2183.494 0 0 0-7.546 7.964l-.001.001-.005.005v.001c-5.768 6.107-11.534 12.212-17.446 18.151-7.831 7.869-16.585 14.376-27.829 16.801-1.695.391-3.264 1.24-5.035 2.196a59.725 59.725 0 0 1-2.905 1.501c.802.084 1.418.176 1.944.255.571.086 1.037.156 1.517.181 1.658.126 3.313.259 4.968.392l.01.001c4.365.35 8.724.7 13.1.933 7.966.445 15.017 3.194 21.325 8.026a330.357 330.357 0 0 0 14.2 10.228c8.886 6.033 17.857 11.956 28.021 15.72 10.365 3.841 21.209 5.704 32.046 7.566l.009.001c3.126.538 6.252 1.074 9.366 1.659.521.088 1.063-.132 1.609-.354.242-.098.484-.197.726-.269l-.063-1.009c-1.609-.296-3.22-.597-4.832-.897-4.394-.819-8.799-1.641-13.205-2.387-12.746-2.055-25.308-4.89-36.476-11.502-10.255-6.145-20.072-13.121-29.75-20.093-6.864-4.984-14.243-8.131-22.712-8.614-2.242-.127-4.453-.411-6.983-.736h-.001l-.002-.001h-.006l-.01-.002c-.996-.128-2.043-.262-3.16-.396 3.992-.582 7.843-1.131 11.605-1.668h.003l.01-.002a2089.7 2089.7 0 0 0 16.309-2.368c13.39-1.989 24.96-5.331 25.926-7.382Z" fill="#94B2A4"/><path fill-rule="evenodd" clip-rule="evenodd" d="M170.258 39.096a571.013 571.013 0 0 0 3.539 3.604c.17-.08.312-.218.342-.301a2.718 2.718 0 0 1-.054-.338c-.023-.208-.046-.405-.152-.534l-.874-1.011c-7.518-8.704-15.041-17.413-26.794-20.97-10.095-3.036-18.141-9.05-24.487-17.466-.192-.319-.466-.551-.822-.854-.244-.208-.528-.45-.851-.775.013.358.013.645.012.882v.004c-.001.392-.002.65.063.878 2.662 7.947 1.467 15.645-.936 23.57-3.541 11.513-4.653 23.327-1.008 35.1.1.397.106.839.117 1.61.006.428.014.958.04 1.639a30.588 30.588 0 0 1-.808-.752c-.409-.392-.661-.633-.952-.768-9.292-3.97-19.017-5.935-28.997-5.078-4.496.379-8.936 1.382-13.374 2.386-1.872.423-3.743.846-5.618 1.222-7.278 1.444-13.698 4.697-19.367 9.532-7.605 6.447-16.041 11.141-26.164 12.135l-1.118.105h-.007c-2.014.187-4.035.375-6.001.782-1.095.188-2.182.599-3.445 1.076a67.32 67.32 0 0 1-1.88.689c.387.241.632.404.788.509l.004.002c.196.132.253.17.285.155.436-.017.861-.057 1.28-.097.495-.047.981-.093 1.466-.098 5.767-.105 11.552.267 15.051 5.6 3.446 5.221 6.749 10.578 9.347 16.201C44 118.671 51.37 127.638 60.388 135.409c.267.236.63.348 1.006.464.127.04.255.079.381.124-1.027-1.728-2.287-3.069-3.689-4.274-7.365-6.477-12.657-14.422-17.575-22.891-1.249-2.135-2.33-4.388-3.414-6.649-3.045-6.348-6.119-12.756-13.03-16.778 4.398.2 8.456 1.474 12.458 2.731 4.241 1.332 8.419 2.644 12.868 2.635a4016.31 4016.31 0 0 0-15.077-4.67c-2.56-.788-5.156-1.588-7.807-2.409 8.254-1.284 14.962-4.95 20.916-10.06 6.808-5.791 14.606-9.351 23.246-11.719 13.65-3.774 27.124-4.418 40.603.058 2.723.924 5.554 2.074 7.783 3.856 4.954 4.02 9.878 8.124 14.148 12.746 8.265 8.958 14.356 18.878 12.545 31.993-.463 3.405 1.268 6.323 4.366 8.038 1.992 1.133 4.156 2.045 6.295 2.761 5.17 1.772 10.389 3.482 15.595 5.188l.029.01c1.696.555 3.391 1.111 5.082 1.667.905.293 1.823.55 2.753.81.498.139.999.279 1.503.426.101-.152.195-.318.29-.484.094-.166.188-.332.29-.483-.526-.501-1.062-.997-1.601-1.496l-.001-.001a114.651 114.651 0 0 1-2.269-2.138c-2.239-2.181-4.661-4.162-7.085-6.144-4.406-3.602-8.815-7.207-12.127-12.023-2.665-3.941-5.595-7.755-8.499-11.535l-1.137-1.482c-.518-.654-1.703-1.546-2.378-1.364-1.913.492-2.566-.445-3.319-1.888-4.224-8.175-10.066-15.236-17.342-20.648-6.117-4.576-7.388-10.759-8.401-17.272-1.47-9.477.679-18.487 2.856-27.615 1.112-4.662 2.231-9.356 2.879-14.157.166.263.327.505.478.734.371.557.686 1.032.875 1.532.646 1.765 1.314 3.519 1.981 5.271l.001.002.002.005.001.002v.002l.001.001v.001c1.517 3.986 3.031 7.962 4.287 12.028.345 1.136.715 2.276 1.085 3.42 1.486 4.586 2.99 9.227 3.007 13.82.004 13.291 4.236 25.132 9.816 36.75.362.762.937 1.46 1.504 2.145.23.28.46.558.673.838.128-.096.262-.177.397-.258.134-.081.269-.162.397-.258-.608-1.281-1.226-2.551-1.842-3.819l-.002-.004h-.001c-1.231-2.532-2.459-5.055-3.598-7.65-3.715-8.417-6.109-17.114-5.722-26.368.068-1.901-.088-3.836-.639-5.582-2.725-8.955-5.45-17.91-8.484-26.788-.799-2.287-1.918-4.488-3.035-6.688-.508-1-1.016-1.998-1.493-3.005.985-.259 1.401-.11 1.592.145 4.666 5.75 10.72 9.317 17.518 12.117.999.412 2.008.807 3.018 1.203h.001c4.908 1.923 9.833 3.853 13.698 7.762 1.324 1.336 2.682 2.619 4.033 3.896l.001.001.002.002h.001l.003.004.002.001.001.002h.002l.001.002a187.285 187.285 0 0 1 3.608 3.47c1.189 1.197 2.364 2.4 3.539 3.603l.02.021ZM148.74 94.537c6.661 12.144 16.399 21.58 26.415 31.162-3.433-1.106-6.874-2.192-10.314-3.278-3.441-1.086-6.881-2.171-10.314-3.278-5.253-1.732-7.037-4.763-7.174-10.307-.071-2.848-.446-5.702-.821-8.548-.192-1.463-.384-2.924-.534-4.38-.045-.47.085-.937.218-1.411.072-.26.146-.524.191-.791.232.069.497.123.764.177.662.134 1.338.271 1.569.654Z" fill="#94B2A4"/><path d="M308.821 81.682a18738.796 18738.796 0 0 1-31.389 29.292c-.096-.058-.186-.102-.276-.146-.09-.044-.181-.088-.277-.146.483-.632.933-1.298 1.383-1.962.862-1.274 1.719-2.54 2.788-3.548 3.099-2.899 6.275-5.723 9.454-8.55l.015-.013c3.901-3.468 7.807-6.942 11.58-10.561 3.283-3.15 6.019-6.871 8.698-10.566 2.226-3.067 4.336-6.213 6.447-9.36a498.006 498.006 0 0 1 3.942-5.815c.663-.938 1.686-1.7 3.04-2.204a3.91 3.91 0 0 0-.119.424c-.065.269-.127.525-.297.743-4.883 6.055-6.903 13.037-7.845 20.685-.741 6.03.661 11.32 3.437 16.442 1.186 2.207 2.145 4.522 3.104 6.836.373.931.406 2.023.103 3.136-.911-2.015-1.951-3.994-2.99-5.974-3.842-7.319-7.686-14.641-5.096-23.772-21.772 35.116-29.577 72.816-22.363 113.57-3.34-8.94-3.929-18.355-3.651-27.696.224-9.454.757-18.985 2.294-28.3a168.898 168.898 0 0 1 6.915-27.168c2.19-6.141 4.97-12.094 7.665-17.864l.001-.001.001-.002a429.647 429.647 0 0 0 3.436-7.48Zm-8.203 151.645c.243.073.527.158.856.293-.811-2.831-1.59-5.633-2.361-8.406l-.001-.001v-.003l-.001-.003-.001-.001v-.003c-1.935-6.954-3.82-13.731-6.022-20.356-.793-2.255-3.484-4.717-5.848-5.466-9.119-2.875-12.866-9.753-14.959-18.108-.575-2.292-.992-4.629-1.409-6.965-.484-2.707-.967-5.413-1.694-8.042-3.858-13.68-3.023-26.955 2.314-40.081.289-.703.429-1.427.572-2.171l.035-.176.064-.325c-.985.259-1.356.643-1.505 1.06-3.152 8.973-6.251 18.06-4.856 27.715 1.538 10.834 3.273 21.643 5.88 32.247 1.777 7.397 6.214 13.393 14.14 15.796 4.116 1.233 6.206 4.326 7.187 8.292.168.645.343 1.304.518 1.964l.001.006c.175.661.351 1.323.519 1.97.568 2.291 1.157 4.59 1.745 6.888l.002.007a915.28 915.28 0 0 1 1.745 6.889 3.248 3.248 0 0 1-.367.246c-.121.074-.249.152-.371.242-1.879-1.809-3.823-3.562-5.765-5.314-4.381-3.95-8.755-7.895-12.363-12.467-9.271-11.833-20.24-21.915-31.209-31.999-7.094-6.521-14.189-13.043-20.825-20.038-.471-.491-1.063-.892-1.764-1.366a40.243 40.243 0 0 1-1.02-.707c.003.297-.001.529-.005.71v.003c-.008.363-.011.518.063.576 1.883 1.921 3.732 3.894 5.583 5.871 4.48 4.781 8.976 9.58 14.019 13.704 11.38 9.31 21.073 20.093 30.828 30.945l1.872 2.082c5.175 5.769 10.664 11.225 16.164 16.692l.002.002a916.737 916.737 0 0 1 7.373 7.384c.185.212.47.297.864.414Zm-15.448-4.579c-1.01-.719-2.013-1.431-2.658-2.405-4.181-6.187-9.706-10.975-15.428-15.739-3.879-3.214-7.211-7.173-10.403-11.129-4.038-5.009-9.282-7.16-15.487-7.541-2.033-.128-4.062-.3-6.089-.471-3.88-.327-7.751-.654-11.629-.68-5.194-.038-10.358.282-15.547.605-1.127.07-2.256.14-3.386.206-.664.025-1.292.337-1.831.604l-.005.002c-.233.115-.45.222-.646.294a462.623 462.623 0 0 0 4.689 6.152l.001.002.003.003.002.003.002.002.001.002.003.004.005.006.001.002c3.417 4.432 6.783 8.798 9.775 13.405 4.556 6.979 5.004 15.075 5.006 23.107a5.23 5.23 0 0 1-.535.114c-.175.032-.351.063-.534.115-.068-.29-.162-.585-.255-.879-.187-.588-.374-1.177-.362-1.736.129-14.325-6.355-25.513-16.483-35.041-1.14-1.09-2.034-2.429-2.936-3.782-.401-.6-.804-1.204-1.23-1.79a29 29 0 0 0 1.927-.902c1.5-.745 3.002-1.492 4.531-1.538 6.443-.286 12.819-.126 19.28.064 2.002.041 4.001.176 5.997.311 2.885.195 5.762.389 8.626.3 7.811-.174 13.645 3.221 18.849 8.646 2.73 2.799 5.597 5.474 8.46 8.145l.007.007.001.001c2.509 2.34 5.013 4.677 7.419 7.091 3.556 3.575 6.943 7.311 10.343 11.061a1071.66 1071.66 0 0 0 3.097 3.406 5.691 5.691 0 0 0-1.059 1.125c-.477-.41-1.001-.782-1.522-1.152Zm.659 40.059c-4.1.699-7.551 2.474-9.926 6.371.15.017.273.034.371.048.286.039.368.05.328-.034.309-.077.592-.211.848-.402 6.614-5.907 13.938-5.504 21.566-2.267.872.378 1.739.769 2.606 1.161 2.166.978 4.334 1.957 6.576 2.723 8.125 2.82 16.207 1.527 24.249.24 1.886-.302 3.769-.604 5.65-.852 3.143-.382 3.753-4.203.916-6.389-8.844-6.675-17.772-13.381-26.991-19.532a199.297 199.297 0 0 0-4.341-2.795l-.001-.001-.001-.001c-5.462-3.452-10.931-6.908-15.019-12.184-.563-.702-1.204-1.306-1.844-1.91-.32-.302-.641-.604-.951-.919a3.5 3.5 0 0 0-.286.274 3.658 3.658 0 0 1-.285.274c.186.287.342.588.496.883.272.523.536 1.03.939 1.414 1.067.984 2.113 1.993 3.158 3.001 2.694 2.601 5.381 5.193 8.382 7.312 2.623 1.847 5.37 3.512 8.116 5.176 5.742 3.48 11.479 6.957 16.067 12.088.427.444 1.008.762 1.585 1.077.35.191.699.382 1.011.599.692.496 1.393.987 2.094 1.479 1.952 1.37 3.913 2.746 5.735 4.225.663.541 1.131 1.292 1.73 2.252.321.515.68 1.09 1.126 1.724-1.65.252-3.208.503-4.704.744l-.008.001-.06.01-.004.001-.018.003-.006.001c-3.15.507-6.026.971-8.899 1.307-2.806.362-5.638.667-8.376.442-6.175-.464-11.984-2.347-17.58-5.094-4.489-2.163-9.25-3.298-14.249-2.45Zm-106.085-75.628c-.53.047-1.063.089-1.598.131-1.273.1-2.557.201-3.841.371-22.95 2.855-44.901 8.836-64.93 20.622-7.704 4.485-15.51 8.465-23.933 11.145-.23.076-.463.158-.697.242-1.709.609-3.54 1.262-6.019-.242 1.076-.346 2.066-.676 3.002-.987l.002-.001c1.83-.609 3.452-1.148 5.11-1.614 6.21-1.763 11.753-4.858 17.308-7.96 2.25-1.256 4.503-2.514 6.803-3.685 14.847-7.528 29.879-14.52 46.789-16.24 3.492-.35 6.967-.966 10.448-1.583h.002c2.053-.364 4.109-.728 6.171-1.039 1.207-.188 2.463-.133 3.699-.079.545.024 1.087.047 1.618.05.078.309.072.589.066.869Zm-28.199 93.549c-.328.15-.655.3-.977.403.089.187.152.365.209.524.041.115.078.22.12.313l.009.02.008.018c16.379.955 31.648-2.618 46.105-10.238 9.904-5.251 16.202-13.432 19.665-23.938.142-.499.216-1.05.288-1.586l.001-.004.001-.009c.02-.147.039-.293.06-.437-.904.429-1.249.87-1.457 1.453-2.412 7.03-6.23 12.996-12.065 17.772-5.75 4.666-12.113 7.892-19.045 10.211-10.145 3.427-20.401 5.453-31.165 4.95-.575.006-1.168.278-1.757.548Zm28.277-234.977c.547 1.696 1.188 3.376 1.828 5.058 2.468 6.475 4.936 12.954 2.096 20.293-.856 2.137-2.215 4.235-3.815 5.825-3.143 3.153-6.424 6.163-10.002 8.691-4.742 3.288-10.074 2.702-15.357 1.053-.468-.167-.956-.28-1.735-.46l-.631-.148c2.019 6.052 6.136 9.993 10.129 13.815l.007.006.674.646c2.812 2.689 5.795 5.178 8.835 7.715 1.617 1.35 3.251 2.713 4.883 4.127-.15-.011-.289-.015-.419-.019-.307-.008-.559-.015-.754-.117-10.26-5.866-18.263-13.979-24.038-24.257-.316-.57-.321-1.288-.326-2.005-.003-.387-.006-.773-.057-1.137.375.037.758.037 1.137.037.721.001 1.429.002 2.047.253 7.013 3.252 14.871 2.155 21.288-5.043.284-.322.569-.642.854-.963 4.145-4.66 8.228-9.25 7.139-16.054-.517-3.264-1.47-6.476-2.418-9.671-.323-1.092-.647-2.182-.952-3.271-.274-1.02-.661-2.025-1.05-3.039-.127-.33-.254-.66-.377-.992l.136-.039c.309-.087.582-.163.878-.304Zm-47.574 62.895c1.787.679 3.575 1.358 5.343 2.075.145-.277.235-.527.353-.86-2.133-.936-4.265-1.879-6.396-2.823-21.886-9.688-43.779-19.378-68.306-20.805.465.541.992.776 1.578.844 20.397 2.858 39.742 9.191 58.339 17.888 2.959 1.352 6.024 2.516 9.089 3.681Zm6.197 173.142c2.119.264 4.277.532 6.634-.408-4.123-2.268-9.217-2.205-10.162.181 1.182-.065 2.349.08 3.528.227Zm137.56-175.023c-.44 2.495-1.261 4.23-2.067 5.933-.448.948-.892 1.886-1.263 2.94-.569-1.978 1.111-6.413 3.33-8.873Zm-81.164-12.746c-.302-1.557-.605-3.117-1.46-4.5.17 2.744.986 6.457 2.356 7.884-.449-1.076-.672-2.229-.896-3.384ZM77.102 226.843c-.753.173-1.49.459-2.226.745-1.766.685-3.536 1.372-5.552.521-.039-.155-.07-.331-.102-.506a.686.686 0 0 0-.003-.019l-.024-.134a9.495 9.495 0 0 0-.033-.171l-.007-.034-.007-.031a3.903 3.903 0 0 0-.027-.117 346.62 346.62 0 0 1 3.851-.858h.003c1.285-.281 2.57-.562 3.849-.857.101.506.203 1.011.278 1.461Zm194.054 55.26a467.33 467.33 0 0 1-1.523 2.627c1.002.558 2.448-1.132 2.993-2.142a323.562 323.562 0 0 0 1.649-3.107c-.812-.375-1.964.624-2.412 1.398l-.707 1.224Zm52.533-174.991c.191.779.42 1.62.648 2.462.13.479.261.959.384 1.427.151.573-.018 1.463-.571 1.676l-.001-.001c-.32-1.086-.64-2.173-.943-3.252-.204-.727-.24-2.095.483-2.312Z" fill="#94B2A4"/><path d="M209.982 124.466v-.003l-.001-.003c-.151-1.59-.304-3.192-.484-4.798 10.123 7.845 20.768 5.906 27.088-4.279 5.199-8.341 4.393-17.15 2.115-26.16a50.724 50.724 0 0 1-1.515-12.482c.02-2.338.336-4.68.651-7.018.395-2.937.79-5.869.598-8.779-.557-8.72 1.632-16.877 3.876-25.06l.642-3c-6.095 7.176-13.635 11.306-22.094 13.936-5.769 1.769-9.847 5.362-12.177 10.752-3.15 7.438-7.618 13.98-12.335 20.434-2.76 3.834-4.572 11.115-3.5 16.382.072.356.431-.55.431-.55-.561-4.927 1.354-12.047 4.747-16.213 5.046-6.195 8.993-13.112 12.251-20.464 2.01-4.616 5.791-7.239 10.476-9.116 3.331-1.303 6.543-2.919 9.747-4.531h.001c1.6-.805 3.197-1.609 4.806-2.372.449-.213.982-.397 1.514-.58.095.128.198.234.3.341.103.107.205.214.3.342l-1.235 1.547c-2.516 3.15-5.013 6.279-7.632 9.363-10.455 12.354-17.379 26.49-21.02 42.177-.628 2.57-.621 5.305-.613 8.047v.001c.004 1.345.008 2.692-.064 4.022 2.373-26.49 16.268-46.972 32.268-65.482-.199 2.3-.431 4.694-.669 7.145-.359 3.692-.73 7.515-1.021 11.35-.112 1.466-.113 2.94-.114 4.405v.001c-.001 2.403-.002 4.784-.495 7.079-1.587 7.249-.631 14.052 1.349 21.13 2.685 9.577 1.757 18.794-5.489 26.447-6.593 6.998-15.916 6.79-22.237-.44-.163-.187-.361-.315-.631-.492a11.122 11.122 0 0 1-.851-.602c-.771 11.147.787 21.396 5.476 30.99.816 1.722 2.396 3.05 3.984 4.385.754.634 1.51 1.269 2.187 1.949.183-.121.36-.257.536-.392.177-.136.353-.272.537-.393-9.658-7.556-10.654-18.007-11.703-29.016Z" fill="#94B2A4"/><path d="m205.289 139.007.001-.058c.186-7.647.369-15.159.359-22.646.019-.917-.881-1.953-1.618-2.802l-.115-.132c-.596-.628-1.245-1.171-1.928-1.743-1.826-1.528-3.898-3.262-5.849-7.375 2.927 4.12 5.836 6.046 8.406 7.746l.349.232.175.116c1.714 1.167 2.129 2.472 2.168 4.57-.006 4.974.154 9.937.314 14.896v.006c.067 2.055.133 4.11.187 6.165.027.874-.091 1.727-.207 2.562-.027.193-.054.386-.078.578-.355-.094-.731-.145-1.104-.196-.696-.094-1.385-.187-1.916-.557-6.236-4.464-12.469-9.016-18.689-13.557l-.002-.001-.002-.002a9665.74 9665.74 0 0 0-4.851-3.541c-.626-.454-.999-1.097-1.172-2.039a4145.332 4145.332 0 0 0 25.572 17.778ZM55.808 91.41c-1.173-.057-2.4-.118-3.725-.181 1.395 2.378 5.551 2.722 8.448.41a1470.2 1470.2 0 0 1-4.722-.228Zm8.02 45.323c1.038.619 1.998 1.194 2.915 1.743 1.28.766 2.478 1.483 3.694 2.206-3.288.32-6.48-1.72-6.609-3.949ZM177.743 49c.174.578.354 1.173.661 1.736 1.022-1.985-.69-5.364-3.684-6.76.328.598.756 1.143 1.191 1.695.448.57.903 1.149 1.257 1.8.254.466.412.99.575 1.53Zm38.906 198.758c.38-1.453.733-2.797 1.071-4.083.471-1.793.912-3.472 1.353-5.174 1.885 3.746.535 8.267-2.424 9.257Zm164.703 50.505-.023-.012-.11-.062c-9.002-5.009-18.178-10.115-26.874-15.051-.54-.3-.657-.602-.843-1.079-.071-.182-.152-.39-.27-.633 9.688 6.059 19.655 10.907 29.674 15.78h.001c5.641 2.744 11.314 5.819 16.197 8.638l-.532 2.039c-5.747-3.193-11.475-6.423-17.22-9.62Z" fill="#94B2A4"/></svg>