<svg width="439" height="321" fill="none" xmlns="http://www.w3.org/2000/svg"><path d="M2.749 204.91s22.95-5.577 34.244-10.051c4.424-1.751 9.307-2.894 13.996-2.925 8.341.848 16.59-1.931 24.25-5.18 7.69-3.299 15.6-5.992 23.556-8.7l.993-.338c4.869-1.674 9.649-3.345 12.81-7.763.616-.87 1.237-1.738 1.859-2.607 2.695-3.77 5.4-7.554 7.779-11.535 4.962-8.402 4.132-9.708-4.978-12.926-11.164-3.962-19.399-11.008-20.653-23.676-.946-9.268-.028-18.319 4.626-26.669l1.21-2.19c4.776-8.653 9.524-17.256 16.605-24.375 3.363-3.45 6.593-6.94 9.82-10.518.769-.873 1.175-1.437 1.675-2.13.226-.315.471-.655.778-1.063.157.107.133.45.108.794-.024.344-.048.687.109.794-3.271 4.693-7.082 8.938-10.892 13.18-5.194 5.785-10.384 11.566-14.195 18.47-5.245 9.428-9.12 18.776-8.751 29.741.359 10.522 4.896 18.371 14.138 23.267 2.203 1.164 4.615 1.902 7.019 2.638h.001c1.169.358 2.336.715 3.475 1.12 4.064 1.444 5.341 4.642 3.629 8.624-3.715 8.724-9.321 16.17-15.827 23.019-1.422 1.496-3.333 2.873-5.309 3.499-2.256.716-4.527 1.392-6.798 2.069-7.802 2.323-15.608 4.648-22.841 8.604-7.418 4.084-17.363 6.286-24.456 5.76-4.377.157-8.958.982-13.076 2.592C26.205 200.874 2.9 206.643 2.9 206.643l-.152-1.733Zm101.368 22.565c.068.475.141.948.214 1.422.219 1.422.438 2.843.508 4.268.44 8.53.172 17.077-2.136 25.411-3.885 14.171-4.49 28.524-1.641 42.966.15.721.253 1.494.408 2.662.053.399.112.844.181 1.349a99.54 99.54 0 0 0-.832-1.058c-.486-.613-.796-1.003-1.046-1.416-3.725-6.275-9.036-11.015-14.358-15.763-.888-.793-1.776-1.585-2.657-2.386-2.447-2.238-4.012-4.587-4.232-7.989-.18-3.536-1.497-6.599-4.434-8.958-3.073-2.487-3.96-6.005-4.1-9.763-2.547-16.552 2.496-22.573 9.359-30.769v-.002c.722-.861 1.463-1.746 2.218-2.67 2.145-2.621 4.242-5.374 3.664-8.944-.256-1.365-1.406-3.061-2.572-3.651-6.007-2.382-9.299-3.617-10.06-3.786-3.293-1.438-6.612-2.874-9.908-4.186l-.072-.028-.239-.096c-2.722-1.088-5.569-2.226-8.495-.115 3.697 1.098 7.314 2.176 10.878 3.237a8957.23 8957.23 0 0 0 13.303 3.956c.427.195.878.4 1.353.614 4.433 2.055 5.288 4.334 3.011 8.729-.8 1.569-1.913 3.014-3.075 4.327-8.424 9.686-12.61 15.546-10.862 33.688.01 3.806 1.211 7.536 4.198 10.115 2.887 2.57 3.681 5.721 4.564 9.222l.01.042c.595 2.462 1.899 4.995 3.543 6.989 1.647 1.97 3.64 3.687 5.647 5.414l.004.003c.55.474 1.103.95 1.649 1.431 8.733 7.52 14.85 16.523 16.036 28.264.033.195.119.371.202.541.047.098.094.195.129.291.265-.007.531-.014.841.023-.08-1.411-.149-2.833-.219-4.255l-.001-.01v-.01c-.07-1.422-.139-2.844-.22-4.254-.651-9.852.841-18.962 7.411-26.786 1.994-2.376 3.802-4.93 5.61-7.484 1.151-1.625 2.301-3.25 3.5-4.83 7.059-9.429 10.728-19.923 9.848-31.803-.134-1.767-.621-3.525-1.238-5.146-.016.635-.035 1.273-.053 1.912-.058 1.99-.116 3.993-.099 5.968.12 8.14-1.809 15.712-6.325 22.554-2.768 4.186-5.719 8.2-8.803 12.173-5.783 7.45-11.164 15.023-11.438 25.03-2.198-8.041-3.425-16.196-2.393-24.276.629-4.796 1.558-9.543 2.487-14.291.93-4.748 1.859-9.495 2.488-14.291.631-5.063.584-10.19.538-15.313v-.053a401.562 401.562 0 0 1-.024-4.25c.007-.927-.392-1.884-.785-2.827a16.655 16.655 0 0 1-.516-1.343c-.229.031-.413.076-.587.118l-.179.043-.12.025-.042.008-.008.002a.376.376 0 0 1-.033.005Zm237.929 15.137c14.546 8.123 29.046 16.203 43.546 24.283l.023-.039.019-.035v-.001c.106-.189.189-.339.344-.422a87.14 87.14 0 0 0-2.207-2.317l-.022-.024c-1.634-1.676-3.27-3.355-4.559-5.228-7.908-11.568-14.813-23.737-19.843-36.972-3.563-9.511-8.217-18.419-16.05-25.342-.497-.446-.999-.889-1.501-1.333-2.7-2.384-5.417-4.784-7.579-7.639-4.396-5.772-8.684-11.635-12.972-17.499l-.001-.002c-4.288-5.864-8.576-11.727-12.972-17.499-6.73-8.811-15.092-15.632-25.469-19.968-15.342-6.377-34.428-.002-42.27 16.882-2.392 5.062-4.875 10.038-9.291 13.868-1.902 1.73-3.088 2.07-5.336.712a524.3 524.3 0 0 1-1.256-.764l-.004-.002c-5.592-3.404-11.155-6.789-17.78-8.348-5.051-1.191-9.868-3.291-14.674-5.385a532.87 532.87 0 0 0-2.484-1.078c-1.209-.544-2.318-2.374-2.574-3.739-.15-.66 1.764-1.948 2.989-2.511 1.377-.627 2.799-1.181 4.222-1.736l.011-.005c1.871-.729 3.745-1.46 5.529-2.359 2.73-1.415 5.417-2.904 8.102-4.392l.009-.004c3.496-1.938 6.989-3.874 10.571-5.642 8.563-4.291 17.709-6.561 27.143-7.953 3.132-.476 6.228-1.196 9.327-1.917 3.487-.811 6.979-1.623 10.528-2.089 6.277-.853 12.62-1.22 18.955-1.588h.001a838.55 838.55 0 0 0 5.289-.317c5.433-.361 9.692 1.787 11.078 5.778 3.486 9.956 9.262 17.773 17.877 24.145 9.246 6.799 19.1 11.414 30.459 12.627 3.117.298 6.271.518 9.412.738h.001l.056.004c1.623.113 3.243.227 4.852.351.004.132-.003.276-.011.42-.007.144-.015.288-.011.421-1.59-.089-3.174-.16-4.752-.231h-.01l-.003-.001c-2.727-.122-5.436-.244-8.13-.455-16.804-1.295-30.334-9.488-41.653-21.19-3.91-4.059-6.577-9.699-8.661-15.044-1.753-4.513-4.717-6.207-8.738-5.971-10.295.574-20.587 1.325-30.776 2.604-3.9.512-7.746 1.397-11.59 2.282-2.763.636-5.526 1.272-8.307 1.769-9.339 1.655-18.061 4.932-26.354 9.393-6.853 3.672-13.797 7.257-20.741 10.843-1.064.581-2.188 1.029-3.495 1.55-.677.27-1.403.559-2.195.897.537.393 1.003.768 1.429 1.11.824.664 1.5 1.208 2.267 1.539 2.661 1.06 5.341 2.053 8.022 3.046 2.68.993 5.361 1.987 8.021 3.047.874.356 1.754.706 2.634 1.057 3.755 1.498 7.525 3.003 11.016 4.921 6.688 3.678 9.241 3.17 12.917-3.606.254-.449.485-.92.717-1.39.231-.471.462-.942.716-1.391.454-.846.899-1.699 1.346-2.553 1.425-2.728 2.858-5.471 4.578-8.042 8.522-12.786 23.324-17.104 36.765-14.086 8.368 1.91 15.437 6.64 21.778 12.319 9.738 8.733 17.528 19.153 24.796 29.941.762 1.12 1.516 2.247 2.27 3.374 4.339 6.488 8.679 12.978 14.655 18.14 6.291 5.459 11.453 11.743 15.054 19.306 1.574 3.301 3.132 6.61 4.69 9.919l.001.001.003.006v.001c3.578 7.6 7.155 15.198 10.923 22.683 4.989 9.917 11.28 18.827 21.208 24.635 1.489.9 2.716 2.195 4.101 3.656a60.924 60.924 0 0 0 2.292 2.331c-.788-.171-1.402-.274-1.926-.363-.57-.097-1.034-.175-1.498-.302-1.615-.396-3.229-.785-4.842-1.174l-.01-.003c-4.258-1.027-8.509-2.052-12.739-3.195-7.709-2.059-15.265-1.643-22.764.983a329.103 329.103 0 0 1-16.68 5.295c-10.323 2.964-20.693 5.797-31.524 6.208-11.046.42-21.93-1.188-32.808-2.795l-.009-.001a604.144 604.144 0 0 0-9.417-1.342c-.523-.079-.969-.457-1.418-.838a7.959 7.959 0 0 0-.607-.482l.374-.939c1.622.22 3.246.436 4.872.653 4.43.59 8.872 1.182 13.291 1.846 12.752 2.018 25.572 3.238 38.244.435 11.659-2.645 23.161-6.215 34.529-9.825 8.076-2.597 16.068-3.289 24.266-1.109 2.17.578 4.359.997 6.865 1.476h.001l.002.001.005.001.01.002c.987.189 2.023.387 3.127.608-3.612-1.797-7.1-3.519-10.509-5.201l-.002-.001-.01-.005c-5.046-2.49-9.917-4.894-14.758-7.331-12.104-6.062-22.057-12.842-22.336-15.092Z" fill="#D399A9"/><path fill-rule="evenodd" clip-rule="evenodd" d="M301.666 30.099a580.39 580.39 0 0 1-4.485 2.321c-.136-.13-.229-.304-.232-.392.061-.095.109-.201.157-.305.087-.19.17-.37.311-.46l1.145-.688c9.856-5.928 19.717-11.86 31.994-11.578 10.538.26 20.058-2.949 28.71-8.968.282-.243.614-.379 1.047-.556.297-.122.642-.262 1.051-.471a19.16 19.16 0 0 0-.287.835l-.001.002v.001c-.121.373-.201.62-.334.815-5.005 6.722-6.268 14.41-6.454 22.69-.222 12.041-2.845 23.614-9.977 33.665-.219.347-.363.765-.613 1.493-.139.406-.312.907-.548 1.546.408-.179.732-.334 1.001-.463.511-.245.826-.396 1.144-.433 10.067-.878 19.92.286 29.137 4.209 4.154 1.76 8.059 4.097 11.965 6.434 1.646.985 3.292 1.97 4.957 2.911 6.466 3.64 11.552 8.73 15.433 15.092 5.218 8.495 11.772 15.584 21.081 19.682l1.03.448.006.003c1.856.805 3.718 1.613 5.459 2.613.982.519 1.887 1.248 2.938 2.095.486.391 1.003.808 1.573 1.24-.444.109-.727.188-.908.238l-.004.001c-.228.064-.294.083-.319.059-.41-.152-.801-.323-1.187-.491a17.55 17.55 0 0 0-1.362-.55c-5.448-1.896-11.06-3.345-16.047.633-4.901 3.887-9.709 7.948-13.929 12.482-8.27 8.797-18.067 15.022-29.057 19.596-.327.141-.707.135-1.1.128a10.716 10.716 0 0 0-.401-.001c1.515-1.322 3.129-2.204 4.837-2.912 9.017-3.86 16.521-9.761 23.832-16.276 1.852-1.64 3.581-3.444 5.316-5.254 4.871-5.084 9.788-10.215 17.609-11.884-4.241-1.18-8.495-1.234-12.69-1.286-4.444-.056-8.822-.111-13.047-1.505 5.222.072 10.426.165 15.78.26 2.679.048 5.395.096 8.17.143-7.443-3.792-12.675-9.366-16.741-16.076-4.665-7.624-10.965-13.437-18.438-18.378-11.795-7.84-24.397-12.65-38.6-12.595-2.876.03-5.924.24-8.597 1.239-5.96 2.276-11.917 4.642-17.415 7.703-10.644 5.938-19.523 13.467-21.888 26.493-.621 3.379-3.175 5.613-6.653 6.277-2.246.456-4.586.649-6.842.663-5.465.073-10.956.072-16.435.071h-.03c-1.785 0-3.569-.001-5.349.002-.952-.005-1.904-.047-2.869-.089-.516-.023-1.035-.046-1.56-.063a8.057 8.057 0 0 1-.125-.55c-.038-.187-.076-.374-.125-.55a152.42 152.42 0 0 1 1.987-.922l.001-.001c.935-.429 1.88-.862 2.822-1.325 2.807-1.375 5.727-2.502 8.647-3.63 5.309-2.051 10.621-4.103 15.269-7.648 3.76-2.914 7.733-5.625 11.67-8.312l1.542-1.054c.696-.46 2.1-.939 2.685-.556 1.665 1.064 2.576.377 3.742-.76 6.561-6.451 14.312-11.34 22.911-14.216 7.239-2.443 10.373-7.922 13.364-13.796 4.35-8.547 5.115-17.778 5.891-27.13.395-4.777.794-9.585 1.674-14.35-.239.199-.467.379-.683.549-.526.414-.973.767-1.308 1.184a451.096 451.096 0 0 1-3.525 4.391l-.002.002-.003.004-.001.001-.001.002h-.001l-.001.002c-2.683 3.314-5.361 6.621-7.821 10.094a190.6 190.6 0 0 1-2.096 2.91c-2.842 3.896-5.716 7.837-7.163 12.196-4.145 12.629-11.856 22.562-20.777 31.862-.582.613-1.345 1.096-2.097 1.571a27.25 27.25 0 0 0-.901.586 4.753 4.753 0 0 0-.297-.368 4.772 4.772 0 0 1-.297-.369c.977-1.029 1.96-2.043 2.94-3.055l.004-.003v-.001c1.959-2.022 3.912-4.037 5.803-6.148 6.152-6.84 11.137-14.358 13.651-23.273.529-1.828 1.279-3.617 2.347-5.105 5.38-7.66 10.759-15.32 16.408-22.812 1.472-1.924 3.22-3.667 4.968-5.409a120.41 120.41 0 0 0 2.354-2.39c-.855-.553-1.297-.541-1.558-.358-6.225 4.01-13.089 5.513-20.421 6.055-1.078.081-2.16.142-3.242.204h-.001c-5.263.298-10.545.597-15.435 3.108-1.675.857-3.364 1.652-5.046 2.445h-.002l-.002.002h-.001l-.004.002-.002.001-.002.001h-.001l-.002.002a189.22 189.22 0 0 0-4.51 2.173 583.917 583.917 0 0 0-4.485 2.321l-.026.014Zm3.174 59.386c-10.112 9.463-22.306 15.396-34.808 21.381 3.607.018 7.214.058 10.822.098 3.607.041 7.215.081 10.822.099 5.531-.009 8.171-2.334 10.028-7.559.954-2.684 2.2-5.28 3.443-7.868.638-1.33 1.276-2.658 1.872-3.995.189-.433.211-.917.233-1.408.012-.27.024-.544.065-.812a9.168 9.168 0 0 1-.782-.07c-.67-.078-1.356-.159-1.695.133Z" fill="#D399A9"/><path d="M156.732 27.395a18792.818 18792.818 0 0 0 20.701 37.613c.11-.025.209-.038.308-.052.099-.014.199-.027.309-.052a41.936 41.936 0 0 1-.703-2.296c-.423-1.479-.843-2.949-1.545-4.24-2.041-3.72-4.179-7.393-6.32-11.07l-.009-.016c-2.626-4.511-5.256-9.03-7.713-13.644-2.139-4.016-3.579-8.404-4.974-12.75-1.159-3.608-2.185-7.254-3.21-10.902-.634-2.253-1.268-4.508-1.934-6.754-.337-1.098-1.072-2.141-2.202-3.041.004.15-.007.296-.019.44-.022.275-.043.538.051.798 2.753 7.275 2.497 14.539 1.01 22.1-1.175 5.96-4.155 10.55-8.389 14.552-1.814 1.728-3.447 3.628-5.079 5.529-.645.769-1.016 1.796-1.075 2.948 1.494-1.63 3.098-3.188 4.703-4.746 5.93-5.757 11.864-11.517 12.248-21 9.748 40.15 5.419 78.406-14.133 114.884 5.959-7.454 9.452-16.217 12.098-25.18 2.733-9.053 5.195-18.276 6.637-27.606a168.802 168.802 0 0 0 1.893-27.97c-.167-6.518-.954-13.041-1.718-19.363v-.003a427.37 427.37 0 0 1-.935-8.18Zm-39.45 146.654a8.538 8.538 0 0 0-.905.011c1.652-2.438 3.265-4.857 4.862-7.252l.001-.001.001-.002.002-.003.001-.001.002-.002c4.005-6.006 7.907-11.858 12.064-17.467 1.456-1.896 4.78-3.397 7.259-3.372 9.561.108 15.264-5.259 19.857-12.546 1.26-1.999 2.385-4.09 3.509-6.179 1.303-2.423 2.605-4.843 4.115-7.115 7.928-11.797 11.27-24.671 10.288-38.806-.056-.758.037-1.49.132-2.242l.023-.178.04-.33c.855.554 1.089 1.035 1.1 1.477.2 9.51.313 19.109-4.02 27.849-4.838 9.815-9.854 19.546-15.634 28.81-3.994 6.475-10.078 10.79-18.358 10.605-4.295-.112-7.245 2.177-9.413 5.64-.361.56-.732 1.132-1.103 1.704l-.004.006c-.372.573-.745 1.147-1.107 1.71-1.253 2-2.529 4.001-3.804 6.002l-.004.006c-1.275 2.001-2.551 4.002-3.804 6.002.072.114.169.228.272.348.092.108.189.222.276.346 2.35-1.134 4.743-2.194 7.135-3.254 5.394-2.389 10.778-4.774 15.632-7.995 12.496-8.355 26.06-14.518 39.624-20.682 8.773-3.987 17.547-7.973 26.032-12.553.601-.32 1.288-.516 2.101-.749.37-.105.765-.218 1.19-.353-.096.281-.163.503-.216.676l-.001.003c-.106.346-.151.495-.239.527-2.388 1.239-4.76 2.538-7.135 3.839-5.746 3.148-11.514 6.307-17.591 8.655-13.714 5.301-26.284 12.528-38.934 19.8l-2.428 1.395c-6.715 3.87-13.63 7.344-20.56 10.825l-.002.001c-3.105 1.56-6.212 3.121-9.306 4.72-.243.143-.54.135-.95.125Zm16.105.461c1.184-.368 2.359-.733 3.275-1.457 5.9-4.576 12.643-7.405 19.564-10.149 4.687-1.846 9.087-4.569 13.352-7.334 5.398-3.501 11.051-3.912 17.066-2.341 1.972.512 3.953.981 5.933 1.45 3.788.897 7.569 1.793 11.261 2.977 4.948 1.581 9.755 3.495 14.585 5.418 1.05.418 2.1.836 3.154 1.251.622.231 1.122.722 1.552 1.144l.003.003c.186.183.358.352.522.481a467.242 467.242 0 0 1-6.371 4.385l-.003.002-.003.002-.003.002-.002.001-.003.002-.003.003-.006.004-.003.002c-4.627 3.147-9.185 6.246-13.464 9.692-6.504 5.212-9.452 12.766-11.955 20.397.157.106.314.191.471.275.157.085.314.169.472.276.156-.255.336-.505.516-.756.361-.501.722-1.002.885-1.537 4.341-13.652 13.988-22.263 26.581-28.162 1.422-.68 2.688-1.674 3.967-2.678a53.115 53.115 0 0 1 1.727-1.318 30.062 30.062 0 0 1-1.551-1.457c-1.193-1.176-2.387-2.353-3.826-2.874-6.032-2.279-12.142-4.114-18.34-5.946-1.915-.584-3.857-1.079-5.796-1.573-2.802-.713-5.596-1.425-8.289-2.402-7.368-2.599-13.97-1.191-20.605 2.343-3.466 1.81-7.024 3.458-10.576 5.104l-.009.004-.002.001c-3.112 1.443-6.221 2.883-9.258 4.427-4.493 2.289-8.876 4.784-13.275 7.288-1.332.758-2.665 1.517-4.004 2.271.277.436.511.916.656 1.399.581-.24 1.194-.431 1.805-.62Zm-13.107 37.86c3.679 1.941 6.405 4.703 7.448 9.146-.149-.03-.271-.052-.368-.07-.284-.052-.365-.067-.301-.134a2.383 2.383 0 0 1-.681-.646c-4.445-7.674-11.529-9.573-19.786-8.874-.946.088-1.892.19-2.838.291-2.363.255-4.728.51-7.097.539-8.6.149-15.876-3.598-23.117-7.326a205.213 205.213 0 0 0-5.104-2.57c-2.867-1.342-2.257-5.164 1.12-6.357 10.484-3.587 21.057-7.177 31.733-10.151 1.656-.461 3.325-.882 4.996-1.303h.001l.002-.001c6.266-1.578 12.539-3.159 18.067-6.899.754-.491 1.551-.866 2.348-1.24.398-.187.797-.374 1.19-.576.069.109.127.229.186.349.058.12.116.24.186.349-.267.215-.509.452-.747.685-.422.412-.83.811-1.333 1.05-1.32.603-2.628 1.236-3.935 1.869-3.371 1.631-6.731 3.257-10.243 4.336-3.068.938-6.197 1.664-9.325 2.39-6.54 1.518-13.075 3.034-19.034 6.48-.543.289-1.194.41-1.841.53-.393.073-.783.145-1.148.255-.812.254-1.63.503-2.45.752-2.282.694-4.574 1.39-6.766 2.228-.798.308-1.477.876-2.345 1.601-.466.389-.986.824-1.608 1.288 1.49.753 2.892 1.477 4.239 2.172l.007.004.054.028.003.001.017.009.005.002c2.835 1.465 5.423 2.801 8.049 4.016 2.553 1.217 5.15 2.39 7.821 3.029 6.012 1.483 12.12 1.504 18.292.637 4.939-.658 9.817-.252 14.303 2.111Zm124.367-38.813c.49.21.983.416 1.478.622 1.179.492 2.367.988 3.534 1.55 20.918 9.862 39.914 22.385 55.274 39.824 5.923 6.663 12.101 12.876 19.269 18.047.196.144.391.295.587.447 1.434 1.111 2.971 2.302 5.795 1.646a310.374 310.374 0 0 1-2.544-1.873l-.002-.002c-1.549-1.148-2.923-2.167-4.353-3.125-5.351-3.611-9.655-8.279-13.967-12.957-1.747-1.895-3.496-3.792-5.316-5.621-11.763-11.779-23.869-23.106-39.401-30.009-3.209-1.42-6.319-3.088-9.434-4.759l-.002-.001a241.27 241.27 0 0 0-5.541-2.91c-1.088-.555-2.299-.894-3.49-1.228-.525-.147-1.048-.293-1.553-.456-.17.269-.252.537-.334.805Zm-2.349 97.679c.264.245.528.488.802.687a5.61 5.61 0 0 0-.362.433 4.697 4.697 0 0 1-.211.26l-.015.016-.013.014c-15.861-4.195-29.257-12.347-40.621-24.092-7.774-8.075-11.21-17.811-11.228-28.873.021-.518.122-1.065.22-1.597l.001-.004.002-.009.078-.434c.726.69.916 1.216.932 1.835.102 7.431 1.871 14.289 5.929 20.646 4.009 6.225 9.051 11.273 14.915 15.636 8.572 6.418 17.687 11.538 28.071 14.414.545.185 1.024.628 1.5 1.068Zm46.338-232.092c-1.049 1.44-2.181 2.838-3.313 4.236-4.362 5.384-8.726 10.772-8.314 18.63.148 2.298.785 4.715 1.81 6.724 2.005 3.976 4.184 7.858 6.797 11.376 3.481 4.6 8.731 5.705 14.264 5.784.497-.012.996.032 1.792.103l.646.056c-3.804 5.122-8.944 7.584-13.929 9.972l-.008.004-.842.404c-3.51 1.679-7.12 3.115-10.799 4.578-1.957.779-3.935 1.566-5.926 2.4.146.036.28.076.404.113.294.088.536.16.753.123 11.577-2.377 21.709-7.593 30.399-15.56.478-.443.706-1.124.935-1.804.123-.366.246-.733.408-1.062a11.79 11.79 0 0 1-1.092-.319c-.685-.224-1.358-.444-2.024-.398-7.677.905-14.802-2.585-18.658-11.425-.169-.394-.34-.787-.511-1.18-2.487-5.72-4.937-11.353-1.782-17.479 1.508-2.941 3.414-5.696 5.311-8.437.647-.937 1.294-1.871 1.923-2.811.579-.883 1.259-1.719 1.945-2.56.223-.275.447-.55.668-.826l-.118-.08a5.163 5.163 0 0 1-.739-.562Zm25.611 74.586c-1.91.089-3.82.177-5.724.308a6.252 6.252 0 0 1-.068-.928c2.319-.224 4.639-.457 6.958-.689 23.815-2.387 47.637-4.775 71.388 1.511a2.33 2.33 0 0 1-1.762.311c-20.272-3.64-40.628-3.648-61.008-1.178-3.234.362-6.508.514-9.784.665Zm-59.832 162.594c-2.096-.409-4.23-.827-6.176-2.454 4.624-.871 9.445.776 9.599 3.338-1.103-.43-2.257-.656-3.423-.884ZM178.231 67.155c-.359 2.507-.12 4.412.115 6.282.131 1.04.261 2.07.285 3.187 1.157-1.703.942-6.44-.4-9.469Zm81.096 13.175c.771-1.385 1.545-2.773 2.788-3.82-1.016 2.554-2.948 5.828-4.694 6.757.761-.883 1.333-1.909 1.906-2.937Zm72.366 157.194c.662.4 1.272.9 1.882 1.401 1.465 1.202 2.933 2.406 5.114 2.225a7.577 7.577 0 0 0 .264-.466l.064-.12c.028-.051.056-.102.085-.151l.017-.031.016-.028.062-.102c-1.123-.679-2.258-1.347-3.392-2.015l-.002-.001c-1.134-.668-2.268-1.335-3.391-2.014-.254.449-.508.898-.719 1.302Zm-201.613-7.949c.215 1.024.429 2.047.63 2.971-1.127.218-1.974-1.838-2.178-2.967a346.885 346.885 0 0 1-.598-3.467c.888-.104 1.672 1.206 1.856 2.081l.29 1.382Zm4.602-182.648a107.6 107.6 0 0 1-1.384 2.138c-.273.415-.546.83-.809 1.236-.322.498-.439 1.396.021 1.77.643-.933 1.286-1.865 1.91-2.797.42-.627.881-1.916.262-2.347Z" fill="#D399A9"/><path d="M237.323 98.843v-.002l.002-.003a281.58 281.58 0 0 1 1.955-4.408c-12.064 4.3-21.575-.859-24.407-12.506-2.341-9.545 1.169-17.665 6.14-25.517 2.21-3.5 4.056-7.43 5.329-11.389.709-2.227 1.139-4.55 1.568-6.871.539-2.914 1.077-5.823 2.167-8.528 3.246-8.113 3.708-16.546 4.124-25.021l.325-3.05c3.556 8.717 9.434 14.99 16.652 20.125 4.931 3.479 7.687 8.163 8.222 14.012.675 8.048 2.883 15.657 5.355 23.26 1.427 4.502.881 11.985-1.779 16.657-.179.315-.238-.658-.238-.658 2.068-4.507 2.467-11.869.541-16.885-2.865-7.459-4.46-15.261-5.267-23.262-.471-5.012-3.246-8.682-7.114-11.926-2.758-2.276-5.307-4.812-7.85-7.342l-.001-.002a235.191 235.191 0 0 0-3.827-3.75c-.361-.343-.81-.683-1.258-1.023-.13.092-.261.161-.392.231s-.261.14-.391.231l.692 1.855c1.408 3.778 2.806 7.528 4.335 11.275 6.085 14.996 8.261 30.585 6.833 46.626-.204 2.638-1.063 5.234-1.925 7.838-.423 1.278-.846 2.556-1.193 3.842 5.999-25.91-.823-49.702-10.261-72.276a700.307 700.307 0 0 0-1.589 6.998c-.81 3.62-1.648 7.369-2.567 11.103-.35 1.429-.808 2.83-1.264 4.222-.748 2.284-1.489 4.547-1.735 6.882-.751 7.382-3.778 13.55-7.865 19.657-5.535 8.265-7.525 17.312-3.024 26.842 4.085 8.704 13.009 11.41 21.267 6.51.214-.127.441-.188.753-.271.26-.07.579-.155.997-.307-2.741 10.832-7.415 20.086-14.859 27.742-1.312 1.381-3.227 2.151-5.152 2.925-.914.367-1.83.736-2.685 1.171-.136-.173-.262-.357-.388-.541a9.588 9.588 0 0 0-.387-.54c11.531-4.17 15.734-13.791 20.161-23.926Z" fill="#D399A9"/><path d="m237.252 114.123.016-.055c2.206-7.325 4.373-14.52 6.715-21.632.268-.877 1.446-1.581 2.41-2.157l.15-.09c.762-.412 1.548-.726 2.376-1.056 2.211-.883 4.72-1.885 7.855-5.186-4.064 3.003-7.429 3.927-10.401 4.742l-.404.111-.202.056c-1.992.575-2.793 1.686-3.484 3.668-1.544 4.727-3.242 9.394-4.939 14.056l-.002.006c-.704 1.932-1.407 3.864-2.099 5.799-.297.823-.451 1.67-.601 2.5-.035.192-.069.383-.105.573.366.021.739.09 1.109.159.691.127 1.375.253 1.995.067 7.316-2.3 14.657-4.683 21.982-7.06l.002-.001.003-.001 5.713-1.853c.735-.237 1.29-.731 1.749-1.572a4176.766 4176.766 0 0 1-29.838 8.926Zm156.869 1.344 3.597.987c-2.067 1.826-6.123.858-8.156-2.242 1.498.416 2.978.821 4.558 1.255h.001Zm-21.741 40.567-3.313.749c-1.454.329-2.816.637-4.197.945 3.025 1.329 6.693.385 7.51-1.694ZM291.468 37.178c-.345.494-.701 1.004-1.168 1.443-.353-2.205 2.326-4.882 5.606-5.276-.497.466-1.075.85-1.659 1.24-.605.403-1.217.81-1.756 1.319-.386.363-.7.812-1.023 1.274Zm-98.893 176.744c.092-1.499.175-2.887.255-4.213.111-1.851.215-3.584.326-5.339-2.958 2.972-3.084 7.689-.581 9.552ZM20.334 210.6l.026-.005.124-.024c10.114-1.956 20.425-3.949 30.225-5.929.607-.118.813-.368 1.138-.764.124-.151.265-.323.453-.517-11.093 2.739-22.075 4.241-33.112 5.75h-.002c-6.215.85-12.564 2.004-18.082 3.161l-.13 2.103c6.457-1.243 12.905-2.527 19.36-3.775Z" fill="#D399A9"/></svg>