<?xml version="1.0" encoding="UTF-8"?>
<svg id="_레이어_1" data-name="레이어_1" xmlns="http://www.w3.org/2000/svg" version="1.1" viewBox="0 0 1080 1080">
  <!-- Generator: Adobe Illustrator 29.7.0, SVG Export Plug-In . SVG Version: 2.1.1 Build 138)  -->
  <defs>
    <style>
      .st0 {
        fill: #fff;
      }
    </style>
  </defs>
  <path class="st0" d="M1080,0v1080H0V0h1080ZM357.79,130.29c-109.39,6.78-195.05,96.81-197.83,206.17v292.08c1.91,59.59,28.83,118.23,74.57,156.43,6.33,5.28,21.3,13.82,25.49,18.51,3.36,3.76,6.86,14.14,9.81,19.19,35.24,60.25,97.46,100.09,167.63,105.37l315.03-.05c104.85-7.77,189.39-94.36,194.56-199.44,4.96-100.86-3.8-205.76-.06-307.04-4.09-60.66-32.91-115.26-80.09-152.91-4.65-3.71-16.4-10.31-19.33-13.67-4.64-5.33-11.93-22.99-17.16-30.84-36.81-55.27-98.31-90.06-164.87-94.13l-307.75.33Z"/>
  <g>
    <path class="st0" d="M817,238.99c-20.82-7.49-42.25-13.18-64.46-15.03l-317.03.05c-104.3,8.2-188.22,95.08-193.55,199.45,4.08,100.48-5.29,205.08,0,305.08.75,14.2,3.48,28.74,7.04,42.45-1.72.45-2-.69-3.01-1.48-43.71-34.46-65.01-92.56-67.04-146.96-3.45-92.58,2.72-187.29,0-280.09,1.45-107.21,81.39-189.07,188.49-193.51,101.08-4.19,205.72,2.42,307.04,1.06,58.44,6.26,111.37,39.44,142.51,88.98Z"/>
    <path class="st0" d="M872.44,299.55c33.16,33.34,53.16,78.59,55.6,125.91,5.08,98.45-3.93,201.19,0,300.09-4.74,97.55-81.79,177.27-179.51,183.49l-309.03-.05c-60.53-4.66-116.59-37.54-148.51-88.98,12.7,3.33,24.86,8.1,37.81,10.68,10.88,2.17,23.58,3.84,34.65,4.35,102.75,4.81,209.96-2.87,313.03-1.05,100.87-10.05,182.06-94.31,188.56-195.44v-313.09s-6.06-36.94-6.06-36.94c.8-1.54,1.74-.12,2.53.47,3.09,2.31,7.98,7.6,10.93,10.56Z"/>
    <g>
      <path d="M357.79,130.29l307.75-.33c66.56,4.07,128.07,38.86,164.87,94.13,5.23,7.86,12.52,25.52,17.16,30.84,2.93,3.36,14.68,9.96,19.33,13.67,47.18,37.65,76,92.25,80.09,152.91-3.75,101.28,5.02,206.18.06,307.04-5.17,105.08-89.7,191.67-194.56,199.44l-315.03.05c-70.17-5.28-132.39-45.12-167.63-105.37-2.95-5.05-6.46-15.43-9.81-19.19-4.19-4.69-19.16-13.23-25.49-18.51-45.74-38.2-72.66-96.84-74.57-156.43v-292.08c2.79-109.35,88.45-199.39,197.83-206.17ZM817,238.99c-31.15-49.54-84.07-82.71-142.51-88.98-101.32,1.36-205.95-5.25-307.04-1.06-107.1,4.44-187.04,86.3-188.49,193.51,2.71,92.8-3.46,187.51,0,280.09,2.03,54.4,23.33,112.5,67.04,146.96,1.01.79,1.28,1.93,3.01,1.48-3.56-13.71-6.29-28.25-7.04-42.45-5.29-100.01,4.08-204.6,0-305.08,5.33-104.37,89.25-191.25,193.55-199.45l317.03-.05c22.21,1.85,43.64,7.55,64.46,15.03ZM435.8,243.3c-98.22,9.4-170.41,88.01-174.84,186.16-4.56,101.21,2.69,206.53,1.05,308.03,2.11,13.54,4.34,27.28,8.7,40.3.82,2.45,3.3,10.04,4.4,11.6,3.49,4.98,32.81,15.97,39.89,18.11,17.94,5.41,35.78,7.41,54.45,8.55,95.56-3.24,193.79,4.17,289.04-.06,99.33-4.41,182.35-79.36,187.56-180.44,5.19-100.74-4.02-205.89,0-307.09-1.91-20.55-5.82-40.9-14.17-59.83-24.05-15.29-52.21-22.43-80.38-25.62l-315.69.29ZM872.44,299.55c-2.95-2.97-7.83-8.25-10.93-10.56-.79-.59-1.73-2.02-2.53-.47l6.06,36.94v313.09c-6.49,101.13-87.68,185.39-188.55,195.44-103.07-1.82-210.28,5.87-313.03,1.05-11.07-.52-23.76-2.19-34.65-4.35-12.95-2.58-25.11-7.35-37.81-10.68,31.92,51.44,87.98,84.32,148.51,88.98l309.03.05c97.71-6.22,174.76-85.94,179.51-183.49-3.93-98.9,5.07-201.64,0-300.09-2.44-47.32-22.44-92.57-55.6-125.91Z"/>
      <path class="st0" d="M435.8,243.3l315.69-.29c28.16,3.19,56.33,10.33,80.38,25.62,8.35,18.92,12.27,39.28,14.17,59.83-4.01,101.2,5.19,206.34,0,307.09-5.2,101.08-88.22,176.04-187.56,180.44-95.25,4.23-193.48-3.18-289.04.06-18.67-1.14-36.51-3.14-54.45-8.55-7.09-2.14-36.41-13.13-39.89-18.11-1.09-1.56-3.58-9.15-4.4-11.6-4.36-13.02-6.59-26.76-8.7-40.3,1.63-101.5-5.62-206.82-1.05-308.03,4.43-98.15,76.62-176.76,174.84-186.16ZM748.01,331c4.01-11.03,10.8-27.25,3.64-38.15-3.69-5.61-10.73-6.11-14.66-.36-7.22,10.56-.54,27.99,4,38.51-7.49-7.41-13.6-18-24.44-21.05-17.83-5.03-20.6,10.53-7.25,19.25,8.76,5.72,19.7,6.67,29.71,8.3-10.9,1.35-27.97,3.56-35,13.01-5.14,6.91-4.06,14.84,5.52,15.52,13.19.94,23.43-13.6,31.47-22.02-3.75,9.34-8.1,19.11-6.99,29.51,1.48,13.84,15.07,18.67,19.49,4.48,3.62-11.62-1.4-23.19-5.48-33.99,7.6,8.03,16.29,20.93,28.49,22s15.02-8.15,7.5-16.5-23.32-11.21-33.99-11.51l21.51-4.97c25.48-9.32,18.81-32.93-4.04-21.04-8.3,4.32-13.3,12.4-19.47,19.02ZM690,418h-34.5l-112.01,218.01-103.65-217.84-35.83-.15-48.03,301.48,42.02.52,3.01-51.49,18-148.5,95.1,198.88,24.23.16c30.77-73.23,67.76-143.57,104.16-214.06l21.95,215.07,58.56-.06-33-302Z"/>
      <path d="M690,418l33,302-58.56.06-21.95-215.07c-36.4,70.48-73.39,140.83-104.16,214.06l-24.23-.16-95.1-198.88-18,148.5-3.01,51.49-42.02-.52,48.03-301.48,35.83.15,103.65,217.84,112.01-218.01h34.5Z"/>
      <path d="M748.01,331c6.17-6.62,11.17-14.71,19.47-19.02,22.85-11.88,29.52,11.72,4.04,21.04l-21.51,4.97c10.67.31,26.55,3.27,33.99,11.51s4.21,17.54-7.5,16.5-20.89-13.97-28.49-22c4.08,10.8,9.1,22.36,5.48,33.99-4.42,14.19-18.02,9.35-19.49-4.48-1.11-10.39,3.24-20.17,6.99-29.51-8.04,8.42-18.28,22.96-31.47,22.02-9.57-.68-10.66-8.61-5.52-15.52,7.04-9.45,24.1-11.66,35-13.01-10-1.63-20.95-2.59-29.71-8.3-13.35-8.71-10.59-24.28,7.25-19.25,10.83,3.05,16.95,13.64,24.44,21.05-4.54-10.52-11.22-27.95-4-38.51,3.93-5.74,10.97-5.25,14.66.36,7.16,10.9.37,27.12-3.64,38.15Z"/>
    </g>
  </g>
</svg>